<?xml version="1.0" encoding="UTF-8"?><svg id="Capa_1" xmlns="http://www.w3.org/2000/svg" viewBox="0 0 512 512"><defs><style>.cls-1{fill:#fff;}</style></defs><path class="cls-1" d="m343.46,213.29c4.03,0,7.73-.14,11.41.09,1.04.07,2.28,1.01,2.98,1.9,12.86,16.42,25.64,32.9,38.45,49.36.5.65,1.04,1.27,2.06,2.5,0-1.57,0-2.44,0-3.31,0-15.82.05-31.63-.09-47.45-.02-2.64.76-3.34,3.26-3.15,2.84.22,5.72.1,8.58.03,1.35-.03,1.97.34,1.97,1.83-.05,25.32-.06,50.64-.09,75.96,0,.08-.05.16-.25.7-3.54,0-7.28.09-11-.08-.68-.03-1.41-1.1-1.96-1.8-13.19-16.91-26.36-33.84-39.54-50.76-.51-.65-1.07-1.26-2.12-2.49,0,1.55,0,2.41,0,3.27.01,15.65.02,31.3.04,46.94q0,5.01-5.13,5c-2.84,0-5.67,0-8.58,0v-78.56Z"/><path class="cls-1" d="m234.12,222.73c-2.72,3.27-5.36,6.41-7.97,9.57-1.15,1.39-1.92.24-2.7-.41-5.22-4.36-11.28-6.6-18.02-6.98-13.63-.76-24.87,8.6-27.19,22.52-1.04,6.24-.34,12.26,2.25,18,5.21,11.55,17.39,17.26,30.76,14.2,3.55-.81,6.93-2.46,10.25-4.02.85-.4,1.64-1.88,1.69-2.89.19-4.09.08-8.19.08-12.5h-19.89v-12.08h33.46c0,.85,0,1.74,0,2.63,0,9.17-.06,18.34.05,27.51.03,2.07-.58,3.35-2.26,4.59-12.35,9.1-26.09,12.4-41.01,9.11-16.2-3.57-26.29-13.88-29.51-30.15-3.37-17.04,1.52-31.46,15.55-42.22,6.16-4.73,13.34-6.97,21.08-7.46,11.46-.72,22.08,1.5,31.27,8.82.65.52,1.27,1.06,2.11,1.75Z"/><path class="cls-1" d="m91.44,291.85v-78.41c.85-.05,1.65-.13,2.45-.14,17.75,0,35.5.02,53.25-.05,2.03,0,2.87.46,2.76,2.64-.17,3.25-.04,6.51-.04,9.94h-44.27c-.08,1.05-.19,1.93-.2,2.81-.02,4.88.07,9.76-.05,14.64-.05,2.01.43,2.77,2.64,2.74,11.27-.13,22.55,0,33.82-.15,2.47-.03,3.25.72,3.05,3.12-.19,2.34-.18,4.72,0,7.06.16,2.1-.72,2.55-2.63,2.53-11.27-.08-22.55,0-33.82-.13-2.44-.03-3.16.65-3.07,3.09.19,5.04.16,10.1,0,15.14-.06,2.17.71,2.67,2.75,2.65,13.21-.09,26.42-.03,39.62-.12,2.05-.01,2.88.51,2.72,2.67-.18,2.43-.17,4.89,0,7.31.15,2.15-.67,2.69-2.72,2.68-15.14-.07-30.29-.04-45.43-.04-3.52,0-7.04,0-10.85,0Z"/><path class="cls-1" d="m247.8,291.87c3.23-7.35,6.23-14.18,9.22-21.01,8.09-18.47,16.2-36.93,24.21-55.43.87-2,1.89-2.86,4.11-2.7,2.76.2,5.56-.09,8.32.13.92.07,2.21.87,2.57,1.68,11.1,25.13,22.11,50.3,33.12,75.46.19.44.28.92.55,1.82-4.75,0-9.26.06-13.76-.08-.55-.02-1.27-.99-1.56-1.66-2.05-4.7-4.1-9.4-5.94-14.17-.83-2.15-2.14-3.01-4.36-3-10.69.05-21.37.07-32.06.03-1.55,0-2.22.68-2.76,2-2.08,5.05-4.2,10.08-6.43,15.06-.35.77-1.33,1.76-2.05,1.79-4.19.17-8.38.08-13.17.08Zm54.36-31.33c-4.46-10.25-8.82-20.27-13.41-30.82-4.55,10.58-8.85,20.59-13.25,30.82h26.66Z"/><path class="cls-1" d="m.4,213.3c4.89,0,9.5-.09,14.1.09.74.03,1.78,1.12,2.1,1.95,7.14,17.95,14.2,35.94,21.28,53.92.43,1.08.87,2.15,1.53,3.77.76-1.76,1.37-3.06,1.89-4.39,6.79-17.37,13.63-34.72,20.29-52.14.97-2.55,2.24-3.43,4.92-3.25,3.68.25,7.39.06,11.5.06-.41,1.17-.69,2.1-1.06,2.99-10.16,24.62-20.35,49.22-30.45,73.86-.73,1.79-1.67,2.41-3.54,2.29-2.43-.16-4.89-.15-7.32,0-1.85.11-2.81-.47-3.56-2.28-10.24-24.86-20.58-49.67-30.88-74.5-.28-.67-.47-1.38-.8-2.34Z"/><path class="cls-1" d="m500.71,215.66c-3.04,19.95-26.35,42.36-50.92,36.62,3.58-20.37,26.14-41.75,50.92-36.62Z"/><path class="cls-1" d="m432.7,210.43c13.7,7.29,19.85,24.37,13.57,37-1.57,3.17-1.74,3.22-4.48,1.14-8.7-6.57-13.92-14.97-13.39-26.2.2-4.3,1.41-8.38,4.31-11.94Z"/><path class="cls-1" d="m466.44,291.77c-3.24.94-5.16-.37-6.96-2.83-4.52-6.16-9.3-12.11-14.48-18.8v21.73h-5.48v-30.68c3.82-1.11,4.99-.77,7.29,2.2,4.57,5.9,9.14,11.81,14.17,18.3v-20.77h5.47v30.85Z"/><path class="cls-1" d="m498.39,283.28c1.19,1.23,2.29,2.37,3.37,3.49-3.14,4.7-10.49,6.95-16.99,5.23-6.58-1.73-11.13-7.45-11.58-14.55-.45-7.09,3.55-13.67,9.79-16.1,6.63-2.59,14.47-.99,18.64,3.93-1.11,1.3-2.23,2.63-3.35,3.94-7.63-4.86-12.69-4.85-16.61-.01-3.5,4.3-3.21,10.94.64,15.02,3.94,4.17,9.5,3.91,16.1-.95Z"/><path class="cls-1" d="m456.48,224.16c-6.92-8.78-4.03-23.57,5.62-28.72,6.9,8.91,4.39,25.03-5.62,28.72Z"/><path class="cls-1" d="m431.12,260.95v30.89h-5.21v-30.89h5.21Z"/><path class="cls-1" d="m512.4,291.9h-5.76v-6.06h5.76v6.06Z"/></svg>