<?xml version="1.0" encoding="UTF-8"?><svg id="Capa_1" xmlns="http://www.w3.org/2000/svg" viewBox="0 0 512 512"><defs><style>.cls-1{fill:#fff;}</style></defs><path class="cls-1" d="m256.72,510.13c-75.8,0-151.61,0-227.41,0-13.87,0-24.52-7.63-27.83-20.08-.72-2.71-1.04-5.6-1.04-8.41-.07-151.49-.08-302.98-.09-454.47,0-17.03,11.63-28.66,28.74-28.67,62.28-.03,124.56,0,186.84-.01,88.99-.02,177.97-.06,266.96-.09,14.34,0,25.03,7.58,28.39,20.3.69,2.6.97,5.38.97,8.08.07,151.6.09,303.21.1,454.81,0,16.3-10.93,27.69-27.2,28.47-1.47.07-2.95.06-4.43.06-74.67,0-149.33,0-224,0ZM9.68,254.34h.04c0,75.69,0,151.37,0,227.06,0,11.9,7.49,19.48,19.27,19.48,151.38,0,302.75,0,454.13,0,12.53,0,19.89-7.39,19.89-19.91-.01-151.26-.02-302.52-.04-453.78,0-12.01-7.51-19.49-19.61-19.49-151.49,0-302.98.02-454.47.04-1.58,0-3.2.04-4.74.37-9.05,1.94-14.47,9.13-14.47,19.17,0,75.69,0,151.37,0,227.06Z"/><path class="cls-1" d="m159.07,390.04c.02-6.02-.38-11.61,2.34-17.35,28.57-60.3,56.9-120.72,85.22-181.14,1.1-2.35,2.29-3.53,5.06-3.28,3.15.29,6.37.24,9.54.01,2.45-.17,3.55.82,4.56,2.97,25.13,53.52,50.33,107,75.52,160.49,3.14,6.67,5.97,13.53,9.55,19.96,3.26,5.86,3.05,11.89,2.71,18.34h-194.49Zm173.03-18.17c-25.31-52.83-50.36-105.13-75.7-158.04-25.51,53.06-50.68,105.39-75.99,158.04h151.7Z"/><path class="cls-1" d="m421.21,135.38c-4.71,0-8.42-3.71-8.45-8.43-.03-4.69,3.66-8.51,8.33-8.6,4.72-.09,8.76,3.92,8.69,8.64-.07,4.62-3.92,8.39-8.57,8.38Z"/><path class="cls-1" d="m99.97,126.88c.03,4.71-3.66,8.47-8.36,8.52-4.68.05-8.55-3.64-8.67-8.28-.13-4.68,3.9-8.78,8.61-8.75,4.62.03,8.4,3.84,8.43,8.52Z"/><path class="cls-1" d="m209.88,127.08c-.08,4.7-3.85,8.34-8.57,8.3-4.65-.04-8.45-3.86-8.45-8.48,0-4.72,4.11-8.7,8.8-8.54,4.63.16,8.3,4.05,8.22,8.72Z"/><path class="cls-1" d="m311.26,135.38c-4.7-.03-8.41-3.76-8.42-8.46,0-4.68,3.73-8.5,8.37-8.57,4.73-.07,8.7,3.93,8.62,8.69-.08,4.68-3.87,8.36-8.56,8.34Z"/></svg>