<?xml version="1.0" encoding="UTF-8"?><svg id="Capa_1" xmlns="http://www.w3.org/2000/svg" viewBox="0 0 512 512"><defs><style>.cls-1{fill:#fff;}</style></defs><path class="cls-1" d="m343.31,255.01c-.06-.81.15-1.77-.21-2.4-2.04-3.55-.4-6.74.94-9.87,2.35-5.5,10.95-5.19,13.97-2.21,2.8,2.77,3.63,7.04,1.9,10.27-2.5,4.66-.74,8.43.61,12.56,3.17,9.68,6.94,19.19,8.58,29.31.91,5.59,1.2,11.18.54,16.9-.57,4.97-1.93,9.57-3.96,14.03-3.8,8.36-11.11,14.1-21.3,14.39-4.02.12-7.89-.3-11.56-1.78-2.45-.99-4.03-3.18-5.38-5.43-4.22-7.05-3.8-14.33-.99-21.7.71-1.85,2.13-2.49,4.08-2.27,2.31.26,1.85,1.95,1.92,3.43.14,2.83-.46,5.63.88,8.47,1.91,4.07,4.68,6.97,9.19,7.09,4.8.13,8.13-2.85,10.5-6.8,4.33-7.23,3.89-15.25,3.16-23.12-.44-4.72-1.81-9.38-3.07-13.99-.85-3.12-2.22-6.1-3.4-9.13-.41-1.05-1.06-1.18-1.8-.27-.45.55-.95,1.09-1.31,1.7-5.83,9.89-12,19.58-18.49,29.05-5.59,8.16-10.41,16.69-14.07,25.88-.53,1.33-1.3,2.56-1.98,3.82-3.07,5.66-10.78,7.09-14.97,3.85-2.6-2.01-3.64-5.01-4.86-7.82-1.08-2.49-1.71-5.18-2.6-7.99-2.39,3.5-4.79,6.79-6.96,10.23-4.8,7.6-13.87,9.15-21.03,5.66-2.55-1.24-3.48-3.92-4.98-6.08-.06-.35-.12-.71-.19-1.06-2.9-10.05-.61-19.95,1.47-30.25-2.45,1.06-3.77,2.88-5.95,3-2.85.16-5.15-1.97-5.22-5.19-.07-3.87.05-7.71.7-11.58.94-5.63,1.42-11.34,2.02-17.02.07-.7.53-1.86-.47-2.13-.72-.19-1.34.71-1.81,1.35-3.24,4.45-5.77,9.34-8.6,14.04-3.43,5.69-6.71,11.47-9.99,17.25-3.15,5.54-6.2,11.14-9.34,16.69-2.07,3.67-4.43,7.19-6.26,10.97-1.16,2.4-2.73,4.52-3.94,6.87-1.63,3.15-5.96,5.03-9.4,4.13-2.04-.53-2.39-2.27-2.5-3.98-.29-4.17,1.03-8.1,2.02-12.07,1.48-5.91,3.01-11.8,4.51-17.7h-.01c.71-.38.89-1.13,1-1.8.81-4.92,2.91-9.45,4.35-14.17,2.37-7.77,5.12-15.42,7.74-23.11,1.51-4.45,3.24-8.82,5.35-13,.82-1.63,1.73-3.23,3.59-4.19,4.89-2.54,9.61-1.99,14.29.37,1.97.99,2.64,3.86,1.89,6.06-.85,2.49-3.15,3.74-4.53,5.78-3.89,5.8-6.26,12.23-8.32,18.83.82.18,1.01-.43,1.26-.87,4.23-7.43,9.17-14.38,14.21-21.26,3.56-4.85,7.4-9.12,14.46-8.44,2.62.25,5.24,2.05,6.32,4.57,1.43,3.32-.23,6.34-.95,9.35-2.12,8.83-4.57,17.59-6.92,26.37-.11.42-.57.86-.06,1.17.44.27.98.28,1.35-.35,1.26-2.11,3.36-3.69,4.08-6.14,2.21-7.47,5.29-14.63,7.89-21.96,1.13-3.17,2.02-6.48,3.55-9.45,2.35-4.54,9.4-7.07,14.33-5.32,5.73,2.03,9.19,5.99,2.66,11.79-2.53,2.25-4.17,5.29-5.79,8.23-5.71,10.4-9.19,21.61-11.85,33.1-.11.16-.12.33-.03.51-.94,3.6-2.22,7.15-2.72,10.81-.46,3.34-1.63,6.59-1.25,10.07.36,3.22,2.94,6,4.99,4.7,3.28-2.07,6.68-4.28,7.7-8.51,0,0-.03.03-.03.03,1.91-1.8,3.2-4.04,4.39-6.32,8.02-15.38,14.62-31.42,21.73-47.22,0,0,0,0,0,0,2.14-4.15,4.26-8.25,7.17-12,3.08-3.96,9.83-4.14,13.04-2.37,3.18,1.75,3.91,5,1.69,8.08-5.95,8.22-9.5,17.59-13.29,26.88-2.68,6.57-5.24,13.18-7.46,19.91-1.45,4.41-3.09,8.83-3.32,13.56-.04.72-.13,1.65.69,1.83.7.15,1.22-.51,1.61-1.2,5.36-9.75,11.67-18.92,17.35-28.48,0,0,0,0,0,0,1.6-2.35,3.22-4.68,4.79-7.05,4.23-6.38,8.44-12.77,12.66-19.16v.02c1.9-2.06,2.26-4.25.55-6.62-.06-.36-.11-.72-.17-1.08.13-.47.17-.91-.42-1.11h0Zm10.64-3.78c.93-1.43,1.15-2.89,1.33-4.36.16-1.28-.26-1.76-1.62-1.69-1.58.08-1.19,1.22-1.05,1.93.27,1.35.84,2.63,1.34,4.12Z"/><path class="cls-1" d="m437.55,310.63c-2.32.69-3.15,2.77-4.12,4.61-2.48,4.72-4.17,9.77-6.04,14.74-1.75,4.66-5.61,7.8-9.91,7.46-3.27-.26-6.92-3.47-7.11-6.89-.12-2.31.46-4.43,1.42-6.61,1.19-2.72,1.59-5.78,2.44-8.67,1.62-5.49,3.47-10.92,4.94-16.45.79-2.98,1.67-5.93,2.52-8.89.04-.35.08-.7.12-1.06,1.8-5.71,3.72-11.39,5.35-17.14.57-2.03,2.45-3.81,1.45-6.26-.96,0-1.59.57-2.25,1.19-6.19,5.88-11.53,12.51-17.12,18.94-5.53,6.35-10.71,12.92-15.03,20.16-3.24,5.44-5.37,11.37-7.95,17.11-1.67,3.72-2.5,7.81-4.85,11.22-1.35,1.96-2.97,3.53-5.56,3.86-5.15.67-7.32-2.75-8.03-7.61-.68-4.64.99-8.97,2.53-13.22,3.66-10.13,7.38-20.25,11.28-30.29,3.68-9.48,7.63-18.86,11.47-28.27,3.22-7.9,6.28-15.86,9.19-23.87.72-1.98,1.92-3.77,2.47-5.84.07-.35.13-.71.2-1.06,2.04-3.61,3.27-7.56,4.84-11.37,4.41-10.71,8.88-21.4,13.19-32.15,1.02-2.55,2.61-4.38,5.05-5.42,5.91-2.53,16.07,1.28,18.77,6.95.03.18.08.35.16.52-12.22,32.03-30.38,61.23-44.19,92.55,1.36.41,1.68-.69,2.26-1.27,1.97-1.97,3.65-4.21,5.41-6.35,5.01-6.08,10.06-12.08,16.24-17.01,4.69-3.74,9.76-6.58,16.19-5.84,3.93.45,6.16,2.68,6.25,6.58.14,5.46-1.72,10.39-3.56,15.4-3.04,8.27-5.94,16.6-8.66,24.98-.58,1.79-1.61,3.64-1.36,6.28,2.03-2.66,3.75-4.82,5.37-7.06,3.91-5.42,7.63-10.98,12.45-15.69,1.04-1.02,1.86-.89,3.07-.45,1.25.45,1.36,1.23,1.42,2.29.1,1.72-.55,3.2-1.58,4.46-5.19,6.36-9.89,13.09-15.47,19.16-1.19,1.3-2.74,2.99-2.59,5.23-.23.35-.45.71-.68,1.06Z"/><path class="cls-1" d="m239.62,171.59c.04-5.27.02-10.53.15-15.8.04-1.79-.58-2.34-2.35-2.33-8.08.08-16.17-.03-24.25.08-2.14.03-3.08-.37-2.98-2.79.2-4.68.05-4.68,4.86-4.68,8.36,0,16.72.13,25.07-.07,3.27-.08,5.46,1.04,6.7,3.95.66,1.55,1.47,1.76,2.93,1.03,8.73-4.34,18.11-5.1,27.6-4.42,5.81.42,11.15,2.77,16.24,5.58,3.23,1.78,6.25,3.85,8.81,6.55.84.89,1.54,1.58-.06,2.41-.53.28-.89.89-1.34,1.34-1.51,1.51-3.04,2.13-4.85.37-1.36-1.33-2.89-2.47-4.69-3.19-.2-.19-.4-.37-.6-.56-2.15-1.11-4.2-2.52-6.46-3.27-11.71-3.91-23.06-3.27-33.96,2.93-1.86,1.06-2.73,2.15-2.71,4.42.12,13.53.14,27.07,0,40.6-.03,2.91.4,4.85,3.49,6.02,1.59.6,3.23.93,4.81,1.52,1.99.53,3.97,1.08,6.05,1.19,2.13.64,4.3.83,6.51.58.33,0,.67,0,1,0,.17.06.33.12.5.18.4.04.81.08,1.21.12,3.52.71,6.99-.61,11.21-.26-3.46,2.72-6.13,5.53-10.2,6.17-.34.11-.68.22-1.02.32-3.28.06-6.56.13-9.81-.46-.37-.02-.73-.05-1.1-.07-3.89-.98-7.79-1.95-11.68-2.94-.67-.17-1.26-.37-1.38.62-.55,4.47-4.04,5.29-7.49,5.51-4.87.3-9.77.03-14.66.1-1.56.02-1.98-.57-2.02-2.07-.16-5.48-.22-5.48,5.32-5.48,2.53,0,5.07,0,7.6,0q3.77,0,3.57-3.93c0-4.36-.02-8.73-.03-13.09,0-1.09,0-2.18,0-3.27v-5.46c0-4.18,0-8.36,0-12.54,0-1.64,0-3.27,0-4.91Z"/><path class="cls-1" d="m388.03,195.58c-.05-.91-.11-1.81-.16-2.72,1.19-5.29,3.41-7.24,8.85-7.76.53.08,1.06.15,1.59.23,3.33.94,5.11,3.44,6.38,6.42-.05.15,0,.27.14.35-.36,5.19-2.53,8.84-8.11,9.62-.89-.07-1.79-.15-2.68-.22-3.11-.84-4.37-3.57-6.01-5.92Z"/><path class="cls-1" d="m72.81,297.61c3.61-8.91,6.94-17.93,10.52-26.84,5.12-12.72,9.69-25.65,14.99-38.3,2.49-5.94,4.94-11.91,7.5-17.81,3.32-7.65,6.85-15.2,10.4-22.75,3.71-7.88,7.34-15.8,11.59-23.41,4-7.16,8.29-14.16,12.97-20.9,2.34-3.38,8.24-3.75,11.78-1.22,2.61,1.86,4.35,4.49,6.59,6.66,1.15,1.12,2.3,1.66,4,1.63,7-.1,14.03-.36,21.01.12,5.82.39,11.62,1.49,17.34,2.7,5.26,1.11,10.12,3.26,14.71,6.29,4.11,2.71,6.86,6.31,9.14,10.38,2.32,4.14,2.9,8.92,2.77,13.46-.17,6.29-1.75,12.41-4.75,18.11-4.44,8.43-10.78,15.18-17.75,21.54-11.4,10.4-24.43,18.24-38.24,24.85-6.69,3.2-13.59,5.94-20.4,8.9-.47.2-.89.51-1.55.89,6.39,1.08,12.72.73,18.8,2.36,8.31,2.22,15.81,5.87,21.46,12.51,3.69,4.34,5.57,9.61,6.57,15.19,1.42,7.96.46,15.83-1.81,23.39-2.36,7.86-6.26,15.13-11.25,21.74-6,7.95-13.47,14.25-21.84,19.54-9.12,5.77-18.96,9.69-29.4,12.5-10.29,2.77-20.66,4.09-31.25,4.3-3.6,0-7.2-.02-10.81-.03-10.09.14-19.93-1.64-29.76-3.69-9.03-1.88-17.68-4.85-26.02-8.73-6.51-3.03-11.93-7.7-17.73-11.79-4.42-3.12-7.78-7.23-10.88-11.51-2.87-3.98-1.62-7.42,2.8-9.67,2.31-1.18,4.68-1.05,7.09-.97.66.02,1.32.33,1.36,1.02.05.82-.79.45-1.23.64-1.01.44-1.34.77-1.11,2.25.45,3,2.68,4.59,4.22,6.66,4.45,5.94,10.66,9.72,16.98,13.4,6.4,3.72,12.97,7.06,19.85,9.77,5.45,2.14,11.2,3.2,16.91,4.36,9.3,1.88,18.72,1.18,28.08,1.07,6.95-.08,13.85-1.2,20.71-2.53,10.04-1.94,19.59-5.25,28.62-9.98,12.08-6.34,21.72-15.26,28.66-27.15,3.48-5.97,6-12.15,5.65-19.06-.46-9.05-3.42-17-11.17-22.63-7.26-5.28-15.3-8.12-24.22-8.65-.09-.27-.21-.47-.53-.23-2.73-.14-5.45-.24-8.17.14-.25-.31-.39-.12-.51.12-14.39,1.15-28.15,4.4-40.93,11.47-6.08,3.37-9.44,8.59-12.26,14.6-4.81,10.23-9.9,20.33-14.91,30.47-2.41,4.88-4.88,9.73-7.36,14.58-.39.75-.73,1.84-1.95,1.45-1.02-.32-1.14-1.16-1.23-2.15-.29-3.37,1.42-6.24,2.35-9.25,2.7-8.67,5.77-17.23,8.72-25.82,1.6-4.67,3.24-9.34,4.86-14v.02Zm130.94-87.16c.26-.05.69,0,.77-.15,2.63-4.8,5.51-9.51,6.79-14.9,2.84-11.95-4.43-18.1-15.29-19.33-.36-.05-.72-.1-1.07-.15-4.1-1.45-8.38-1.69-12.67-1.61-5.5.11-11,.26-16.48.62-3.91.26-7.8.89-11.71,1.34-3.24.38-5.71,1.06-7.74,4.54-3.12,5.35-6.9,10.37-9.74,15.92-3.94,7.68-8.24,15.16-12.09,22.89-3.64,7.3-7.81,14.34-11.82,21.46-4.28,7.59-8.63,15.14-12.98,22.69-.35.61-1.16,1.16-.8,1.87.38.74,1.31.29,1.97.29,4.21.03,8.28-1.05,12.24-2.23,6.41-1.91,13.24-1.79,19.48-4.35,1.46-.6,2.92-1.22,4.39-1.8,7.99-3.2,15.82-6.72,23.17-11.23.14-.14.28-.29.41-.43,4.01-1.68,7.5-4.23,11.12-6.58,9.46-6.13,18.29-13.07,26.24-21.04,2.27-2.27,4.81-4.55,5.84-7.84,0,0-.03.04-.03.04Z"/><path class="cls-1" d="m313.91,172.11c.87,3.11,1.74,6.21,2.61,9.32-.22.12-.64.28-.63.35.78,3.8,6.07,7.85,10.06,7.76,3.23,1.07,6.46,2.14,9.69,3.21.23,1.09.69,2.16-.93,2.76-.58.22-1.37.93-1.15,1.93-2.28,1.89-4.46,3.91-7.12,5.29-2.79-.6-4.09,2.18-6.35,2.85-.75.22-2.29.33-1.9,1.95-4.94,2.55-9.66,5.57-15.2,6.76-.33.07-.62.33-.93.5-.93.01-2.13-.61-2.4,1l-.13.12s-.17-.01-.17-.01c-4.52-.92-8.5,2.09-13.39,1.95,1.26-1.22,2.24-2.12,3.16-3.07,2.8-2.9,4.76-6.62,4.85-10.37.15-6.61,1.31-13.34-.75-19.9-.11-.37,0-.98.26-1.26.88-.94.96-2.17,1.19-3.27.93-4.33,2.16-8.38,6.72-10.32.19-.08.3-.44.37-.69.74-2.48,3.57-2.53,4.99-4.25.38-.46,1.2-.1,1.66.45,1.15,1.36,2.63,2.34,3.45,4.11.43.94.27,2.7,2.01,2.85Z"/><path class="cls-1" d="m355.19,185.07c.19-.18.38-.36.57-.54.54.86,1.05.63,1.77.12,1.97-1.4,4.21-1.56,6.6-1.67,6.23-.28,11.51,7.85,9.5,13.59-1.94,5.5-8.26,9-14.39,6.33-.73-.32-1.42-.29-1.86.53-.41-.13-.91-.14-1.06-.68.06-1.25.12-2.3-1.21-3.25-2.2-1.56-2.98-8.22-1.23-10.03,1.29-1.34,1.54-2.73,1.31-4.4Z"/><path class="cls-1" d="m382.49,361.95c.36,2.04-.26,2.92-2.55,2.79-3.53-.2-7.07.01-10.61-.07-1.85-.04-2.22.57-1.53,2.24,1.53,3.66,6.58,4.95,9.82,2.41.64-.5,1.25-1.09,1.69-1.75.59-.89,1.3-1.43,2.2-.7.84.69-.12,1.29-.46,1.82-2.16,3.38-6.34,4.82-10.16,3.54-3.78-1.27-6.01-4.62-5.78-8.69.23-4.1,3.03-7.29,7.12-8.11,3.69-.74,7.77,1.35,9.46,4.87.27.56.54,1.11.81,1.67,0,0-.02,0-.02,0Zm-8.79.61h0c1.54-.01,3.07-.03,4.61,0,1.37.02,1.84-.51,1.21-1.82-1.19-2.5-3.6-2.89-5.89-3.1-2.42-.23-4.36.94-5.54,3.15-.56,1.05-.33,1.76.99,1.78,1.54.02,3.07,0,4.61,0Z"/><path class="cls-1" d="m313.91,172.11c-1.74-.15-1.58-1.91-2.01-2.85-.81-1.77-2.3-2.75-3.45-4.11-.46-.55-1.28-.91-1.66-.45-1.43,1.72-4.25,1.77-4.99,4.25-.08.25-.18.61-.37.69-4.56,1.94-5.79,6-6.72,10.32-.24,1.1-.32,2.33-1.19,3.27-.25.27-.37.89-.26,1.26,2.06,6.56.9,13.29.75,19.9-.09,3.76-2.05,7.47-4.85,10.37-.92.95-1.9,1.84-3.16,3.07,4.89.13,8.87-2.88,13.39-1.95-4.26,1.9-8.63,3.43-13.35,3.64-.06-.56-.23-1.03-.93-.96-.55.05-.63.5-.7.93-1.27,1.02-2.72.62-4.53.68,3.08-2.42,6.31-3.91,8.58-6.85,3.1-4,4.22-8.51,4.65-13.29.45-5.07-.42-10.12-.6-15.18-.25-7.18,3.14-12.64,8.27-17.25.54-.48,1.06-.99,1.62-1.44,4.94-4.03,6.95-3.67,10.24,1.98.69,1.19,1.56,2.42,1.28,3.97Z"/><path class="cls-1" d="m312.94,364.74c-1.81,0-3.63.08-5.44-.02-1.85-.11-1.85.64-1.36,2.09,1.35,4.05,7.42,5.05,10.76,1.7.38-.38.61-.91.99-1.29.49-.49,1.18-.64,1.72-.2.59.49-.09.96-.29,1.39-1.18,2.61-5.43,5.46-7.78,4.87-4.58-1.15-6.81-2.32-8.06-7.49-.9-3.73,1.38-8.44,4.68-9.98,3.36-1.57,8.57-.2,10.73,2.82.31.44.63.89.82,1.39,1.59,4.01,1.05,4.77-3.25,4.7-1.18-.02-2.36,0-3.54,0v.02Zm4.92-2c.81-1.84-.45-2.89-1.6-3.85-2.77-2.32-8.76-2.04-10.29,3.05-.03.15-.12.33-.07.45.06.15.22.37.35.37,3.87.21,7.74.27,11.61-.02Z"/><path class="cls-1" d="m187.82,349.35c3.31-.05,5.81,2.18,6.05,5.43.07.89.17,2.03-1.03,2.17-1.07.13-1.21-.83-1.22-1.71-.02-2.18-1.44-3.23-3.31-3.64-2.14-.46-3.63.46-4.46,2.54-.78,1.98.33,4.1,2.73,4.91.85.28,1.73.44,2.61.64,4.54,1.01,6.4,4,5.21,8.42-.87,3.23-6.01,5.54-9.06,4.31-2-.81-3.43-1.89-4.38-3.66-.39-.72-.69-1.88.36-2.37,1.1-.52,1.42.33,1.83,1.28,1.17,2.71,2.65,3.23,6.17,2.37,2.07-.51,2.81-2.11,2.85-4.03.06-2.74-1.61-4.15-4.1-4.49-2.91-.4-5.41-1.33-6.73-4.14-1.58-3.36,1.42-9.18,6.48-8.04Z"/><path class="cls-1" d="m402.77,364.04c0,2.26,0,4.53,0,6.79,0,.82-.57,1.86-1.1,1.31-2.38-2.46-4.42.27-6.54.38-4.47.25-8.28-1.87-9.71-6.58-1.06-3.47,1.6-8.56,5.3-9.91,3.59-1.31,7.35-.54,11.03-.63,1.22-.03.99,1.07,1,1.84.03,2.26,0,4.53.01,6.79Zm-2.09-1.75c-.06-5.66.6-4.81-4.94-4.84-.72,0-1.45.02-2.17.06-3.07.13-4.69,2.3-5.84,4.66-1.13,2.32.21,4.49,1.67,6.18,1.67,1.92,3.94,2.79,6.6,1.98,3.66-1.11,4.61-2.69,4.67-8.02Z"/><path class="cls-1" d="m456.22,363.98c0,2.18.02,4.35-.01,6.53,0,.59.22,1.33-.59,1.63-.6.22-1.14-.01-1.41-.51-.56-1.03-.97-.75-1.84-.23-3.09,1.86-7.94,1.5-10.37-.57-2.55-2.17-3.59-6.56-2.38-9.97,1.27-3.55,4.23-5.49,8.47-5.51,2,0,3.99.08,5.98-.02,1.6-.08,2.31.37,2.19,2.13-.15,2.17-.04,4.35-.04,6.53Zm-2.16-.98c.05-6.18,1.01-5.52-5.01-5.58-.63,0-1.27.02-1.9.06-2.94.22-4.69,1.94-5.81,4.54-1.22,2.84.29,5.03,1.99,6.83,1.77,1.87,4.18,2.3,6.77,1.31,3.73-1.41,4.19-4.39,3.96-7.17Z"/><path class="cls-1" d="m263.6,364.18c-.6-4.78,4.27-9.4,8.55-8.8,5.45.77,8.9,2.91,8.88,8.43-.02,5.54-3.12,8.81-8.92,8.93-4.81.1-8.92-3.24-8.51-8.57Zm15.33-.26c-.04-3.36-3.3-6.33-7-6.35-3.48-.02-6.11,2.9-6.04,6.73.06,3.49,3.25,6.42,6.88,6.31,3.05-.1,6.2-3.51,6.16-6.69Z"/><path class="cls-1" d="m214.65,364.14c.61,5.22-3.63,8.32-9.16,8.74-4.16.32-8.23-4.76-8-8.71.29-5.08,3.63-8.85,8.54-8.81,4.24.03,9.24,3.03,8.62,8.79Zm-2.26-.19c.68-4.15-2.26-5.83-6.2-6.39-3-.43-6.54,2.93-6.5,6.46.04,4.22,3.54,6.64,6.66,6.56,3.82-.1,6.06-2.54,6.04-6.63Z"/><path class="cls-1" d="m342.74,368.32c.11.12.25.19.41.2,2.33,2.09,4.87,2.91,7.84,1.33.71-.37,1.66-.7,2,.43.32,1.04-.25,1.68-1.32,1.96-5.21,1.34-10.83-.9-13.28-5.08-2.94-5.01-2.1-11.64,2.11-15.25,3.02-2.59,6.61-3.6,10.61-2.93.66.11,1.19.4,1.65.87.46.48.88.99.42,1.66-.44.64-.89.12-1.39-.02-7.04-1.95-12.14,2.15-12.8,9.12-.29,3.1,1.37,5.68,3.74,7.71Z"/><path class="cls-1" d="m239.07,364.06c0,2.18-.04,4.36.02,6.54.03,1.2-.48,1.66-1.62,1.59-2.76-.19-5.48.01-8.22.55-1.79.35-4.32-2.05-4.92-4.3-1-3.76-.36-7.59-.51-11.39-.03-.74.28-1.23,1.12-1.15.82.07,1.01.62,1.02,1.33.01,2.64,0,5.27.05,7.9.07,3.47,2.06,5.49,5.36,5.49,3.2,0,5.38-2.04,5.52-5.37.11-2.54,0-5.09.02-7.63,0-.8-.1-1.78,1.16-1.71,1.02.06,1,.9,1,1.62.02,2.18,0,4.36,0,6.54Z"/><path class="cls-1" d="m328.49,372.83c-2.22.04-4.66-2.05-4.84-4.23-.05-.63-.45-1.55.64-1.78.93-.19,1.5.09,1.64,1.2.15,1.14.96,1.97,2.03,2.35,1.85.65,3.18-.12,3.98-1.82.88-1.89-.54-2.75-1.84-3.26-1.66-.66-3.37-1.13-4.73-2.38-1.66-1.52-1.71-3.28-.68-5.11,1.31-2.3,3.43-2.9,5.84-2.29,2.2.55,2.68,2.47,2.93,4.41.09.69-.27,1.31-.98,1.4-.75.1-.73-.63-.85-1.13-.46-1.83-1.49-2.84-3.5-2.55-.9.13-1.62.48-1.71,1.44-.09.95-.36,2.04.94,2.52,1.1.41,2.19.86,3.27,1.32,3.27,1.4,4.23,3.2,3.32,6.85-.65,2.6-3.19,2.47-5.18,3.07-.08.03-.18,0-.27,0Z"/><path class="cls-1" d="m459.95,368.3c.06-.61-.09-1.34.82-1.45.75-.09,1.23.2,1.29,1,.08.99.65,1.67,1.43,2.2,1.6,1.1,3.01.56,4.03-.79,1.03-1.35.75-2.7-.67-3.76-.97-.73-2.12-.99-3.22-1.39-2.62-.96-3.49-2.46-3.09-5.24.35-2.44,2.07-3.3,4.19-3.5,2.47-.23,4.18.87,4.85,3.37.23.88.61,1.84-.67,2.22-1.29.39-1.14-.71-1.34-1.42-.39-1.36-1.25-2.28-2.71-2.13-1.11.11-2.05.7-2.17,2.04-.16,1.68.73,2.53,2.23,2.88,5.61,1.29,5.08,2.95,4.9,6.79-.1,2.33-2.75,3.96-5.46,3.66-2.2-.25-4.45-2.53-4.41-4.48Z"/><path class="cls-1" d="m299.66,372.1c-.41.04-.81.08-1.21.12-.12-.11-.25-.22-.37-.33-.04-2.78-.05-5.57-.14-8.35-.13-4.19-2.01-6.06-6.1-5.94-1.68.05-3.41-.33-5.05.36-.23,4.37-.26,8.75,0,13.13-.09.7-.35,1.22-1.19,1.13-.75-.08-.74-.68-.75-1.21-.06-4.79-.1-9.58-.14-14.36,0-.68.14-1.31,1-1.28,2.97.11,5.96-.42,8.9.27,3.19.75,4.9,2.86,5.25,6.08-.07,3.46-.14,6.92-.21,10.39Z"/><path class="cls-1" d="m429.03,368.39c2.28-3.36,3.19-7.09,4.8-10.5.27-.57.47-1.2.87-1.67.46-.54,1.2-.51,1.76-.19.66.38.22.97.02,1.43-1.92,4.47-3.87,8.93-5.78,13.4-.31.71-.65,1.36-1.5,1.34-.91-.03-1.58-.65-1.81-1.44-1.26-4.37-3.29-8.43-4.98-12.63-.25-.62-1.17-1.59-.04-2.11,1.27-.59,1.74.56,2.13,1.48,1.51,3.56,2.98,7.14,4.54,10.89Z"/><path class="cls-1" d="m250.29,355.34c1.19-.24,2.5.07,3.64.87.49.35,1.84-.15,1.41,1.08-.36,1.03-1.41,1.04-2.33.73-1.85-.62-3.57-.84-5.35.42-2.61,1.84-3.48,4.22-2.87,7.5.44,2.37,3.1,4.52,5.82,4.66,1.48.08,4.02-.42,3.86,1.3-.16,1.73-2.83,1.11-4.28.87-5.34-.86-8.49-4.39-7.73-9.97.65-4.77,3.41-7.32,7.83-7.46Z"/><path class="cls-1" d="m357.38,203.43c.43-.82,1.13-.85,1.86-.53,6.13,2.66,12.45-.83,14.39-6.33,2.02-5.74-3.27-13.87-9.5-13.59-2.38.11-4.63.27-6.6,1.67-.72.51-1.23.73-1.77-.12,3.74-3.22,9.74-3.58,14-1.07,3.47,2.04,6.05,7.54,4.8,12.4-2.24,8.77-8.38,9.67-14.96,8.97-.84-.09-1.71-.56-2.23-1.39Z"/><path class="cls-1" d="m409.22,365.34c0-1.55-.05-3.09.01-4.63.06-1.56-.17-2.75-2.15-2.6-.78.06-1.16-.37-1.14-1.16.02-.65.37-1.11.99-1.03,2.7.34,2.31-1.52,2.29-3.13,0-.64,0-1.27.04-1.91.02-.51.26-.87.82-.86.55,0,.79.38.82.88.04.63,0,1.27.05,1.91.13,1.76.53,3.27,2.81,3.14.62-.04,1.4-.06,1.39.86,0,.9-.79.95-1.4.85-2.5-.41-2.83.93-2.75,2.99.13,3.27.04,6.54.03,9.81,0,.7.15,1.63-.89,1.68-1.13.05-.89-.94-.91-1.6-.05-1.73-.02-3.45-.01-5.18Z"/><path class="cls-1" d="m218.36,360.76c0-3.26-.02-6.52.01-9.78,0-.66-.22-1.61.94-1.55.95.05.71.88.77,1.45.66,6.39.35,12.8.44,19.21.01.83.31,2.04-1.04,2.11-1.69.08-1.12-1.35-1.14-2.19-.07-3.08-.03-6.16-.03-9.24h.05Z"/><path class="cls-1" d="m355.78,363.65c0-1.27-.07-2.55.02-3.81.09-1.42-.73-3.42.44-4.12,1.66-1,3.88-.31,5.85-.33.39,0,.69.21.75.63.08.53-.15.86-.69.96-.36.07-.72.17-1.07.15-3.67-.12-3.69,2.25-3.55,4.95.15,2.81.06,5.63.04,8.44,0,.69.13,1.64-.94,1.61-1.06-.03-.86-1-.87-1.68-.03-2.27-.01-4.54-.01-6.81h.03Z"/><path class="cls-1" d="m258.69,363.99c0-2.18-.01-4.35,0-6.53,0-.7-.11-1.55.98-1.58,1.2-.03,1.2.8,1.2,1.67-.02,4.26,0,8.52-.03,12.79,0,.78.18,1.8-1.02,1.86-1.52.08-1.09-1.16-1.11-1.95-.06-2.08-.02-4.17-.02-6.26Z"/><path class="cls-1" d="m355.19,185.07c.23,1.66-.01,3.06-1.31,4.4-1.75,1.81-.97,8.47,1.23,10.03,1.34.95,1.27,2,1.21,3.25-6.03-4.03-6.61-13.03-1.14-17.68Z"/><path class="cls-1" d="m419.14,364.16c0,2.17,0,4.33,0,6.5,0,.61.09,1.39-.8,1.46-1.12.08-.99-.82-.99-1.51-.02-4.33-.03-8.67-.02-13,0-.7-.1-1.63.95-1.6,1.07.03.84.99.85,1.66.03,2.17.01,4.33.02,6.5Z"/><path class="cls-1" d="m325.95,189.54c-3.99.1-9.27-3.96-10.06-7.76-.01-.07.41-.23.63-.35,2.22,3.78,5.53,6.28,9.43,8.1Z"/><path class="cls-1" d="m318.2,207.52c-.39-1.62,1.14-1.72,1.9-1.95,2.26-.67,3.56-3.45,6.35-2.85-2.58,1.88-5.14,3.82-8.25,4.8Z"/><path class="cls-1" d="m333.57,197.44c-.23-1,.56-1.71,1.15-1.93,1.62-.61,1.16-1.67.93-2.76,1.07-.08,2.11.02,3.29.68-1.49,1.86-3.12,3.33-5.37,4.01Z"/><path class="cls-1" d="m419.16,351.75c-.02.98.09,1.91-1.14,1.89-1.46-.02-1.08-1.17-1.12-1.99-.03-.79-.18-1.72,1.11-1.7,1.5.02.99,1.18,1.16,1.8Z"/><path class="cls-1" d="m286.78,371.08c-.26-4.38-.23-8.76,0-13.13.39,4.38.37,8.76,0,13.13Z"/><path class="cls-1" d="m260.42,351.58c-.15.51.42,1.57-.94,1.65-1.17.07-1.35-.64-1.28-1.54.05-.74-.34-1.69,1-1.78,1.21-.08,1.34.58,1.22,1.67Z"/><path class="cls-1" d="m85.93,373.42c3.6,0,7.2.02,10.81.03-3.6.67-7.21.65-10.81-.03Z"/><path class="cls-1" d="m299.66,372.1c.07-3.46.14-6.93.21-10.39.39,3.47.78,6.94-.21,10.39Z"/><path class="cls-1" d="m284.39,219.5c.07-.43.15-.88.7-.93.7-.07.87.4.93.96-.54,0-1.09-.02-1.63-.03Z"/><path class="cls-1" d="m299.67,215.78c.27-1.61,1.46-.99,2.4-1-.63.75-1.44,1.05-2.4,1Z"/><path class="cls-1" d="m144.22,275.99c.31-.23.44-.03.53.23-.18-.08-.35-.16-.53-.23Z"/><path class="cls-1" d="m135.54,276.24c.13-.24.26-.42.51-.12-.17.04-.34.08-.51.12Z"/><path class="cls-1" d="m298.07,371.89c.12.11.25.22.37.33-.12-.11-.25-.22-.37-.33Z"/><path class="cls-1" d="m485.65,242.5c5.36-9.44,8.95-19.64,12.09-29.95,1.55-5.1,1.88-10.57,2.76-15.88.24-.12.66-.21.68-.36.53-3.48.21-6.98.18-10.47,0-.36-.59-.19-.93-.09.22-1.5-.88-2.84-.5-4.36.62-.57.36-1.33.44-2.03.42-3.49-1.43-6.46-2.11-9.69-.85-4-3.46-7.02-5.05-10.58-.22-.49-.72-1.12-1.5-.59-2.37-4.98-6.4-8.7-9.75-12.94-.69-.87-1.55-1.6-2.34-2.4-1.28-4.11-2.81-5.5-6.34-5.76-5.23-3.49-10.44-7.02-15.71-10.45-3.09-2.01-6.54-3.36-9.83-5.01-4.27-2.14-8.8-3.75-12.87-6.31-.96-3.52-3.82-2.11-6.05-2.34-1.03.22-1.31-.95-2.11-1.15-1.92-1.88-4.23-2.44-6.83-2.06-3.53-.6-6.73-2.28-10.16-3.2.01-.56-.17-.91-.73-1.23-2.07-1.21-4.27-1.35-6.57-1.01l-.15.05s-.12-.11-.12-.11c-1.87-2.66-4.63-2.32-7.33-2.16l-.15.07s-.13-.1-.13-.1c-.06-.58-.34-.87-.92-1.14-2.84-1.32-6.01-1.17-8.92-2.18-1.03-.35-2.22-2.17-3.26.04-.65-.42-1.34-.73-2.15-.58-2.27-2.44-5.32-1.95-8.18-2.2-.68.25-1.31.3-1.74-.45.02-1-.62-1.18-1.44-1.17-1.54.02-3.08.03-4.62.04-1.86-.96-3.91-.4-5.85-.69-.11-.42-.13-1.15-.35-1.22-3.1-.95-6.17-2.44-9.5-.87-.18,0-.35-.02-.52-.08-.2-.8.96-.81.99-1.64-2.2.44-4.38-.53-6.43.52-2.38-.35-4.75-.7-7.13-1.05-.48-2.69-3.29-2.38-4.59-2.44-4.84-.22-9.53-2.02-14.44-1.34-.62.09-1.4.19-1.88-.1-3.56-2.16-7.66-.54-11.51-1.83-3.93-1.32-8.41-.19-12.75-1.1-5.46-1.14-11.26-.81-16.87-1.05-16.39-.71-32.82-.26-49.24-.24-.84,0-1.92-.34-2.14,1.02-.71.03-1.42.06-2.13.09-7.64-.77-15.16.81-22.75,1.05-.73.02-1.22.27-1.3,1.06-4.05.17-7.88,2.1-12.02,1.58-3.78-1.36-7.19,1.16-10.88,1.08-.78-.02-1.78.67-2.77.62-1.13-.06-1.68.42-1.62,1.56-1.77.05-3.53.11-5.3.16-.22.18-.43.37-.65.55,0,0,.03-.02.03-.02-3.51-.27-7.01-.33-10.08,1.72-.98.65-2.76-.39-3.06,1.51,0,0,0,0,0,0-1.43.01-2.87-.21-4.28.27-3.07,1.03-6.24,1.8-9.2,3.07-2.25.96-5.04.86-6.7,3.11-.15.09-.32.14-.49.15-2.63.46-5.54.27-7.14,3.1-7.11,3.63-14.33,7.02-20.97,11.54-5,3.39-9.36,7.48-13.79,11.53-.51.04-1.17-.05-.78.83,0,0-.12.12-.12.12-2.31,1-4.07,2.51-4.64,5.09.03,1.05-.28,1.97-1.1,2.67-2.49.14-1.81,3.56-4.09,4.03-1.28-2.36,1.53-4.18.71-6.4.95-3.58,3.23-6.43,5.25-9.41,2.91-4.28,6.14-8.27,10.45-11.25,3.37-.97,5.3-3.57,7.08-6.32.11-.35.25-.68.68-.73,2.07,1.02,2.47-.5,2.94-1.92,0,0,.08-.08.08-.08,2.53.62,3.17-1.34,4.06-2.96.18-.19.36-.38.53-.57.63.95,1.56.84,2.34.42.63-.34.4-1.07.11-1.66,0,0,.11,0,.11,0,.42.12.62-.09.71-.47,7.21-5.09,15.16-8.74,23.38-11.84.94-.52,2.95,1.37,2.93-1.3.05-.11.14-.18.26-.2,1.01.52,2,.96,2.39-.69l.11-.12s.15.04.15.04c1.07-.12,2.58.96,2.95-1.08,0,0-.02.03-.02.03,3.95.98,6.86-2.12,10.46-2.69,3-.47,5.82-2.03,8.82-2.62,3.72-.72,7.25-2.11,11.06-2.69,2.79-.43,5.73-.72,8.55-1.62,2.46-.78,5.28-.9,7.79-1.48,5.34-1.25,10.8-1.61,16.16-2.8,5.04-1.12,10.32-1.4,15.48-2.25,4.55-.74,9.34-.96,13.86-.95,18.35.02,36.73-1.56,55.06.75,5.22.66,10.55-.49,15.81,1.05,2.66.78,5.72.83,8.41.91,5.49.16,10.81,2.08,16.32,1.32,2.59-.04,5.15.07,7.59,1.1.05,1.2.92,1.13,1.75,1.15.99.02,2.11-.23,2.96.13,6.27,2.63,13.15,2.18,19.6,4.08,3.99,1.17,8.06,2.33,12.14,3.1,2.06.39,4.33,2.01,6.59.36,5.32,1.29,10.8,2.03,15.83,4.35,2.04,2.55,4.81,2.5,7.67,2.13,0,0-.02-.02-.02-.02.27,1.61,1.15,1.32,2.13.67,1.13.47,2.27.94,3.4,1.4.11,2.23,2.15,1.28,3.13,1.59,3.28,1.03,6.12,3.73,9.94,2.84,0,0,0,0,0,0,2.38,2.52,5.43,3.27,8.74,3.31,4.08,1.66,8.29,2.97,12.24,4.97,4.63,2.35,9.55,4.16,13.84,7.16-.13,1.09.51,1.64,1.41,2.01,1.74.72,3.15,1.99,4.74,2.93,1.85,1.09,3.47,2.83,5.92,2.56,0,0-.02-.02-.02-.02.65,2.45,2.14,3.71,4.77,3.37,7.11,4.64,12.64,10.95,18.18,17.25,1.78,3.31,3.96,6.37,6.15,9.4.34.47.88.6,1.44.58,3.32,5.28,6.49,10.63,7.63,16.9-.9,3.33,1.08,6.09,1.86,9.08.03.13.49.15.75.22-.3,2.16.86,4.17.69,6.32,0,3.74-.01,7.49-.02,11.23-.03,3.29.12,6.59-1.19,9.72-.3.17-.85.34-.86.51-.05,3.28-1.92,6.06-2.47,9.15-.29,1.63-1.86,3.23-.59,5.06-.91,3.75-2.29,7.31-4.23,10.66-2.48,4.27-4.87,8.59-7.3,12.89-1.61,1.03-3.26,2.02-3.08,4.32-1.72,2.56-3.11,5.35-5.25,7.63-2.25,1.2-4.43,2.47-4.49,5.47,0,0,.02-.02.02-.02-.75-.11-1.06.51-1.56.87-.46.34-.81,1.29-1.46.81-.35-.26-.24-1.15-.34-1.75,0,0,0,0,0,0,1.68-.49,2.4-1.6,2.13-3.34,0,0-.02.02-.02.02,1.67-.22,1.21-1.26.88-2.26,0,0,.05-.22.05-.22,2.28-.43,4.75-4.49,4.09-6.72Z"/><path class="cls-1" d="m330.29,69.55c-5.51.75-10.83-1.17-16.32-1.32-2.69-.08-5.75-.13-8.41-.91-5.26-1.54-10.59-.39-15.81-1.05-18.33-2.31-36.72-.73-55.06-.75-4.52,0-9.31.21-13.86.95-5.16.84-10.44,1.13-15.48,2.25-5.35,1.19-10.82,1.55-16.16,2.8-2.51.59-5.33.7-7.79,1.48-2.82.9-5.76,1.19-8.55,1.62-3.8.58-7.33,1.97-11.06,2.69-3,.58-5.82,2.15-8.82,2.62-3.6.56-6.52,3.66-10.46,2.69,4.65-2.9,10.16-3.29,15.15-5.23,6.63-2.58,13.69-3.58,20.58-5.18,10.64-2.48,21.42-4.11,32.27-5.32,14.52-1.61,29.07-2.86,43.69-2.89,4.13,0,8.27,0,12.4,0,6.98.21,14,.06,20.93.74,7.4.72,14.82,1.23,22.22,1.93,6.5.62,12.95,1.45,19.41,2.32.46.06.9.08,1.13.57Z"/><path class="cls-1" d="m221.14,82.66c.22-1.36,1.3-1.02,2.14-1.02,16.42-.02,32.85-.47,49.24.24,5.61.24,11.41-.09,16.87,1.05,4.34.91,8.81-.23,12.75,1.1,3.85,1.29,7.94-.33,11.51,1.83.48.29,1.26.19,1.88.1,4.9-.68,9.59,1.12,14.44,1.34,1.3.06,4.11-.26,4.59,2.44-7.83-.79-15.55-2.31-23.35-3.34-7.93-1.06-15.96-.94-23.84-2.46-3.15-.61-6.46-.29-9.71-.54-17.55-1.33-35.12-1.29-52.7-.67-1.26.04-2.53-.04-3.8-.06Z"/><path class="cls-1" d="m76.01,132.73c.82,2.22-1.99,4.04-.71,6.4,2.28-.47,1.61-3.89,4.09-4.03-1.62,3.36-3.44,6.64-4.8,10.11-1.5,3.85-1.94,7.99-2.23,12.11-.08,1.08-.01,2.16-.25,3.24-1.48-6.15-1.18-12.3.25-18.4.67-2.86,1.76-5.63,2.58-8.46.19-.64.49-.9,1.08-.99Z"/><path class="cls-1" d="m380.92,79.45c-2.26,1.65-4.52.03-6.59-.36-4.09-.76-8.16-1.92-12.14-3.1-6.45-1.9-13.33-1.45-19.6-4.08-.85-.36-1.97-.11-2.96-.13-.83-.02-1.7.06-1.75-1.15,5.88.25,11.59,1.64,17.34,2.72,8.52,1.6,16.95,3.63,25.36,5.7.14.03.22.25.34.39Z"/><path class="cls-1" d="m478.52,255.02c.1.6,0,1.5.34,1.75.65.48,1-.48,1.46-.81.49-.36.81-.98,1.56-.87-3.54,5.14-8.23,9.21-12.44,13.72-.19-.15-.37-.3-.56-.45,3.21-4.45,6.42-8.9,9.64-13.35Z"/><path class="cls-1" d="m491.71,158.49c.78-.52,1.28.1,1.5.59,1.59,3.56,4.2,6.58,5.05,10.58.68,3.23,2.53,6.2,2.11,9.69-.08.69.18,1.46-.44,2.03-1.27-7.85-3.71-15.28-7.8-22.13-.08-.13-.31-.16-.48-.23-.04-.18-.02-.36.06-.53Z"/><path class="cls-1" d="m128.43,100.07c1.66-2.25,4.45-2.14,6.7-3.11,2.96-1.27,6.13-2.04,9.2-3.07,1.42-.47,2.85-.25,4.28-.27-5.28,2.57-11.17,3.28-16.6,5.42-1.13.45-2.24,1.24-3.58,1.02Z"/><path class="cls-1" d="m194.96,84.86c.08-.78.57-1.03,1.3-1.06,7.59-.24,15.11-1.82,22.75-1.05-2.65,1.19-5.48.57-8.22.78-5.28.4-10.47,1.91-15.83,1.33Z"/><path class="cls-1" d="m423,92.42c-3.81.9-6.66-1.81-9.94-2.84-.98-.31-3.02.64-3.13-1.59,4.67.56,9.02,2.04,13.07,4.42Z"/><path class="cls-1" d="m381.44,99.12c1.04-2.21,2.23-.39,3.26-.04,2.91,1,6.09.85,8.92,2.18.58.27.86.56.92,1.14-4.38-1.06-8.98-1.2-13.1-3.28Z"/><path class="cls-1" d="m167.67,89.71c-.06-1.14.49-1.63,1.62-1.56.99.05,1.99-.63,2.77-.62,3.69.07,7.1-2.44,10.88-1.08-3.41,1.41-7.12,1.42-10.67,2.16-1.55.32-3.1.59-4.6,1.1Z"/><path class="cls-1" d="m506.21,214.14c-1.27-1.83.3-3.43.59-5.06.55-3.09,2.42-5.87,2.47-9.15,0-.18.56-.34.86-.51.09,3.83-1.74,7.23-2.49,10.87-.28,1.35-.1,2.89-1.43,3.86Z"/><path class="cls-1" d="m469.89,115.35c-2.45.27-4.08-1.47-5.92-2.56-1.6-.94-3-2.21-4.74-2.93-.89-.37-1.54-.92-1.41-2.01,4.41,1.89,8.19,4.77,12.07,7.51Z"/><path class="cls-1" d="m148.61,93.64c.31-1.9,2.08-.85,3.06-1.51,3.07-2.05,6.57-1.99,10.08-1.72-4.31,1.37-8.68,2.5-13.14,3.23Z"/><path class="cls-1" d="m347.62,91.98c3.33-1.58,6.4-.08,9.5.87.22.07.24.8.35,1.22-3.39-.21-6.51-1.67-9.85-2.08Z"/><path class="cls-1" d="m500.41,145.94c-.57.01-1.1-.12-1.44-.58-2.2-3.04-4.37-6.09-6.15-9.4,3.61,2.51,5.19,6.56,7.6,9.99Z"/><path class="cls-1" d="m473.29,137.39c3.53.26,5.06,1.65,6.34,5.76-2.68-1.3-4.31-3.75-6.34-5.76Z"/><path class="cls-1" d="m510.64,172.14c-.26-.07-.71-.09-.75-.22-.78-2.99-2.76-5.75-1.86-9.08,1.29,2.98,2.4,6.01,2.61,9.3Z"/><path class="cls-1" d="m431.74,95.72c-3.32-.04-6.36-.79-8.74-3.31,3.21.32,6.1,1.5,8.74,3.31Z"/><path class="cls-1" d="m98.79,105.74c-1.78,2.76-3.71,5.35-7.08,6.32,1.6-2.95,4.45-4.52,7.08-6.32Z"/><path class="cls-1" d="m485.65,242.5c.66,2.23-1.81,6.29-4.09,6.72.55-.89,1.1-1.79,1.65-2.68.81-1.35,1.63-2.7,2.44-4.05Z"/><path class="cls-1" d="m371.12,96.34c2.86.25,5.91-.24,8.18,2.2-2.98.2-5.49-1.31-8.18-2.2Z"/><path class="cls-1" d="m80.49,132.43c.57-2.58,2.33-4.09,4.64-5.09-1.27,1.95-2.16,4.25-4.64,5.09Z"/><path class="cls-1" d="m402.44,104.64c2.29-.35,4.49-.2,6.57,1.01.55.32.74.67.73,1.23-2.53-.41-4.99-1.08-7.3-2.24Z"/><path class="cls-1" d="m404.41,85.93c-2.85.37-5.62.42-7.67-2.13,2.76-.01,5.09,1.49,7.67,2.13Z"/><path class="cls-1" d="m428.82,113.28c2.23.23,5.09-1.18,6.05,2.34-2.05-.68-4.33-.79-6.05-2.34Z"/><path class="cls-1" d="m394.83,102.42c2.7-.16,5.46-.5,7.33,2.16-2.54-.4-5.1-.71-7.33-2.16Z"/><path class="cls-1" d="m474.63,118.71c-2.63.34-4.12-.92-4.77-3.37,1.77.86,3.68,1.53,4.77,3.37Z"/><path class="cls-1" d="m120.79,103.32c1.6-2.83,4.51-2.64,7.14-3.1-2.17,1.53-4.66,2.29-7.14,3.1Z"/><path class="cls-1" d="m481.86,255.11c.06-3,2.24-4.27,4.49-5.47-1.17,2.09-2.68,3.9-4.49,5.47Z"/><path class="cls-1" d="m266.59,63.99c-4.14,0-8.27,0-12.4,0,4.14-.49,8.27-.5,12.4,0Z"/><path class="cls-1" d="m419.89,110.08c2.6-.38,4.91.18,6.83,2.06-2.55.24-4.61-1.17-6.83-2.06Z"/><path class="cls-1" d="m341.66,90.79c2.05-1.05,4.23-.09,6.43-.52-.03.83-1.19.84-.99,1.64-1.93.18-3.54-1.17-5.44-1.12Z"/><path class="cls-1" d="m511.31,189.69c0-3.74.01-7.49.02-11.23.75,3.74,1.03,7.49-.02,11.23Z"/><path class="cls-1" d="m363.32,94.76c1.54-.01,3.08-.02,4.62-.04.81-.01,1.46.17,1.44,1.17-2.09.02-4.15-.15-6.06-1.13Z"/><path class="cls-1" d="m491.6,242.02c-.18-2.3,1.47-3.3,3.08-4.32-.73,1.65-1.41,3.34-3.08,4.32Z"/><path class="cls-1" d="m106.55,100.05c-.89,1.62-1.53,3.59-4.06,2.96,1.06-1.38,2.64-2.07,4.06-2.96Z"/><path class="cls-1" d="m109.53,98.24c.29.58.52,1.31-.11,1.66-.77.42-1.7.53-2.34-.42.82-.41,1.63-.83,2.45-1.24Z"/><path class="cls-1" d="m102.41,103.09c-.47,1.42-.87,2.95-2.94,1.92.83-.87,1.79-1.54,2.94-1.92Z"/><path class="cls-1" d="m136.66,84.63c.02,2.67-1.99.78-2.93,1.3.61-1.27,1.96-.85,2.93-1.3Z"/><path class="cls-1" d="m480.65,251.68c.27,1.74-.45,2.85-2.13,3.34.52-1.23.94-2.54,2.13-3.34Z"/><path class="cls-1" d="m139.31,83.74c-.39,1.65-1.38,1.2-2.39.69.59-.95,1.54-.63,2.39-.69Z"/><path class="cls-1" d="m142.52,82.59c-.37,2.04-1.88.95-2.95,1.08.83-.77,1.83-1.1,2.95-1.08Z"/><path class="cls-1" d="m481.5,249.45c.33,1,.79,2.04-.88,2.26.06-.84.35-1.59.88-2.26Z"/><path class="cls-1" d="m406.53,86.59c-.99.64-1.86.94-2.13-.67.71.22,1.42.45,2.13.67Z"/><path class="cls-1" d="m85.25,127.22c-.38-.88.27-.79.78-.83-.12.41-.33.74-.78.83Z"/><path class="cls-1" d="m110.35,97.76c-.09.38-.29.58-.71.47.23-.16.47-.31.71-.47Z"/><path class="cls-1" d="m161.72,90.43c.22-.18.43-.37.65-.55-.09.33-.25.58-.65.55Z"/><path class="cls-1" d="m500.42,185.75c.34-.1.93-.27.93.09.04,3.49.36,6.99-.18,10.47-.02.15-.44.24-.68.36.43-3.65.37-7.29-.07-10.93Z"/><path class="cls-1" d="m305.97,361.94c2.19,1.22,4.56.32,6.84.57,1.68.18,3.39-.24,5.06.23-3.87.29-7.74.23-11.61.02-.13,0-.29-.22-.35-.37-.05-.12.04-.3.07-.45Z"/></svg>