<?xml version="1.0" encoding="UTF-8"?><svg id="Capa_1" xmlns="http://www.w3.org/2000/svg" viewBox="0 0 512 512"><defs><style>.cls-1{fill:#fff;}</style></defs><path class="cls-1" d="m448.29,267.97c-2.27,4.47-4.55,9.09-6.96,13.64-.99,1.86-1.38,3.77-1.34,5.84.06,3.84,1.24,7.05,4.77,9.04.19.11.3.38.68.9-4.55.08-8.79.52-13.48-.24,5.01-9.82,9.88-19.37,14.96-29.32-6.61-.77-11.51-3.71-14.37-9.71.32-.08.6-.26.78-.18,5.22,2.18,10.66,1.67,16.09,1.37,1.31-.07,2.14-.62,2.76-1.86,4.79-9.65,9.62-19.29,14.51-28.89.69-1.35.8-2.52.14-3.88-.87-1.8-1.62-3.66-2.6-5.92,2.02-.1,3.62-.22,5.23-.24,2.21-.02,4.42.06,6.63.05,1.1,0,1.84.27,2.34,1.44,4.04,9.49,8.13,18.95,12.27,28.4,4.98,11.39,10.01,22.77,15.03,34.14,1.97,4.46,3.97,8.91,5.95,13.37.14.32.18.68.32,1.24-.82.1-1.52.25-2.21.25-2.76.01-5.53-.13-8.29,0-1.79.08-2.84-.4-3.58-2.18-2.47-5.95-5.12-11.82-7.73-17.71-7.01-15.83-14.03-31.66-21.06-47.49-.15-.33-.33-.65-.51-.99-1.49,1.48-13.65,24.96-15.36,29.73.95-.04,1.8-.05,2.65-.12,4.05-.33,8.1-.52,12.12.31,5.24,1.08,8.95,3.98,10.96,9.44-.74-.12-1.18-.1-1.54-.26-3.61-1.68-7.43-2.1-11.34-1.81-3.67.27-7.33.73-11,1.08-2.2.21-4.4.37-6.83.57Z"/><path class="cls-1" d="m16.32,267.86c-2.27,4.47-4.55,9.09-6.96,13.64-.99,1.86-1.38,3.77-1.34,5.84.06,3.84,1.24,7.05,4.77,9.04.19.11.3.38.68.9-4.55.08-8.79.52-13.48-.24,5.01-9.82,9.88-19.37,14.96-29.32-6.61-.77-11.51-3.71-14.37-9.71.32-.08.6-.26.78-.18,5.22,2.18,10.66,1.67,16.09,1.37,1.31-.07,2.14-.62,2.76-1.86,4.79-9.65,9.62-19.29,14.51-28.89.69-1.35.8-2.52.14-3.88-.87-1.8-1.62-3.66-2.6-5.92,2.02-.1,3.62-.22,5.23-.24,2.21-.02,4.42.06,6.63.05,1.1,0,1.84.27,2.34,1.44,4.04,9.49,8.13,18.95,12.27,28.4,4.98,11.39,10.01,22.77,15.03,34.14,1.97,4.46,3.97,8.91,5.95,13.37.14.32.18.68.32,1.24-.82.1-1.52.25-2.21.25-2.76.01-5.53-.13-8.29,0-1.79.08-2.84-.4-3.58-2.18-2.47-5.95-5.12-11.82-7.73-17.71-7.01-15.83-14.03-31.66-21.06-47.49-.15-.33-.33-.65-.51-.99-1.49,1.48-13.65,24.96-15.36,29.73.95-.04,1.8-.05,2.65-.12,4.05-.33,8.1-.52,12.12.31,5.24,1.08,8.95,3.98,10.96,9.44-.74-.12-1.18-.1-1.54-.26-3.61-1.68-7.43-2.1-11.34-1.81-3.67.27-7.33.73-11,1.08-2.2.21-4.4.37-6.83.57Z"/><path class="cls-1" d="m396.64,265.71c-.02.07-.03.2-.07.21-5.01,1.57-7.96,5.11-10.28,9.71-6,11.88-15.75,19.22-28.88,21.2-15.8,2.39-29.12-2.62-39.11-15.32-15.3-19.44-8.49-50.97,19.03-60.59,11.94-4.17,23.63-2.84,34.56,3.64,6.16,3.66,10.84,8.87,14.04,15.25,2.44,4.87,5.32,9.07,11.29,10.33-5.38,3.37-12.28,2.76-16.4-.38-3.35-2.55-5.94-5.77-8.19-9.28-1.99-3.1-3.76-6.35-5.88-9.35-2.06-2.92-4.33-5.71-6.72-8.37-1.57-1.74-3.68-2.54-6.14-2.73-8.05-.6-15.53,1.15-22.6,4.95-2.82,1.52-4.35,4.02-5.05,6.94-.66,2.76-1.13,5.63-1.15,8.45-.08,10.77.07,21.55.12,32.32,0,1.38-.11,2.76-.14,4.14-.06,3.57.81,6.94,2.29,10.15.86,1.88,2.23,3.31,4.11,4.32,7.46,3.99,15.41,5.36,23.78,4.61,1.97-.18,3.42-1.27,4.82-2.48,2.97-2.56,5.1-5.79,7.14-9.09,1.99-3.21,3.93-6.45,6.01-9.6,2.09-3.16,4.57-5.97,7.62-8.31,4.79-3.66,12.44-3.22,15.81-.74Z"/><path class="cls-1" d="m179.26,230.51c-1.34-6.9-5.96-10.62-13.18-10.62-3.78,0-7.56,0-11.33.02-.81,0-1.63.09-2.81.15,0,1.55,0,3,0,4.44.03,10.32.08,20.65.08,30.97,0,9.95,0,19.91-.13,29.86-.08,6.25-4.75,11.27-10.95,11.88-2.36.23-4.76.04-7.11.04-.08-.25-.22-.5-.16-.56,3.86-4.33,4.93-9.63,4.97-15.15.06-7.74-.24-15.47-.23-23.21,0-8.85.17-17.69.24-26.54.03-3.85,0-7.7,0-11.69-.95-.08-1.67-.19-2.38-.2-4.33-.02-8.66-.05-12.99-.02-4.13.03-7.55,1.81-10.08,4.92-1.21,1.49-1.68,3.58-2.45,5.32-1.13-1.15-4.42-7.59-5.52-11.01,1.86-.54,75.78-.79,79.63-.26-.28,2.07-3.98,9.79-5.6,11.66Z"/><path class="cls-1" d="m249.25,218.62v60.74c-.07.92-.07,2.18.03,3.71.27,4.56,1.15,8.95,4.04,12.68.27.34.53.69,1.07,1.38-2.09.33-3.8.44-5.7-.07.6-1.47,1.93-.53,2.79-1.28-.84-1.94-1.72-3.98-2.61-6.04-1.46,1.65-2.82,3.47-4.47,4.97-1.73,1.57-3.91,2.45-6.28,2.55-2.26.09-4.52.02-7.28.02.66-.87,1.02-1.35,1.38-1.83,2.76-3.71,3.71-8.03,3.73-12.49.09-20.16.04-40.33.04-60.49,0-1.1,0-2.19,0-3.37,2.19-.77,4.31-.39,6.38-.45,2.11-.06,4.22-.01,6.87-.01Z"/></svg>