<?xml version="1.0" encoding="UTF-8"?><svg id="Capa_1" xmlns="http://www.w3.org/2000/svg" viewBox="0 0 512 512"><defs><style>.cls-1{fill:#fff;}</style></defs><g><path class="cls-1" d="m30.79,201.08L1.29,131h14.32l23.43,59.88,23.43-59.88h12.8l-29.51,69.86,30.37,72.9h-14.32l-24.08-62.05-24.52,62.05H.42l30.37-72.68Z"/><path class="cls-1" d="m91.76,131h53.59v11.07h-41.66v55.33h34.28v9.11h-34.28v56.19h43.18v11.07h-55.11v-142.76Z"/><path class="cls-1" d="m161.62,131h11.93v131.7h36.67v11.07h-48.6v-142.76Z"/><path class="cls-1" d="m256.86,207.8h33.85v9.11h-33.85v-9.11Z"/><path class="cls-1" d="m343.65,131h11.93v63.14h48.38v-63.14h11.72v142.76h-11.72v-69.64h-48.38v69.64h-11.93v-142.76Z"/><path class="cls-1" d="m490.96,237.96h-39.27l-7.38,35.8h-12.58l32.11-142.76h16.06l32.11,142.76h-13.67l-7.38-35.8Zm-1.74-9.33l-17.57-86.13h-.43l-17.57,86.13h35.58Z"/></g><g><path class="cls-1" d="m0,309.37h5.92v65.29h18.18v5.49H0v-70.77Z"/><path class="cls-1" d="m29.48,360.78v-51.41h5.92v51.73c0,9.79,4.62,14.41,11.62,14.41s11.4-4.62,11.4-14.41v-51.73h5.38v51.41c0,13.98-6.88,20.22-17.1,20.22s-17.21-6.24-17.21-20.22Z"/><path class="cls-1" d="m86.48,344.11l-14.63-34.74h7.1l11.62,29.69,11.62-29.69h6.35l-14.63,34.63,15.06,36.14h-7.1l-11.94-30.76-12.15,30.76h-6.35l15.06-36.03Z"/><path class="cls-1" d="m116.49,360.78v-51.41h5.92v51.73c0,9.79,4.62,14.41,11.62,14.41s11.4-4.62,11.4-14.41v-51.73h5.38v51.41c0,13.98-6.88,20.22-17.1,20.22s-17.21-6.24-17.21-20.22Z"/><path class="cls-1" d="m161.13,309.37h14.2c12.15,0,17.64,6.02,17.64,19.79,0,10.33-3.01,15.92-9.9,17.32v.11c6.78,1.08,9.68,5.81,9.68,13.34v20.22h-5.92v-20.01c0-7.21-3.12-10.86-11.08-10.86h-8.71v30.87h-5.92v-70.77Zm13.87,35.39c8.6,0,12.05-4.09,12.05-14.74s-3.55-15.17-11.72-15.17h-8.28v29.9h7.96Z"/><path class="cls-1" d="m214.15,353.57l-15.81-44.21h6.88l12.26,36.78h.22l12.15-36.78h6.24l-16.03,44.21v26.57h-5.92v-26.57Z"/><path class="cls-1" d="m262.02,309.37h5.92v31.3h23.98v-31.3h5.81v70.77h-5.81v-34.53h-23.98v34.53h-5.92v-70.77Z"/><path class="cls-1" d="m307.3,344.43c0-24.85,5.7-35.92,18.18-35.92s18.18,11.08,18.18,35.92-5.7,36.57-18.18,36.57-18.18-11.4-18.18-36.57Zm30.44,0c0-21.08-3.87-30.44-12.26-30.44s-12.26,9.36-12.26,30.44,3.76,31.08,12.26,31.08,12.26-9.68,12.26-31.08Z"/><path class="cls-1" d="m353.01,360.78v-51.41h5.92v51.73c0,9.79,4.62,14.41,11.62,14.41s11.4-4.62,11.4-14.41v-51.73h5.38v51.41c0,13.98-6.88,20.22-17.1,20.22s-17.21-6.24-17.21-20.22Z"/><path class="cls-1" d="m396.57,355.62h5.49c0,14.63,2.8,20.22,10.97,20.22,7.31,0,11.08-4.62,11.08-13.23,0-4.84-1.61-7.85-3.66-9.68-2.15-1.83-5.92-3.55-9.14-5.16-3.66-1.72-7.42-3.44-10-6.02-2.37-2.26-4.84-6.56-4.84-14.3,0-12.26,6.35-18.93,16.35-18.93,11.94,0,15.7,6.88,15.7,26.89h-5.49c0-17.32-3.01-21.73-10-21.73-6.56,0-10.76,4.52-10.76,13.44,0,6.02,1.61,9.03,3.55,10.97,2.26,2.26,5.92,3.76,9.36,5.38,3.66,1.72,7.42,3.44,9.79,5.81,2.8,2.69,4.95,6.99,4.95,13.01,0,11.72-5.81,18.71-16.89,18.71-12.69,0-16.46-8.82-16.46-25.38Z"/><path class="cls-1" d="m439.27,309.37h26.57v5.49h-20.65v27.43h16.99v4.52h-16.99v27.86h21.4v5.49h-27.32v-70.77Z"/><path class="cls-1" d="m472.83,355.62h5.49c0,14.63,2.8,20.22,10.97,20.22,7.31,0,11.08-4.62,11.08-13.23,0-4.84-1.61-7.85-3.66-9.68-2.15-1.83-5.92-3.55-9.14-5.16-3.66-1.72-7.42-3.44-10-6.02-2.37-2.26-4.84-6.56-4.84-14.3,0-12.26,6.35-18.93,16.35-18.93,11.94,0,15.7,6.88,15.7,26.89h-5.49c0-17.32-3.01-21.73-10-21.73-6.56,0-10.76,4.52-10.76,13.44,0,6.02,1.61,9.03,3.55,10.97,2.26,2.26,5.92,3.76,9.36,5.38,3.66,1.72,7.42,3.44,9.79,5.81,2.8,2.69,4.95,6.99,4.95,13.01,0,11.72-5.81,18.71-16.89,18.71-12.69,0-16.46-8.82-16.46-25.38Z"/></g></svg>