<?xml version="1.0" encoding="UTF-8"?><svg id="Capa_1" xmlns="http://www.w3.org/2000/svg" viewBox="0 0 512 512"><defs><style>.cls-1{fill:#fff;}</style></defs><g><path class="cls-1" d="m45.98,84.21c9.53,0,18,3.63,25.71,10.59l3.93-9.68h4.39l4.99,43.1-5.29.76c-4.69-22.23-16.94-38.26-33.73-38.26s-28.13,17.39-28.13,51.27c0,36.3,12.1,49.61,31.31,49.61,16.18,0,28.13-12.7,31.61-34.03l5.9.91c-2.87,22.84-16.64,40.08-39.93,40.08-29.95,0-46.73-29.19-46.73-54.6,0-37.66,24.65-59.74,45.98-59.74Z"/><path class="cls-1" d="m137.02,184.63c-2.27,4.69-10.59,13.76-22.53,13.76s-20.72-4.69-20.72-17.39,14.37-23.59,42.95-27.22v-8.32c0-8.32-4.69-14.52-14.06-14.52-8.77,0-13.46,4.39-13.46,6.05,0,2.42,3.78,2.57,3.78,8.62,0,4.84-4.08,7.26-7.41,7.26s-8.17-2.72-8.17-9.07c0-7.41,7.86-18.75,28.73-18.75,13.31,0,22.84,5.29,22.84,21.48,0,17.09-.3,21.48-.3,29.34s2.42,13.46,6.05,13.46c2.87,0,3.63-2.42,5.6-2.42,1.36,0,1.81,1.81,1.81,2.72,0,3.18-3.48,7.41-10.44,7.41-9.38,0-12.4-5.9-13.91-12.4h-.76Zm-.3-25.41c-19.96,2.57-29.19,8.17-29.19,20.57,0,6.65,3.33,11.8,9.53,11.8,10.28,0,19.66-6.81,19.66-24.5v-7.86Z"/><path class="cls-1" d="m176.34,197.18h-4.39l-3.18-28.74h4.84c3.02,11.65,12.86,23.59,25.26,23.59,9.23,0,15.27-4.54,15.27-12.25,0-8.62-8.77-10.28-18.45-12.25-11.95-2.42-25.41-5.29-25.41-22.69,0-9.83,8.32-20.57,21.78-20.57,6.96,0,13.46,3.63,17.24,6.81l2.42-5.9h4.39l3.18,24.65-4.84.45c-2.42-8.92-10.74-20.27-22.38-20.27-7.56,0-13.31,3.63-13.31,10.74,0,8.17,7.11,9.98,20.42,12.7,11.49,2.42,23.74,5.75,23.74,22.23,0,11.49-9.98,22.08-24.2,22.08-7.11,0-14.67-3.02-19.51-7.41l-2.87,6.81Z"/><path class="cls-1" d="m275.25,184.63c-2.27,4.69-10.59,13.76-22.53,13.76s-20.72-4.69-20.72-17.39,14.37-23.59,42.95-27.22v-8.32c0-8.32-4.69-14.52-14.06-14.52-8.77,0-13.46,4.39-13.46,6.05,0,2.42,3.78,2.57,3.78,8.62,0,4.84-4.08,7.26-7.41,7.26s-8.17-2.72-8.17-9.07c0-7.41,7.86-18.75,28.73-18.75,13.31,0,22.84,5.29,22.84,21.48,0,17.09-.3,21.48-.3,29.34s2.42,13.46,6.05,13.46c2.87,0,3.63-2.42,5.6-2.42,1.36,0,1.81,1.81,1.81,2.72,0,3.18-3.48,7.41-10.44,7.41-9.38,0-12.4-5.9-13.91-12.4h-.76Zm-.3-25.41c-19.96,2.57-29.19,8.17-29.19,20.57,0,6.65,3.33,11.8,9.53,11.8,10.28,0,19.66-6.81,19.66-24.5v-7.86Z"/></g><g><path class="cls-1" d="m97.16,251.85v58.53c0,21.78,1.97,23.14,20.11,24.8v6.65h-41.59v-6.65c13.31-.91,14.37-3.93,14.37-23.9v-65.94c-1.97-2.87-4.99-5.44-10.44-5.75l-7.26-.3v-6.65h29.94l55.2,80v-49.45c0-22.23-3.48-22.69-19.66-23.9v-6.65h41.59v6.65c-14.07,1.36-14.67,4.39-14.67,24.8v78.64h-5.75l-61.86-90.89Z"/><path class="cls-1" d="m220.11,270.9c18.15,0,32.82,16.48,32.82,36.9s-14.67,36.9-32.82,36.9-32.67-16.48-32.67-36.9,14.52-36.9,32.67-36.9Zm-.3,6.05c-12.4,0-18,13.16-18,30.85s5.6,30.7,18,30.7,18.15-13.01,18.15-30.7-5.75-30.85-18.15-30.85Z"/><path class="cls-1" d="m270.63,343.5h-4.39l-3.18-28.74h4.84c3.02,11.65,12.86,23.59,25.26,23.59,9.23,0,15.27-4.54,15.27-12.25,0-8.62-8.77-10.28-18.45-12.25-11.95-2.42-25.41-5.29-25.41-22.69,0-9.83,8.32-20.57,21.78-20.57,6.96,0,13.46,3.63,17.24,6.81l2.42-5.9h4.39l3.18,24.65-4.84.45c-2.42-8.92-10.74-20.27-22.38-20.27-7.56,0-13.31,3.63-13.31,10.74,0,8.17,7.11,9.98,20.42,12.7,11.49,2.42,23.74,5.75,23.74,22.23,0,11.49-9.98,22.08-24.2,22.08-7.11,0-14.67-3.02-19.51-7.41l-2.87,6.81Z"/><path class="cls-1" d="m336.11,327.46l.76-47.64h-13.46v-5.6c15.73-1.66,18.15-12.55,20.11-31.46l6.2-.3-.6,30.1h19.96v7.26h-20.11l-.3,43.1c0,8.77,2.87,12.86,9.53,12.86,9.68,0,11.65-12.25,11.65-21.02h4.69c.45,2.27.6,4.54.6,6.5,0,8.47-5.9,22.99-21.63,22.99-10.59,0-17.39-5.44-17.39-16.48v-.3Z"/><path class="cls-1" d="m382.84,336.09l10.28-.61c0-15.88-.15-28.28-.6-45.52-.15-4.84-.45-6.96-6.96-6.96h-8.02v-5.6c7.11-.45,13.46-2.87,19.66-5.9h4.99l.76,25.86.76.15c4.54-16.18,10.89-26.77,22.08-26.77,5.29,0,11.8,4.99,11.8,12.1,0,5.75-3.33,10.44-7.86,10.44-5.6,0-8.32-4.08-8.32-8.02,0-4.54,3.02-5.6,3.02-7.11,0-.45-.45-.76-.91-.76-8.77,0-18.45,21.63-18.45,41.89v11.19c0,3.93,1.66,4.99,5.14,5.14l11.34.45v5.75h-38.72v-5.75Z"/><path class="cls-1" d="m486.89,330.94c-2.27,4.69-10.59,13.76-22.53,13.76s-20.72-4.69-20.72-17.39,14.37-23.59,42.95-27.22v-8.32c0-8.32-4.69-14.52-14.06-14.52-8.77,0-13.46,4.39-13.46,6.05,0,2.42,3.78,2.57,3.78,8.62,0,4.84-4.08,7.26-7.41,7.26s-8.17-2.72-8.17-9.07c0-7.41,7.86-18.75,28.73-18.75,13.31,0,22.84,5.29,22.84,21.48,0,17.09-.3,21.48-.3,29.34s2.42,13.46,6.05,13.46c2.87,0,3.63-2.42,5.6-2.42,1.36,0,1.81,1.81,1.81,2.72,0,3.18-3.48,7.41-10.44,7.41-9.38,0-12.4-5.9-13.91-12.4h-.76Zm-.3-25.41c-19.96,2.57-29.19,8.17-29.19,20.57,0,6.65,3.33,11.8,9.53,11.8,10.28,0,19.66-6.81,19.66-24.5v-7.86Z"/></g><g><polygon class="cls-1" points="267.12 406.72 267.19 406.58 267.12 406.65 267.12 406.72"/><polygon class="cls-1" points="266.98 407.13 266.98 406.92 266.84 407.34 266.98 407.13"/><polygon class="cls-1" points="267.05 406.85 267.12 406.72 267.05 406.72 267.05 406.85"/><polygon class="cls-1" points="267.19 406.78 267.19 406.72 267.12 406.92 267.19 406.78"/><polygon class="cls-1" points="265.61 409.61 265.88 409.33 265.95 409.13 265.74 409.26 265.61 409.61"/><polygon class="cls-1" points="286.67 382.56 286.46 382.83 286.53 383.18 286.67 382.9 286.73 382.56 286.8 382.35 287.08 382.14 287.01 381.66 286.73 381.8 286.67 382.14 286.67 382.56"/><polygon class="cls-1" points="266.98 406.44 266.91 406.72 266.98 406.92 266.98 406.72 267.05 406.65 266.98 406.58 267.19 406.44 267.12 406.37 266.98 406.44"/><polygon class="cls-1" points="286.39 383.66 286.67 383.38 286.53 383.18 286.39 383.38 286.39 383.66"/><polygon class="cls-1" points="267.33 405.61 267.26 405.89 267.05 406.1 267.05 406.3 266.84 406.37 266.71 406.72 266.57 406.78 266.57 406.85 266.5 406.99 266.29 407.27 266.29 407.4 266.09 407.75 266.36 407.61 266.36 407.34 266.57 407.13 266.71 406.92 266.78 406.65 266.98 406.37 267.19 406.3 267.26 406.1 267.39 405.82 267.53 405.61 267.53 405.55 267.53 405.48 267.33 405.61"/><polygon class="cls-1" points="265.88 408.16 265.67 408.3 265.61 408.51 265.67 408.37 265.88 408.16"/><polygon class="cls-1" points="267.33 406.17 267.39 406.03 267.39 405.89 267.33 406.03 267.33 406.17"/><polygon class="cls-1" points="267.26 406.65 267.33 406.37 267.39 406.17 267.26 406.44 267.26 406.65"/><polygon class="cls-1" points="249.91 398.18 249.71 397.84 249.78 397.56 249.71 397.42 249.5 397.15 249.16 396.87 249.23 396.74 248.81 396.46 248.88 396.32 248.54 396.12 248.67 396.25 248.81 396.53 249.09 396.8 249.23 397.01 249.23 397.22 249.36 397.49 249.5 397.84 249.64 398.04 249.64 398.32 249.71 398.53 249.57 398.8 249.57 399.14 249.64 399.35 249.78 399.7 249.71 399.97 249.78 400.25 249.64 400.59 249.64 401.07 249.36 401.35 249.43 401.55 249.36 401.83 249.36 401.9 249.5 401.76 249.57 401.48 249.57 401.21 249.78 400.93 249.84 400.59 249.84 400.32 249.91 400.04 250.05 399.76 250.05 399.49 249.98 399.21 249.98 398.94 250.12 398.73 249.91 398.39 249.91 398.18"/><polygon class="cls-1" points="256.18 418 255.76 418 255.83 418.07 256.04 418.14 256.31 418.14 256.45 418.21 256.38 418.14 256.18 418"/><polygon class="cls-1" points="248.74 403 248.61 403.14 248.81 403.14 248.88 402.93 248.88 402.72 249.09 402.52 249.09 402.45 248.81 402.65 248.74 403"/><polygon class="cls-1" points="267.46 406.03 267.53 405.89 267.53 405.61 267.46 405.82 267.46 406.03"/><polygon class="cls-1" points="241.45 410.36 241.52 410.5 241.65 410.36 241.59 410.23 241.45 410.36"/><polygon class="cls-1" points="249.29 402.17 249.29 402.1 249.23 402.31 249.29 402.17"/><polygon class="cls-1" points="265.47 408.85 265.54 408.64 265.47 408.78 265.12 409.19 264.92 409.54 265.33 409.13 265.47 408.85"/><polygon class="cls-1" points="266.98 407.27 266.91 407.47 266.78 407.75 266.64 408.09 266.57 408.3 266.36 408.51 266.29 408.64 266.16 408.99 266.09 409.19 266.22 409.06 266.29 408.92 266.5 408.64 266.57 408.37 266.84 408.09 266.84 407.75 266.91 407.61 267.12 407.4 267.19 407.06 267.33 406.92 267.53 406.3 267.53 406.23 267.39 406.44 266.98 407.27"/><polygon class="cls-1" points="258.58 395.63 258.79 395.5 258.79 395.22 259.2 395.08 259 394.88 259.07 394.53 259.34 394.4 259.2 394.12 259.14 394.26 259 394.46 258.86 394.88 258.72 395.15 258.58 395.5 258.38 395.84 258.1 396.19 258.1 396.39 258.17 396.19 258.58 395.63"/><polygon class="cls-1" points="254.73 417.45 254.87 417.66 255.14 417.73 255.49 417.8 255.14 417.45 255.01 417.38 254.87 417.18 254.32 417.04 254.18 416.83 254.04 416.7 253.97 416.35 253.97 416.15 253.84 415.8 253.7 415.66 253.63 415.32 253.49 415.04 253.22 414.84 253.28 414.56 253.22 414.7 253.15 414.98 253.35 415.32 253.35 415.53 253.63 415.8 253.49 416.08 253.84 416.21 253.77 416.56 253.97 416.7 254.73 417.45"/><polygon class="cls-1" points="265.95 409.54 265.74 409.74 265.61 409.95 265.47 410.3 265.4 410.5 265.19 410.91 264.99 411.19 264.92 411.4 264.71 411.53 264.64 411.88 264.5 412.08 264.23 412.15 264.23 412.57 264.09 412.77 263.88 412.98 263.82 413.25 264.37 412.43 264.57 412.22 264.64 411.95 264.85 411.74 264.99 411.53 265.05 411.26 265.4 410.91 265.54 410.64 265.54 410.3 265.74 410.02 265.81 409.74 265.95 409.61 266.02 409.54 266.02 409.33 265.95 409.54"/><polygon class="cls-1" points="241.24 411.26 241.38 411.12 241.45 410.85 241.45 410.71 241.24 410.85 241.24 411.26"/><polygon class="cls-1" points="311.58 402.04 311.51 402.38 311.79 402.59 311.72 402.45 311.58 402.04"/><polygon class="cls-1" points="286.05 385.31 286.11 385.03 286.11 384.69 286.32 384.48 286.18 384.21 286.46 384 286.32 383.8 286.25 384 285.98 384.42 285.84 384.76 285.98 384.97 285.77 385.24 285.7 385.38 285.84 385.45 286.05 385.31"/><polygon class="cls-1" points="312.96 399.08 313.03 399.08 313.03 398.73 312.61 399.21 312.96 399.08"/><polygon class="cls-1" points="296.71 415.66 296.85 415.18 296.03 416.01 296.71 415.66"/><polygon class="cls-1" points="297.27 394.74 297.06 395.01 297.27 394.81 297.4 394.53 297.4 394.26 297.27 394.46 297.27 394.74"/><polygon class="cls-1" points="308.48 413.6 308.62 413.25 308.48 413.25 308.48 413.6"/><polygon class="cls-1" points="313.99 396.39 314.06 395.77 313.99 395.98 313.99 396.39"/><polygon class="cls-1" points="319.57 389.51 320.05 389.1 319.77 389.1 319.57 389.51"/><polygon class="cls-1" points="318.67 392.81 318.67 393.09 319.02 392.95 318.81 392.81 318.67 392.81"/><polygon class="cls-1" points="317.64 393.91 317.78 394.26 318.12 393.57 317.64 393.91"/><polygon class="cls-1" points="317.98 394.53 317.78 394.26 317.64 394.74 317.98 394.53"/><polygon class="cls-1" points="296.37 416.35 296.65 416.21 296.71 415.8 295.82 416.28 296.37 416.35"/><polygon class="cls-1" points="293.07 412.7 293.14 412.91 293.14 412.5 293.2 412.22 293.2 411.95 293.27 411.67 293.27 411.4 293.34 411.05 293.34 410.85 293.55 410.64 293.62 410.3 293.41 410.09 293.69 409.74 293.69 409.26 293.62 408.99 293.89 408.64 293.89 408.37 293.75 408.16 294.03 407.89 293.96 407.61 293.96 407.4 294.03 407.13 294.03 406.78 294.31 406.51 294.17 406.23 294.31 405.68 294.51 405.48 294.51 405.2 294.58 404.93 294.58 404.17 294.65 403.89 294.72 403.55 294.99 403.34 294.86 403 294.92 402.79 295.13 402.52 295.2 402.24 295.27 402.04 295.2 401.76 295.41 401.48 295.34 401.21 295.61 400.87 295.61 400.66 295.75 400.38 295.82 400.11 295.82 399.83 295.75 399.63 295.89 399.28 295.96 399.01 295.96 398.8 296.16 398.46 296.16 398.25 296.3 397.97 296.44 397.42 296.58 397.22 296.51 396.94 296.51 397.08 296.23 397.29 296.23 397.63 296.03 397.91 296.16 398.11 296.03 398.25 296.09 398.32 295.96 398.46 296.03 398.66 295.89 398.87 295.82 399.14 295.75 399.49 295.48 399.9 295.41 400.11 295.34 400.32 295.41 400.52 295.27 400.66 295.2 401 295.27 401.28 295.13 401.55 295.06 401.9 294.92 402.1 294.86 402.17 294.86 402.31 294.79 402.31 294.79 402.65 294.72 402.93 294.58 403.21 294.72 403.48 294.65 403.69 294.44 404.03 294.31 404.24 294.24 404.51 294.24 405.06 294.03 405.27 293.96 405.55 294.1 405.89 293.89 406.1 293.96 406.37 293.89 406.72 293.69 406.92 293.69 407.2 293.82 407.54 293.55 407.75 293.69 408.09 293.41 408.3 293.41 408.64 293.48 408.92 293.48 409.33 293.2 409.61 293.2 410.23 293.27 410.5 293.07 410.71 293.07 410.98 293 411.26 293 411.26 293.14 411.53 293.07 411.74 293.07 412.08 293.14 412.36 293.07 412.7"/><polygon class="cls-1" points="296.78 396.32 296.71 396.12 296.58 396.25 296.51 396.6 296.51 396.94 296.58 396.6 296.78 396.32"/><polygon class="cls-1" points="283.02 394.19 283.02 394.26 283.09 394.19 283.16 393.84 283.36 393.64 283.57 392.81 283.57 392.67 283.22 392.95 283.22 393.29 283.16 393.36 283.16 393.71 283.09 393.91 283.09 394.05 283.02 394.19"/><polygon class="cls-1" points="284.39 389.58 284.46 389.85 284.33 390.06 284.12 390.4 284.12 390.61 284.05 390.82 283.84 391.09 283.77 391.37 283.71 391.71 283.71 391.99 283.64 392.26 283.5 392.4 283.57 392.67 283.57 392.61 283.64 392.4 283.77 392.06 284.05 391.85 284.05 391.57 284.19 391.3 284.26 391.02 284.26 390.75 284.46 390.61 284.46 389.99 284.6 389.78 284.74 389.51 284.81 389.16 284.94 388.96 285.01 388.75 284.94 388.41 285.22 388.13 285.08 387.93 285.29 387.58 285.36 387.44 285.36 387.1 285.5 386.82 285.5 386.55 285.56 386.34 285.36 386.55 285.29 386.89 285.15 387.1 285.15 387.44 284.94 387.72 284.88 387.99 284.94 388.2 284.81 388.48 284.67 388.68 284.53 388.96 284.6 389.3 284.39 389.58"/><polygon class="cls-1" points="295.27 416.08 295.68 416.35 295.96 415.94 295.27 416.08"/><polygon class="cls-1" points="293.07 413.94 293 414.01 293 414.08 293.14 414.08 293.07 413.94"/><polygon class="cls-1" points="284.46 404.1 284.33 404.44 284.05 405.27 284.05 405.75 284.33 405.48 284.67 405 284.94 403.69 284.67 403.55 284.46 404.1"/><polygon class="cls-1" points="293.14 413.6 293.2 413.46 293.14 413.32 293.14 413.6"/><polygon class="cls-1" points="309.38 427.98 309.24 427.78 309.31 428.12 309.52 428.47 309.45 428.19 309.38 427.98"/><polygon class="cls-1" points="309.24 427.78 309.24 427.5 309.17 427.16 308.97 426.95 309.03 426.61 309.03 426.19 308.97 425.92 308.83 425.64 308.76 425.3 308.76 425.02 308.62 424.75 308.55 424.47 308.69 424.2 308.69 423.92 308.55 423.51 308.55 423.17 308.62 422.89 308.48 422.62 308.42 422.41 308.55 422.13 308.48 421.79 308.35 421.58 308.35 420.96 308.28 420.69 308.35 420.48 308.35 420.21 308.42 419.93 308.42 419.59 308.21 419.31 308.35 419.04 308.35 418.49 308.42 418.28 308.42 417.38 308.35 417.18 308.42 416.83 308.48 416.56 308.28 416.28 308.48 416.08 308.42 415.87 308.28 416.01 308.14 416.28 308.14 416.35 308.21 416.56 308.14 416.7 308.21 416.83 308.14 417.18 308.21 417.45 308 417.66 308.21 417.94 308 418.21 308.21 418.55 307.93 419.11 307.93 419.31 308.07 419.66 308.07 419.93 308.14 420.21 307.93 420.41 308.07 420.69 308.07 421.03 308 421.24 308.14 421.58 308.07 421.86 308.21 422.07 308.21 422.68 308.14 422.89 308.07 423.17 308.21 423.44 308.14 423.72 308.21 424.06 308.35 424.27 308.42 424.61 308.48 424.89 308.48 425.37 308.62 425.71 308.55 425.85 308.55 425.92 308.62 426.13 308.69 426.19 308.76 426.4 308.76 426.54 308.9 426.95 308.97 427.02 309.03 427.16 309.17 427.43 309.24 427.78"/><polygon class="cls-1" points="285.77 385.65 285.7 385.86 285.7 386.07 285.77 385.79 285.77 385.65"/><polygon class="cls-1" points="228.99 406.65 228.92 406.58 229.13 406.44 229.06 406.37 228.92 406.44 228.85 406.72 228.92 406.92 228.92 406.72 228.99 406.65"/><polygon class="cls-1" points="191 415.66 191.14 415.18 190.31 416.01 191 415.66"/><polygon class="cls-1" points="190.65 416.35 190.93 416.21 191 415.8 190.1 416.28 190.65 416.35"/><polygon class="cls-1" points="191.55 394.74 191.34 395.01 191.55 394.81 191.69 394.53 191.69 394.26 191.55 394.46 191.55 394.74"/><polygon class="cls-1" points="178.75 404.1 178.61 404.44 178.33 405.27 178.33 405.75 178.61 405.48 178.95 405 179.23 403.69 178.95 403.55 178.75 404.1"/><polygon class="cls-1" points="189.55 416.08 189.97 416.35 190.24 415.94 189.55 416.08"/><polygon class="cls-1" points="187.42 413.6 187.49 413.46 187.42 413.32 187.42 413.6"/><polygon class="cls-1" points="202.77 413.6 202.91 413.25 202.77 413.25 202.77 413.6"/><polygon class="cls-1" points="212.27 394.53 212.06 394.26 211.92 394.74 212.27 394.53"/><polygon class="cls-1" points="208.27 396.39 208.34 395.77 208.27 395.98 208.27 396.39"/><polygon class="cls-1" points="207.24 399.08 207.31 399.08 207.31 398.73 206.9 399.21 207.24 399.08"/><polygon class="cls-1" points="211.92 393.91 212.06 394.26 212.4 393.57 211.92 393.91"/><polygon class="cls-1" points="205.87 402.04 205.8 402.38 206.07 402.59 206 402.45 205.87 402.04"/><polygon class="cls-1" points="180.05 385.65 179.99 385.86 179.99 386.07 180.05 385.79 180.05 385.65"/><polygon class="cls-1" points="177.3 394.19 177.3 394.26 177.37 394.19 177.44 393.84 177.65 393.64 177.85 392.81 177.85 392.67 177.51 392.95 177.51 393.29 177.44 393.36 177.44 393.71 177.37 393.91 177.37 394.05 177.3 394.19"/><polygon class="cls-1" points="178.68 389.58 178.75 389.85 178.61 390.06 178.4 390.4 178.4 390.61 178.33 390.82 178.13 391.09 178.06 391.37 177.99 391.71 177.99 391.99 177.92 392.26 177.78 392.4 177.85 392.67 177.85 392.61 177.92 392.4 178.06 392.06 178.33 391.85 178.33 391.57 178.47 391.3 178.54 391.02 178.54 390.75 178.75 390.61 178.75 389.99 178.88 389.78 179.02 389.51 179.09 389.16 179.23 388.96 179.3 388.75 179.23 388.41 179.5 388.13 179.37 387.93 179.57 387.58 179.64 387.44 179.64 387.1 179.78 386.82 179.78 386.55 179.85 386.34 179.64 386.55 179.57 386.89 179.43 387.1 179.43 387.44 179.23 387.72 179.16 387.99 179.23 388.2 179.09 388.48 178.95 388.68 178.82 388.96 178.88 389.3 178.68 389.58"/><polygon class="cls-1" points="240.83 418.83 240.83 418.97 240.9 419.24 241.03 419.24 240.97 418.9 240.83 418.83"/><polygon class="cls-1" points="180.95 382.56 180.74 382.83 180.81 383.18 180.95 382.9 181.02 382.56 181.09 382.35 181.36 382.14 181.29 381.66 181.02 381.8 180.95 382.14 180.95 382.56"/><polygon class="cls-1" points="180.33 385.31 180.4 385.03 180.4 384.69 180.6 384.48 180.47 384.21 180.74 384 180.6 383.8 180.54 384 180.26 384.42 180.12 384.76 180.26 384.97 180.05 385.24 179.99 385.38 180.12 385.45 180.33 385.31"/><polygon class="cls-1" points="203.53 427.78 203.53 427.5 203.46 427.16 203.25 426.95 203.32 426.61 203.32 426.19 203.25 425.92 203.11 425.64 203.04 425.3 203.04 425.02 202.91 424.75 202.84 424.47 202.97 424.2 202.97 423.92 202.84 423.51 202.84 423.17 202.91 422.89 202.77 422.62 202.7 422.41 202.84 422.13 202.77 421.79 202.63 421.58 202.63 420.96 202.56 420.69 202.63 420.48 202.63 420.21 202.7 419.93 202.7 419.59 202.49 419.31 202.63 419.04 202.63 418.49 202.7 418.28 202.7 417.38 202.63 417.18 202.7 416.83 202.77 416.56 202.56 416.28 202.77 416.08 202.7 415.87 202.56 416.01 202.42 416.28 202.42 416.35 202.49 416.56 202.42 416.7 202.49 416.83 202.42 417.18 202.49 417.45 202.29 417.66 202.49 417.94 202.29 418.21 202.49 418.55 202.22 419.11 202.22 419.31 202.35 419.66 202.35 419.93 202.42 420.21 202.22 420.41 202.35 420.69 202.35 421.03 202.29 421.24 202.42 421.58 202.35 421.86 202.49 422.07 202.49 422.68 202.42 422.89 202.35 423.17 202.49 423.44 202.42 423.72 202.49 424.06 202.63 424.27 202.7 424.61 202.77 424.89 202.77 425.37 202.91 425.71 202.84 425.85 202.84 425.92 202.91 426.13 202.97 426.19 203.04 426.4 203.04 426.54 203.18 426.95 203.25 427.02 203.32 427.16 203.46 427.43 203.53 427.78"/><polygon class="cls-1" points="203.66 427.98 203.53 427.78 203.59 428.12 203.8 428.47 203.73 428.19 203.66 427.98"/><polygon class="cls-1" points="187.35 412.7 187.42 412.91 187.42 412.5 187.49 412.22 187.49 411.95 187.56 411.67 187.56 411.4 187.63 411.05 187.63 410.85 187.83 410.64 187.9 410.3 187.69 410.09 187.97 409.74 187.97 409.26 187.9 408.99 188.18 408.64 188.18 408.37 188.04 408.16 188.31 407.89 188.24 407.61 188.24 407.4 188.31 407.13 188.31 406.78 188.59 406.51 188.45 406.23 188.59 405.68 188.8 405.48 188.8 405.2 188.86 404.93 188.86 404.17 188.93 403.89 189 403.55 189.28 403.34 189.14 403 189.21 402.79 189.42 402.52 189.48 402.24 189.55 402.04 189.48 401.76 189.69 401.48 189.62 401.21 189.9 400.87 189.9 400.66 190.03 400.38 190.1 400.11 190.1 399.83 190.03 399.63 190.17 399.28 190.24 399.01 190.24 398.8 190.45 398.46 190.45 398.25 190.59 397.97 190.72 397.42 190.86 397.22 190.79 396.94 190.79 397.08 190.52 397.29 190.52 397.63 190.31 397.91 190.45 398.11 190.31 398.25 190.38 398.32 190.24 398.46 190.31 398.66 190.17 398.87 190.1 399.14 190.03 399.49 189.76 399.9 189.69 400.11 189.62 400.32 189.69 400.52 189.55 400.66 189.48 401 189.55 401.28 189.42 401.55 189.35 401.9 189.21 402.1 189.14 402.17 189.14 402.31 189.07 402.31 189.07 402.65 189 402.93 188.86 403.21 189 403.48 188.93 403.69 188.73 404.03 188.59 404.24 188.52 404.51 188.52 405.06 188.31 405.27 188.24 405.55 188.38 405.89 188.18 406.1 188.24 406.37 188.18 406.72 187.97 406.92 187.97 407.2 188.11 407.54 187.83 407.75 187.97 408.09 187.69 408.3 187.69 408.64 187.76 408.92 187.76 409.33 187.49 409.61 187.49 410.23 187.56 410.5 187.35 410.71 187.35 410.98 187.28 411.26 187.28 411.26 187.42 411.53 187.35 411.74 187.35 412.08 187.42 412.36 187.35 412.7"/><polygon class="cls-1" points="187.35 413.94 187.28 414.01 187.28 414.08 187.42 414.08 187.35 413.94"/><polygon class="cls-1" points="191.07 396.32 191 396.12 190.86 396.25 190.79 396.6 190.79 396.94 190.86 396.6 191.07 396.32"/><polygon class="cls-1" points="180.67 383.66 180.95 383.38 180.81 383.18 180.67 383.38 180.67 383.66"/><polygon class="cls-1" points="220.52 395.63 220.73 395.5 220.73 395.22 221.14 395.08 220.94 394.88 221.01 394.53 221.28 394.4 221.14 394.12 221.07 394.26 220.94 394.46 220.8 394.88 220.66 395.15 220.52 395.5 220.32 395.84 220.04 396.19 220.04 396.39 220.11 396.19 220.52 395.63"/><polygon class="cls-1" points="218.11 418 217.7 418 217.77 418.07 217.98 418.14 218.25 418.14 218.39 418.21 218.32 418.14 218.11 418"/><polygon class="cls-1" points="227.89 409.13 227.68 409.26 227.54 409.61 227.82 409.33 227.89 409.13"/><polygon class="cls-1" points="228.92 407.13 228.92 406.92 228.78 407.34 228.92 407.13"/><polygon class="cls-1" points="227.82 408.16 227.61 408.3 227.54 408.51 227.61 408.37 227.82 408.16"/><polygon class="cls-1" points="232.71 399.9 232.71 400.11 232.84 399.97 232.98 399.76 233.12 399.49 232.98 399.21 232.84 399.42 232.91 399.63 232.71 399.9"/><polygon class="cls-1" points="240.42 416.63 240.35 416.83 240.35 417.18 240.28 417.45 240.55 417.66 240.42 417.94 240.62 418.14 240.62 418.21 240.76 417.87 240.76 417.66 240.69 417.32 240.48 417.04 240.62 416.83 240.62 416.49 240.69 416.21 240.48 415.94 240.69 415.73 240.48 415.46 240.55 415.18 240.55 414.91 240.76 414.7 240.76 414.42 240.69 414.15 240.76 413.81 240.76 413.53 240.9 413.32 240.97 412.98 240.97 412.7 241.03 412.43 241.17 412.22 241.17 412.02 241.1 411.74 241.03 411.95 241.03 412.15 240.83 412.5 240.83 412.84 240.69 412.84 240.62 413.05 240.62 413.25 240.55 413.6 240.55 413.87 240.42 414.42 240.42 414.91 240.35 415.04 240.35 415.6 240.28 416.01 240.35 416.35 240.42 416.63"/><polygon class="cls-1" points="336.98 406.37 336.98 406.72 337.12 406.65 337.18 406.51 336.98 406.37"/><polygon class="cls-1" points="228.92 410.36 228.85 410.43 228.99 410.5 228.92 410.43 228.92 410.36"/><polygon class="cls-1" points="230.09 406.17 230.02 406.37 229.95 406.72 229.75 406.92 229.88 407.27 229.68 407.54 229.61 407.75 229.47 408.09 229.47 408.3 229.4 408.51 229.26 408.78 229.13 409.13 229.13 409.4 229.06 409.61 229.13 409.88 228.99 410.16 229.2 410.02 229.2 409.68 229.26 409.4 229.33 409.26 229.47 408.92 229.54 408.64 229.54 408.37 229.82 408.23 229.75 407.89 230.09 407.34 230.16 407.2 230.09 406.85 230.43 406.3 230.43 406.17 230.5 405.89 230.71 405.61 230.85 405.34 230.92 405.06 230.85 404.79 231.05 404.58 231.05 404.38 231.19 404.1 231.19 403.83 231.47 403.55 231.4 403.34 231.6 403.07 231.6 402.79 231.74 402.59 232.02 402.24 232.09 402.04 232.02 401.76 232.22 401.55 232.29 401.28 232.5 400.93 232.57 400.8 232.57 400.32 232.43 400.45 232.43 400.52 232.36 400.73 232.43 400.87 232.29 401.21 232.09 401.35 231.95 401.69 231.81 401.83 231.81 402.1 231.67 402.31 231.4 402.59 231.4 402.79 231.26 403.14 231.12 403.41 231.19 403.55 231.05 403.69 231.05 403.89 230.85 404.17 230.92 404.38 230.71 404.65 230.64 404.86 230.5 405.06 230.43 405.2 230.43 405.41 230.3 405.68 230.3 405.96 230.09 406.17"/><polygon class="cls-1" points="240.76 418.62 240.9 418.42 240.62 418.21 240.69 418.49 240.76 418.62"/><polygon class="cls-1" points="228.99 406.85 229.06 406.72 228.99 406.72 228.99 406.85"/><polygon class="cls-1" points="228.92 407.27 228.85 407.47 228.71 407.75 228.58 408.09 228.51 408.3 228.3 408.51 228.23 408.64 228.1 408.99 228.03 409.19 228.16 409.06 228.23 408.92 228.44 408.64 228.51 408.37 228.78 408.09 228.78 407.75 228.85 407.61 229.06 407.4 229.13 407.06 229.27 406.92 229.47 406.3 229.47 406.23 229.33 406.44 228.92 407.27"/><polygon class="cls-1" points="228.44 406.99 228.23 407.27 228.23 407.4 228.03 407.75 228.3 407.61 228.3 407.34 228.51 407.13 228.65 406.92 228.71 406.65 228.92 406.37 229.13 406.3 229.2 406.1 229.33 405.82 229.47 405.61 229.47 405.55 229.47 405.48 229.27 405.61 229.2 405.89 228.99 406.1 228.99 406.3 228.78 406.37 228.65 406.72 228.51 406.78 228.51 406.85 228.44 406.99"/><polygon class="cls-1" points="229.4 406.03 229.47 405.89 229.47 405.61 229.4 405.82 229.4 406.03"/><polygon class="cls-1" points="227.89 409.54 227.68 409.74 227.54 409.95 227.41 410.3 227.34 410.5 227.13 410.91 226.92 411.19 226.86 411.4 226.65 411.53 226.58 411.88 226.44 412.08 226.17 412.15 226.17 412.57 226.03 412.77 225.82 412.98 225.75 413.25 226.31 412.43 226.51 412.22 226.58 411.95 226.79 411.74 226.92 411.53 226.99 411.26 227.34 410.91 227.48 410.64 227.48 410.3 227.68 410.02 227.75 409.74 227.89 409.61 227.96 409.54 227.96 409.33 227.89 409.54"/><polygon class="cls-1" points="213.85 389.51 214.33 389.1 214.06 389.1 213.85 389.51"/><polygon class="cls-1" points="229.06 406.72 229.13 406.58 229.06 406.65 229.06 406.72"/><polygon class="cls-1" points="212.95 392.81 212.95 393.09 213.3 392.95 213.09 392.81 212.95 392.81"/><polygon class="cls-1" points="229.13 406.78 229.13 406.72 229.06 406.92 229.13 406.78"/><polygon class="cls-1" points="229.33 406.17 229.2 406.44 229.2 406.65 229.27 406.37 229.33 406.17"/><polygon class="cls-1" points="216.67 417.45 216.81 417.66 217.08 417.73 217.43 417.8 217.08 417.45 216.94 417.38 216.81 417.18 216.26 417.04 216.12 416.83 215.98 416.7 215.91 416.35 215.91 416.15 215.77 415.8 215.64 415.66 215.57 415.32 215.43 415.04 215.16 414.84 215.22 414.56 215.16 414.7 215.09 414.98 215.29 415.32 215.29 415.53 215.57 415.8 215.43 416.08 215.77 416.21 215.71 416.56 215.91 416.7 216.67 417.45"/><polygon class="cls-1" points="227.41 408.85 227.48 408.64 227.41 408.78 227.06 409.19 226.86 409.54 227.27 409.13 227.41 408.85"/><polygon class="cls-1" points="229.33 405.89 229.27 406.03 229.27 406.17 229.33 406.03 229.33 405.89"/><polygon class="cls-1" points="344.07 405.89 344 405.75 343.79 405.89 343.86 406.1 344.07 405.89"/><polygon class="cls-1" points="336.43 411.33 336.5 411.26 336.43 411.19 336.43 411.33"/><polygon class="cls-1" points="396.51 400.18 396.72 400.25 396.79 400.04 396.86 399.56 396.99 399.01 396.99 398.73 396.79 398.87 396.72 399.01 396.65 399.21 396.44 399.28 396.44 399.56 396.51 399.83 396.51 400.18"/><polygon class="cls-1" points="336.36 410.78 336.5 410.57 336.5 410.5 336.36 410.71 336.36 410.78"/><polygon class="cls-1" points="383.92 415.6 384.67 416.49 384.67 416.15 383.92 415.6"/><polygon class="cls-1" points="385.36 400.38 384.81 401.35 384.6 401.83 384.33 402.59 384.6 402.38 384.95 401.83 385.15 401.07 385.91 399.97 386.26 399.21 386.74 398.53 387.36 397.97 387.49 397.42 386.94 398.11 386.32 398.66 386.32 398.73 386.25 398.81 385.77 399.7 385.36 400.38"/><polygon class="cls-1" points="337.18 405 337.18 405.34 337.46 405.2 337.18 405"/><polygon class="cls-1" points="362.37 398.66 362.51 398.46 362.37 398.46 362.37 398.66"/><polygon class="cls-1" points="336.5 409.06 336.5 409.47 336.56 409.74 336.5 409.95 336.43 410.23 336.43 410.3 336.56 410.02 336.63 409.74 336.63 409.47 336.84 409.19 336.7 408.92 336.56 409.13 336.5 409.06"/><polygon class="cls-1" points="336.29 408.3 336.29 408.71 336.43 408.71 336.43 408.99 336.5 409.06 336.77 408.78 336.77 408.64 336.56 408.3 336.7 408.16 336.43 408.16 336.29 408.3"/><polygon class="cls-1" points="336.84 408.71 336.84 408.64 336.77 408.78 336.7 408.92 336.84 408.71"/><polygon class="cls-1" points="336.22 412.29 336.15 412.43 336.29 412.7 336.22 412.36 336.22 412.29"/><polygon class="cls-1" points="404.83 405.28 404.91 405.27 404.91 405.48 404.77 406.03 404.71 406.03 404.63 406.51 404.84 405.89 404.98 405.2 404.84 405.2 404.83 405.28"/><polygon class="cls-1" points="325.76 401 325.41 401.28 325.41 401.42 325.76 401.21 325.76 401"/><polygon class="cls-1" points="409.93 390.47 409.93 390.89 410.07 391.16 410.34 390.2 410.34 389.72 410.21 390.27 409.93 390.47"/><polygon class="cls-1" points="326.86 405.27 326.93 405 326.52 404.65 326.1 405.13 326.45 405.61 326.31 405.96 326.86 405.27"/><polygon class="cls-1" points="395.96 401.35 396.24 400.87 396.17 400.59 396.44 400.25 396.31 400.04 396.03 400.32 395.75 400.66 395.82 401 395.96 401.35"/><polygon class="cls-1" points="325.21 401.69 325.14 401.69 325.07 401.9 325.14 401.83 325.21 401.69"/><polygon class="cls-1" points="388.46 403.48 388.87 403.34 388.87 403.21 390.18 403 390.45 402.65 390.73 402.59 391.07 402.31 391.21 402.1 391.69 401.9 391.69 401.62 392.24 401.35 392.79 400.52 393.14 400.38 393.28 400.04 393.62 399.83 393.69 399.42 393.9 398.94 394.03 398.32 394.03 397.56 394.17 397.29 394.03 396.39 393.62 396.53 393.48 395.84 393.14 395.77 393.14 396.12 392.73 395.91 392.45 396.19 391.97 396.39 391.97 396.67 391.62 396.8 391.49 397.29 391.14 397.77 390.32 398.59 390.04 398.73 389.56 399.42 389.35 399.83 389.28 400.11 389.01 400.11 389.01 400.73 388.66 400.93 388.25 401.35 388.11 401.42 387.91 401.69 387.43 402.65 387.36 403.07 387.77 403.55 388.46 403.48"/><path class="cls-1" d="m392.73,418.76l-.55.14-.34.07h-.48l-.48-.07-.41-.34-.62.07-.48.07h-.48l-.55-.14-.21-.14-.34-.14.21.28.48.14.28.14h.69l.41.14h.69l.83.14c.14,0,.34.07.41,0l.62-.14.55-.14.28-.21h-.21l-.28.14Z"/><polygon class="cls-1" points="324.38 402.93 324.59 402.65 324.73 402.38 324.86 402.17 324.38 402.65 324.38 402.86 324.04 403.07 324.11 403.14 324.38 402.93"/><polygon class="cls-1" points="334.71 398.8 333.95 398.8 333.47 399.01 333.26 399.14 333.12 399.21 332.85 399.49 332.64 399.56 332.5 399.97 331.88 399.97 331.47 400.52 330.65 401.35 330.51 401.42 330.3 401.76 329.96 401.76 329.06 402.65 328.92 403.14 328.58 403.34 328.37 403.62 327.96 404.24 327.89 404.44 327.55 404.58 327.55 404.65 327.27 404.93 327 406.1 326.72 406.17 326.52 406.23 326.45 406.58 325.9 407.4 325.83 407.89 325.48 408.3 325.28 408.78 325.21 409.19 325.07 409.26 324.86 409.61 324.66 410.43 324.31 410.85 324.31 411.12 324.18 411.12 324.18 411.67 324.04 412.77 324.04 413.12 323.83 413.25 324.18 413.81 323.83 414.08 323.83 414.7 324.24 415.46 325.07 415.39 325.48 415.18 325.83 414.91 325.9 414.63 326.1 414.29 326.24 414.15 326.45 413.81 326.52 413.53 326.79 413.39 327 413.25 327.14 412.91 327.82 411.74 328.1 411.74 328.24 411.26 328.58 410.57 328.99 410.3 329.13 409.68 329.27 409.61 329.61 408.92 330.03 408.64 330.71 407.27 330.85 407.2 330.99 406.99 331.2 406.72 331.4 406.23 331.61 406.17 331.88 405.75 332.02 405.34 332.16 405.34 332.3 404.72 332.43 404.72 332.5 404.31 332.71 404.24 332.85 403.89 332.85 403.69 333.12 403.55 333.19 403.27 333.54 402.79 333.81 402.17 334.16 401.76 334.29 401.35 334.57 401 334.78 400.87 334.98 400.45 335.19 399.97 335.39 399.7 335.81 398.94 334.91 398.39 334.71 398.8"/><polygon class="cls-1" points="403.32 416.97 403.46 415.39 403.26 415.87 403.32 416.97"/><polygon class="cls-1" points="369.74 387.79 369.39 387.51 369.39 387.93 369.26 387.93 369.26 388.68 369.74 388.34 369.74 387.79"/><polygon class="cls-1" points="376.83 374.37 376.97 374.23 376.9 373.75 376.69 373.95 376.69 374.02 376.21 374.23 376.69 374.57 376.83 374.37"/><polygon class="cls-1" points="374.56 375.67 374.28 376.43 374.42 376.22 374.56 376.57 374.35 376.71 374.56 376.84 374.69 376.43 375.04 376.29 374.83 376.09 374.56 375.95 374.9 375.88 375.04 375.74 375.11 375.54 375.24 375.05 375.66 374.71 375.52 374.44 375.73 373.75 375.45 373.88 375.38 374.09 375.18 374.57 374.9 374.85 374.83 375.12 374.83 375.4 374.56 375.54 374.56 375.67"/><polygon class="cls-1" points="371.73 384.69 371.94 384.55 371.73 384.35 371.73 384.69"/><polygon class="cls-1" points="376.97 373.2 376.97 373.54 377.24 373.4 376.97 373.2"/><polygon class="cls-1" points="327.34 404.65 327.62 404.24 327.34 403.83 327.48 403.69 327.2 403.69 327.07 403.83 327.07 404.24 327.2 404.24 327.2 404.51 327.34 404.65"/><polygon class="cls-1" points="371.39 383.93 372.22 380.97 372.7 379.6 372.7 379.18 372.97 378.43 373.32 377.88 373.73 376.57 374.01 375.61 374.42 374.99 374.63 374.85 374.56 374.37 374.21 374.37 373.32 376.78 372.77 377.95 372.63 378.7 372.29 379.46 372.01 381.04 369.94 386.69 369.94 386.82 370.22 386.41 371.39 383.93"/><polygon class="cls-1" points="373.66 379.39 373.87 379.25 373.66 379.05 373.66 379.39"/><polygon class="cls-1" points="372.22 383.11 372.49 382.97 372.22 382.83 372.22 383.11"/><polygon class="cls-1" points="337.53 404.65 337.53 405 337.6 404.93 337.67 404.79 337.53 404.65"/><polygon class="cls-1" points="371.87 383.45 372.15 383.31 371.87 383.11 371.87 383.45"/><polygon class="cls-1" points="374.56 377.46 374.97 377.46 375.11 377.26 374.56 377.19 374.56 377.46"/><polygon class="cls-1" points="368.36 402.79 368.29 402.93 368.36 402.86 368.36 402.79"/><polygon class="cls-1" points="375.73 417.25 375.8 417.73 376 417.87 376.21 417.52 375.93 417.25 375.73 417.25"/><polygon class="cls-1" points="346.06 398.53 346.13 398.73 345.99 398.94 345.72 399.21 345.65 399.49 345.72 399.83 345.58 400.04 345.51 400.32 345.37 400.66 345.37 400.93 345.24 401.14 345.24 401.42 345.3 401.62 345.1 402.17 345.03 402.52 344.82 402.79 344.82 403.07 344.96 402.86 345.03 402.59 345.3 402.31 345.37 402.04 345.3 401.76 345.51 401.42 345.44 401.28 345.65 400.93 345.72 400.66 345.79 400.45 345.86 400.18 345.99 399.83 345.99 399.63 345.92 399.35 345.99 399.08 346.27 398.8 346.13 398.53 346.34 398.25 346.27 397.97 346.06 398.25 346.06 398.53"/><polygon class="cls-1" points="346.47 397.49 346.68 397.22 346.68 396.87 346.82 396.67 346.82 396.32 346.96 396.12 346.82 396.12 346.75 396.39 346.61 396.6 346.61 396.87 346.41 397.08 346.47 397.36 346.34 397.7 346.27 397.97 346.41 397.77 346.47 397.49"/><polygon class="cls-1" points="344.07 405.13 344.13 405.34 344.34 405.2 344.27 404.93 344.07 405.13"/><polygon class="cls-1" points="344.48 403.89 344.41 404.1 344.48 404.31 344.62 404.17 344.75 403.89 344.75 403.55 344.82 403.34 344.55 403.62 344.48 403.89"/><polygon class="cls-1" points="378.69 417.38 378.48 417.11 378.55 417.8 379.37 418.42 378.76 417.52 378.69 417.38"/><polygon class="cls-1" points="369.33 389.78 369.39 389.58 369.05 389.23 368.98 389.51 368.98 389.58 368.71 389.99 369.26 390.06 369.33 389.78"/><polygon class="cls-1" points="377.52 399.7 378.07 399.28 378.62 398.8 378.89 398.59 378.76 398.53 378.55 398.59 378.34 398.94 377.86 399.21 377.45 399.56 377.03 399.7 376.9 399.83 377.52 399.7"/><polygon class="cls-1" points="368.16 402.52 368.29 402.31 368.16 402.24 367.88 402.45 367.47 403.48 367.54 403.55 367.47 403.62 367.26 404.31 367.12 404.24 366.99 404.44 367.12 404.31 367.54 404.79 367.67 404.24 367.88 403.55 368.02 403.41 368.09 403.27 368.09 403 368.16 402.52"/><polygon class="cls-1" points="378.96 394.81 379.03 394.53 378.69 394.26 378.62 394.46 378.62 394.53 378.34 394.95 378.96 395.01 378.96 394.81"/><polygon class="cls-1" points="360.72 402.65 360.72 402.38 361.14 402.24 361.14 402.04 361.27 401.83 361.62 401.62 361.76 401.28 361.76 401.07 361.82 400.73 362.17 400.52 362.24 400.18 362.24 399.9 362.31 399.63 362.37 399.42 362.44 399.08 362.37 398.87 362.24 399.08 362.31 399.21 362.17 399.49 362.17 399.76 361.96 400.04 361.96 400.25 361.89 400.59 361.62 400.87 361.41 401.28 361.34 401.48 361.07 401.69 361.07 401.97 360.86 402.1 360.52 402.31 360.45 402.52 360.24 402.72 359.83 402.93 359.76 403.07 359.07 403.34 359.21 403.34 359.83 403.14 359.9 403 360.1 403 360.31 402.93 360.31 402.72 360.72 402.65"/><polygon class="cls-1" points="412.75 384.21 412.82 383.18 412.27 384.9 412.75 384.21"/><polygon class="cls-1" points="340.14 398.53 340.21 398.73 340.56 398.73 340.63 398.59 340.69 398.53 340.21 398.46 340.14 398.53"/><polygon class="cls-1" points="338.77 402.04 338.63 401.97 338.35 402.31 338.42 402.52 338.15 402.79 338.29 403.07 338.22 403.27 338.01 403.55 338.08 403.55 338.08 404.1 337.87 404.24 337.8 404.24 337.8 404.31 337.73 404.65 337.67 404.79 337.8 404.86 337.6 404.93 337.6 405.13 337.53 405.34 337.32 405.61 337.25 405.89 337.12 406.23 337.25 406.44 337.18 406.51 337.25 406.58 337.12 406.65 337.05 406.78 336.91 407.2 337.05 407.54 336.98 407.82 336.84 408.02 336.7 408.3 336.84 408.57 337.05 408.3 336.98 408.16 337.18 407.89 337.18 407.61 337.25 407.34 337.25 407.06 337.32 406.72 337.39 406.51 337.6 406.23 337.46 406.03 337.67 405.75 337.87 405.41 337.94 405.2 337.87 404.93 337.87 404.65 338.08 404.44 338.29 404.1 338.29 403.83 338.22 403.69 338.35 403.41 338.56 403.07 338.56 402.79 338.63 402.65 338.9 402.31 338.97 402.1 339.04 401.76 339.11 401.62 338.9 401.83 338.77 402.04"/><polygon class="cls-1" points="410.69 388.55 410.41 388.96 410.48 389.37 410.9 389.03 410.9 388.61 411.1 388.48 411.1 388.13 411.65 387.86 411.03 387.93 410.69 388.55"/><polygon class="cls-1" points="337.94 403.83 337.94 403.62 338.01 403.55 337.46 403.55 337.32 404.1 336.98 404.24 337.8 404.24 337.8 404.1 337.94 403.83"/><polygon class="cls-1" points="338.63 401.55 338.7 401.42 338.22 401.62 338.63 401.97 338.77 401.76 338.63 401.55"/><polygon class="cls-1" points="340.49 397.49 340.42 397.77 340.69 397.49 340.49 397.49"/><polygon class="cls-1" points="333.26 414.22 333.33 414.08 333.33 413.81 333.26 414.08 333.26 414.22"/><polygon class="cls-1" points="338.77 401.35 338.7 401.42 338.77 401.42 338.77 401.35"/><polygon class="cls-1" points="340.14 398.53 340.14 398.46 340.21 398.46 340.35 398.18 340.07 398.46 340.07 398.66 339.94 399.01 339.73 399.28 339.73 399.42 339.39 399.76 339.52 399.97 339.32 400.18 339.18 400.45 339.11 400.52 339.39 400.73 339.11 400.87 339.11 400.52 338.97 400.73 338.84 401.28 338.97 401.14 339.11 401.62 339.04 401.35 339.25 401.07 339.46 400.73 339.46 400.32 339.73 399.97 339.8 399.83 339.94 399.49 339.87 399.21 339.94 399.08 340.21 398.8 340.21 398.73 340.14 398.73 340.14 398.53"/><polygon class="cls-1" points="340.42 397.77 340.21 398.04 340.35 398.18 340.42 397.97 340.42 397.77"/><polygon class="cls-1" points="332.09 395.7 332.02 395.7 331.82 395.77 331.54 396.05 331.95 395.84 332.09 395.7"/><path class="cls-1" d="m72.35,365.18v72.16h437.21v-72.16H72.35Zm189.81,21.71v-.41l.28-.55.14-.48.55-1.1.55-.41v-.41l.07-.34.14.21.21-.34.34-.41h.28l.21.28.55.21,1.24.41.14.62.07.21.07.14.14.34v.96l-.21.21v.28l-.34.69-.21-.14.07.55-.28-.21-.21.69-.96.41-.21.21-.41.48-.48.07-.41.07-.41.14-.76-.62-.21-.83-.14-.69.21-.21Zm-32.14,18.52l-.55,1.31.34-1.51.21.21Zm-5.92-18.52v-.41l.28-.55.14-.48.55-1.1.55-.41v-.41l.07-.34.14.21.21-.34.34-.41h.28l.21.28.55.21,1.24.41.14.62.07.21.07.14.14.34v.96l-.21.21v.28l-.34.69-.21-.14.07.55-.28-.21-.21.69-.96.41-.21.21-.41.48-.48.07-.41.07-.41.14-.76-.62-.21-.83-.14-.69.21-.21Zm-9.7,2.48v.14l-.34.48-.34-.14.14.14-.07.48.34.34.21.76-.62.48.14.41-.48.41-.07.41-.14.14-.21.14.28.14.07.07-.34.07-.28.83v.69l-.21.21-.21.41-.21.07-.41.34.14.55-.89.62v.76l.14.69-.14.48-.34.28-.07.41-.28,1.72-.34.14-.07.41-.07,1.03-.76-.21-.28.41.76-.21-.21.21v.55l-.41.14.41.28-.07.48-.07.34-.28.28.34.41.07.34.34.28-.48.76-.14-.28v-.21l-.14.76.41-.14-.55,1.17-.14,1.51.28-.14-.07.62-.21.34v.69l-.34.14-.14.76-.28.69.28.21-.28.14v.55l-.28,2.48v.83l-.34.62v6.68l.28.14-.14.62.34.55.07,1.24.21.28.14.28v.62l.28.14.34,1.17,1.1.62h1.31l1.17-.34v-.14l.89-.28.14-.21h.34l.55-.28v.34l-.21.07-.34.21-.21.41-.48.21-.28.07-.07.34-.41.14-.21.21-.55.07-1.1.34h-1.72l-1.58-.14-.48-.28-.69-.28-.34-.34-.21-.07-.48-.48-.28-.41-.07-.21-.28-.14-.14-.48-.28-.48v.07l-.21-.28-.07-.28-.07-.21-.21-.21.07-.28v-.14l-.14-.14v-.07l-.21-.21.07-.21-.14-.41-.14-.14.07-.14v-.14l-.21-.14-.14-.62-.21-1.51v-1.45l.07-.14-.07-.07.07-.21-.07-.28v-.07l-.14-.55v-1.58l.07-1.31v-.83l.21-.28-.07-.07.07-.28-.07-.07.14-.28.21-.21-.07-.07.07-.21.14-.28v-.34l-.07-.28v-.34l-.07.07-.14.28.21.28-.07.34-.21.28v-.07l-.07-.07v-.28l.07-.21-.14-.28.14-.89.21-.83.14-.69.14-.14.14-.28.14-2.27v-.28l.34-.14-.21-.41.21-.21.14-.28.07-.89.69-1.45v-.62h.14v-.41l.21-.14-.21-.14.28-.21-.07-.41.28-1.38.14-.21v-.83l.28-.14v-.89l.34-.96.28-.76.62-.62-.28-.14.34-.83.07-.55.21-.28.14-.28.07-.55.07-.62.14-.28.21-.28.14-.55.28-.62.21-.14.14-.69.14-.41v-.28l.21-.55.14-.34h.14l.21-.48.21-.41v-.28l.28-.28.28-.83.34-.28.14-.48.21-.48.07-.28.21-.07-.14-.89.34-.55.21-.76.34-.55v-.34l.14-.21.07-.28.28-.14.14-1.17h-.76l-.55.69-.21.21-.14.28-.21.21-.21.41v.28l-.48.14-.14.48-.21.07-.28.21-.14.34-.41.14-.55,1.1-.07.21-.34.21-.14.21-.14.48h-.28l-.07.48-.07.28-.34.21-.34.62-.07.21-.34.28-.14.41-.69,1.1-.07.21-.41.28-.14.55-.28.48h-.14l-.21.55-.28.76-.41.34-.28.62-.07.28-.28.21-.14.34h-.07l-.07.28v.34l-.34.14-.07.48-.34.28-.28.96v.21l-.34.14-.14.76h-.28l-.14.48-.34.55-.28.62-.34.21-.28.21-.07.48-.07.07-.21.34-.07.34-.28.14v.28l-.21.41-.14.07v.89l-.41.28-.07.48-.28.14-.14.34-.28.41-.14.14-.14.28v.28l-.41.34-.21.55-.28.14v.34l-.21.28h-.14l-.14.28v.55l-.14.21-.14.62-.41.28v.34l-.14.07-.28.28-.21.55-.34.41-.14.41-.34.28-.41,1.31-.14.21-.41.14v.48l-.28.07-.14.21-.14.14h-.34l-.21.48-.14.62h-.89l-.34-.21-.34-.14-.48-.21-.14-.21-.34-.14-.21-.28-.28-.28-.21-.07-.14-.28-.28-.62h-.07l.07-.07-.07-.07v-.96l.14-.89-.07-.21.07-.14-.07-.48h0l-.07-.48.14-1.17.21-.55v-1.38h.14l.07-.41.14-.76.34-.62-.14-.28.34-1.1.21-.55.07-.14.14-.14v-.55l.14-.34v-.48h.07l.07-.14v-.14l.21-.14v-.28l.07-.07.07-.55v-.28l.07-.07.07-.14v-.28l.07-.14v-.21l.14-.55.07-.48h.14v-.21l.21-.21v-.14l.07-.07-.07-.28.21-.55.07-.14.14-.28v-.62h.14l.07-.34.14-.55.07-.48.21-.21.21-.48.14-.69.14-.55.28-.14v-.21l.14-.55.28-.28v-.48h.14v-.28l.21-.14.14-.69.07-.41.21-.07v-.34l.21-.07.07-.48.14-.14v-.21l.14-.14v-.21l.14-.28.21-.14.07-.41.28-.48.34-.55.07-.48.14-.07v-.34l.14-.41.14-.21.07-.34.21-.83.21-.69.28-.69-.48-.07-.34.07-.21.21-.34.14-.07.14-.48.62-.34.55-.48.48v.28l-.28.14-.48.83-.62.62-.07.21h-.28l-.14.76h-.28l-.14.34-.21.55-.76.83-.48.62-.21.34-.21.28-.28.28-.07.28-.21.14-.21.55-.28.34-.21.34-.34.76v.14l-.28.28-.07.34-.28.14-.21.62-.07.28-.34.14-.14.62-.21.14-.21.41h-.14l-.14.34-.07.28-.21.14-.07.34v.14l-.34.21-.34.89-.28.48-.07.21h-.28l-.21.69-.28.28-.14.28-.41.76v.21l-.14.14-.62.96v.14l-.21.21-.14.07v.69h-.14v.48l-.41.28-.07.55-.07.28-.21.28-.14.14v.28l-.21.48-.41.69-.07.21-.34.28-.14.69-.48.55-.14.55-.14.07-.14.34v.28l-.21.21v.14l-.28.28v.28l-.21.14-.07.48-.21.21-.14.28-.07.07-.21.28-.34.69-.21.34-.28.76-.48,1.03-.21.69-.41.55-.14.76-.41.34-.07.28-.07.07-.21.34-.14.28-.07.21-.41.69-.14.41-.14.69-.14.55-.28.34-.96-.28-.76-.21-.41-.89-.34-1.1.07-1.1v-1.51h.14v-1.17l.21-.21v-.28l.14-.14v-.48l.14-1.58.28-.28v-.34l.14-.28.21-1.17.07-.34.07-.28h.14v-.76l.14-.07.21-.34.07-.34.21-.83.41-.62-.14-.62.14-.28.48-.14-.34-.76h.34v-.28l.07-.62.34-.96.76-1.72.14-.76.14-.28v-.21l.14-.07.14-.76v-.34h.21v-.28h.14l.41-1.79v-.28h.14v-.62l.21-.41.07-.21.14-.07.62-1.31-.07-.14.07-.34.07-.07v-.69h.14v-.48l.21-.14.21-.83.14-.34.14-.48.21-.14v-.28l.14-.76.21-.28.07-.55.21-.69.14-.55h.14l.07-.34.14-.41.07-.48.14-.07.21-.34v-.21l.07-.07.07-.48.07-.76.07-.28h.14l.07-.28.07-.21.14-.69v-.34h.14l.07-.28.14-.14v-.62h.14v-.28l.14-.14v-1.51l.28-.28-.28-.34.76-.14.55.07.48.07.76.21.89.28v.14l.28.14.48.48.21.76.07.55.14.41-.14.62-.21.69-.28.83-.07.76-.07.28-.14.41-.14.83-.07.21-.21.83-.14.41-.21.28v.48l-.21.41-.14.69h-.14l-.14.55-.14.62-.28.76-.21.76-.07.28-.28.89-.21.83-.21-.14v.62l-.21.62-.28.48-.14.69v.34h-.14l-.21.62-.28.34-.07.34v.41l-.14.41-.21.28v.21l-.07.28h-.34l.07.48-.21.34-.14.34-.14.62-.14.28v.28l-.41.76-.07.48-.07.21.41.14.14-.28.21-.48.69-1.38.48-1.1.55-.89.28-.34v-.14l.28-.41.14-.28.34-.55.28-.34.21-.14v-.41h.07l.14-.28.07-.34.34-.21.41-.83.14-.34.21-.28.28-.07v-.34h.28l.34-.89.28-.28.14-.34h.14v-.28l.14-.07.14-.21.28-.69.34-.48.07-.34.21-.14.14-.41h.14l.14-.34.34-.21.07-.21.21-.34.34-.62.21-.14.21-.48.34-.55.28-.41.34-.41.14-.14.69-1.38.28-.34.34-.48.28-.34.28-.48.07-.28.14-.28.07-.34.21-.14.14-.07.07-.34h.14v-.28l.21-.34.55-.83.55-.69h.14l.21-.21.48-.28.34-.21.41-.07h.55l.41.07.28.07v.34h.28v.28l.28.28h.34l.28.34.76.14.28.41.34.14.41.28.21.34-.07.14.48.62-.21.34-.21.07v.34l.07.14.14.14-.21.96-.21.07v.34l-.14.55.14,1.03-.28.21-.14.28v.41l-.34.28-.21.96-.07,1.17-.41.14-.07.21-.14.55.21-.21v.41l-.14.34-.34.34v.76l-.14.14v.28l-.41.28-.21.48-.28-.21.07-.07-.07-.48.21-.14-.21.07-.14.41-.41.14-.07.34.14.55-.48.07-.28.28-.21.34-.07.34.28.14-.41.55v.48l.28-.07.34-1.1h.41l-.28,1.45-.07.76-.07.34-.21.14v.28l-.14.07-.14.21v.21l-.28.89-.48-.21-.14.48.28-.28-.28.41.21.14-.21.48.14.41-.28.41-.07.48-.21.96-.34.34-.07.34.07.34-.14.28v.69l-.21.48-.21.28.07.34-.41.41h-.14l-.14.28.07.55-.14.34.07.62-.41,1.79.34-.48.48-.76.28-.83.07-.14h.28l.28-.83.21-.55h.07l.07-.28v-.14l.21-.34.14-.07.07-.34h.07l.07-.34h.14l.07-.21.14-.28.14-.07.07-.41v-.07l.21-.28h.14l.14-.41.41-.96.07-.07.14-.28v-.14l.14-.14.21-.34.21-.48.34-.96.07-.14.28-.28h.14l.07-.41.21-.28.07-.48.07-.07.14-.21.21-.41.14-.48h.14v-.34h.14l.07-.21.07-.48.34-.14v-.62h.14v-.28l.21-.14.07-.28v-.07l.14-.21.07-.07.07-.28v-.07l.41-.62.34-.28v-.14l.14-.21.07-.07.07-.21v-.28l.28-.07.34-.62v-.21l.21-.07.21-.48.41-.76.07-.34.28-.28.21-.55.28-.41.48-.83.28-.14.07-.28.41-.62.41-.41.14-.48.41-.28v-.28l.28-.14.07-.34.41-.28v-.28l.21-.14.21-.41.48-.34v-.34l.21-.21.69-.62.89-.96.28-.34.41-.41.07-.48.62-.41.28.07.41-.28.14-.28.55-.07h.83l.41.28h.34l.14.21.34.07.21.55.55.34.34.28.21.21.41.14.34.48-.21.41.76,2.27-.28.69-.28.76-.34.28-.14,1.24-.28.14-.14.28v.48l-.28.89-.28.28-.21.14-.14.34,1.03-.48-.41.48-.28.41Zm-3.03,8.81l-.14-.34.07.14.07.21Zm-1.38,6.95l-.14.62-.28-.14.14-.48h.28Zm-.41,3.85l-.48.34.14-.28v-.07h.34Zm5.92-21.82l-.14.41v.14l-.41.34v-.34l.14-.14.28-.41h.14Zm11.56,24.37l-.14.21-.21.34-.07.28h-.14l-.07.28-.55.76-.07.07-.21.41-.28.34-.34.41-.21.21-.21.14-.07.21-.21.28-.14.07-.07.28-.21-.07-.28.62-.14.07-.14-.07-.07.21-.14.21-.14.07-.21.21-.14.21-.14.07-.14.28-.21.07h-.34l-.21.34h-.21l-.14.21-.14.07v-.07l-.14.07-.07.14-.21-.07-.14.14h-.28v.07l-.21.21h-.28l-.14-.21h-1.38l-.14-.14-.14.14-.14-.28-.41-.07h-.28l-.21-.14-.14-.14-.21-.07.07-.21-.07-.07-.34-.07-.28-.34-.28-.14-.07-.48-.14-.21-.14-.28-.14-.28-.14-.41-.14-.28.07-.76-.07-.21.07.07.07-.76v-1.17l.14-.62.07-.62.34-1.24.07-.21.14-.14v-.28l.14-1.24.07-1.1.14-.28.34-.89h.07l.07-.34h.14v-.28l.14-.14v-.28l-.07-.34v-.48h.14v-.28l.21-.14.07-.34.14-.34.28-.48.07-.28h.07l.14-.62.14-.21.34-.96.21-.14v-.28l.34-1.31.21-.62.28-.62.21-.55.14-.07v-.34l.21-.28.21-.34.21-.48.14-.62v-.21l.21-.14.21-.21.48-.07-.21-.14.14-.28.41.07.55-.07.28.07.07.21.21.07.21.21v.21h.14l.69.34v.62l.21.14.21.76-.21.76-.34.76-.14.21-.07.34-.34.62-.21.62-.14.48-.21.21v.34h-.34l-.07.69-.21.55h-.21l-.14.48-.07.55-.28.21-.14.55v.41h-.14l-.14.28-.34.14.07.21v.69l-.34.34-.07.41-.21.14-.07.28-.28.41.14.28-.21.76-.14.28v.55l-.28.28-.07.76-.55,2.41-.07.96v1.86l.34.41,1.17.55.41-.28h.34l.07-.14.28.07.34-.21.14-.14.14-.21h.14l.34-.21.28-.07.07-.14.21-.14.21-.34.69-.48.14-.41.28-.21.41-.76.55-.69.14-.07.14-.28.28-.48.34-.14.21-.55.21-.14.07-.07.14-.07.14-.21-.21.21.07-.21.21-.28.21-.41.21-.48.14-.21.21-.07.28-.48.41-.69.14-.14.21-.34.07-.07.14-.28.28-.48v-.07l.14-.07h.14l.07-.07-.07.14.07.28-.07.41.07-.07-.14.48-.07.21-.07.07-.28.96-.21.28v.21l-.21.14-.07.41h-.21l-.07.21-.28.41v.07h-.07v.07l-.07.34-.21.76v.14l-.48.34-.07.28Zm1.45-2.48l-.14.28-.14.14.07-.34.21-.07Zm-.34.41l-.07.28-.21.48.07-.41.14-.21.07-.14Zm22.09-9.64l-.14.48v.21l-.07.55-.21.21.07.48-.21.55-.21.41-.41.48-.14.07-.07.34-.34.14v.76l-.41.41v.21l-.14.14-.21.14v.34l-.21.48-.07.28-.14.34-.34.76-.41.76-.34.55-.28.62v.28l-.28.14-.76,1.51.14.76-.14.48-.07.34v.14l-.21.34-.14.69-.14,1.31.14.28-.34.28.07.89-.07,1.24.21.89.55.83.62.96.83.83.62.34.69.55h-.48v.21l-.21-.14-.41-.07-.14.34h-.28l-1.24-.14-.41.07-.28-.07-.34-.34-.62-.14v-.14l-.28-.07-.34-.21h-.28v-.34l-.62-.34-.41-.48-.41-.34-.07-.69-.34-.69-.41-.55-.14-.89-.07-.62.28-.28-.28.14.07-1.03.21.76.07-.55v-.28l-.07-.21.07-.28.07-.21v-.28l-.28-.48.14-1.03.28.14-.14-.34.28-.21h.07l.07-.14.07-.21v-.41l.14-.14v-.34l.14-.21v-.83l.28-.28v-.34l.14-.28v-.28l.34-.14v-.34l.14-.28h.14v-.41l.28-.21v-.28l.21-.28v-.34l.28-.14.34-1.31.34-.62.07-.28.28-.21.14-.41h.14v-.34l.28-.41h.07l.07-.21.07-.34.34-.28.28-.96.14-.07.14-.34h.14v-.48l.28-.14v-.21l.21-.21v-.28l.14-.28.34-1.17.07-.96-.28-.34-.89.21-.69.55-1.45,1.45-.14.34h-.28l-.14.48h-.14l-.21.55-.62.89-.21.48-.34.14v.28l-.28.21-.62.55-.14.48-.34.41-.21.48-.21.07-.14.34-.28.14-.14.41-.28.62-.48.48-.14.62-.34.07-.14.34-.41.28-.14.48-.28.28-.21.28-.55.69-.41.48-.07.21-.41.28-.34.89-.41.48-.34.89-.21.14-.28.41-.34.48-.21.14-.34.62-.21.48-.28.34-.21.07v.34l-.28.69h-.14v.41l-.28.21-.34.14-.34.34h-.34l-.28.07h-.55l-.28-.41-.48-.21-.41-.14v-.21l-.28-.21-.14-.28-.34-1.1.14-.48-.21-.89.21-.76.41-1.03-.21-.21.28-.28.48-.76-.07-.34-.14-.14.34-.41.07.28.07-.07.07-.55-.14-.34.28-.28-.07-.41.21-.28.21-.83.21-.69.34-.62.07-.41.21-.14.07-.28.07-.21-.07-.41.21-.34.28-.28.07-.34.14-.14-.07-.21.21-.48.14-.62.28-.62.14-.14v-.28l.28-.14.21-.07.14-.41-.07-.07.14-.21.07-.21.14-.21v-.28l.21-.21v-.21l.14-.21.07-.83.14-.28.21-.14v-.28l.14-.14v-.76l.34-.41.21-.76.69-.76.21-.62h.76l.62.62.55.76.34.55.07.89-.14.96-.14.28-.28,1.24-.28.55-.07.34-.28.48-.41.62v.62l-.28.14-.14.28v.62l-.28.14-.07.34-.14.76-.14.34-.14.28v.21l-.34.21-.14.55-.34.48-.21.34.14.55-.14.34-.34.21-.07.55-.07.21h-.14l-.07,1.1h-.07l-.14.41h-.14l-.21.34.07,1.1.28-.34v-.21l.21-.14.21-.48,1.17-1.17.21-.69.41-.55.07-.07.28-.21.14-.21.28-.07.07-.41.14-.28v-.14l.21-.21h.21l.14-.48.41-.28.14-.48.41-.28.07-.28h.28l.07-.28.14-.21.14-.41h.14l.14-.21.21-.41.21-.34v-.07l.41-.28.07-.21.28-.14v-.14l.14-.21.07-.07.14-.34.28-.14.07-.28.14-.28.21-.07v-.28l.41-.21.14-.14.48-.76v-.07l.41-.34.21-.55.48-.34v-.28l.28-.21.34-.89.34-.28.21-.28.55-.48.34-.34v-.07l.28-.14h.34v-.14l.28-.14h.07l.28.07h.69l.14.21h.34l.41.48.62.07.21.21.48.14v.14l.21.21.21.14.07.28.34.21.07.21.41.41.14.41.07,1.72-.28-.14.21.41Zm15.9,9.91l-.21.48.07-.41.14-.21.07-.14-.07.28Zm.28-.41l-.14.14.07-.34.21-.07-.14.28Zm1.17-3.51l-.07.41.07-.07-.14.48-.07.21-.07.07-.28.96-.21.28v.21l-.21.14-.07.41h-.21l-.07.21-.28.41v.07h-.07v.07l-.07.34-.21.76v.14l-.48.34-.07.28-.14.21-.21.34-.07.28h-.14l-.07.28-.55.76-.07.07-.21.41-.28.34-.34.41-.21.21-.21.14-.07.21-.21.28-.14.07-.07.28-.21-.07-.28.62-.14.07-.14-.07-.07.21-.14.21-.14.07-.21.21-.14.21-.14.07-.14.28-.21.07h-.34l-.21.34h-.21l-.14.21-.14.07v-.07l-.14.07-.07.14-.21-.07-.14.14h-.28v.07l-.21.21h-.28l-.14-.21h-1.38l-.14-.14-.14.14-.14-.28-.41-.07h-.28l-.21-.14-.14-.14-.21-.07.07-.21-.07-.07-.34-.07-.28-.34-.28-.14-.07-.48-.14-.21-.14-.28-.14-.28-.14-.41-.14-.28.07-.76-.07-.21.07.07.07-.76v-1.17l.14-.62.07-.62.34-1.24.07-.21.14-.14v-.28l.14-1.24.07-1.1.14-.28.34-.89h.07l.07-.34h.14v-.28l.14-.14v-.28l-.07-.34v-.48h.14v-.28l.21-.14.07-.34.14-.34.28-.48.07-.28h.07l.14-.62.14-.21.34-.96.21-.14v-.28l.34-1.31.21-.62.28-.62.21-.55.14-.07v-.34l.21-.28.21-.34.21-.48.14-.62v-.21l.21-.14.21-.21.48-.07-.21-.14.14-.28.41.07.55-.07.28.07.07.21.21.07.21.21v.21h.14l.69.34v.62l.21.14.21.76-.21.76-.34.76-.14.21-.07.34-.34.62-.21.62-.14.48-.21.21v.34h-.34l-.07.69-.21.55h-.21l-.14.48-.07.55-.28.21-.14.55v.41h-.14l-.14.28-.34.14.07.21v.69l-.34.34-.07.41-.21.14-.07.28-.28.41.14.28-.21.76-.14.28v.55l-.28.28-.07.76-.55,2.41-.07.96v1.86l.34.41,1.17.55.41-.28h.34l.07-.14.28.07.34-.21.14-.14.14-.21h.14l.34-.21.28-.07.07-.14.21-.14.21-.34.69-.48.14-.41.28-.21.41-.76.55-.69.14-.07.14-.28.28-.48.34-.14.21-.55.21-.14.07-.07.14-.07.14-.21-.21.21.07-.21.21-.28.21-.41.21-.48.14-.21.21-.07.28-.48.41-.69.14-.14.21-.34.07-.07.14-.28.28-.48v-.07l.14-.07h.14l.07-.07-.07.14.07.28Zm52.52-16.31l-.34.48-.34-.14.14.14-.07.48.34.34.21.76-.62.48.14.41-.48.41-.07.41-.14.14-.21.14.28.14.07.07-.34.07-.28.83v.69l-.21.21-.21.41-.21.07-.41.34.14.55-.89.62v.76l.14.69-.14.48-.34.28-.07.41-.28,1.72-.34.14-.07.41-.07,1.03-.76-.21-.28.41.76-.21-.21.21v.55l-.41.14.41.28-.07.48-.07.34-.28.28.34.41.07.34.34.28-.48.76-.14-.28v-.21l-.14.76.41-.14-.55,1.17-.14,1.51.28-.14-.07.62-.21.34v.69l-.34.14-.14.76-.28.69.28.21-.28.14v.55l-.28,2.48v.83l-.34.62v6.68l.28.14-.14.62.34.55.07,1.24.21.28.14.28v.62l.28.14.34,1.17,1.1.62h1.31l1.17-.34v-.14l.89-.28.14-.21h.34l.55-.28v.34l-.21.07-.34.21-.21.41-.48.21-.28.07-.07.34-.41.14-.21.21-.55.07-1.1.34h-1.72l-1.58-.14-.48-.28-.69-.28-.34-.34-.21-.07-.48-.48-.28-.41-.07-.21-.28-.14-.14-.48-.28-.48v.07l-.21-.28-.07-.28-.07-.21-.21-.21.07-.28v-.14l-.14-.14v-.07l-.21-.21.07-.21-.14-.41-.14-.14.07-.14v-.14l-.21-.14-.14-.62-.21-1.51v-1.45l.07-.14-.07-.07.07-.21-.07-.28v-.07l-.14-.55v-1.58l.07-1.31v-.83l.21-.28-.07-.07.07-.28-.07-.07.14-.28.21-.21-.07-.07.07-.21.14-.28v-.34l-.07-.28v-.34l-.07.07-.14.28.21.28-.07.34-.21.28v-.07l-.07-.07v-.28l.07-.21-.14-.28.14-.89.21-.83.14-.69.14-.14.14-.28.14-2.27v-.28l.34-.14-.21-.41.21-.21.14-.28.07-.89.69-1.45v-.62h.14v-.41l.21-.14-.21-.14.28-.21-.07-.41.28-1.38.14-.21v-.83l.28-.14v-.89l.34-.96.28-.76.62-.62-.28-.14.34-.83.07-.55.21-.28.14-.28.07-.55.07-.62.14-.28.21-.28.14-.55.28-.62.21-.14.14-.69.14-.41v-.28l.21-.55.14-.34h.14l.21-.48.21-.41v-.28l.28-.28.28-.83.34-.28.14-.48.21-.48.07-.28.21-.07-.14-.89.34-.55.21-.76.34-.55v-.34l.14-.21.07-.28.28-.14.14-1.17h-.76l-.55.69-.21.21-.14.28-.21.21-.21.41v.28l-.48.14-.14.48-.21.07-.28.21-.14.34-.41.14-.55,1.1-.07.21-.34.21-.14.21-.14.48h-.28l-.07.48-.07.28-.34.21-.34.62-.07.21-.34.28-.14.41-.69,1.1-.07.21-.41.28-.14.55-.28.48h-.14l-.21.55-.28.76-.41.34-.28.62-.07.28-.28.21-.14.34h-.07l-.07.28v.34l-.34.14-.07.48-.34.28-.28.96v.21l-.34.14-.14.76h-.28l-.14.48-.34.55-.28.62-.34.21-.28.21-.07.48-.07.07-.21.34-.07.34-.28.14v.28l-.21.41-.14.07v.89l-.41.28-.07.48-.28.14-.14.34-.28.41-.14.14-.14.28v.28l-.41.34-.21.55-.28.14v.34l-.21.28h-.14l-.14.28v.55l-.14.21-.14.62-.41.28v.34l-.14.07-.28.28-.21.55-.34.41-.14.41-.34.28-.41,1.31-.14.21-.41.14v.48l-.28.07-.14.21-.14.14h-.34l-.21.48-.14.62h-.89l-.34-.21-.34-.14-.48-.21-.14-.21-.34-.14-.21-.28-.28-.28-.21-.07-.14-.28-.28-.62h-.07l.07-.07-.07-.07v-.96l.14-.89-.07-.21.07-.14-.07-.48h0l-.07-.48.14-1.17.21-.55v-1.38h.14l.07-.41.14-.76.34-.62-.14-.28.34-1.1.21-.55.07-.14.14-.14v-.55l.14-.34v-.48h.07l.07-.14v-.14l.21-.14v-.28l.07-.07.07-.55v-.28l.07-.07.07-.14v-.28l.07-.14v-.21l.14-.55.07-.48h.14v-.21l.21-.21v-.14l.07-.07-.07-.28.21-.55.07-.14.14-.28v-.62h.14l.07-.34.14-.55.07-.48.21-.21.21-.48.14-.69.14-.55.28-.14v-.21l.14-.55.28-.28v-.48h.14v-.28l.21-.14.14-.69.07-.41.21-.07v-.34l.21-.07.07-.48.14-.14v-.21l.14-.14v-.21l.14-.28.21-.14.07-.41.28-.48.34-.55.07-.48.14-.07v-.34l.14-.41.14-.21.07-.34.21-.83.21-.69.28-.69-.48-.07-.34.07-.21.21-.34.14-.07.14-.48.62-.34.55-.48.48v.28l-.28.14-.48.83-.62.62-.07.21h-.28l-.14.76h-.28l-.14.34-.21.55-.76.83-.48.62-.21.34-.21.28-.28.28-.07.28-.21.14-.21.55-.28.34-.21.34-.34.76v.14l-.28.28-.07.34-.28.14-.21.62-.07.28-.34.14-.14.62-.21.14-.21.41h-.14l-.14.34-.07.28-.21.14-.07.34v.14l-.34.21-.34.89-.28.48-.07.21h-.28l-.21.69-.28.28-.14.28-.41.76v.21l-.14.14-.62.96v.14l-.21.21-.14.07v.69h-.14v.48l-.41.28-.07.55-.07.28-.21.28-.14.14v.28l-.21.48-.41.69-.07.21-.34.28-.14.69-.48.55-.14.55-.14.07-.14.34v.28l-.21.21v.14l-.28.28v.28l-.21.14-.07.48-.21.21-.14.28-.07.07-.21.28-.34.69-.21.34-.28.76-.48,1.03-.21.69-.41.55-.14.76-.41.34-.07.28-.07.07-.21.34-.14.28-.07.21-.41.69-.14.41-.14.69-.14.55-.28.34-.96-.28-.76-.21-.41-.89-.34-1.1.07-1.1v-1.51h.14v-1.17l.21-.21v-.28l.14-.14v-.48l.14-1.58.28-.28v-.34l.14-.28.21-1.17.07-.34.07-.28h.14v-.76l.14-.07.21-.34.07-.34.21-.83.41-.62-.14-.62.14-.28.48-.14-.34-.76h.34v-.28l.07-.62.34-.96.76-1.72.14-.76.14-.28v-.21l.14-.07.14-.76v-.34h.21v-.28h.14l.41-1.79v-.28h.14v-.62l.21-.41.07-.21.14-.07.62-1.31-.07-.14.07-.34.07-.07v-.69h.14v-.48l.21-.14.21-.83.14-.34.14-.48.21-.14v-.28l.14-.76.21-.28.07-.55.21-.69.14-.55h.14l.07-.34.14-.41.07-.48.14-.07.21-.34v-.21l.07-.07.07-.48.07-.76.07-.28h.14l.07-.28.07-.21.14-.69v-.34h.14l.07-.28.14-.14v-.62h.14v-.28l.14-.14v-1.51l.28-.28-.28-.34.76-.14.55.07.48.07.76.21.89.28v.14l.28.14.48.48.21.76.07.55.14.41-.14.62-.21.69-.28.83-.07.76-.07.28-.14.41-.14.83-.07.21-.21.83-.14.41-.21.28v.48l-.21.41-.14.69h-.14l-.14.55-.14.62-.28.76-.21.76-.07.28-.28.89-.21.83-.21-.14v.62l-.21.62-.28.48-.14.69v.34h-.14l-.21.62-.28.34-.07.34v.41l-.14.41-.21.28v.21l-.07.28h-.34l.07.48-.21.34-.14.34-.14.62-.14.28v.28l-.41.76-.07.48-.07.21.41.14.14-.28.21-.48.69-1.38.48-1.1.55-.89.28-.34v-.14l.28-.41.14-.28.34-.55.28-.34.21-.14v-.41h.07l.14-.28.07-.34.34-.21.41-.83.14-.34.21-.28.28-.07v-.34h.28l.34-.89.28-.28.14-.34h.14v-.28l.14-.07.14-.21.28-.69.34-.48.07-.34.21-.14.14-.41h.14l.14-.34.34-.21.07-.21.21-.34.34-.62.21-.14.21-.48.34-.55.28-.41.34-.41.14-.14.69-1.38.28-.34.34-.48.28-.34.28-.48.07-.28.14-.28.07-.34.21-.14.14-.07.07-.34h.14v-.28l.21-.34.55-.83.55-.69h.14l.21-.21.48-.28.34-.21.41-.07h.55l.41.07.28.07v.34h.28v.28l.28.28h.34l.28.34.76.14.28.41.34.14.41.28.21.34-.07.14.48.62-.21.34-.21.07v.34l.07.14.14.14-.21.96-.21.07v.34l-.14.55.14,1.03-.28.21-.14.28v.41l-.34.28-.21.96-.07,1.17-.41.14-.07.21-.14.55.21-.21v.41l-.14.34-.34.34v.76l-.14.14v.28l-.41.28-.21.48-.28-.21.07-.07-.07-.48.21-.14-.21.07-.14.41-.41.14-.07.34.14.55-.48.07-.28.28-.21.34-.07.34.28.14-.41.55v.48l.28-.07.34-1.1h.41l-.28,1.45-.07.76-.07.34-.21.14v.28l-.14.07-.14.21v.21l-.28.89-.48-.21-.14.48.28-.28-.28.41.21.14-.21.48.14.41-.28.41-.07.48-.21.96-.34.34-.07.34.07.34-.14.28v.69l-.21.48-.21.28.07.34-.41.41h-.14l-.14.28.07.55-.14.34.07.62-.41,1.79.34-.48.48-.76.28-.83.07-.14h.28l.28-.83.21-.55h.07l.07-.28v-.14l.21-.34.14-.07.07-.34h.07l.07-.34h.14l.07-.21.14-.28.14-.07.07-.41v-.07l.21-.28h.14l.14-.41.41-.96.07-.07.14-.28v-.14l.14-.14.21-.34.21-.48.34-.96.07-.14.28-.28h.14l.07-.41.21-.28.07-.48.07-.07.14-.21.21-.41.14-.48h.14v-.34h.14l.07-.21.07-.48.34-.14v-.62h.14v-.28l.21-.14.07-.28v-.07l.14-.21.07-.07.07-.28v-.07l.41-.62.34-.28v-.14l.14-.21.07-.07.07-.21v-.28l.28-.07.34-.62v-.21l.21-.07.21-.48.41-.76.07-.34.28-.28.21-.55.28-.41.48-.83.28-.14.07-.28.41-.62.41-.41.14-.48.41-.28v-.28l.28-.14.07-.34.41-.28v-.28l.21-.14.21-.41.48-.34v-.34l.21-.21.69-.62.89-.96.28-.34.41-.41.07-.48.62-.41.28.07.41-.28.14-.28.55-.07h.83l.41.28h.34l.14.21.34.07.21.55.55.34.34.28.21.21.41.14.34.48-.21.41.76,2.27-.28.69-.28.76-.34.28-.14,1.24-.28.14-.14.28v.48l-.28.89-.28.28-.21.14-.14.34,1.03-.48-.41.48-.28.41v.14Zm-3.03,8.67l-.14-.34.07.14.07.21Zm-1.38,6.95l-.14.62-.28-.14.14-.48h.28Zm-.41,3.85l-.48.34.14-.28v-.07h.34Zm5.92-21.82l-.14.41v.14l-.41.34v-.34l.14-.14.28-.41h.14Zm20.23,10.32l-.34.14v.28l-.28.14v.34l-.14.14-.14.21-.14.28-.28.34.07.62-.14.34-.28.14-.14.34-.14.41-.21.21v.55l-.14.34-.14.28-.14.21-.14.34-.14.48-.21.28v1.17l-.34.28-.21.48v1.17l-.48.28v1.79l-.14.34-.28.28v1.17l-.14.21-.14.28v1.17l-.21.89.21.69-.21.48.34.34-.34.41.14,1.31.14.48.28.14h.21l.07.28.07.34h.34v.28l.28.14.28.34-.07.41-.28.14-.28.07-.07.28-.34-.21-.89.21-.14-.21-.14-.14h-.76l-.21-.07v-.14h-.07v-.14l-.14-.07-.21-.07-.41-.28-.07-.14-.07-.14-.34-.14-.07-.28-.07-.07v-.28l-.34-.55-.07-.48.14.21.07.34.21.21v.28l.07.34.28.14.21.21v.21l.34.14.14.21.21.14h.14l.07.21h.41l-.34-.14-.21-.14-.28-.21-.07-.21-.14-.28-.41-.41v-.21l-.21-.34-.14-.21-.21-.28v-.21l-.14-.28.14-.34-.21-.28v-.28l.07-.28-.07-.21-.14-.28-.07.28-.07.21v.34l.07.28.14.21.14.28-.21.34-.07-.41-.28-.41.21-.96v-.69l-.14-.69.21-.83-.14-.28.21-.55.21-1.38.28-1.38-.76,1.1-.28.21-.14.62-.55.48-.41,1.03-.34.28-.14.41-.21.34-.28.14v.41l-.34.28-.21.28-.34.21-.14.48-.28.34-1.1.89-.28.69-.62.21-.28.21-1.31.21-.89.41-.41-.28-.83-.14-.83-.55h-.34l-.28-.41h-.34l-.28-.34-.28-.21v-.14l-.21-.28h-.07l-.07-.34-.28-.14v-.48l-.28-.69v-1.65l.07-.48v-.48l.07-.76.07-.34.14-.07v-.62l.34-.14v-.89l.14-.28.14-.07v-.28l.28-.76.28-.55.34-.41.07-.41.14-.07.41-.83.34-.41.21-.41.07-.41h.28v-.55l.21-.14.28-.48.55-.62.41-.41.21-.14v-.34l.48-.28v-.14l.14-.21.14-.28.28-.34.14-.21h.34l.14-.28.07-.07v-.07l.21-.21.34-.28.89-.89.28-.34.76-.28.48-.62.76-.48.21-.21.48-.14h.28v-.34l.69-.21.96-.34h.41l.21-.21h.28l.89.34.69.76.55.62.41.07.28.48.76-1.03-.14-.34.55-1.31-.28-.28.21-.34.41-.28.41.14.21-.14.28.28.89.14.62.83.28.07.14.21h.14l.28.28-.28.76.07.76-.21.14-.14.28.14.48Zm19.96,4.75l-.14-.07-.14.14-.28.41-.55.21v.07h-.21l-.28.14-.48.21h-.14l-.48.48-.21.07-.28-.21-.21-.21-.34.41-.14-.21-.14-.07-.14-.48-.07-.21-.07-.14-.07-.96.28-.55.07-.34.14-.14.14-.07.21-.41h.07v-.34h.14l.07-.41.07-.48.14-.07.28-.48v-.14l.41-1.17.41-.89.28-.69.07-.62-.21-.41-.55-.21-.55.14-.28.14-.34.34h-.21l-.34.28-.34.21-.07.34-.07.28h-.28l-.21.34-.07.14-.14.14-.14.34-.34.07-.21.41.07.07-.28.34-.21.34-.69.69-.14.34-.28.28-.21.55-.07.21-.28.14-.62,1.03-.07.07-.28.07.07.48-.34.14-.14.34-.07.21v.14l-.14.21v.14l-.28.07-.34.62-.48.69-.28.83-.41.41-.14.28v.14l-.34.21.07.34h-.14v.28l-.28.21-.07.48-.14.21-.34.34-.34.96-.34.48-.14.41-.14.07-.07.76-.14.07-.21.41-.14.07-.07.21-.14.21-.28.55.07.34-.34.14-.07.34-.21.14.07.28-.14.07-.14.48-.14.55-.07.48-.21.14-.21.62-.07.55-.28.89-.41,1.1-.41.55-.28.41h-.48l-.34-.28-.21-.41h-.14l-.07-.34v-.34l-.14-.34-.34.07-.14-.34-.07-.28-.14-.21-.14-.41v-1.38l.14-.55v-.96l.34-.62.14-1.45.14-.69.28-.55.07-1.45.48-1.38v-.62l.21-.28.07-.48.14-.21.14-.28v-.21l.14-.34.07-.28v-.21l.14-.28.14-.07-.07.07.07.14.28-.21-.14-.21-.07.14-.07-.34.14-.21v-.21l.14-.48-.07-.55h.14v-.48l.14-.21-.07-.41.34-.21v-.28l.28-.89.21-.62.07-.41.14-.28.14-.34.07-.41v-.34l.28-.21v-.28l.14-.28.14-.62.14-.34v-.48l.21-.14-.07-.62.14-.07.14-.34-.07-.76.21-.14-.14-.07.28-.21.28.28.48.21.21.34.34.14v.28l.21.21.07.48.21.07.28.55.21.62.14.76.07.48-.14.55-.41.89-.14.96-.14.28h-.14l-.07.76-.34.21.07.21-.14.69-.28.89-.28.55-.07.55-.28.48-.07.48-.21.34-.41.76-.21.62-.07.62-.07.69.07.48.55-1.17.28-.69.34-.76.41-1.03.69-1.45.14-.07.48-1.17.41-.62.07-.14.48-1.1.28-.21v-.34l.07-.28.14-.07.41-.96.28-.28.14-.28.21-.14v-.21l.21-.28.28-.48.14-.34.28-.34.28-.41.28-.34.21-.34.07-.28.34-.34.48-.55.34-.14.07-.34.69-.62h.41l.14-.21.41-.34.89-.21.83.28h.96l.89.07.96.55h.07l.34.28.21.41.48.28.21.55.14.69.21.48-.21.14v.28l.28.34-.07.41v.34l-.07.55.21.07v.28l-.28.14v.41l-.07.41-.07.89-.21.76-.41.48.14.69-.48.28Zm26.57,17.55l-.28.34-.34.62-.34.48-.28.21-.07.14-.34.21-.14.21-.14.28-.28.14-.34.48-.41.14-.14.21-.48.14v.14l-.21.21h-.34l-.07.07h-.76l-.83.28-.69-.14-.41.14-.21-.07-.34-.07.07-.14h-.21l-.34.14-.28-.28-.34-.14h-.28v-.14l-.28.14v-.41h-.34v-.21l-1.45-.55-.76-1.1-.34-.14-.07-.55-.48-.07v-.69l-.28-.62h.21l.28.34.28.21v.07l.21.14.28.41-.28-.48-.69-1.31.34-.48-.28-.41h-.21v-.55l-.21.14-.21-.69.28-.28v-.34l-.34.07v-.55l-.21-.34-.41-.48-.14-.14-.14-.07-.07-.21-.34-.21-.28-.14.14.55.48.34v.55l.34.14.14.55.21.07.21.28-.07.34v.62l.34.34v.48h-.55l-.21-.76-.21-.83h-.21v-.21l-.07-.41-.28-.14-.14-.48-.14-.55-.48-.34-.21-.48-.21-.21-.14-.34-.14-.07v-.28l-.34-.28-.62-1.03-.07-.07-.07-.41-.07-.55-.41-.96-.07-.07-.34-.55v-.28l-.14-.28-.14-.48-.21-.21-.14-.76-.28-.69-.07-.41-.28-.41-.07-.55-.21-.76-.07-.69-.21-.62v-.07l-.14.21-.07.14v.07l-.07.07-.07.14-.41,1.24-.14.55-.07.55-.14.14.14.14-.07.76-.14.28-.21.48-.14.21-.07.28-.28.28-.14,2-.14.14-.07.28-.07.96-.21.21v.14l-.21.14-.07.34v1.24l.14.28-.14.21-.21.28.14.34-.07.21v1.38l.21.28-.34.48-.07,1.1-.28.14-.21.14v.07l.14.07-.21.28-.48-.48-.41.07-.48-.34-.69-.41-.21-.55-.21-.69v-.55l-.14-.89-.07-.28.07-.34v-.41l.07-.55.14-.14v-.34l.21-1.17.07-.34h.14l.07-.76.28-.83-.07-.69.14-.41.21-.21v-.28l.14-.76v-.34l-.07-.21.14-.14.07-.83.14-.48.07-.83h.14l.07-.55.14-.48.14-.41.07-.69.28-.96.07-.62.21-.62-.07-.34v-.55l.14-.14.21-.14.07-.55.41-.96.28-1.31.41-1.1-.07-.41.28-.55h.14l.07-.69.21-.07.21-1.24.21-.07.07-.34.14-.48.28-.69v-.55l.21-.28v-.62l.21-.21v-.41l.14-.14.07-.34.34-.69.14-.96h.14l.21-.28v-.41l.21-.21v-.83l.21-1.1.28-.48.21-.21.28-.21.62-1.58-.14-.55.48-.48-.14-.34.14-.21.21-.28.14-.62.21-.76.14-.28.21-.34.14-.69.28-.28.21-.48.34-1.1.07-.55.28-.21.14-.41.14-.28.14-.34.14-.28.34-.21.14-.41.14-.34.21-.28.14-.28.21-.21v-.28l.62-.28v.34l.21-.28.21.41.83.34-.07.41.14.07.07.21.28.14.28.41-.21.83.34.76-.28.41.28.89-.07.34-.28.14-.21.76-.34.48.14.48-.34.55-.21.62-.21.21-.07.62h-.48v.41l-.07,1.1-.14.55-.21.14-.28.41-.07.14-.21.14-.14.07-.21.14v.55l-.21.28v-.28l-.28.69-.14.48.14.48-.55,1.86-.28.14-.14.48-.28.89-.28.07-.14.62-.14.89-.21.14.21.14-.34.83-.21,1.03-.34.21-.07.48-.28.34-.28.41-.07.14-.21.28-.14.69.14.28-.14.41-.34.34v.34l.07.48-.07.34-.28.07-.07.62-.28.07-.07.69-.41.69-.07.83-.21,1.17v.48l-.14.21-.21.34-.07.14v.07l-.07.21.14.21v-.14l.28-.21.34-.41.07-.07.34-.14.21-.34.41-.28h.07l.14-.28.55-.28.69-.41.41-.55.21-.14h.21l.21-.14.07-.14h.14l.34-.21.28-.34.28-.21.21-.14.28-.07.14-.28.21-.07.62-.41.28-.14.07-.34h.14l.21-.07.07-.28h.28l.14-.21.41-.34.07-.34.62-.21.34-.34.14-.34.28-.14.21-.96.62.34.28.14v.21h.28v.28l.41.14.34.41.28,1.03-.21.69-.07.34-.34.34v.28l-.34.28-.83.76-.21.41-.07.21h-.34l-.28.28-.41.34h-.28v.28l-.28.28-.28.07-.14.21h-.41l-.07.14-.21.34-.28.14-.21.48h-.55l-.07.28h-.21l-.55.34-.21.14-.41.21h-.34l.96-.62.89-.62.41-.34,1.1-.83.62-.96-.34.34-.62.55-1.1.89-.83.62-1.38.96-.28.34-.41.14-.14.21-.21.21-.21-.14-.21.21v.62l.14.89.34.41v.48l.34.14.28.69.21.34.21.21v.34l.41.41.41.96h.28l.07.41.89,2.48.41.34.21.41.69.96.14.14.28.14-.07.21.21.14.14.34-.07-.48-.34-.76.62.62.21.34.07.28.34.14.34.55.48.41.14.41.21.14.41.41.34.28.28.14.41.69.76.62.28.07.07.14.55.34.14.21h.28l.21.07v.14l.55.14.07.21,1.51.14,1.03-.07.69-.28.28-.14.41-.14.34-.21.07-.14.34-.21h.41l-.21.48Zm-12.05-6.33l-.14-.14-1.58-2.41v-.48l.34.48,1.38,2.55Zm8.88,3.58l.55.28v.28l-.55-.55Zm16.24-4.41l-.07-.21.07-.34h.28l-.28.55Zm.14-.76l-.14.07-.07-.07v-.14l.14-.21h.14l.14-.14h.21l-.28.28-.14.21Zm.41-.07l-.21.07.07-.28.34-.21.14.07-.34.34Zm.34-1.03l.28-.28.28-.55.21-.28.34-.28.28-.34-.14.69-.48.55-.62.96-.14-.48Zm.62,7.71l.21.14-.21.14v-.28Zm28.98-31.04h-.41l-.21.21h-.28l-.14-.21-.48.14-.21-.14-.28-.07-.41-.21h-.69v-.14h-.21l-.14-.34-.89.07-.83-.41-.48.14-.34-.21-1.1.28-.62.14-.48-.14h-.28l-.83.14-.14.21-.48-.14h-.41l-.55.28-.34-.07h-.28l-.28.14h-.48l-.48.07.07.28h-.34l.14-.28-.14.14-.28-.14-.41.07h-.14l-.07.21-.28-.14-.14.28-.21.21-.21-.34-.28.34h-.48l-.69-.07-.28-.14-.21.34-.07.21.14.07-.28.14-.07.21-.07-.34-.21.28v.34l-.14.07.14.21-.48.28.34.21-.34.14h-.07v.28l-.34.55-.21.48-.28,1.03-.14.48-.34.34-.41,1.51-.14.48-.41.21-.14.69-.28.34v.55l-.21.34.07.96-.28.28-.14.41-.07.41-.07.34-.28.76-.28,1.1-.07.48-.28.14v.41l-.21.14-.07.34-.28.34-.14.41-.14.21.07.34.14.62.07.62-.34.28.14.48-.55.55.28.96-.14.34-.14.28-.28.21-.14.76-.14.14-.07.21-.21.07v.55l-.14.83.14.48-.14.48-.21.34-.28,1.1-.28.48.28.34.14.76-.41.48-.14.41.14.34-.28.28.14,1.65-.41.89v.69l.14.41-.14.21-.14.62.21,1.31.07.34.21.21.07.34.14.48v.76l.41.55.28.41.41.28.28.48.07.34.69.69-.41.28h-.55l-.48-.07-.96-.21-.55-.21-.41-.41-.34-.21-.14-.07-.41-.55-.34-.34-.14-.48-.69-.83-.34-.83-.41-1.03v-.28l-.21-.62.07-1.1-.07-.55.41-.28.28.14.14-.69-.07-.55-.28-.07-.14-.28v-.55l.14-.34.21-.28-.14-.28-.14-.21.28-.21v-1.03l.21-.21.07-.34-.28-.28.21-.28-.21-.55.28.14.07-.55.14-.28.14-.14-.07-.55.14-.55-.41.28.07-.83-.07-.21.07-.76h.34v-.55l.48-.69.4-1.5-.12.12v-.34l.07-.14h.14v.05l.07-.25-.41.34-.21.76-.21.28v-.37l-.14.09-.28.07-.21.96-.14.34-.07.21h-.34l-.21.14-.28.21-.21.07-.28.62-.21.28-.34.28.55.28-.48.14-.34.07v.96l-.07.69-.41.48-.21.41-.34.28-.21.48-.76.41-.41.07-.21.28h-.48l-.14.28-.55.55-.62.55-.62.34-.28.21-.21.34-.28.14-.14.28-.48.07-.28.21-.41.14v.48l-.96.14-.76.21-.69.21-.41-.28-.96.07-.21-.07h-.41l-.55-.14-.28.07-.14.07-.28-.14-.14-.28-.34-.07-.28-.14-.21-.21-.07-.21-1.03-.14-.55-.55.21-.07v-.28l-.34-.21-.07-.28-.34-.21-.28-.07-.28.28-.07.14-.07-.14-.34-.21-.28-.07v-.21l-.14-.28-.21-.21-.07-.28-.21-.28-.14-.14-.07-.48-.07-.76-.28-1.24-.21-1.31-.14-1.72.14-1.03.28-.28-.07-.48.14-.34v-.34h.14v-.62l.14-.48v-.55l.14-.14.07-.21.28-.76.07-.14.07-.28h.14v-.28l.14-.89v-.28h.28l.34-.55.28-.55v-.28l.14-.28.14-.14v-.48l.55-.41.21-.48.54-.54.08-.15v-.21l.41-.41.14-.76.41-.28.21-.07v-.14l.34-.21.34-.28.21-.41.48-.14v-.41l.62-.55.07-.21h.34l.41-.14h.14v-.21l.34-.14.34-.21.41-.34.48-.28.21-.07.69-.07.41.07.96.21.34.28h.62l.69.76h.48l.21-.07.41.83.21.28.07.28.34.14.21,1.31-.07,1.38-.14.76h-.34v.41l-.14.62-.41.41-.07.83-.62.69-.83.41v.62l-.41.28-.69.62-.96.41v.34l-.28.07-.55.28-.96.28-.89-.07-.14.34-1.38-.28h-.14l-1.65-.14-.28-.34-.48-.28-.28,1.72-.14.83h-.21l-.14.28.14,1.65-.14,1.03v.48l-.14.07v.34l.28-.14v.62l-.14.28.14.21.21.21.14,1.24.14.28.41.28.14.62.34.21.55.41.21.28h.41l.14.28h.55l.83.14,2.2-.14.62-.28h.41l.28-.28h.48l.41-.34.21-.21.28-.21.48-.14.41-.28.07-.07.28-.14h.28v-.14l.62-.48.14-.07.14-.34h.14l.34-.28,1.38-1.38.34-.21.14-.28.34-.07v-.34l.21-.21.48-.34.21-.48h.28l.14-.28.48-.48.14-.41.28-.14v-.14l.21-.34.28-.28.21-.48.21-.21.14-.34.34-.14.21-.41.41-.21.27-.11v-.03h.08l.07-.14v-.76l.14-.76.14-.21.21-.07.21-.76.62-.28.14-.76-.55.28.14-1.03.28.62.41-1.24-.41.34-.07-.41.28-.76.07-.21.14-.14.14-.21.41-.96.21.34.28-.34v-.34l.14-.28.21-.89-.48.28v-.69l.48.14-.21-.48.28-.41.41-.69.69.21.21-.62.69-.28-.48.69.14.41.34.21-.21.28.34.14.07-.41.21-.21.21-1.24.07-.55.21-.21.14-.48.34-.41.07-.48.41-.55-.55.48-.28.07v.14l-.14.14-.21.07-.21.69-.21.34-.28-.14v-.28l.21-.83v-.55l-.55-.41.07-.34.21-.21.07-.41.21-.14.55-1.45-.48.14h-.28l-.21.28-.07.21-.07-.21-.14.07-.34-.14-.07-.07v-.14l-.14.34-.62.41-.55-.21-.69.34-.07-.34-.14.14-.14.28-.41.07h-.41v.14l-.76-.14-.14.21h-.62l-.14.14h-1.1v.14l-.21.07-.48.07-.89.28-.28-.14h-.28v.21l-.89.14-1.03-.28-.76.21-.34.07-.21-.21h-.28v.07h-.28l-.48-.14-.48-.34-.55-.14-.21-.34-.21-.48-.28-.28-.21-.28-.21-.14-.14-.41-.34-.07-.07-.21-.28-.41-.07-.34-.34-.69v-.34l.48-.21.28.14.62.21.14-.14.62.28.21.14v.14l.34.21,3.3.34,1.31-.14.34.07h.48l.07-.14.21.14v-.14l.41.14.21-.21.21.07.14-.14.96-.07.41.14v-.14l.34-.07,2-.07,2.48-.14h1.03l.14-.14h.76l1.1-.34.14-.14v-.41l.28-.14.07-.76.34-.41.21-1.1-.07-.41.21.14.41-1.38.14-.14.14-.07.28-.34-.28-.89.34.14.48-.48-.55-.55.41.14,1.17-.48.21.28.41.21.14.62.28.07.14.21.34.28.34.62.28.28v.62l-.34.34-.21.48-.21.89-.21.34-.28.28v1.38l1.72-.14.21.14.14-.14.76-.14,3.85-.28,3.44-.07.34.34.48-.21.48.34.07-.28.21.07.34-.07h.55l.14.21.21-.07.34.21.62.14.89.76.34.21.07.34.21.41-.14.28Zm-28.15,21.34v-.28l.07-.34.28-.21v.28l-.21.41-.14.14Zm4.82-14.59v-.48h.41l-.41.48Zm.62-1.79l.34-.34.07-.41.07.41-.48.34Zm.83,2.2v.28l-.28-.28h.28Z"/><polygon class="cls-1" points="326.24 400.59 326.52 400.32 326.65 399.9 327.07 399.76 327.34 399.35 327.62 399.21 327.69 399.01 328.03 398.8 328.31 398.66 328.51 398.53 328.58 398.25 328.86 398.11 329.06 397.97 329.27 397.77 329.54 397.56 329.75 397.49 329.96 397.29 330.09 397.08 330.37 396.94 330.92 396.39 330.58 396.53 330.58 396.6 330.3 396.8 329.89 396.87 329.68 397.01 329.68 397.22 329.48 397.36 329.27 397.56 328.92 397.77 328.65 397.91 328.37 398.11 328.37 398.18 327.96 398.46 327.82 398.59 327.55 398.73 327.48 398.94 327.27 399.21 327 399.35 327 399.49 326.58 399.76 326.58 399.97 326.24 400.18 326.03 400.32 325.96 400.66 325.83 400.8 325.76 400.93 325.96 400.8 326.24 400.59"/><polygon class="cls-1" points="424.8 386.27 424.94 386.14 425.14 386.27 425.28 386 424.94 385.79 424.8 386.27"/><polygon class="cls-1" points="373.32 379.87 373.32 379.94 372.9 380.22 373.52 380.49 373.59 380.29 373.73 380.01 373.46 379.67 373.32 379.87"/><polygon class="cls-1" points="331.54 396.05 331.26 396.25 331.13 396.39 331.54 396.19 331.54 396.05"/></g><rect class="cls-1" x="312.75" y="187.15" width="196.81" height="8.37"/><rect class="cls-1" x="72.35" y="445.58" width="437.21" height="8.37"/></svg>