<?xml version="1.0" encoding="UTF-8"?><svg id="Capa_1" xmlns="http://www.w3.org/2000/svg" viewBox="0 0 512 512"><defs><style>.cls-1{fill:#fff;}</style></defs><path class="cls-1" d="m265.87,80.99c9.68,4.19,18.54,8,27.38,11.87,30.58,13.36,61.13,26.79,91.75,40.06,2.96,1.28,4.26,2.69,4.25,6.16-.14,42.33-.13,84.66-.02,127,0,3.05-.96,4.52-3.71,5.7-38.59,16.53-77.13,33.17-115.69,49.77-1.07.46-2.19.79-3.67,1.32v-177.06c1.42.52,2.75.95,4.03,1.5,9.63,4.16,19.21,8.48,28.92,12.46,3.01,1.23,3.92,2.92,3.91,6.04-.1,30.47-.06,60.94-.05,91.41,0,1.97.18,3.94.31,6.39,1.61-.47,2.75-.7,3.8-1.13,13.32-5.45,26.6-11.01,39.97-16.35,2.82-1.13,3.79-2.67,3.78-5.69-.11-24.81-.12-49.61,0-74.42.02-3.2-1-4.75-3.97-5.98-25.72-10.69-51.35-21.57-77.06-32.28-2.85-1.19-4.09-2.54-4.03-5.87.23-13.32.1-26.65.1-40.89Z"/><path class="cls-1" d="m248.29,81.37v176.84c-1.56-.53-2.69-.83-3.75-1.29-9.64-4.16-19.21-8.49-28.93-12.44-3.16-1.28-4.06-3.01-4.04-6.3.13-30.61.07-61.21.07-91.82v-5.84c-1.81.54-3.07.81-4.24,1.29-13.32,5.45-26.61,11.01-39.97,16.36-2.57,1.03-3.33,2.41-3.32,5.1.1,25.21.12,50.43-.02,75.64-.02,3.02,1.2,4.18,3.73,5.24,25.45,10.63,50.83,21.45,76.31,32,3.4,1.41,4.68,3.08,4.6,6.79-.24,11.72-.08,23.46-.1,35.19,0,1.42-.15,2.85-.26,4.87-6.84-2.94-13.11-5.61-19.36-8.34-33.17-14.49-66.32-29.05-99.54-43.43-3-1.3-3.89-2.89-3.88-6.02.09-42.34.08-84.67.03-127.01,0-2.64.39-4.44,3.23-5.65,38.84-16.64,77.63-33.4,116.43-50.12.84-.36,1.72-.61,3-1.07Z"/><path class="cls-1" d="m8.51,134.62h106.05v34.66c-1.16.13-2.18.35-3.21.35-20.34.02-40.68.19-61.01-.04-20.78-.24-37.41-13.71-41.67-33.26-.11-.5-.1-1.03-.16-1.7Z"/><path class="cls-1" d="m400.1,169.44v-34.8h106.26c-1.38,15.32-15.27,30.25-31.64,33.84-3.39.74-6.93,1.09-10.41,1.11-20.48.1-40.95.05-61.43.05-.8,0-1.6-.11-2.78-.2Z"/><path class="cls-1" d="m400.14,208.84v-30.35h93.69c-.44,1.14-.72,2.27-1.26,3.26-9.45,17.08-23.29,27.13-43.43,27.1-14.81-.02-29.63,0-44.44,0h-4.55Z"/><path class="cls-1" d="m21.49,178.43h93.03v30.11c-1.14.11-2.16.29-3.18.29-16.7.02-33.4.09-50.1,0-15.76-.09-36.38-15.88-39.76-30.39Z"/><path class="cls-1" d="m14.18,403.26H1.21v-43.89c7.67,0,15.29-.11,22.91.14.95.03,2.13,1.78,2.7,2.98,3.84,8.14,7.53,16.35,11.66,25.38,3.13-6.83,6.55-12.75,8.58-19.11,2.49-7.8,6.89-10.79,14.98-9.52,4.33.68,8.85.12,13.55.12v43.93h-12.93v-32.36l-1.02-.55c-.82,1.09-1.83,2.08-2.44,3.28-4.54,8.87-9.1,17.73-13.41,26.71-1.18,2.47-2.6,3.5-5.25,3.17-1.33-.17-2.71-.17-4.04,0-2.65.34-4.1-.7-5.28-3.15-4.31-8.98-8.84-17.85-13.36-26.73-.64-1.25-1.7-2.27-2.57-3.4-.37.16-.74.31-1.1.47v32.56Z"/><path class="cls-1" d="m231.66,404.42c-7.03-.37-13.78-.46-20.45-1.16-5.99-.63-9.15-3.76-9.45-9.7-.4-8.17-.39-16.39.02-24.56.29-5.76,3.82-9.31,9.68-9.46,13.16-.35,26.35-.35,39.52-.02,5.95.15,9.42,3.51,9.73,9.35.45,8.43.42,16.91-.02,25.34-.28,5.33-3.43,8.37-8.78,8.95-6.81.74-13.68.87-20.24,1.25Zm-.8-11.61c4-.21,8.04-.31,12.06-.65,3.13-.27,4.88-2.16,4.93-5.34.06-3.63.1-7.27-.07-10.9-.14-3.05-1.69-5.22-4.97-5.25-7.79-.09-15.58-.08-23.38.04-3.17.05-4.48,2.34-4.64,5.12-.22,3.76-.22,7.54-.08,11.3.11,2.96,1.9,4.74,4.84,5,3.75.34,7.52.45,11.32.67Z"/><path class="cls-1" d="m111.47,404.42c-6.88-.38-13.62-.47-20.3-1.19-5.83-.63-8.89-3.59-9.21-9.44-.44-8.29-.42-16.65.01-24.94.29-5.62,3.76-9.13,9.37-9.28,13.3-.35,26.62-.36,39.92-.02,5.83.15,9.35,3.72,9.64,9.49.41,8.3.39,16.65-.02,24.95-.27,5.45-3.49,8.62-9.02,9.21-6.81.73-13.68.85-20.4,1.22Zm0-11.62c3.6-.19,7.63-.31,11.65-.65,2.95-.25,4.73-2.04,4.84-5,.15-3.76.17-7.54-.05-11.3-.17-3.01-1.77-5.15-5.06-5.19-7.52-.09-15.05-.11-22.58-.05-3.67.03-5.3,2.26-5.4,5.71-.1,3.36-.08,6.73-.09,10.09-.01,3.59,1.89,5.54,5.36,5.83,3.62.3,7.26.37,11.33.56Z"/><path class="cls-1" d="m357.76,404.03c-6.28-.34-12.47-.59-18.64-1.04-6.65-.49-9.89-2.66-10.39-8.99-.68-8.53-.53-17.19.13-25.73.43-5.48,4.09-8.36,9.62-8.45,12.78-.22,25.56-.25,38.34.01,6.02.12,9.59,3.59,9.88,9.62.38,8.03.36,16.1-.01,24.12-.27,5.85-3.73,8.92-9.65,9.36-6.44.49-12.89.74-19.27,1.1Zm-.23-11.17c3.5,0,7,.08,10.49-.02,3.89-.11,6.48-2.04,6.72-6.04.22-3.6.05-7.24-.13-10.85-.2-3.91-2.72-5.87-6.33-5.97-7.12-.2-14.26-.27-21.38.05-4.43.2-6.08,2.32-6.28,6.84-.13,2.95-.1,5.92-.04,8.88.1,4.79,2.03,6.85,6.85,7.1,3.35.17,6.73.03,10.09.03Z"/><path class="cls-1" d="m423.49,404.01c-6.4-.31-12.2-.35-17.95-.91-9.41-.91-11.96-3.32-12.47-12.88-.37-6.95,0-13.99.6-20.94.52-6.09,3.97-9.35,10.02-9.46,12.64-.23,25.29-.22,37.93,0,5.76.1,9.49,3.05,9.86,8.65.57,8.67.53,17.44-.03,26.11-.35,5.35-3.82,7.95-9.21,8.35-6.44.49-12.89.76-18.74,1.08Zm-.92-11.15c3.5,0,7.01.16,10.49-.04,4.56-.25,6.54-2.35,6.73-6.88.12-2.82.1-5.65,0-8.48-.2-5.29-2.01-7.26-7.38-7.59-4.02-.25-8.07-.11-12.11-.12-13.83-.03-15.45-.53-14.88,16.03.16,4.77,2.29,6.82,7.05,7.06,3.36.16,6.73.03,10.09.02Z"/><path class="cls-1" d="m458.43,359.55c15.61,0,30.94-.13,46.26.08,4.35.06,7.57,3.24,8.09,7.69.47,3.98.71,8.15-.04,12.03-.51,2.68-2.87,5.01-4.4,7.49,4.47,2.53,5.35,5.49,3.98,16.65h-12.95c0-2.15.06-4.1-.01-6.05-.12-3.13-1.43-5.03-4.93-4.99-7.37.08-14.74.03-22.6.03v10.77h-13.4v-43.69Zm13.62,21.72c2.87,0,5.53.02,8.18,0,5.1-.04,10.21-.04,15.31-.18,3.01-.08,4.24-1.87,4.06-4.8-.14-2.36.46-5.44-3.04-5.54-8.12-.23-16.26-.07-24.51-.07v10.6Z"/><path class="cls-1" d="m400.17,217.72h70.29c-13.26,17.72-36.71,33.54-70.29,29.12v-29.12Z"/><path class="cls-1" d="m114.79,246.79c-34.31,4.64-58.28-12.64-70.19-29.14,1.67-.1,3.12-.27,4.56-.27,20.48-.02,40.96.06,61.44-.09,3.4-.03,4.35.99,4.27,4.32-.22,8.32-.07,16.66-.07,25.17Z"/><path class="cls-1" d="m267.16,359.53h13.12v15.4c4.26.78,7.82.94,10.63-2.56,1.17-1.45,3-2.41,4.05-3.93,7.46-10.77,18.28-10.43,30.25-8.98-8.44,7.3-16.49,14.27-24.91,21.55,8.93,7.28,17.69,14.43,26.46,21.58l-.29.82c-6.12,0-12.25.11-18.36-.1-1.14-.04-2.34-1.2-3.34-2.05-4.43-3.73-8.99-7.33-13.13-11.36-3.16-3.08-6.56-3.87-11.14-2.8v16.06h-13.35v-43.64Z"/><path class="cls-1" d="m178.46,403.25h-13.98v-32.35h-19.48v-11.3h52.9v10.93h-19.44v32.72Z"/><path class="cls-1" d="m348.36,435.72c2.71-3.32,4.8-6.32,7.38-8.83,1.24-1.2,3.39-1.46,5.13-2.14.48,1.4,1.34,2.79,1.38,4.2.16,5.39.16,10.79-.02,16.17-.03,1.01-1.18,1.97-1.81,2.96-.59-1.02-1.66-2.01-1.7-3.05-.18-4.79-.08-9.6-.08-14.4-.38-.16-.76-.33-1.14-.49-3,3.44-6,6.87-9.28,10.63-3.09-3.69-5.99-7.14-8.89-10.6-.39.07-.77.14-1.16.22,0,2.3,0,4.6,0,6.91,0,2.83.11,5.67-.08,8.49-.05.8-1,1.53-1.54,2.3-.64-.66-1.82-1.31-1.84-1.99-.14-6.47-.13-12.94-.02-19.41.01-.67,1.05-1.95,1.45-1.89,1.48.21,3.32.46,4.27,1.44,2.69,2.78,5.01,5.92,7.94,9.48Z"/><path class="cls-1" d="m167.85,427.86q-.94,7.1,5.21,7.11c2.29,0,4.59-.1,6.87.08.7.05,1.33.88,1.99,1.35-.7.44-1.37,1.2-2.09,1.26-2.28.17-4.58.07-6.87.07-6.11.01-6.2.12-4.99,7.01,3.9,0,7.9-.11,11.89.08.99.05,1.93,1.1,2.89,1.68-.93.53-1.84,1.49-2.79,1.52-4.44.16-8.9.24-13.33-.07-.99-.07-2.63-1.79-2.67-2.81-.26-5.92-.23-11.86-.01-17.78.04-.97,1.48-2.64,2.35-2.69,4.7-.27,9.43-.2,14.14-.06.79.02,1.55.99,2.32,1.52-.75.57-1.48,1.61-2.25,1.64-4.15.16-8.3.08-12.64.08Z"/><path class="cls-1" d="m229.57,448.45c-1.52-.75-3.23-1.26-4.52-2.3-1.87-1.51-3.2-3.79-5.2-5.02-1.64-1.01-3.93-1.24-5.91-1.19-.45.01-.89,2.64-1.2,4.09-.17.77.15,1.68-.12,2.39-.23.62-1.03,1.52-1.45,1.45-.73-.12-1.94-.87-1.95-1.37-.12-6.86-.11-13.72.04-20.58.01-.48,1.32-1.33,2.02-1.33,4.02,0,8.06.06,12.07.42,3.93.35,6.59,2.68,7.03,6.61.44,3.86-1.84,6.26-5.44,7.46-.37.12-.68.41-1.47.89,2.29,2.49,4.5,4.88,6.71,7.28-.21.4-.41.81-.62,1.21Zm-10.56-11.33c.31-.03,1.65-.11,2.98-.25.53-.06,1.07-.17,1.57-.36,2.7-1.02,3.86-3.75,2.65-6.16-1.33-2.66-10.77-4.42-12.89-2.39-.18.17-.31.42-.42.65-2.13,4.36.34,8.51,6.11,8.51Z"/><path class="cls-1" d="m5.35,424.95c5.13,0,9.8-.25,14.43.08,3.61.26,6.35,2.17,6.89,6.16.57,4.15-1.49,6.6-5.26,7.91-.36.13-.66.42-1.46.94,2.33,2.49,4.56,4.88,6.78,7.27-.15.33-.29.67-.44,1-1.51-.59-3.26-.88-4.46-1.84-2.08-1.67-3.6-4.11-5.78-5.57-1.48-.98-3.77-1.26-5.57-1-.7.1-1.13,2.55-1.52,3.97-.21.75.16,1.71-.14,2.38-.32.7-1.13,1.62-1.73,1.62-.58,0-1.65-1.04-1.66-1.64-.12-7.08-.08-14.17-.08-21.28Zm9.29,2.16l-.04.3c-1.08,0-2.52-.43-3.15.1-1.1.93-2.33,2.43-2.37,3.73-.06,1.97-1.53,5.15,1.94,5.63,2.87.4,5.99.26,8.78-.47,1.35-.35,3.02-2.55,3.08-3.97.06-1.42-1.42-3.41-2.78-4.23-1.49-.9-3.61-.77-5.45-1.08Z"/><path class="cls-1" d="m280.09,448.53c-1.2-.9-2.35-1.88-3.61-2.69-1.42-.91-2.86-2.15-4.43-2.38-2.63-.39-5.37.02-8.04-.14-2.64-.16-4.59.32-5.83,3.05-.45.99-2.24,1.36-3.42,2.02-.28-.34-.56-.68-.85-1.03,3.58-7.16,7.07-14.37,10.8-21.44,1.18-2.24,4.7-2.07,5.92.27,3.64,6.98,7.08,14.07,10.59,21.12l-1.14,1.21Zm-11.93-19.88c-.4-.01-.8-.02-1.2-.04-1.73,3.75-3.47,7.49-5.38,11.61h12.19c-2.07-4.27-3.84-7.92-5.61-11.58Z"/><path class="cls-1" d="m413.2,448.46c-1.13-.76-2.79-1.29-3.27-2.34-1.11-2.44-2.81-2.92-5.17-2.79-2.41.14-4.85.11-7.26,0-2.67-.11-5.01-.06-6.2,3.1-.34.91-2.21,1.23-3.38,1.83-.26-.36-.53-.72-.79-1.08,3.52-7.05,6.96-14.14,10.61-21.12,1.19-2.27,4.74-2.27,5.92-.01,3.66,6.98,7.1,14.08,10.62,21.14-.36.42-.72.85-1.08,1.27Zm-12.49-20.99c-2.33,4.87-4.11,8.59-6.14,12.84h12.26c-2.04-4.28-3.81-8-6.11-12.84Z"/><path class="cls-1" d="m507.2,448.38c-1.19-.8-2.34-1.67-3.58-2.4-1.56-.93-3.1-2.24-4.79-2.52-2.62-.43-5.37.01-8.05-.15-2.52-.15-4.32.36-5.5,2.93-.46,1.01-2.19,1.44-3.34,2.13-.33-.36-.65-.71-.98-1.07,3.57-7.15,7.03-14.37,10.77-21.43,1.26-2.37,4.78-1.92,6.13.69,3.49,6.79,6.85,13.65,10.25,20.48l-.92,1.32Zm-11.96-19.63c-.4-.04-.8-.09-1.2-.13-1.77,3.73-3.54,7.46-5.53,11.67h12.24c-2.01-4.22-3.76-7.88-5.5-11.54Z"/><path class="cls-1" d="m95.08,443.73c2.41-5.49,4.9-10.95,7.18-16.49.92-2.24,2.11-3.27,5.13-2.23-3.49,7.5-6.8,14.91-10.52,22.12-.33.63-4.41.51-4.81-.26-3.66-7.11-6.9-14.44-10.3-21.79,2.81-1.12,4.08-.25,5.02,2.05,2.28,5.56,4.77,11.03,7.17,16.53.37.02.75.05,1.12.07Z"/><path class="cls-1" d="m89.3,256.11h25.14v13.31c-8.71-4.23-17.09-8.31-25.48-12.39l.34-.92Z"/><path class="cls-1" d="m400.11,255.99h25.45l.47,1c-8.45,4.15-16.91,8.29-25.93,12.72v-13.71Z"/><path class="cls-1" d="m434.1,424.47c7.66.09,7.27,7.69,11.78,10.01,4.39-2.25,4.47-9.75,12.21-10.19-1.85,2.57-3.03,4.37-4.38,6.05-3.62,4.5-7.48,8.84-6.29,15.36.12.64-1.01,1.51-1.56,2.27-.65-.65-1.95-1.44-1.84-1.92,1.69-7.89-3.81-12.67-7.66-18.17-.59-.85-1.15-1.73-2.26-3.42Z"/><path class="cls-1" d="m133.19,435.97c0-3.09-.11-6.18.08-9.25.05-.74,1.11-1.41,1.7-2.12.59.72,1.67,1.43,1.68,2.16.14,6.3.14,12.61.01,18.92-.02.78-1,1.54-1.54,2.3-.65-.78-1.8-1.53-1.85-2.36-.22-3.21-.09-6.43-.08-9.65Z"/><path class="cls-1" d="m52.33,436.1c0-3.1-.11-6.21.08-9.3.05-.77,1.1-1.47,1.7-2.2.6.72,1.71,1.43,1.72,2.17.14,6.33.14,12.67,0,19.01-.02.75-1.1,1.47-1.69,2.2-.61-.72-1.69-1.42-1.73-2.18-.19-3.22-.08-6.47-.08-9.7Z"/></svg>