<?xml version="1.0" encoding="UTF-8"?><svg id="Capa_1" xmlns="http://www.w3.org/2000/svg" viewBox="0 0 512 512"><defs><style>.cls-1{fill:#fff;}</style></defs><path class="cls-1" d="m74.11,241.67h-11.47v-21.98h-20.5v21.98h-11.4v-53.59h11.4v21.76h20.5v-21.76h11.47v53.59Z"/><path class="cls-1" d="m96.39,232.05h23.91v9.62h-35.31v-53.59h33.98v9.55h-22.58v12.58h21.24v9.33h-21.24v12.51Z"/><path class="cls-1" d="m169.67,241.67h-12.29l-10.58-20.36h-7.33v20.36h-11.32v-53.59h20.87c13.32,0,17.76,7.18,17.76,15.1s-3.78,12.81-9.25,15.32l12.14,23.17Zm-24.35-29.31c5.33,0,9.7-2,9.7-8.07,0-5.11-3.18-7.03-9.25-7.03h-6.29v15.1h5.85Z"/><path class="cls-1" d="m217.19,241.67h-12.29l-10.58-20.36h-7.33v20.36h-11.33v-53.59h20.87c13.32,0,17.77,7.18,17.77,15.1s-3.78,12.81-9.25,15.32l12.14,23.17Zm-24.35-29.31c5.33,0,9.7-2,9.7-8.07,0-5.11-3.18-7.03-9.25-7.03h-6.29v15.1h5.85Z"/><path class="cls-1" d="m234.59,232.05h23.91v9.62h-35.31v-53.59h33.98v9.55h-22.58v12.58h21.24v9.33h-21.24v12.51Z"/><path class="cls-1" d="m307.87,241.67h-12.29l-10.59-20.36h-7.33v20.36h-11.33v-53.59h20.87c13.32,0,17.76,7.18,17.76,15.1s-3.77,12.81-9.25,15.32l12.14,23.17Zm-24.35-29.31c5.33,0,9.7-2,9.7-8.07,0-5.11-3.18-7.03-9.25-7.03h-6.29v15.1h5.85Z"/><path class="cls-1" d="m325.26,232.05h23.91v9.62h-35.31v-53.59h33.98v9.55h-22.58v12.58h21.24v9.33h-21.24v12.51Z"/><path class="cls-1" d="m398.54,241.67h-12.29l-10.58-20.36h-7.33v20.36h-11.33v-53.59h20.87c13.32,0,17.77,7.18,17.77,15.1s-3.78,12.81-9.25,15.32l12.14,23.17Zm-24.35-29.31c5.33,0,9.7-2,9.7-8.07,0-5.11-3.18-7.03-9.25-7.03h-6.29v15.1h5.85Z"/><path class="cls-1" d="m411.64,184.82l-7.92-.59,6.74-10.36h11.99l-10.81,10.95Zm4.29,56.85h-11.4v-53.59h11.4v53.59Z"/><path class="cls-1" d="m454.2,188.08l18.95,53.59h-12.51l-4.44-13.03h-17.84l-4.15,13.03h-11.77l17.54-53.59h14.21Zm-7.03,10.73h-.3l-6.59,20.73h13.55l-6.66-20.73Z"/><path class="cls-1" d="m29.62,330.5h-11.47v-20.06L-.43,276.91h12.51l11.77,22.95h.37l11.33-22.95h11.55l-17.47,33.38v20.21Z"/><path class="cls-1" d="m74.03,290.45c0,4.81,5.11,6.29,10.95,7.92,7.77,2.15,16.88,4.89,16.88,16.06,0,12.14-9.84,16.95-20.5,16.95-9.62,0-19.76-3.11-20.73-17.02l10.36-1.55c.89,5.18,2.81,9.55,10.66,9.55,4.74,0,8.88-1.63,8.88-6.59,0-4.66-5.03-6.07-10.81-7.55-7.85-2.07-17.1-4.44-17.1-16.14,0-10.44,8.73-16.14,19.54-16.14,9.55,0,18.28,2.96,19.1,15.69l-10.44,1.18c-.44-5.03-2.52-8.07-8.81-8.07-5.48,0-7.99,2.29-7.99,5.7Z"/><path class="cls-1" d="m106.75,303.92c0-15.91,8.81-27.98,26.13-27.98s24.57,12.07,24.57,26.94c0,17.39-8.36,28.5-25.76,28.5s-24.95-11.47-24.95-27.46Zm38.93-.37c0-12.36-4.81-17.99-13.03-17.99-8.66,0-14.14,5.7-14.14,18.13s5.18,18.06,13.62,18.06c7.99,0,13.55-4.96,13.55-18.21Z"/><path class="cls-1" d="m177.07,320.87h22.95v9.62h-34.35v-53.59h11.4v43.97Z"/><path class="cls-1" d="m207.71,330.5v-53.59h18.8c18.58,0,26.57,9.99,26.57,25.98s-8.66,27.61-27.83,27.61h-17.54Zm17.02-9.18c12.36,0,16.65-6.74,16.65-17.84,0-13.32-5.18-17.39-15.84-17.39h-6.44v35.23h5.63Z"/><path class="cls-1" d="m286.62,276.91l18.95,53.59h-12.51l-4.44-13.03h-17.84l-4.15,13.03h-11.77l17.54-53.59h14.21Zm-7.03,10.73h-.3l-6.59,20.73h13.55l-6.66-20.73Z"/><path class="cls-1" d="m311.79,330.5v-53.59h18.8c18.58,0,26.57,9.99,26.57,25.98s-8.66,27.61-27.83,27.61h-17.54Zm17.02-9.18c12.36,0,16.65-6.74,16.65-17.84,0-13.32-5.18-17.39-15.84-17.39h-6.44v35.23h5.63Z"/><path class="cls-1" d="m396.02,309.55v-32.64h11.4v34.27c0,14.21-8.22,20.21-21.61,20.21-14.8,0-21.1-6.51-21.1-20.5v-33.98h11.47v32.42c0,8.36,2.15,12.51,10.07,12.51s9.77-3.55,9.77-12.29Z"/><path class="cls-1" d="m459.31,330.5h-12.29l-10.59-20.36h-7.33v20.36h-11.33v-53.59h20.87c13.32,0,17.76,7.18,17.76,15.1s-3.77,12.81-9.25,15.32l12.14,23.17Zm-24.35-29.31c5.33,0,9.7-2,9.7-8.07,0-5.11-3.18-7.03-9.25-7.03h-6.29v15.1h5.85Z"/><path class="cls-1" d="m492.62,276.91l18.95,53.59h-12.51l-4.44-13.03h-17.84l-4.15,13.03h-11.77l17.54-53.59h14.21Zm-7.03,10.73h-.3l-6.59,20.73h13.55l-6.66-20.73Z"/></svg>