<?xml version="1.0" encoding="UTF-8"?><svg id="Capa_1" xmlns="http://www.w3.org/2000/svg" viewBox="0 0 512 512"><defs><style>.cls-1{fill:#fff;}</style></defs><g><path class="cls-1" d="m.96,50.67h8.61v193.62h.48L53.07,50.67h9.08L28.69,196.48l34.42,168.76h-9.08l-30.12-152.5-14.34,62.63v89.88H.96V50.67Z"/><path class="cls-1" d="m77.45,247.16c0-93.7,9.08-119.99,34.42-119.99s34.42,26.29,34.42,119.99-9.08,119.99-34.42,119.99-34.42-25.34-34.42-119.99Zm60.24,0c0-87.01-7.17-111.39-25.82-111.39s-25.82,24.38-25.82,111.39,7.17,111.39,25.82,111.39,25.82-23.43,25.82-111.39Zm-14.82-188.84h10.04l-19.6,57.37h-8.13l17.69-57.37Z"/><path class="cls-1" d="m174.97,247.16c0-93.7,9.08-119.99,34.42-119.99s34.42,26.29,34.42,119.99-9.08,119.99-34.42,119.99-34.42-25.34-34.42-119.99Zm60.24,0c0-87.01-7.17-111.39-25.82-111.39s-25.82,24.38-25.82,111.39,7.17,111.39,25.82,111.39,25.82-23.43,25.82-111.39Z"/><path class="cls-1" d="m277.27,50.67h8.61v193.62h.48l43.03-193.62h9.08l-33.46,145.81,34.42,168.76h-9.08l-30.12-152.5-14.34,62.63v89.88h-8.61V50.67Z"/><path class="cls-1" d="m358.54,303.57c0-38.25,7.17-62.15,34.42-62.15h17.21v-58.8c0-37.29-4.78-46.85-18.17-46.85-14.82,0-20.08,13.39-20.08,50.2,0,11.95.96,22.47,1.43,26.77h-8.61c-.48-4.3-1.43-14.82-1.43-26.77,0-42.55,8.13-58.8,29.16-58.8,19.6,0,26.29,11.47,26.29,55.46v182.62h-8.61c.96-15.78,1.91-35.85,1.91-47.33h-.48c-3.35,35.85-11.47,49.24-26.29,49.24-20.08,0-26.77-21.03-26.77-63.58Zm51.63-45.42v-8.13h-17.21c-21.99,0-25.82,21.51-25.82,53.54,0,36.81,5.26,54.98,18.17,54.98,14.82,0,24.86-28.21,24.86-100.39Z"/><path class="cls-1" d="m448.42,454.64v-8.61c3.82,1.43,7.65,2.39,11.47,2.39,12.91,0,14.34-21.03,20.56-83.18h-6.21l-33.94-236.16h9.08l31.55,225.17h.96l21.99-225.17h9.08l-23.9,237.12c-7.17,74.58-11.47,90.83-29.16,90.83-3.35,0-8.13-.96-11.47-2.39Z"/></g><rect class="cls-1" x=".96" y="413.69" width="453.12" height="8.19"/></svg>