<?xml version="1.0" encoding="UTF-8"?><svg id="Capa_1" xmlns="http://www.w3.org/2000/svg" viewBox="0 0 512 512"><defs><style>.cls-1{fill:#fff;}</style></defs><g><path class="cls-1" d="m11.23,286.85v-32.54H-.44v-7.12h31.72v7.12h-11.56v32.54h-8.49Z"/><path class="cls-1" d="m44.21,279.73h17.69v7.12h-26.13v-39.66h25.14v7.07h-16.71v9.31h15.72v6.9h-15.72v9.26Z"/><path class="cls-1" d="m65.73,267.18c0-11.78,6.52-20.71,19.34-20.71s18.19,8.93,18.19,19.94c0,6.24-1.59,11.17-4.55,14.79l4.49,4.82-5.26,4.44-4.55-4.93c-2.57,1.21-5.59,1.97-9.2,1.97-13.09,0-18.46-8.49-18.46-20.32Zm22.68,12.82l-6.19-6.57,5.09-4.55,5.86,6.63c.99-2.03,1.42-5.04,1.42-8.6,0-9.15-3.62-13.31-9.7-13.31-6.41,0-10.46,4.22-10.46,13.42s3.94,13.53,10.19,13.53c1.31,0,2.63-.16,3.78-.55Z"/><path class="cls-1" d="m132.01,271.34v-24.16h8.44v25.36c0,10.52-6.08,14.95-15.99,14.95-10.96,0-15.61-4.82-15.61-15.17v-25.14h8.49v23.99c0,6.19,1.59,9.26,7.45,9.26s7.23-2.63,7.23-9.09Z"/><path class="cls-1" d="m156.55,286.85h-8.44v-39.66h8.44v39.66Z"/><path class="cls-1" d="m173.1,279.73h16.98v7.12h-25.42v-39.66h8.44v32.54Z"/><path class="cls-1" d="m215.99,247.19l14.02,39.66h-9.26l-3.29-9.64h-13.2l-3.07,9.64h-8.71l12.98-39.66h10.52Zm-5.2,7.94h-.22l-4.88,15.34h10.02l-4.93-15.34Z"/><path class="cls-1" d="m261.78,266.36l-.77.33c2.14,2.96,4.44,5.75,7.23,8.76,1.21-2.3,1.59-5.2,1.59-8.22h7.29c.11,4-.77,8.38-3.56,12.16,1.2.77,2.52,1.21,3.94,1.21.66,0,1.37-.11,2.08-.33l.88,6.24c-1.48.55-3.07.77-4.55.82-3.07,0-5.7-.99-8.33-2.63-2.19,1.64-5.86,2.79-10.74,2.79-9.09,0-13.86-4.98-13.86-11.28,0-5.26,2.57-8.71,8-11.01-1.37-2.3-1.92-4.33-1.92-6.63,0-6.3,5.09-10.13,11.83-10.13,4.88,0,9.64,1.97,9.64,7.83,0,3.23-1.42,6.96-8.76,10.08Zm.55,14.24c-3.29-3.01-5.81-6.3-8.6-10.35-1.21.99-2.3,2.46-2.3,5.09,0,3.4,2.3,6.14,6.79,6.14,1.53,0,2.9-.27,4.11-.88Zm-3.72-18.46c2.25-1.1,5.04-2.3,5.04-5.42,0-1.7-1.04-2.9-3.07-2.9-1.92,0-3.45,1.21-3.45,3.4,0,1.64.55,3.18,1.48,4.93Z"/><path class="cls-1" d="m338.19,286.85h-7.89v-31.11h-.22l-9.37,31.11h-7.61l-9.04-31.17h-.22v31.17h-7.72v-39.66h12.6l8.38,28.98h.22l8.33-28.98h12.54v39.66Z"/><path class="cls-1" d="m354.68,279.73h17.69v7.12h-26.13v-39.66h25.14v7.07h-16.71v9.31h15.72v6.9h-15.72v9.26Z"/><path class="cls-1" d="m385.74,279.73h19.23v7.12h-29.36v-6.19l18.79-26.4h-18.3v-7.07h28.1v6.3l-18.46,26.24Z"/><path class="cls-1" d="m407.27,267.46c0-12.6,6.68-20.98,19.12-20.98,8.87,0,15.17,4.27,15.61,14.24l-7.72.66c-.49-5.64-2.9-7.94-8-7.94-6.46,0-10.3,4.16-10.3,13.58s3.45,13.53,9.7,13.53c5.7,0,7.67-2.96,8.6-7.12l7.61,1.31c-1.26,9.48-9.2,12.76-16.32,12.76-13.15,0-18.3-7.78-18.3-20.05Z"/><path class="cls-1" d="m467.52,247.19l14.02,39.66h-9.26l-3.29-9.64h-13.2l-3.07,9.64h-8.71l12.98-39.66h10.52Zm-5.2,7.94h-.22l-4.88,15.34h10.02l-4.93-15.34Z"/><path class="cls-1" d="m494.58,279.73h16.98v7.12h-25.42v-39.66h8.44v32.54Z"/></g><g><path class="cls-1" d="m213.01,194.38c0,4.84,4.41,6.15,9.01,7.51,5.08,1.5,10.36,3.15,10.36,9.68,0,7.17-5.67,9.93-11.96,9.93-7.75,0-11.43-3.39-12.45-9.73l3.24-.48c.92,3.92,2.86,7.41,9.2,7.41,4.02,0,8.52-1.4,8.52-6.68s-4.36-6.3-8.91-7.55c-5.08-1.4-10.46-2.95-10.46-9.93,0-5.67,4.79-9.3,11.43-9.3,6.1,0,10.36,2.61,11.19,9.73l-3.1.39c-.68-3.39-2.03-7.22-7.94-7.22s-8.14,2.76-8.14,6.25Z"/><path class="cls-1" d="m259.11,220.92h-3.24v-16.37c0-3.78-1.31-6-5.13-6-3.24,0-6.73,2.18-8.23,3.54v18.84h-3.24v-36.56h3.24v14.87c2.66-1.99,5.67-3.53,9.1-3.53,5.28,0,7.51,2.95,7.51,8.52v16.71Z"/><path class="cls-1" d="m265.74,208.66c0-8.04,4.16-12.98,11.77-12.98s10.7,4.99,10.7,12.35c0,8.14-3.24,13.46-11.33,13.46s-11.14-5.57-11.14-12.83Zm19.08-.34c0-7.36-2.76-9.83-7.51-9.83s-8.23,3-8.23,9.98,2.66,10.27,8.04,10.27c4.75,0,7.7-2.91,7.7-10.41Z"/><path class="cls-1" d="m295.23,196.17h2.86l.19,3c2.28-1.89,5.08-3.49,8.91-3.49,5.18,0,8.96,3.2,8.96,12.25,0,9.64-4.84,13.56-10.46,13.56-2.91,0-5.47-1.36-7.31-2.71v12.4h-3.15v-35.01Zm3.24,19.61c1.21.92,3.92,2.95,7.22,2.95,5.28,0,7.17-4.5,7.17-10.94,0-6.78-2.08-9.44-6.49-9.44-3.15,0-6.3,2.03-7.89,3.68v13.75Z"/></g></svg>