<?xml version="1.0" encoding="UTF-8"?><svg id="Capa_1" xmlns="http://www.w3.org/2000/svg" viewBox="0 0 512 512"><defs><style>.cls-1{fill:#fff;}</style></defs><path class="cls-1" d="m512,247.79c-.15,3.04-.5,6.08-.42,9.11.16,5.79-.96,11.37-3.11,16.62-1.32,3.22-1.52,6.25-1.21,9.58,1.11,11.6-3.28,20.89-12.98,27.16-14.17,9.15-29.8,13.7-46.74,11.66-6.31-.76-12.47-3.06-18.6-4.98-3.33-1.04-3.17-1.05-4.05,2.19-1.19,4.39-.47,7.38,3.28,10.41,3.57,2.89,4.22,7.35,2.61,11.89-1.48,4.17-4.39,6.56-8.73,7.17-1.61.23-2.16,1.14-2.71,2.55-2.13,5.5-3.88,11.26-6.82,16.32-7.81,13.45-26.19,14.11-35.23,2.98-5.31-6.55-6.11-17.52-1.53-25.94.69-1.28,1-2.76,1.49-4.15-1.73-.47-3.45-1.07-5.21-1.33-.69-.1-1.57.47-2.22.94-.96.69-1.77,1.58-2.69,2.35-4.2,3.53-8.52,4-13.15,1.17-1.67-1.03-2.95-1.09-4.68-.18-6.72,3.52-13.04,2.88-18.9-2.07-.62-.52-1.68-.53-2.54-.74-.15-.04-.33.11-.49.11-5.52-.09-10.29,1.63-15.02,4.64-3.7,2.36-8.24,1.52-12.03-1.04-1.56-1.05-2.89-1.36-4.69-.46-1.4.7-3.11,1.09-4.67,1.06-2.34-.05-3.16,1.02-3.86,3.06-2.49,7.32-7.43,12.88-13.47,17.47-9.43,7.17-19.33,13.55-30.85,16.92-6.45,1.89-12.78,2.01-18.45-2.33-5.97-4.57-6.9-12.11-2.21-17.97,3.21-4.02,7.55-6.25,12.53-7.26.86-.17,1.94-.05,2.73.32,3.12,1.47,6.03,1.23,8.95-.52,3.62-2.18,7.3-4.27,10.96-6.4.72-.42,1.41-.87,2.12-1.3-.25-.38-.51-.75-.76-1.13-1.8.45-3.62.86-5.4,1.37-5.53,1.59-11.14,1.94-16.54-.14-8.16-3.14-12.09-10.84-10.32-19.58.38-1.9,1.18-3.72,1.49-5.62.11-.7-.42-1.9-1.02-2.24-1.47-.81-3.11-1.4-4.75-1.77-.74-.17-2,.12-2.44.66-5.84,7.2-13.63,10.36-22.59,11.34-2.94.32-5.84.99-8.75,1.59-6.01,1.24-11.81.76-17.47-1.69-1.05-.45-2.31-.83-3.41-.69-10.24,1.28-20.13.03-29.82-3.51-1.2-.44-3.09-.1-4.23.59-7.25,4.41-14.99,7.46-23.21,9.54-9.37,2.37-18.79,2.74-28.34,1.8-9.59-.94-19-2.74-28-6.21-19.76-7.62-35.73-19.76-45.54-38.95-3.81-7.45-5.81-15.55-6.78-23.82-.79-6.72-1.78-13.54-1.47-20.25.64-14.27,2.41-28.46,10.05-41.03,3.2-5.27,7.09-10.13,10.59-15.22,1.11-1.61,1.98-3.39,2.99-5.07.26-.43.59-.86.99-1.14,6.24-4.37,12.13-9.47,18.87-12.86,6.58-3.31,13.93-5.32,21.14-7.1,12-2.96,24.29-3.31,36.53-1.63,19.23,2.65,33.41,13.2,43.81,29.13,2.82,4.32,5,9.06,7.27,13.71.82,1.69,1.72,2.17,3.54,1.95,12.09-1.45,24.22-2.37,36.42-1.71.42.02.89-.04,1.27.1,4.79,1.84,7.92-.25,11.37-3.62,9.68-9.47,21.73-14.85,34.84-17.53,8.48-1.73,17.11-.99,25.61.73,2.89.58,3.33.3,3.81-2.68,1.91-11.83,8.36-20.01,19.76-23.96,2.59-.9,5.45-1.17,8.22-1.39,6.43-.53,12.88-.85,19.33-1.27,7.68-.5,14.43,1.73,20.19,6.82,1.25,1.1,2.41,1.49,4.13,1.09,4.88-1.11,9.8-2,14.72-2.91,14.13-2.61,29.06,7.4,31.65,21.57.82,4.52.72,9.24.7,13.87-.02,5.94-.39,11.89-.61,17.83-.06,1.64.74,2.39,2.33,2.77,6.28,1.52,12.44,3.38,17.94,6.93,1.43.92,2.5.48,3.53-.73,5.14-5.97,11.17-10.91,17.95-14.89,10.7-6.29,22.11-10.85,34.68-10.2,20.58,1.07,36.24,10.3,44.44,29.83,1.93,4.59,2.2,9.87,3.24,14.83.21.99.43,1.97.65,2.96v.51Zm-374.92-12.24c.08-1.13.09-2.04.22-2.94,2.93-20.16-11.02-40.36-30.88-44.79-8.59-1.92-17.22-1.72-25.89-.7-11.78,1.39-23.18,4.14-33.17,10.78-21.47,14.26-31.64,34.29-29.53,60.09,1.29,15.87,8.31,28.86,20.99,38.69,11.87,9.2,25.46,14.17,40.21,16.16,13.04,1.76,26.01,1.78,38.43-3.39,5.51-2.3,11.71-3.86,14.01-10.4,16.47,10.24,33.73,11.77,51.96,4.56.4,2.67,2.11,3.33,4.47,2.93,9.22-1.57,18.43-3.15,27.65-4.72,2.05-.35,2.92-1.62,2.74-3.61-.25-2.71-.51-5.41-.86-8.11-.36-2.74-1.39-3.5-4.13-3.15-2.34.29-4.67.62-7.27.97-.1-1.6-.28-2.93-.26-4.26.25-12.4.53-24.81.82-37.21.08-3.6,1.51-5.21,5.26-6.09.11.21.26.42.33.65,5.23,18.18,11.78,36,14.34,54.88.6,4.46,1.57,5.1,5.99,3.72,5.34-1.66,10.65-3.5,15.82-5.63,4.47-1.84,5.33-4.33,3.82-8.98-4.41-13.56-8.78-27.13-13.28-40.66-.56-1.68-.3-2.61,1.05-3.64,2.23-1.7,4.3-3.6,6.46-5.39q6.13-5.08,12.66-.25c.06.04.07.15.08.16-.97.61-2.29,1-2.83,1.87-2.25,3.57-4.75,7.1-6.25,10.99-2.43,6.29.28,10.83,6.74,12.59,13.86,3.8,28.93-5.5,30.95-16.83.12-.66.89-1.63,1.45-1.69,1.89-.21,3.82-.08,5.79-.08,0,1.04.07,1.64,0,2.23-1.75,13.47-3.53,26.94-5.27,40.42-.11.88-.19,1.92.15,2.69,1.6,3.65,2.28,7.42,1.93,11.39-.09.99-.01,2-.01,2.87,1.98.58,3.97.68,5.31,1.66,2.24,1.62,4.48,1.69,6.98,1.36,1.6-.21,3.23-.12,4.84-.26,1-.09,2.23-.04,2.92-.59,3.09-2.49,6.46-3.25,10.24-2.22,1.7.46,2.13-.38,2.19-1.82.09-2.38.22-4.75.31-7.13.09-2.33-1.16-3.46-3.38-3.56-1.61-.07-3.24-.09-4.85,0-1.73.11-2.49-.41-2.31-2.29,1.1-11.5,1.88-23.04,3.29-34.5.99-8.07,2.81-16.05,4.26-24.06.43-2.35-.69-3.82-3.08-3.87-1.1-.02-2.21.1-3.31.18-9,.59-18,1.17-26.99,1.8-1.5.11-2.45-.19-3.26-1.68-3.49-6.48-8.67-11.52-14.35-16.05-3.71-2.95-8.04-2.74-11.73.29-7.22,5.94-14.43,11.89-21.66,17.83-.68.56-1.42,1.06-2.52,1.87-.55-3.31-.99-6.15-1.51-8.97-.69-3.73-2.18-4.47-5.47-2.68-6.2,3.37-12.36,6.8-18.56,10.18-.64.35-1.77.88-2.05.63-2.58-2.29-5.2-.6-7.76-.18-5.92.97-11.78,3.76-17.77.29-.14-.08-.33-.05-.5-.08-12.12-1.82-23.9-.34-35.36,3.82-2.84,1.03-5.52,2.51-8.57,3.91Zm187.17-35.47h10.33v94.94c1.29-1.17,2.03-1.82,2.74-2.49,3.85-3.65,8.38-3.7,12.93-1.97,3.88,1.47,4.97,5.05,5.36,8.84.4,3.82.7,3.98,4.04,2.01.39-.23.76-.51,1.07-.72-1.15-.7-2.95-1.2-3.08-1.98-.72-4.3-1.03-8.67-1.48-13.1.94,0,1.37-.07,1.77.01,8.36,1.79,16.08-.16,23.24-4.36,7.86-4.6,8.73-14.06,2.09-20.28-3.45-3.23-8.62-4.35-11.95-2.27-1.03.65-2.17,2.2-2.13,3.31.15,4.57,1.65,5.68,6.16,5.26.3-.03.61.12.93.19-1.58,4.53-5.18,7.36-9.6,7.64-2.79.18-3.82-.7-4.22-3.55-.91-6.61,1.63-11.78,6.64-15.91,2.2-1.81,4.76-2.16,7.47-1.45,9.45,2.46,14.14,10.82,11.46,20.89-3.01,11.3-10.45,18.78-21.03,23.37-1.05.46-2.09.95-2.91,1.31,2.06.68,4.44.92,6.11,2.14,1.82,1.33,3.52,1.81,5.62,1.61,2.53-.24,4.91.25,6.83,1.99,3.32,3.02,3.29,3.05,6.32-.18.41-.43.74-.94,1.17-1.33,3.75-3.41,7.41-7.04,12.63-8.1,2.71-.55,4.64-1.86,5.94-4.25,1.09-2.03,2.26-4.02,3.44-6.11,7.61,9.3,13.67,13.7,23.34,16.9,19.31,6.39,37.23,2.32,54.33-7.42,2.41-1.37,2.49-3.4.31-5.1-2.27-1.78-4.66-3.42-6.99-5.13-3.55-2.61-4.01-2.57-7.05.49-6.24,6.28-13.69,8.43-22.19,5.9-11.16-3.33-18.25-18.36-14.86-32.42-.38,9.16,4.74,13.72,11.5,17.16,6.73,3.42,13.92,4.62,21.31,3.82,11.11-1.21,19.95-6.26,23.68-17.32,3.79-11.25,2.84-22.09-5.93-31.03-8.27-8.43-19.03-10.38-29.98-8.87-17.54,2.42-31.99,11.12-43.03,24.99-2.86,3.59-4.78,7.91-7.03,11.71-14.05-17.85-32.58-19.42-53.05-13.92,0-4.99-.14-10.23.03-15.46.48-14.69,1.09-29.38,1.62-44.08.12-3.27-1.18-4.38-4.34-3.81-5.27.94-10.52,1.97-15.8,2.91-2.54.45-5.1.78-7.98,1.21.38-2.23.71-3.97.98-5.71.59-3.85-.25-4.79-4.16-4.56-8.32.49-16.64,1.03-24.97,1.52-3.81.23-4.63,1.91-2.99,5.35,1.3,2.72,2.74,5.62,2.99,8.54.59,6.86-3.59,11.74-8.8,15.09-6.54,4.2-4.79,5.03-1.46,10.05.63.95,2.42,1.75,3.57,1.63,2.77-.27,5.53-.95,8.2-1.76,9.08-2.77,16.06-8.31,20.84-16.13Zm-31.58,130.05c-.3-.13-.61-.26-.91-.39.13-1.07.21-2.15.41-3.2.78-4.14,1.78-8.25,2.32-12.43.3-2.35-2.13-3.94-4.27-2.92-1.8.86-3.61,1.98-4.96,3.4-.67.7-.87,2.99-.32,3.48,1.56,1.37,1.11,2.74,1.02,4.36-.23,4.01-.45,8.06-.21,12.06.14,2.28,2.05,3.33,4.39,3.32,3.42-.03,5.6-2.03,7.43-4.61.83-1.18,1.64-2.37,2.65-3.82.42,1.74.69,2.98,1.03,4.2.72,2.56,1.89,4.78,4.75,5.43,3.1.71,5.46-.57,7.3-3,1.1-1.46,2.16-2.95,3.31-4.53,2.76,2.59,5.92,3.16,9.16,2.16,3.05-.94,5.95-2.38,8.96-3.63.01.21.04.69.06,1.18.23,5.02,3.02,7.54,7.94,6.91,1.38-.18,2.84-.72,3.98-1.5,4.3-2.95,8.84-5.65,11.82-10.26,0,1.34-.27,2.52-.51,3.72-.3,1.49-.83,2.98-.79,4.46.03,1.11.58,2.9,1.29,3.13,1.15.36,3,.11,3.9-.65,1.78-1.5,3.21-3.46,4.61-5.36,2.3-3.12,4.45-6.35,6.98-9.99.66,2.57,1.17,4.67,1.75,6.75,1.27,4.51,4.87,6.3,9.23,4.58,1.02-.4,1.94-1.06,2.98-1.37.71-.21,1.69-.3,2.3.03,3.56,1.93,7.21,2.69,10.76.33,2.9-1.93,5.52-4.3,8.52-6.67-.25,1.66-.6,3.27-.72,4.89-.12,1.68-1.18,2.39-2.55,2.7-5.82,1.32-10.83,4.29-15.51,7.79-5.2,3.88-9.59,8.42-9.91,15.49-.19,4.18.33,8.07,3.48,11.28,5.37,5.49,16.93,5.09,22.02-3.75,3.13-5.43,5.07-11.27,6.07-17.42.38-2.36.6-4.74.94-7.44,2.39.95,4.12,1.89,5.96,2.29,1.1.24,3.12.02,3.43-.62.54-1.12.3-2.78-.03-4.1-.19-.76-1.11-1.51-1.88-1.92-1.84-.98-3.8-1.76-6.02-2.76.61-3.54,1.31-7.18,1.86-10.85.52-3.4,1.46-6.92-1.68-9.74-.32-.29-.36-.93-.45-1.42-.56-3-3.13-5.21-6.16-5.38-3.88-.22-6.78,1.82-9.56,4.1-4.28,3.52-8.6,7.21-10.33,12.61-.99,3.1-2.77,4.58-5.6,5.76-.23-.58-.48-1.09-.64-1.62-.92-3.17-1.58-6.43-2.78-9.48-1.22-3.11-3.65-3.73-6.28-1.63-1.82,1.45-3.24,3.42-4.82,5.17-.55.61-1.06,1.27-1.81,2.18.36-3.04.97-5.56.81-8.02-.09-1.31-1.28-3.01-2.45-3.6-.72-.36-2.36,1-3.53,1.68-.33.19-.44.71-.71,1.04-4.68,5.66-9.34,11.33-14.08,16.94-1.06,1.25-2.75,2.45-4.15,1.14-.79-.74-.79-2.79-.49-4.1.78-3.37,1.99-6.63,2.91-9.97.41-1.5.1-3.02-1.54-3.61-1.57-.57-3.21-.59-4.35,1.04-.34.49-.72.95-1.01,1.47-2.77,4.8-5.74,9.26-11.78,10.54-1.75.37-3.34,1.57-4.86-.15-1.38-1.56-.76-3.17-.15-4.96.74-2.19,1.34-4.61,1.15-6.86-.11-1.24-1.76-2.88-3.08-3.37-1.85-.69-2.79,1.07-3.4,2.65-.21.55-.31,1.15-.48,1.72-1.25,4.14-2.43,8.3-3.82,12.4-.48,1.4-1.51,2.6-2.3,3.9-.26-.06-.51-.13-.77-.19-.26-.75-.61-1.49-.78-2.27-.69-3.31-1.19-6.66-2.01-9.93-.66-2.62-2.9-3.22-4.76-1.24-1.49,1.58-2.6,3.52-3.8,5.36-1.54,2.36-3,4.78-4.49,7.17Zm-11.96,9.73c.06-6.26-2.77-10.98-8.01-11.64-4.29-.53-8.84-.32-13.09.51-4.33.85-8.42,2.93-12.66,4.3-1.6.52-3.83,1.83-4.85-.1-.68-1.3-.26-3.69.51-5.15,7.1-13.41,16.95-24.2,30.68-31.11.84-.43,1.87-.49,2.81-.73.22,1.2.85,2.49.59,3.57-.53,2.12-1.72,4.06-2.33,6.17-1.12,3.87-2.3,7.76-2.9,11.72-.37,2.44,2.45,3.83,4.59,2.5.99-.61,1.92-1.42,2.64-2.33,1.96-2.42,3.82-4.89,1.49-8.2-.34-.49.06-1.63.33-2.38.98-2.7,2.35-5.3,3.05-8.07,1.69-6.75-3.73-12.12-10.37-10.34-2.09.56-4.13,1.53-6.01,2.61-9.62,5.52-17.23,13.3-24.13,21.83-3.91,4.83-7.47,9.87-8.71,16.17-1.13,5.7,1.13,10.64,6.02,11.42,3.35.53,6.99.38,10.31-.35,5.58-1.24,10.97-3.32,16.51-4.77,3.92-1.03,6.76,2,6.01,5.93-.72,3.76-2.75,6.75-5.43,9.26-7.96,7.46-17.39,12.42-27.74,15.67-.57.18-1.44-.62-2.19-.93-1.15-.49-2.52-1.58-3.44-1.29-1.94.62-3.93,1.68-5.41,3.07-2.88,2.71-1.96,6.61,1.61,8.27,4.92,2.3,9.6.39,14-1.27,9.87-3.73,18.72-9.39,26.73-16.22,5.51-4.7,9.26-10.55,9.4-18.14Zm59.07-33.37c.84,1.06,1.44,2.55,2.47,2.97,1.74.71,3.48-.15,4.1-2,.58-1.74.93-3.63.9-5.45-.01-.92-1.01-2.5-1.7-2.57-1.12-.13-2.84.4-3.43,1.25-1.06,1.53-1.47,3.52-2.34,5.81Zm-81.99,11.87c5.02.82,6.1-.46,4.28-4.7-1.55,1.7-2.92,3.2-4.28,4.7Z"/><path class="cls-1" d="m117.41,262.42c-.62,12.25-.93,15.54,6.37,28.83-5.09,3.5-10.73,5.71-16.78,6.79-10.47,1.87-20.35-.8-29.72-5.01-15.48-6.96-26.75-18.34-32.47-34.44-6.6-18.57-.83-42.84,22.79-53.01,5.57-2.4,11.49-4.38,17.44-5.42,11.34-1.99,19.57,3.34,25.36,12.76,5.08,8.27,6.56,17.05,2.8,26.28-3.23,7.91-7.89,10.65-16.38,9.71-9.35-1.03-14.23-4.65-17.56-14.2-1.54-4.44.07-6.3,4.69-5.32,6.33,1.34,6.18,1.19,8.41-5.34,1.45-4.24.94-5.47-3.19-7.19-3.16-1.32-6.3-1.14-9.46-.06-12.15,4.15-18.98,16.85-15.58,29.17,1.38,5.01,4.83,8.55,9.05,11.3,8.13,5.28,17.06,8.39,26.74,9.1,6.05.44,11.8-.93,17.48-3.94Z"/><path class="cls-1" d="m182.89,257.99c-10.3-3.03-19.24-.67-27.57,4.08-12.9,7.35-9.29,20.97-.36,26.2,3.43,2.01,7.08,2.28,10.69.28,1.68-.93,2.48-2.27,1.78-4.23-.28-.8-.46-1.63-.73-2.44-.94-2.78-1.86-3.28-4.8-2.65-.89.19-1.78.38-2.71.58-.05-3.86,4.46-9.13,8.71-10.38.97-.28,1.99-.5,2.99-.6,2.35-.25,3.9.76,4.62,3.06,2.41,7.7-1.64,18.15-8.63,22.26-2.62,1.54-5.39,1.52-8.13.68-9.27-2.85-14.38-10.44-13.72-20.18,1.11-16.4,14.38-31.71,30.46-35.11.9-.19,1.85-.22,2.78-.22,1.87,0,2.88.7,3.04,2.84.37,5.14,1,10.27,1.58,15.83Z"/><path class="cls-1" d="m266.22,240.39c.45.5,1.05,1.07,1.54,1.72,1.25,1.65,2.02,3.63.67,5.35-1.37,1.76-3.56,1.7-5.61,1.06-1.57-.49-2.07-1.31-.86-2.75,1.39-1.65,2.68-3.37,4.26-5.38Z"/><path class="cls-1" d="m476.34,249.15c.82,5.39,1.81,10.34-.63,15.05-.73,1.4-2.13,2.76-3.56,3.44-3.9,1.87-8.12,2.33-12.41,1.72-2.32-.33-3.55-1.79-3.91-4.05-.95-5.95,2.41-12.13,8.05-14.09,1.25-.43,3.25.04,4.4.83,3.81,2.6,4.19,2.64,6.62-1.22.3-.47.73-.86,1.44-1.68Z"/><path class="cls-1" d="m474.41,244.26c-8.41-7.1-26.02-4.64-33.72,8.63,2.19-9.7,13.33-18.65,23.17-18.56,2.9.03,5.33,1.25,7.09,3.48,1.49,1.89,2.69,4.01,4.02,6.03-.18.14-.37.28-.55.42Z"/><path class="cls-1" d="m407.51,340.03c-.96,4.07-1.6,8.26-3,12.18-1.13,3.19-2.76,6.4-4.91,8.98-3.31,3.98-7.86,3.38-10.84-.87-1.63-2.34-1.58-5.02.27-7.8,3.5-5.3,8.44-8.88,14.07-11.61,1.18-.57,2.46-.96,3.69-1.43.24.19.48.37.72.56Z"/><path class="cls-1" d="m409.66,313.08c-2.94,3.66-5.63,7.21-8.55,10.56-1.16,1.33-3,3.02-4.75,1.61-1.82-1.47-.69-3.72.5-5.2,2.05-2.53,4.36-4.85,6.68-7.14,1.77-1.75,3.75-1.5,6.12.17Z"/></svg>