<?xml version="1.0" encoding="UTF-8"?><svg id="Capa_1" xmlns="http://www.w3.org/2000/svg" viewBox="0 0 512 512"><defs><style>.cls-1{fill:#fff;}</style></defs><path class="cls-1" d="m217.14,167.73c6.34.68,11.95,1.38,17.61,1.79,4.94.36,9.89.64,14.82.85,9.43.39,18.89.2,28.34.2,8.43,0,16.87.12,25.3-.15,8.38-.27,16.75-.65,25.12-1.06,5.61-.27,11.24-.55,16.84-.97,10.77-.81,21.59-1.28,32.27-2.97,9.15-1.44,18.23-3.2,27.26-5.35,12.64-3.01,24.21-8.3,35.37-14.72,1.22-.7,2.26-1.7,3.42-2.53.97-.7,2.15-.75,3.04-.12.83.59.35,1.51.04,2.45-2.02,6.1-6.47,10.29-11.18,14.2-8.09,6.71-16.33,13.24-24.48,19.87-1.06.86-2.55,1.66-2.05,3.38.43,1.5,1.3,2.62,3.21,2.45,6.4-.54,12.81-.6,19.23-.5,9.27.14,18.56.1,27.82.54,8.37.4,16.75.65,25.12,1.03,6.62.3,13.26.28,19.87.85.87.08,1.55.32,2.17.81-1.26.71-2.65.72-4.06.75-11.93.19-23.87.18-35.79.71-7.09.32-14.19-.11-21.24.45-6.83.54-13.65-.03-20.47.4-1.64.1-3.3.2-4.91.52-2.94.59-5.26,3.47-5.47,6.58-.32,4.75-3.17,8.48-7.6,9.9-4.95,1.58-9.87,3.3-14.89,4.64-10.73,2.86-21.44,5.79-32.33,8.07-5.51,1.15-11,2.06-16.56,2.78-.71.09-1.53.3-2.14-.71,4.92-1.64,9.9-2.87,14.84-4.26,12.03-3.38,24.43-5.24,36.37-8.98,1.96-.61,3.75-1.59,5.62-2.37,1.09-.45,1.73-.89,1.63-2.08-.1-1.29-.92-2.07-2.1-2.06-4.63.03-9.28-.46-13.85.91-9.33,2.8-18.64,5.72-28.07,8.14-6.57,1.69-13.33,2.6-19.99,3.94-10.85,2.19-21.87,3.42-32.68,5.89-7.14,1.63-14.42,2.69-21.7,3.72-5,.71-9.88,2.25-14.88,3.02-3.46.53-6.86,1.61-10.44,1.46-3.65-.15-7.3-.18-10.88.86-.63.18-1.54.29-2.01-.7,10.56-1.5,20.9-4.04,31.38-5.87,5.51-.96,11.17-1.74,16.48-3.54,3.3-1.11,6.72-.7,9.95-1.79,6.34-2.15,13.03-2.62,19.53-4.05,7.75-1.71,15.59-3.04,23.39-4.57,2.79-.55,5.57-1.13,8.33-1.78.91-.21,2-.44,1.99-1.77-.02-1.42-1.31-1.74-2.2-1.95-2.12-.5-4.31-.86-6.49-.94-5.68-.21-11.26.38-16.86,1.6-10.17,2.2-19.95,5.98-30.16,7.75-9.33,1.62-18.62,3.5-28.01,4.85-7.36,1.06-14.76,1.97-22.12,3.16-10.08,1.62-20.21,3.39-30.52,2.97-.32-.01-.64-.1-1.22-.19,2.29-1.75,4.87-1,7.16-1.48,6.65-1.4,13.37-2.58,20.11-3.43,5.86-.74,11.63-1.94,17.47-2.75,5.11-.71,10.19-1.6,15.28-2.44,5.94-.98,11.87-1.98,17.8-3.01.94-.16,1.86-.53,2.76-.89.45-.18,1.25.2,1.28-.78.03-.9-.43-1.51-1.17-1.72-4.79-1.38-9.75-2.13-14.64-1.55-1.69.2-3.38.3-5.07.35-7.51.22-14.92,1.3-22.18,3.14-8.87,2.25-17.79,4.24-26.79,5.88-6.27,1.14-12.6,1.85-18.9,2.74-14.39,2.03-28.82,1.94-43.27,1.95-.66,0-1.33-.09-1.99-.17-.13-.01-.24-.17-.59-.44,2.25-1,4.53-.66,6.59-.82,5.61-.42,11.18-1.17,16.77-1.76,8.32-.89,16.64-1.78,24.9-3.21,2.25-.39,4.54-.51,6.74-1.21,1.12-.36,2.3-.82,2.34-2.12.04-1.3-1.11-1.63-2.25-1.9-5.28-1.23-10.61-.79-15.9-.31-4.41.39-8.77,1.25-13.17,1.79-2.14.26-4.05-2.61-2.95-4.51,3.69-6.44,7.06-13.06,10.58-19.59,3.56-6.59,7.88-12.8,10.55-19.88,1.52-4.03,5.99-5.31,9.96-3.23,1.71.9,3.65,1.36,5.59,1.55,6.29.64,12.62.26,18.91.55,18.09.83,36.19.57,54.28.47,2.17-.01,4.34.1,6.51.02,8.7-.3,17.42-.45,26.1-1.06,6.67-.46,13.33-1.13,20.01-1.42.25-.01.61.08.73-.05,1.29-1.42,2.8-.46,4.21-.62,2.98-.33,6.02.19,8.87-.5,1.8-.44,3.68-.55,5.36-.58,3.74-.06,7.26-1.25,11.02-1.34,7.46-.18,14.86-1.27,22.26-2.51,3.9-.65,7.81-1.93,11.86-1.72-8.63,3.1-17.45,5.32-26.56,6.37-6.04.7-12.04,1.71-18.07,2.4-5.66.65-11.36.95-17.03,1.58-9.83,1.1-19.69,1.39-29.57,1.65-8.98.24-17.96.55-26.94.87-22.93.82-45.87.52-68.8.44-2.79,0-5.58-.73-9.13-.23Zm132.23,26.34c15.16,1.53,38.83-3.48,47.15-8.54-15.34,4.86-31.03,7.77-47.15,8.54Z"/><path class="cls-1" d="m122.25,211.65c2.48-.8,5.07-.8,7.6-.93,7.86-.39,15.66-1.43,23.52-1.72,4.36-.16,8.76-.49,13.07-1.06,3.28-.43,6.6-.07,9.83-.81.6-.14,1.21-.21,1.37-.86.17-.67-.07-1.2-.66-1.72-1.87-1.64-4.2-2.09-6.48-2.43-6.27-.94-12.52-.18-18.8.36-7.2.62-14.28,2.06-21.48,2.78-5.25.52-10.51,1.01-15.78,1.29-5.49.29-11,.19-16.5.02-3.7-.11-7.38-.63-11.07-1.02-.35-.04-.67-.41-1.61-1.02,4.59.45,8.45-.33,12.37-.52,7.46-.36,14.94-.94,22.08-3.41,1.2-.41,2.63-1.01,2.82-2.52.2-1.58-1.13-2.18-2.26-2.93-6.34-4.21-13.39-6.08-20.84-7.31-4.57-.76-9.15-.74-13.69-1.33-7.89-1.02-15.83,0-23.72-.52-13.4-.88-26.82-.65-40.22-1.08-6.24-.2-12.48-.13-18.71-.39-1-.04-1.96-.1-3.11-1.07,2.25-.34,4.24-.93,6.21-.87,4.26.14,8.56.04,12.74-.25,6.7-.47,13.41-.47,20.11-.77,7.3-.32,14.61-.98,21.93-.81,2.65.06,5.3-.27,7.96.22,2.48.45,4.94-.34,7.41-.49,5.25-.31,10.44.83,15.69.53,1.14-.06,2.24-.08,3.39-.43,2.74-.82,3.17-1.68,1.73-4.13-.44-.74-1.02-1.29-1.67-1.81-6.72-5.34-13.53-10.56-20.52-15.56-5.38-3.85-10.34-8.37-13.66-14.32-1.03-1.85-.59-3.87,1.09-4.65,1.05-.48,1.9-.34,2.87.59,4.12,3.94,9.12,6.52,14.28,8.83,2.79,1.25,5.58,2.52,8.34,3.84,7.51,3.59,15.5,5.63,23.63,7,7.03,1.18,14.13,2.05,21.26,2.63,6.09.49,12.18.93,18.26,1.52,10.61,1.03,21.26.83,31.89,1.35,1.89.09,3.74.79,5.7-.04-3.43-.28-6.86-.65-10.3-.83-6.93-.35-13.83-.91-20.74-1.49-5.83-.49-11.66-.98-17.47-1.6-6.2-.66-12.4-1.39-18.58-2.26-5.87-.83-11.61-2.2-17.4-3.3-5.73-1.09-11.27-3.07-16.51-5.86,1.02.31,2.03.61,3.05.91,8.68,2.59,17.51,4.36,26.56,5.09,7.62.62,15.25,1.3,22.79,2.49,5.27.83,10.59,1.13,15.87,1.8,4.9.61,9.97-.1,14.96-.22.97-.02,1.19-.5,1.26-1.43.47-5.87,2.46-11.48,3.16-17.31.43-3.58,1.3-7.11,1.81-10.67.37-2.58,2.49-5.49,4.99-7.42.99-.76,2.05-1.44,3.01-2.24,1.9-1.57,2.87-4.83,2-7.02-.46-1.15-1.74-1.11-2.72-1.1-2.07.01-3.83-.83-5.6-1.68-.56-.27-1.24-.43-1.19-1.36.05-.9.6-1.65,1.22-1.71,4.22-.42,5.7-3.18,6.97-6.84,1.53-4.41,8.13-4.47,11.27-.16,1.18,1.61,2.19,2.1,3.78,1.07,1.03-.67,2.1-.36,3.14-.38.75-.01,1.86-.46,2.15.66.24.93.38,1.99-.39,2.86-.17.19-.29.44-.5.56-3.91,2.21-4.96,5.76-5.11,9.98-.1,2.84-2.08,4.37-4.89,4.46-1.86.06-1.92.92-1.35,2.24,1.51,3.48,3.66,6.59,6.14,9.39,1.7,1.92,4.09,1.97,6.38.75,4.31-2.29,8.55-4.7,12.44-7.67.97-.74,2.06-1.31,3.13-1.91,1.28-.72,2.63-1.23,3.87-.01,1.23,1.2-.23,1.97-.68,2.78-4.56,8.27-9.21,16.5-13.8,24.76-3.41,6.14-6.72,12.34-10.15,18.48-5.76,10.32-11.58,20.62-17.38,30.92-1.01,1.79-2.25,3.48-3.04,5.36-1.42,3.38-4.12,4.48-7.44,4.68-16.3.97-32.6,1.79-48.93,1.2-.74-.03-1.47-.09-2.21-.13Zm82.52-61.26c2.1-.26,4.38-.86,5.86-3.27,2.74-4.46,5.63-8.83,8.42-13.27.48-.76,1.37-1.5.21-2.57-1.22-1.12-1.79-.06-2.46.53-3.31,2.91-6.62,5.84-9.88,8.81-1.8,1.65-4.05,2.73-6.23,2.08-1.48-.44-2.18-.02-2.96.71-.89.84-.66,1.97-.27,3.03.84,2.26,3.85,3.99,7.31,3.94Zm-13.01,1c5.27,7.76,10.01,8.18,14.66,3.11-4.94-.63-9.47-2.96-14.66-3.11Z"/><path class="cls-1" d="m313.22,289c1.02-.04,2.05-.09,3.08-.13.57,2.03,1.6,3.12,3.68,1.64.73-.52,1.42-.03,2.11-.2,0,0-.02-.02-.02-.02.54,2.92,3.48,3.57,5.13,5.44-.44.56-.13,1.14.02,1.67.92,3.09.47,5.93-1.41,8.55-1.89,2.65-3.68,5.38-5.7,7.93-5.8,7.32-15.75,8.03-22.32,1.69-.51-.5-.93-1.14-1.03.26-.03.48-.77.52-1.26.61-2.78.5-5.56,1.04-8.34,1.52-1.47.26-2.79.39-4.14,1.48-2.33,1.89-3.97,1.29-4.63-1.08,0,0-.02.03-.02.03.41-.06.85-.06,1.04-.55,0,0-.04.03-.04.03.44,0,.87-.03,1.04-.54,0,0-.04.03-.04.03.45.01.88,0,1.05-.53,0,0-.04.03-.04.03.44.01.88.02,1.05-.52,0,0-.04.03-.04.03,1.99.79,3.03-1.5,4.76-1.47,2.49.04,4.95-.33,7.43-.45,1.9-.09,2.11-.57,1.39-2.18-1.57-3.48-3.16-6.95-4.15-10.68-.34-1.26-.22-2.31.02-3.57.42-2.2,2.04-3.96,2.08-6.25h0c1.72-.53,3.47-2.03,5.23-.66,1.28,1,2.69.32,3-.2,1.36-2.32,3.12-1.17,4.78-.9,2.23.36,4.44.81,6.3-1.02Zm10.19,11.62c-2.37,5.86-5.49,10.33-10.42,13.2,3.25,1.61,10.46-6.78,10.42-13.2Zm-28.77-2.99c-.51,4.53.11,8.11,2.73,11.2.75.89,1.54,1.78,2.1,2.78,1.16,2.07,2.73,3.13,4.74,2.69-5.77-3.58-8.9-8.96-9.57-16.66Zm24.04-4.32c-9.05-2.91-6.99-2.44-18.66.16,3.1-.22,6.22-.5,9.27-1.07,3.24-.61,6.28.29,9.39.91Z"/><path class="cls-1" d="m278.4,318.36c.66,2.37,2.29,2.97,4.63,1.08,1.35-1.1,2.67-1.23,4.14-1.48,2.78-.48,5.56-1.02,8.34-1.52.49-.09,1.23-.13,1.26-.61.1-1.4.52-.76,1.03-.26,6.57,6.34,16.52,5.63,22.32-1.69,2.02-2.55,3.8-5.28,5.7-7.93,1.88-2.62,2.33-5.46,1.41-8.55-.16-.53-.47-1.11-.02-1.67,0,0-.02.02-.02.02,1.3,2.73,2.9,2.38,4.75.52.5-.5,1.28-.74,1.96-1.05,2.94-1.34,3.05-2.08.58-4.19,2.19.3,4-.19,4.4-2.65.36-2.22-.8-3.73-2.82-4.61l.03.02c.11-3.87-3.05-8.57-6.82-10.13-2.94-1.22-6.68-.72-8.47,1.14,2.07.48,4.59-.75,6.27,1.7-1.56.74-2.77,1.92-4.51.12-.5-.52-2.76-1.67-3.53.67l-.04.04c-1.32-1.02-1.33-1.85.12-2.87,4.32-3.04,9.14-3.16,13.25.09,2.37,1.87,4.83,3.82,5.45,7.12.09.46.41.9.7,1.3,2.41,3.28,2.23,5.98-.13,9.68-1.62,2.53-3.37,3.91-5.72,5.22-3.2,1.77-4.01,5.22-5.84,8.74,3.18-1.22,5.82-2.3,8.51-3.25,2.33-.82,4.4-2.32,6.97-2.56,5.55-.52,9.34,2.24,12.39,6.47-.26.13-.52.26-.78.4-.55-.13-1.23-.52-1.6.1-.38.63.27,1.06.7,1.43,1,.87,2.13,1.54,3.46,2.08-.21-.47-.37-.84-.53-1.2l.35-.64c1.1,1.21,2.19,2.42,3.29,3.64-.93.79-1.63.37-2.45,0-3.18-1.41-6.14-3.2-9.11-4.99-3.05-1.84-6.15-1.11-9.25-.18-.75.23-1.18.57-.59,1.36-.39.76-1.11.53-1.74.61-.52.07-1.25-.23-1.41.6-.15.77.07,1.55.6,2.07,2.28,2.24,6.84.84,7.63-2.3,3.87,1.28,6.08,4.37,8.25,7.52-.21.13-.42.27-.63.4-1.76-1.8-3.5-3.61-5.3-5.37-.47-.45-1.07-1.41-1.8-.44-.51.67-1.15,1.64-.26,2.46,2.45,2.29,5.57,3.81,7.27,6.98.6,1.11,1.36.53,1.13-.72.16-.17.33-.34.49-.51.6,1.33,1.2,2.66,1.9,4.23-2.67-.12-4.8-1.64-5.95-3.32-1.32-1.92-3.38-2.56-4.71-4.1-1.65-1.89-3.53-2.21-6.06-1.88,5.96,3.31,10.56,7.35,9.9,15.24-3.03-2.76-5.91-5.16-8.52-7.82-2.28-2.33-5.05-2.82-8.53-3.07,1.03.86,1.69,1.5,2.44,2.01,3.73,2.55,2.6,6.78.84,9.73-.4.67-.89.68-1.17-.2-.3-.92-.77-1.8-.96-2.74-.68-3.3-4.6-6.25-7.92-6.78-3.06-.49-6.12-.82-9.19-1.22-.66-.09-1.24-.19-1.9-.02-3.77.93-7.42.62-11.33.12-5.03-.65-10.29.53-14.12,4.73-.64.7-.96,1.29-.23,2.14.37.43.63.99.83,1.53.27.74.73,1.82-.19,2.15-1.01.36-1.82-.41-2.06-1.53,0-.04.07-.13.12-.15.07-.03.16-.03.25-.04.09-.09.37.29.33-.13-.12.06-.23.12-.35.18.43-1.5-.55-1.89-1.68-2.05-.8-.11-1.57-.21-1.54-1.19.04-1.35.98-.22,1.46-.45,2.08-1.02,3.25-2.63,3.33-4.97,3.47.24,6.83-.31,10.05-1.6.61-.24,1.75-.22,1.38-1.32-.3-.88-1.12-1.04-2.08-.81-2.67.64-5.36,1.21-8.05,1.76-1.16.24-1.47.92-1.3,1.98-.76-.21-1.6-1.04-2.05.46-.21.68-.74,1.26-1.13,1.89-.12-.15-.24-.29-.35-.44-.11-.65.96-1.26.31-1.76-.41-.32-1.31-.2-1.92-.03-3.7,1.04-5.94,3.8-7.77,6.93-.38.66-.62,1.09-1.51,1.02-.09-1.11.88-2.31-.4-3.87-.39,2.19-2.09,3.65-.95,5.74.32.58-.14.76-.41.9-.45.24-.8.02-.82-.52-.14-3.18-.14-6.27,2.36-8.81,1.67-1.7,3.06-3.69,5.64-4.11Zm65.7,5.08c.23,1.68.43,3.37,2.47,4.21-.62-1.63-.43-3.53-2.45-4.23-.33-2.51-3.84-5.45-5.91-4.94-.08-1.11-.17-2.12-1.72-2.16-1.06-.03-2.15-.26-3.17-.59-.73-.24-1.31-.37-1.67.41-.27.59.05,1.05.44,1.56,1.81,2.33,3.91,1.84,6.12.77.45,2.16,3.37,4.62,5.88,4.96Zm-16.35-2c.95,1.4,2.38,2.26,3.71,3.22.5.36,1.19.36,1.6-.1.61-.69-.23-.99-.57-1.33-.75-.76-1.7-1.36-2.36-2.19-1.13-1.41-1.77-.8-2.39.39-.42-.72.08-1.59-.58-2.34-2.21-2.54-8.24-2.83-11.1-.19,4.03.88,7.86,1.72,11.68,2.55Zm-.27-7.52s0,0,0-.01c1.49,0,3.01.16,4.47-.05,1.18-.17,2.12-.94,2.13-2.35.01-.96-.46-1.82-1.39-1.71-3.02.34-6.13.49-8.87,2.04-.59.34-1.49.8-1.12,1.69.3.74,1.18.33,1.8.38.99.07,1.99.02,2.99.02Zm11.65-7.36c1.36-.31,2.74-.56,4.08-.94.93-.26,1.69-.85,1.42-1.97-.28-1.15-1.2-1.64-2.27-1.4-1.36.31-2.69.79-3.98,1.34-.68.29-1.9.42-1.6,1.5.27.97,1.13,1.62,2.35,1.48Zm-18.48,8.81c2.51,1.52,5.37,1.73,7.89,2.99.75.37,1.79.12,1.97-.92.14-.82.54-2.33-.42-2.43-3.12-.34-6.32-.86-9.44.36Zm4.79-5.6c3.06.14,6.05-.41,9.02-1.07.89-.2,2.13-.61,1.67-1.95-.42-1.23-1.62-1.02-2.57-.79-2.91.71-5.47,2.25-8.12,3.81Zm26.79-3.55c-2.04-1.59-4.11-2.74-6.58-3.84.45,1.3-.8,2.76.67,3.36,1.75.72,3.49,2.55,5.91.48Zm-79.06,18.07c3.3-.03,4.63-1.39,4.36-4.29-2.11.63-3.24,2.2-4.36,4.29Zm60.74,1.33c-1.67,1.7-1.7,2.02-.29,4.1-.09-1.48.75-2.58.29-4.1Z"/><path class="cls-1" d="m104.46,304.07c0-12.11,0-24.23,0-36.34,0-4.83,3.71-8.88,8.28-8.97,5.85-.11,9.87,3.32,10.04,8.76.12,4.01.02,8.02.02,12.03,0,20.14,0,40.27,0,60.41,0,.75.02,1.51-.05,2.25-.08.86-.53,1.32-1.49,1.3-.92-.02-1.43-.35-1.46-1.29-.02-.67-.03-1.34-.03-2,0-17.55-.06-35.09.07-52.63.02-2.53-.73-3.13-3.06-2.92-2.32.21-4.68.18-7.01,0-1.91-.14-2.34.49-2.33,2.36.08,17.54.05,35.09.05,52.64,0,.58,0,1.17,0,1.75,0,1.16-.04,2.15-1.69,2.11-1.68-.04-1.31-1.19-1.31-2.1-.02-12.45-.01-24.9-.01-37.35Zm3.02-30.42c0,2.08.07,4.17-.02,6.25-.07,1.45.5,1.88,1.89,1.84,2.91-.08,5.84-.09,8.75,0,1.35.04,1.72-.46,1.7-1.74-.06-4.17.26-8.36-.11-12.49-.35-3.85-2.32-5.74-6.35-5.74-3.29,0-5.71,2.45-5.84,5.89-.08,2-.01,4-.02,6Z"/><path class="cls-1" d="m221.15,301.25c0-11.19-.01-22.37,0-33.56,0-3.96,3.15-8.69,6.84-9.16,2.21-.28,4.94-.77,7.01,1.18,2.41,2.27,4.36,4.7,4.35,8.31-.05,18.78-.02,37.57-.02,56.35,0,3.59.1,7.18-.03,10.77-.24,6.65-7.68,11.02-13.35,7.73-2.95-1.71-4.85-4.32-4.83-8.06.07-11.19.02-22.37.02-33.56Zm15.18.36c0-11.03.04-22.06-.02-33.09-.02-4.95-2.55-6.6-6.16-6.75-3.7-.16-6.08,2.49-6.08,6.68-.01,21.81.05,43.61-.06,65.42-.02,4.28,3.07,7.06,5.92,7.03,4.21-.05,6.51-3.32,6.45-6.96-.16-10.78-.06-21.55-.06-32.33Z"/><path class="cls-1" d="m178.1,258.39c2.65.11,3.02,1.45,3.02,3.5-.06,24.06-.16,48.12.05,72.18.05,5.51-5.52,12.15-13.46,9.28-2.63-.95-3.92-3.92-4.66-6.71-.25-.95-.24-1.99-.24-2.98-.01-23.73-.02-47.45.03-71.18,0-1.29-.92-3.58,1.37-3.59,2.49-.01,1.49,2.38,1.5,3.73.06,23.73.05,47.45.04,71.18,0,2.52.54,4.56,3.1,5.93,4.25,2.27,8.84.04,9.23-4.77.05-.66.01-1.34.01-2,0-23.56,0-47.12,0-70.68v-3.88Z"/><path class="cls-1" d="m496.96,285.07v2.96c0,17.79,0,35.58,0,53.37,0,.67.02,1.34-.04,2-.07.77-.53,1.21-1.34,1.15-.71-.05-1.02-.5-1.06-1.16-.03-.58-.02-1.17-.02-1.75,0-21.46-.01-42.93.04-64.39,0-.81-.78-2.11.79-2.46,1.6-.35,1.54.88,1.91,1.91,1.95,5.34,3.77,10.72,5.34,16.18.08.29.35.53.69,1.04,2.15-5.48,3.87-10.85,5.32-16.3.11-.39.31-.78.34-1.17.12-1.41,1.01-1.72,2.21-1.66,1.56.08,1.02,1.29,1.02,2.07.04,7.93.02,15.87.02,23.8,0,13.53,0,27.06,0,40.59,0,.67,0,1.34-.03,2-.04.9-.48,1.37-1.44,1.31-.89-.05-1.1-.58-1.06-1.35.03-.58,0-1.17,0-1.75,0-18.12,0-36.25,0-54.37v-2.4c-1.34.65-1.34,1.92-1.54,2.87-.78,3.68-2.28,7.12-3.38,10.7-.23.74-.46,1.6-1.37,1.53-.94-.08-1.54-.77-1.84-1.72-1.31-4.07-2.66-8.13-3.98-12.19-.1-.3,0-.68-.61-.8Z"/><path class="cls-1" d="m406.94,291.61c0-9.61-.01-19.22.02-28.83,0-1.05-.53-2.69,1.29-2.66,1.72.03,1.35,1.61,1.35,2.71.02,19.3,0,38.61.02,57.91,0,3.89,1.79,6.23,5.29,7.09,2.34.57,5.31-1.64,6.42-3.75,1.46-2.77.89-5.56.9-8.33.07-17.47.04-34.93.04-52.4,0-.67,0-1.34.03-2,.04-.65.32-1.09,1.08-1.1.76-.02,1.33.17,1.43,1.02.05.41.03.83.03,1.25,0,19.47.02,38.94-.02,58.41,0,3.32-1.23,6.15-4.17,8.01-2.85,1.8-5.74,2.27-8.81.43-3.22-1.92-4.9-4.69-4.91-8.43-.02-9.78,0-19.55,0-29.33Z"/><path class="cls-1" d="m483.05,292.12c0,9.61-.23,19.22.09,28.82.19,5.69-5.93,11.87-12.89,8.79-2.86-1.27-4.91-4.33-4.89-8.04.03-5.76,0-11.53,0-17.29,0-13.7,0-27.4,0-41.1,0-.67,0-1.34.02-2,.02-.67.27-1.06,1.05-1.06.78,0,1.33.18,1.38,1.04.04.67.02,1.34.02,2,0,19.13.01,38.26-.01,57.39,0,3.02,1.1,5.32,3.83,6.7,3.76,1.9,9.06-1.81,8.98-6.67-.17-10.61-.05-21.22-.05-31.83,0-8.77-.01-17.54.02-26.31,0-.96-.51-2.41,1.36-2.29,1.67.11,1.05,1.46,1.05,2.29.05,9.86.03,19.71.03,29.57Z"/><path class="cls-1" d="m2.51,301.37c0-13.12,0-26.23,0-39.35,0-3.38.02-3.41,3.29-3.41,4.09,0,8.19-.01,12.28,0,1.06,0,2.46-.18,2.52,1.34.06,1.62-1.35,1.66-2.54,1.67-3.51.02-7.02.07-10.53-.02-1.51-.04-2.2.23-2.16,2,.12,5.43.09,10.86.01,16.29-.02,1.54.46,2.1,1.99,1.95,1.24-.12,2.5-.03,3.76-.02.76,0,1.44-.06,1.58,1.08.13,1.11-.53,1.64-1.27,1.75-1.47.21-2.99.21-4.48.15-1.18-.05-1.57.28-1.57,1.53.04,17.63.04,35.26,0,52.88,0,1.56.68,1.74,1.97,1.72,3.51-.06,7.02-.03,10.53-.02,1.14,0,2.64-.24,2.71,1.4.07,1.71-1.47,1.51-2.6,1.52-4.34.03-8.69-.06-13.03.05-2.02.05-2.49-.78-2.48-2.65.06-13.28.03-26.57.03-39.85Z"/><path class="cls-1" d="m75.38,300.86c0-11.11-.02-22.22,0-33.33.01-4.37,1.98-7.38,5.93-8.41,5.17-1.34,10.04.18,11.91,6.29.24.77.18,1.65.15,2.47-.03.84-.43,1.41-1.39,1.4-1.01-.01-1.64-.49-1.58-1.5.19-3.34-2.04-4.87-4.62-5.9-2.05-.81-5.09.85-6.79,3-.97,1.23-.62,2.53-.63,3.78-.04,21.72-.03,43.44-.03,65.16,0,1.57-.03,3.06,1.13,4.43,1.83,2.16,3.77,2.9,6.5,2.31,2.76-.59,4.11-2.43,4.34-5.02.14-1.47.63-2.28,2.04-2.14,1.54.15,1.06,1.51,1.02,2.39-.22,4.13-2.9,6.45-6.4,7.76-2.84,1.06-5.97.7-8.14-1.6-2.26-2.39-3.62-4.74-3.54-8.26.24-10.94.09-21.88.09-32.83Z"/><path class="cls-1" d="m192,300.95c0-11.11-.02-22.22.01-33.32.01-4.03,2.47-7.31,6.2-8.54,3.7-1.22,7.8.15,10.22,3.3,1.15,1.49,1.37,3.12,1.37,4.92,0,1.16-.59,1.79-1.45,1.88-.94.1-1.02-.9-1.11-1.64-.36-3.05-1.82-4.94-5.01-5.59-3.22-.65-6.47,1.13-7.15,4.34-.17.81-.2,1.66-.2,2.49,0,21.63,0,43.26-.03,64.9,0,2.52.71,4.6,2.79,6.09,1.99,1.42,4.12,1.49,6.24.34,1.86-1.01,2.98-2.56,2.86-4.78-.11-1.9,1.11-1.97,2.47-1.85,1.74.16,1.06,1.45.87,2.25-1.19,5.04-4.77,8.06-9,8.31-4.66.28-9.16-4.7-9.12-9.03.11-11.36.04-22.72.04-34.08Z"/><path class="cls-1" d="m144.22,312.88c0,9.18,0,18.37,0,27.55,0,.67,0,1.34-.05,2-.06.84-.6,1.07-1.38,1.07-.78,0-1.33-.22-1.39-1.05-.06-.75-.05-1.5-.05-2.25,0-17.28-.08-34.57.06-51.85.03-3.62-.78-6.97-2.01-10.21-2.13-5.61-3.62-11.4-5.57-17.05-.43-1.24-.38-1.95.83-2.29,1.28-.36,1.55.49,1.94,1.59,1.66,4.74,3.7,9.35,4.86,14.26.18.77.22,1.64,1.18,1.57.89-.06.84-.98,1.08-1.68,1.57-4.67,3.28-9.3,4.81-13.98.38-1.16.77-2.09,2.1-1.75,1.52.39,1.12,1.76.83,2.69-.98,3.12-2.15,6.19-3.21,9.28-2.35,6.83-4.65,13.58-4.14,21.07.47,6.98.1,14.02.1,21.03Z"/><path class="cls-1" d="m31.64,300.86c0-13.03-.03-26.06.05-39.09,0-1.02-1.05-2.97,1.29-2.97,2.17,0,1.56,1.81,1.56,3,.03,25.39.06,50.78-.04,76.18,0,2.44.61,3.15,3.03,2.98,3.24-.22,6.51-.06,9.77-.05,1.09,0,2.39-.08,2.37,1.48-.02,1.58-1.37,1.43-2.43,1.44-4.26.03-8.52-.06-12.78.04-2.16.05-2.89-.71-2.87-2.92.09-13.36.04-26.73.04-40.09Z"/><path class="cls-1" d="m293.9,291.79c-.04,2.29-1.66,4.04-2.08,6.25-.24,1.25-.36,2.3-.02,3.57.99,3.72,2.58,7.19,4.15,10.68.73,1.61.51,2.09-1.39,2.18-2.47.12-4.93.49-7.43.45-1.73-.03-2.77,2.26-4.76,1.47-.28-.35.73-.48.14-.92-3.12-2.35-8.16-2.01-10.97.78-.5.5-1.24.79-1.14,1.76.32,2.96-2.01,4.1-3.88,5.59-.86.69-1.15.51-1.17-.49-.1-4.09.83-7.83,3.92-10.73,3.32-3.11,3.36-3.08,10.68-3.54-2.22-1.74-4.15-3.66-6.44-4.93-2.23-1.24-5.31-1.23-7.27-.24-2.93,1.5-5.75.94-8.8,1.34.5-1.65.82-2.64,2.88-1.84,1.56.61,3.4.15,4.93-.89.61-.42,1.08-.83.82-1.6-.34-1-1.04-.46-1.65-.32-.64.15-1.29.26-1.94.38-.07-.17-.15-.34-.22-.51,3.36-1.46,6.75-2.69,10.54-2.37,1.18.1,2.02.38,2.61,1.37-1.7.12-1.82.86-1.14,2.31,1.3,2.75,3.88,3.94,6.16,5.56,3.73,2.63,8.05,2.85,12.35,3.39-3.17-1.81-5.82-4.65-9.45-5.3-2.93-.52-4.38-2.65-6.29-4.36.33,0,.79-.16.98,0,4.06,3.33,9.51,3.81,13.94,6.95-.88-3.03-1.62-5.84-2.5-8.6-.82-2.55-3.1-3.94-5.23-4.81-4.48-1.84-4.58-6.24-6.35-9.65-.36-.69-.13-1.68.95-1.97l.05.04c-.59,2.29,1.81,3.18,2.29,4.83.78,2.64,1.99,2.19,3.64,1.12.16.15.31.31.47.46-.43,1.21-1.91.97-2.77,1.8,2.88,1.92,5.78,3.47,8.1,6.04.48-1.55,1.92-2.6.69-4.08.13-.15.27-.3.4-.45,1.13,1,1.39-.64,2.16-.71Zm1.24,21.5c.26-1.1-.64-1.21-1.16-1.3-3.58-.61-7.07-1.88-10.78-1.62-.91.06-2.16-.42-2.22,1.2-.06,1.58,1.12,1.69,2.21,1.7,3.99.04,7.97.02,11.96.02Zm-18.78-3.72c-.38.04-1.29.08-2.19.24-.67.12-1.38.44-1.28,1.25.08.64.75.76,1.33.92,1.46.4,2.95.45,4.44.51.74.03,1.33-.14,1.37-1.03.03-.75.11-1.59-.91-1.75-.73-.12-1.49-.08-2.76-.14Zm-5.71-7.8c2.02.02,2.73-.66,2.13-2.16-.58-1.43-1.85-.6-2.8-.59-1.08.01-2.84-.16-2.82,1.15.02,1.17,1.73,1.48,2.99,1.59.16.01.33,0,.5,0Zm-2.7,13.98c1.77.19,2.84-.67,3.76-1.75.32-.38.93-.91.11-1.43-.52-.33-1.02-.48-1.49.15-.74.99-1.52,1.94-2.39,3.03Zm-1.23,5.04c1.57.04,1.88-1.01,2.06-2.08.14-.88-.21-1.86-1.11-1.91-.7-.04-.63.98-.71,1.6-.11.78-.16,1.56-.24,2.39Z"/><path class="cls-1" d="m436.19,295.12c0-10.7-.02-21.39.04-32.09,0-.94-.87-2.61,1.06-2.74,2.16-.15,1.45,1.65,1.45,2.72.04,20.64.07,41.28-.03,61.92-.01,2.37.48,3.21,2.97,3.01,3.07-.25,6.18-.06,9.27-.06.58,0,1.17-.02,1.75.05.82.1,1.54.75,1.57,1.37.04.89-.95,1.03-1.7,1.03-4.01.03-8.02.02-12.03.03q-4.36,0-4.36-4.4c0-10.28,0-20.56,0-30.84Z"/><path class="cls-1" d="m388.06,310.63c0,10.27,0,20.55,0,30.82,0,.58.02,1.17-.02,1.75-.05.75-.37,1.26-1.22,1.28-.87.02-1.18-.49-1.22-1.24-.04-.67-.03-1.34-.03-2,0-20.63-.03-41.26.05-61.89,0-2.09-.51-2.84-2.6-2.59-1.31.15-2.67.07-3.99-.08-.58-.07-1.31-.29-1.32-1.22,0-.98.71-1.09,1.34-1.1,5.01-.05,10.02-.06,15.03-.07.76,0,1.25.28,1.23,1.18-.02.81-.34,1.26-1.16,1.3-.42.02-.83.01-1.25.02q-4.82.06-4.82,4.77c0,9.69,0,19.38,0,29.07Z"/><path class="cls-1" d="m502.5,231.41c0-5.6.04-11.2-.03-16.79-.02-1.48.37-2.26,1.95-2,1.68.27,3.56-1.08,5.06,1.03.97,1.37,1.13,2.73,1.13,4.21.02,9.27.03,18.55,0,27.82,0,3.45-.62,4-4.1,4.09-1.27.03-3.08.64-3.69.03-.91-.9-.3-2.69-.31-4.1-.04-4.76-.01-9.52-.01-14.29Zm1.37.03c0,5.26.06,10.52-.03,15.77-.04,1.98.91,2.3,2.46,1.86,2.11-.59,2.95-2.04,2.94-4.24-.05-9.18-.02-18.36-.02-27.54,0-.42.04-.85-.05-1.25-.51-2.29-2.32-1.93-3.98-1.95-1.91-.02-1.28,1.4-1.29,2.32-.05,5.01-.02,10.02-.02,15.02Z"/><path class="cls-1" d="m476.6,231.41c0-4.76-.06-9.53.02-14.29.05-2.88,1.42-5.09,5.05-4.46,2.08.36,3.17,2.03,3.19,5.22.03,6.35.01,12.7.01,19.05,0,2.84.03,5.68-.01,8.52-.04,2.49-1.73,4.63-3.67,4.77-2.67.2-4.55-1.59-4.58-4.53-.05-4.76-.01-9.53-.01-14.29Zm1.4,0c0,4.51.03,9.01-.02,13.52-.02,1.69.13,3.38,2.08,3.7,2.2.35,3.39-1.09,3.39-3.71,0-9.1,0-18.19,0-27.29,0-1.89-.17-3.56-2.71-3.54-2.52.01-2.74,1.67-2.75,3.55,0,4.59,0,9.18,0,13.77Z"/><path class="cls-1" d="m452.5,232.46c0,4.84.03,9.68-.03,14.52-.01,1,.57,2.79-.66,2.81-1.39.03-.65-1.73-.66-2.64-.07-6.92-.16-13.85.02-20.77.07-2.67-1.52-2.09-3.03-2.22-1.72-.14-2.5.19-2.46,2.23.14,7,.06,14.01.05,21.02,0,.67,0,1.34-.07,2-.05.45-.34.75-.85.69-.47-.06-.41-.46-.43-.76-.04-.58-.03-1.17-.03-1.75,0-9.34,0-18.69,0-28.03,0-.75.04-1.51-.09-2.24-.45-2.52.8-4.39,3.2-4.69,2.93-.37,4.9,1.05,4.95,3.82.09,5.34.03,10.68.03,16.01.02,0,.05,0,.07,0Zm-1.6-13.61c0-.66,0-1.33,0-1.99-.04-2.29-.86-3.02-3.03-2.74-1.43.19-2.41,1.14-2.37,2.4.07,2.14-1.14,4.78.73,6.33,2.01,1.67,4.66-.09,4.67-2.76,0-.41,0-.83,0-1.24Z"/><path class="cls-1" d="m497.7,232.01c0,4.67.01,9.34,0,14-.01,2.7-1.46,4.1-4.27,4.2-1.92.07-3.77-1.8-3.85-4.09-.09-2.75-.02-5.5-.02-8.25,0-6.92-.03-13.84.01-20.76.02-3.08,1.61-4.63,4.4-4.5,2.36.11,3.68,1.55,3.72,4.38.07,5,.02,10,.02,15Zm-1.3-.84c0-4.6,0-9.19,0-13.79,0-1.86-.41-3.3-2.74-3.3-2.35,0-2.71,1.47-2.71,3.32,0,6.02,0,12.03,0,18.05,0,3.51-.04,7.02.04,10.53.03,1.15.3,2.64,1.73,2.64,1.55,0,3.15-.57,3.62-2.42.14-.55.06-1.16.06-1.75,0-4.43,0-8.86,0-13.28Z"/><path class="cls-1" d="m425.84,217.43c-.75-2.05-1.4-3.87-3.79-3.32-.39.09-.86.14-1.14.39-1.89,1.66-1.05,3.9-1.01,5.89.03,1.27,1.11,2.03,2.52,2.32,3.29.69,4.31,1.96,4.33,5.26.03,5.84-.03,11.68.03,17.52.02,2.3-1.09,3.92-3.05,4.65-2.21.83-3.94-.53-5.42-2.07-.14-.15-.3-.45-.24-.61.77-2.2.23-4.46.4-6.69.04-.51.14-1.1.76-1.09.68.01.63.65.64,1.13.02,1.67-.03,3.34.02,5,.05,1.73.88,2.92,2.71,2.93,1.83,0,2.72-1.15,2.73-2.9.03-6.26.03-12.51,0-18.77,0-1.72-.83-2.77-2.7-2.93-2.91-.26-4.29-1.85-4.29-4.83,0-2.04-.43-4.2,1.5-5.76,1.64-1.32,3.4-1.31,5.09-.31,1.43.84,1.82,2.16.93,4.18Z"/><path class="cls-1" d="m435.97,223.34c-4.4.14-3.14,3.1-3.15,5.3-.04,6.01.09,12.02-.07,18.03-.05,2.15.64,2.79,2.67,2.54,1.27-.15,2.57-.03,3.87.34-2.33.91-4.74.7-7.13.5-.86-.07-.76-.97-.76-1.63,0-11.44,0-22.88,0-34.31,0-.55-.19-1.36.55-1.48,2.31-.38,4.64-.3,6.96-.03.15.02.41.39.37.53-.12.5-.46.91-1.02.93-1.25.04-2.51.1-3.75.02-1.26-.08-1.85.28-1.74,1.66.11,1.41.13,2.85,0,4.25-.21,2.17.14,3.68,3.19,3.35Z"/><path class="cls-1" d="m277.07,300.83c1.91,1.7,3.36,3.84,6.29,4.36,3.64.64,6.28,3.49,9.45,5.3-4.3-.54-8.62-.76-12.35-3.39-2.29-1.61-4.87-2.8-6.16-5.56-.68-1.44-.57-2.18,1.14-2.31.54.53,1.09,1.07,1.63,1.6Z"/><path class="cls-1" d="m278.86,282.75c.77-4.95,4.29-7.65,8.19-10.05,2.47-1.52,5.1-2.3,8.05-1.96,2.61.3,3.02.91,1.99,3.3-.12.28-.09.65-.07.97.25,2.85-1.61,4.29-3.83,5.15-1.04.4-2.06.99-3.2,1.19l-.03-.04c.72-1.8,2.75-1.84,3.95-2.98.87-.83,2.82-1.19,1.58-3.12-.03-.14-.03-.29-.02-.43.29-.11.67-.14.84-.34.16-.19-.12-.48-.36-.38-.28.11-.89.16-.43.75-1.55-.35-2.36,1.01-3.49,1.6-.41.21.15.23.23.22.24-.03.46-.13.7-.2-1.26,1.4-1.6,1.51-4.03,1.29,1.89-2.68,4.92-3.57,7.62-5.08-1.55-.87-1.55-.92-2.41-.91-5.38.05-9.22,2.84-12.36,6.91-1.01,1.31-1.23,2.68-.33,4.14l-.03.04c-.84,0-1.68-.02-2.52-.03l-.05-.04Z"/><path class="cls-1" d="m327.2,295.73c-1.66-1.86-4.59-2.52-5.13-5.44.07.04.16.07.22.12,3.22,3.08,5.96,2.52,7.66-1.66.49-1.2.16-2.29-.91-3.29-2.56-2.4-5.26-4.57-8.4-6.16-.8-.41-1.62-.87-1.65-1.96,0,0,.04-.04.04-.04.24.04.5.03.71.11,4.59,1.89,7.76,5.92,12.16,8.09.39.19.68.59.43,1.03-.83,1.47.47,2.46.78,3.67-3.36.37-4.52,3.08-5.92,5.54l.02-.02Z"/><path class="cls-1" d="m472.47,213.09c-2.25.93-3.85.63-5.39.6-1.47-.03-2.23.36-2.03,1.96.07.58-.04,1.17.02,1.75.23,2.32-1.44,5.56,3.27,5.94-3.53-.3-3.31,1.77-3.29,3.85.05,6.93.03,13.86,0,20.79,0,.63.45,1.8-.61,1.79-1.01-.01-.65-1.18-.65-1.84-.03-11.11,0-22.21-.05-33.32,0-1.47.36-2.18,1.95-2.03,2.01.2,4.07-.29,6.79.5Z"/><path class="cls-1" d="m444.85,334.96c2.25,0,4.51,0,6.76,0,1.01,0,2.24-.02,2.24,1.35,0,1.22-1.16,1.22-2.09,1.22-4.59.01-9.19.01-13.78,0-.91,0-2.01.04-2.06-1.23-.06-1.55,1.23-1.3,2.16-1.32,2.25-.05,4.51-.02,6.76-.02Z"/><path class="cls-1" d="m473.84,334.96c2.41,0,4.82-.01,7.23,0,.84,0,1.84.09,1.9,1.15.07,1.22-.96,1.41-1.91,1.41-4.74.01-9.47.01-14.21,0-.95,0-1.93-.14-1.85-1.43.07-1.17,1.07-1.1,1.87-1.11,2.33-.03,4.65-.01,6.98-.01h0Z"/><path class="cls-1" d="m415.59,337.53c-2.25,0-4.5.05-6.75-.03-.86-.03-2.04-.09-1.99-1.34.04-1.05,1.13-1.15,1.89-1.16,4.75-.06,9.5-.04,14.26-.03.9,0,1.81.34,1.74,1.35-.07.98-.99,1.21-1.89,1.21-2.42,0-4.84,0-7.25,0Z"/><path class="cls-1" d="m386.6,267.15c2.33,0,4.67,0,7,0,.85,0,1.69-.04,1.69,1.23,0,1.11-.72,1.2-1.48,1.2-4.75.01-9.5.01-14.25-.02-.87,0-1.76-.31-1.8-1.34-.05-1.3,1.11-1.03,1.84-1.05,2.33-.07,4.67-.03,7-.03Z"/><path class="cls-1" d="m503.32,259.86c2.33,0,4.66-.03,6.99.01.82.01,1.78.1,1.81,1.24.03,1.16-.95,1.3-1.75,1.31-4.66.05-9.32.04-13.99.01-.84,0-1.79-.14-1.81-1.25-.02-1.12.91-1.3,1.76-1.31,2.33-.04,4.66-.01,6.99-.02Z"/><path class="cls-1" d="m503.49,267.15c2.24,0,4.49,0,6.73,0,.83,0,1.8-.06,1.89,1.1.09,1.17-.86,1.31-1.7,1.32-4.74.03-9.47.02-14.21,0-.78,0-1.59-.18-1.65-1.14-.07-1.17.84-1.28,1.71-1.28,2.41-.01,4.82,0,7.23,0Z"/><path class="cls-1" d="m386.78,259.86c2.25,0,4.51-.02,6.76,0,.84,0,1.71.02,1.74,1.25.02,1.21-.78,1.34-1.65,1.34-4.67,0-9.34.02-14.02-.03-.76,0-1.9.12-1.84-1.12.05-1.15,1.07-1.41,2.01-1.43,2.33-.05,4.67-.02,7.01-.02Z"/><path class="cls-1" d="m445,344.62c-2.41,0-4.82.04-7.23-.03-.74-.02-1.82.15-1.87-1.1-.05-1.25.99-1.22,1.76-1.23,4.82-.05,9.65-.04,14.47-.03.86,0,1.81.12,1.75,1.27-.06,1.14-1.06,1.11-1.89,1.11-2.33.01-4.66,0-6.99,0Z"/><path class="cls-1" d="m415.82,344.6c-2.49,0-4.98.03-7.47-.02-.7-.01-1.57.02-1.55-1.12.01-1.09.81-1.17,1.54-1.18,4.9-.04,9.8-.04,14.7-.04.88,0,1.78.21,1.7,1.32-.07.93-.91,1.06-1.7,1.06-2.41,0-4.82,0-7.23,0,0,0,0-.02,0-.03Z"/><path class="cls-1" d="m474.19,344.63c-2.34,0-4.68,0-7.02,0-.87,0-1.79-.08-1.73-1.27.05-.99.88-1.11,1.66-1.11,4.76-.01,9.52-.01,14.28,0,.78,0,1.6.16,1.61,1.16.01,1.19-.94,1.21-1.79,1.22-2.34.02-4.68,0-7.02,0Z"/><path class="cls-1" d="m313.22,289c-1.86,1.83-4.07,1.38-6.3,1.02-1.66-.27-3.43-1.43-4.78.9-.31.52-1.71,1.2-3,.2-1.77-1.38-3.51.13-5.23.65-.13-1.24.9-1.46,1.69-1.82,1.36-.61,3.03-.5,4.05-1.95.22-.3,1.19-.36,1.66-.15,3.86,1.69,7.93.93,11.91,1.15Z"/><path class="cls-1" d="m343.25,310.24c-.79,3.14-5.34,4.54-7.63,2.3-.53-.52-.75-1.3-.6-2.07.16-.83.89-.53,1.41-.6.63-.08,1.35.15,1.74-.61.18.05.35.1.53.15,1.41.67,2.95.74,4.47.89l.08-.06Z"/><path class="cls-1" d="m290,281.36c-.95,1.68-3.71,2.17-3.8,3.89-.09,1.78,2.48,2.61,3.52,4.18.67,1.02,1.35,2.04,2.02,3.06-.13.15-.27.3-.4.45-1.15-1.27-2.37-2.48-3.43-3.83-.99-1.25-1.77-1.54-2.59.07-.16-.15-.31-.31-.47-.46.48-2.59.33-4.83-2.88-5.48-.2-.04-.36-.29-.54-.44,0,0,.03-.04.03-.04,2.68.89,5.2.93,7.36-1.27.28-.29.72-.41,1.15-.19l.03.04Z"/><path class="cls-1" d="m322.08,290.31c-.69.16-1.38-.33-2.11.2-2.07,1.48-3.11.39-3.68-1.64,1.36-2.14,2.9-2.28,4.14-.19.45.75,1.52.7,1.65,1.64Z"/><path class="cls-1" d="m343.18,310.31c-1.52-.15-3.05-.22-4.47-.89,1.5.25,3.3-.99,4.47.89Z"/><path class="cls-1" d="m284.22,323.3c-.2.81-.52,1.55-1.27,2.23-.3-1.19.19-1.97.91-2.67.12.15.24.29.35.44Z"/><path class="cls-1" d="m354.82,307.42c.65.5,1.15,1.11,1.37,1.92-.23.06-.46.12-.69.18-.57-.31-.92-.79-1.15-1.38.16-.24.32-.48.47-.72Z"/><path class="cls-1" d="m258.95,302.23c.34-.7.72-1.21,1.61-.76-.24.9-.77,1.11-1.61.76Z"/><path class="cls-1" d="m351.67,318.87c.7.37.35,1.19.73,1.69-.17.17-.33.34-.49.51-.67-.48-.25-1.33-.64-1.91.13-.1.27-.2.4-.3Z"/><path class="cls-1" d="m281.41,316.83c-.16.54-.6.55-1.05.53.1-.67.46-.82,1.05-.53Z"/><path class="cls-1" d="m280.41,317.33c-.17.51-.6.54-1.04.54.11-.64.45-.84,1.04-.54Z"/><path class="cls-1" d="m279.41,317.84c-.19.49-.63.49-1.04.55.13-.59.48-.76,1.04-.55Z"/><path class="cls-1" d="m351.5,317.76c.06.37.11.74.17,1.11-.13.1-.27.2-.4.3-.13-.33-.27-.67-.4-1l.63-.4Z"/><path class="cls-1" d="m262.5,300.74c-.33.15-.65.3-.98.45-.1-.16-.19-.31-.29-.47.23-.41.63-.46,1.04-.49.07.17.15.34.22.51Z"/><path class="cls-1" d="m86.11,150.22c.11-.08.22-.21.31-.2.12.01.23.13.34.2-.06.05-.13.16-.18.15-.15-.02-.3-.09-.47-.15Z"/><path class="cls-1" d="m282.43,316.34c-.17.53-.61.53-1.05.52.1-.69.54-.67,1.05-.52Z"/><path class="cls-1" d="m356.18,309.34s.1.09.1.09c-.12.21-.23.42-.35.64-.15-.18-.29-.37-.44-.55.23-.06.46-.12.69-.18Z"/><path class="cls-1" d="m354.67,307.27s.15.16.15.16c-.16.24-.32.48-.47.71-.15-.16-.3-.32-.45-.47.26-.13.52-.26.78-.4Z"/><path class="cls-1" d="m261.53,301.19c-.22.17-.47.53-.72.11-.24-.4.16-.48.44-.58.1.16.19.31.29.47Z"/><path class="cls-1" d="m323.41,300.62c.03,6.42-7.17,14.8-10.42,13.2,4.94-2.86,8.05-7.33,10.42-13.2Z"/><path class="cls-1" d="m294.64,297.63c.67,7.71,3.8,13.08,9.57,16.66-2.01.44-3.58-.62-4.74-2.69-.56-1.01-1.35-1.89-2.1-2.78-2.61-3.08-3.23-6.67-2.73-11.2Z"/><path class="cls-1" d="m318.68,293.31c-3.1-.62-6.15-1.52-9.39-.91-3.06.58-6.17.85-9.27,1.07,11.67-2.6,9.61-3.07,18.66-.16Z"/><path class="cls-1" d="m333.1,290.21c-.3-1.21-1.6-2.2-.78-3.67.25-.44-.04-.84-.43-1.03-4.4-2.17-7.57-6.2-12.16-8.09-.22-.09-.47-.08-.71-.11.77-2.34,3.04-1.19,3.53-.67,1.73,1.81,2.95.62,4.51-.12-1.69-2.44-4.2-1.22-6.27-1.7,1.79-1.86,5.52-2.36,8.47-1.14,3.77,1.56,6.93,6.26,6.82,10.13-.3.27-.64.52-.5,1.01-.4.03-.8.06-1.2.08.44.26.88.54,1.2-.08.56-.16.7-.52.46-1.04,2.03.87,3.18,2.39,2.82,4.61-.4,2.47-2.21,2.96-4.4,2.65-.26-.6-.75-.82-1.37-.83Z"/><path class="cls-1" d="m327.48,313.92c-1,0-1.99.05-2.99-.02-.61-.04-1.49.37-1.8-.38-.36-.89.53-1.35,1.12-1.69,2.74-1.55,5.84-1.7,8.87-2.04.93-.11,1.4.75,1.39,1.71-.02,1.41-.95,2.18-2.13,2.35-1.46.21-2.98.05-4.47.05,0,0,0,0,0,.01Z"/><path class="cls-1" d="m327.76,321.44c-3.83-.84-7.66-1.67-11.69-2.55,2.85-2.63,8.89-2.34,11.1.19.65.75.16,1.62.58,2.34,0,0,0,.02,0,.02Z"/><path class="cls-1" d="m287.41,320.96c-.17-1.05.14-1.74,1.3-1.98,2.69-.55,5.38-1.12,8.05-1.76.96-.23,1.78-.07,2.08.81.37,1.1-.77,1.08-1.38,1.32-3.23,1.28-6.58,1.84-10.05,1.6,0,0,0,0,0,0Z"/><path class="cls-1" d="m339.13,306.56c-1.21.14-2.08-.51-2.35-1.48-.3-1.08.91-1.22,1.6-1.5,1.29-.54,2.62-1.03,3.98-1.34,1.07-.24,1.99.25,2.27,1.4.27,1.13-.49,1.71-1.42,1.97-1.34.38-2.72.64-4.08.94Z"/><path class="cls-1" d="m320.65,315.37c3.12-1.22,6.31-.7,9.44-.36.96.1.56,1.61.42,2.43-.18,1.04-1.22,1.29-1.97.92-2.52-1.25-5.38-1.47-7.89-2.99Z"/><path class="cls-1" d="m325.44,309.76c2.64-1.56,5.2-3.1,8.12-3.81.95-.23,2.15-.44,2.57.79.46,1.34-.78,1.75-1.67,1.95-2.96.67-5.96,1.21-9.02,1.07Z"/><path class="cls-1" d="m338.23,318.48c-2.21,1.07-4.32,1.55-6.12-.77-.39-.51-.71-.97-.44-1.56.36-.78.93-.65,1.67-.41,1.01.33,2.1.56,3.17.59,1.55.04,1.64,1.05,1.72,2.16,0,0,0,0,0,0Z"/><path class="cls-1" d="m333.91,325.62c.47,1.52-.38,2.62-.29,4.1-1.42-2.08-1.39-2.39.29-4.1Z"/><path class="cls-1" d="m295.14,313.28c-3.98,0-7.97.02-11.96-.02-1.09-.01-2.27-.11-2.21-1.7.06-1.63,1.31-1.14,2.22-1.2,3.71-.27,7.2,1,10.78,1.62.52.09,1.42.2,1.16,1.3Z"/><path class="cls-1" d="m281.42,282.82c.18.15.34.4.54.44,3.22.65,3.37,2.89,2.88,5.48-1.65,1.07-2.86,1.52-3.64-1.12-.49-1.65-2.88-2.54-2.29-4.83.84,0,1.68.02,2.52.03Z"/><path class="cls-1" d="m276.36,309.56c1.28.06,2.03.03,2.76.14,1.02.16.93,1,.91,1.75-.03.89-.62,1.06-1.37,1.03-1.49-.06-2.98-.11-4.44-.51-.58-.16-1.26-.28-1.33-.92-.1-.81.61-1.13,1.28-1.25.89-.16,1.8-.2,2.19-.24Z"/><path class="cls-1" d="m289.97,281.32c-.43-.22-.87-.09-1.15.19-2.16,2.2-4.68,2.16-7.36,1.27-.89-1.46-.68-2.83.33-4.14,3.13-4.07,6.98-6.86,12.36-6.91.86,0,.86.04,2.41.91-2.7,1.51-5.73,2.4-7.62,5.08,2.43.23,2.77.11,4.03-1.29.89-.31,1.85-.48,2.54-1.21,1.24,1.93-.71,2.29-1.58,3.12-1.19,1.14-3.23,1.18-3.95,2.98Z"/><path class="cls-1" d="m335.59,284.82c-.32.62-.77.34-1.2.08.4-.03.8-.06,1.2-.08,0,0,0,0,0,0Z"/><path class="cls-1" d="m336.05,283.78c.24.52.11.87-.46,1.04,0,0,0,0,0,0-.14-.49.2-.74.5-1.01,0,0-.03-.02-.03-.02Z"/></svg>