<?xml version="1.0" encoding="UTF-8"?><svg id="Capa_1" xmlns="http://www.w3.org/2000/svg" viewBox="0 0 512 512"><defs><style>.cls-1{fill:#fff;}</style></defs><path class="cls-1" d="m120.99,181.87l-.39.2v.78l-.59.78.59.39-.59,3.33-.78.39-.2,1.76v3.52l-.98.98-.2,1.37-.98.78v1.96l-1.76,3.33-1.76,1.18-.59,2.15h-.98l-.59.59-.2.78-1.37.2-2.35.2-1.17.2-.98-.2-.78-.98-1.57-.39.39-.78,1.76-1.76,2.74-3.92.59-1.18,1.17-1.37,1.37-3.72v-.78h.98l.2-1.76.59-2.15.39-.78-.2-1.76.2-.39.2-.59.39-2.35.2-7.44v-.59h-.39v-1.76l-1.37-2.55-1.37-2.35-1.18-1.76-.98-.39-.2-.59-.98-.59-.59-.78-.98-.2-.39-.39-.2-.59-1.18.59-.78-.59-.98.39h-1.96l-.98.2h-1.76l-1.76.2-2.15.2-.78.39v.39h-1.17v.59h-.98v.39l-2.15.59v.39l-.78.2h-.78l-.59.59-.39.59h-.78l-.59.2-.39.59-.39.39h-1.37l.39.78-1.76,1.37h-.59l-.2.98-.59.59-.98.59-.59.59-.2.98-1.17.78-.98.59-.59,1.57-1.17.78-.78.59-.59.39-1.17,1.37-.39.39-.98,1.37-.78.39-.39,1.17-.78.78-.39,1.18-.98,1.57-.39.39-1.37.78h-.2l-.39.78-.39.98-.98.78-.59,1.76v.59l-.39.39-1.18.59-.78,1.96-.98.39v1.37l-.39.59-.2.59h-.78v1.17l-.78.2-.2,1.76-.98.78-1.57,1.76.2,1.76-1.17.39-.59.78.39.78-.2.59-1.37-.59v.59l-.78.78v1.76l.39.78-.59.78.39,1.37-.98.39v.78h-.78l-.39,1.76-.98.39v1.76l-.78.39.2.78-.39.2-.59,1.17-.98,2.55-.59.78.2,1.57-.98,1.37-1.57,1.17.39-.78-2.35,3.33,1.96-1.57-.39,1.37.59,1.17-.98.39h-.78l-.2.59-1.37,2.15.39.59h-.39l.2,1.37-.98.78-.39,2.15,1.37-1.37.39.59-.39,1.37.78.59.2,1.76-.98,1.96-.78,1.76-.98.39-.2.78-1.17.98.78.39.98,1.76-.39.78.39.59.2,1.96-.78.98-.98,1.57.59,2.35v1.18l-.39.59-.39.2v1.57l-.2,1.37.39,4.9.2,3.72,1.18,4.11,3.33,3.52,1.37-.39.2-.78.2-.59.98-.2,1.17-.2.2-.59.59-.2h.39v-.39l.39-.39.59-.98,1.17-.59.98-1.17,2.15-.98,1.57-1.18,2.35-2.15.78-.2,1.18-1.76.39-.78.78-.2.78-1.37,1.37-.78.59-1.37v-.2l.39-.39h.59v-.39l.59-1.17.78-.39.39-.59.59-1.57,2.35-3.33v-.2l.59-.39h.39l.2-.78.2-.39.59-.59.39-.59.59-.78.78-.2.59-1.37.98-1.37.39-.98-.2-.2.59-.39h.39l.39-.78.2-.78,1.17-1.37,1.76-3.53v-.39l.59-.39.59-.59v-.39l.98-1.37,1.17-1.37.78-2.15.98-.39.2-1.37.78-1.57-.39-1.57.59-.39v-.78l-.2-.78.39-.2.39-.59.39-.39.78-1.76h3.72l.78.59,1.96.2.98.2v.78l1.17.39.78,1.17-.2,1.96.2,1.96-.2.78h-.59l-.39.98.39.98-.39.78.39.39-.59,1.17-.39,3.92h-.39v.59l-.2,1.37.39.98-.39.98-.39.78v.78l-.78.39.2,2.55-.78.2-.2,2.15v1.96l-.59.39.78.78-.59,2.15-.59.98-.39.2-.2,2.35-.2,1.57-.39.39-.2,4.11-1.17,3.52.59,1.57-.39.39v1.17l-.39,1.57-.78,2.35-.59,1.57.2,1.57-.39,1.96,3.92-.59,2.35-.2v-.39l1.57.98.78-.39.78.2.98.2v.78l.78.2.59.98.2,2.15-2.74,1.76h-.59l-1.57.39h-1.96l-.39.78h-3.33v.39l-1.37.39-1.57-.39.78.78-.78.98-.39,2.15-1.37.39-.78,1.76-1.76.59,1.57.59.98.2-.39.59-.78,1.76-.59-1.37-.2.59.39,1.57-.59,1.17.2.59-1.17.78-.2,2.15v.78l-.98.39-.39.98.39.78-.39.39.2,1.76-.78.78v.98l-1.37.39-.39,1.76-.59.59v2.35l-.98.39v1.37l-.39.98-.39.78-.2.59v.39l.39.98-.78.2-.78,1.57-.78.39-.2,1.17-1.17.59-.59.98-.78,1.17-.78.59-.78,1.37v.98l-.59,1.18-1.37.2-.98.78-1.17,2.15-.59,1.37-1.17.59-.39,1.18-1.17.39-.2.39-1.57.78-1.17,1.17-.39,1.57-.59.39-.59.98-.2.78-.98.39-2.55,1.96-.59,1.96-1.76.2-.59.39-.98.59-1.17.59-.59,1.17-1.57,2.35-3.33.78-2.35,1.18-2.15,1.37-.98-.2-.59.78-2.54.39-1.96.2-3.72-.2h-.59l-.39-.78-2.54.39h-2.94l-.98-.2-1.76-.59-.78-.2-.78-.78-.39-.59-.98-.2-.39-.59-.78-.78-1.57-1.17-1.17-1.18-1.76-.59-.78-.98-.59-.98-1.37-2.74-.98-2.35-.78-7.44.59-.39-.2-6.27.59-.59-.39.78v.39l.2.59v-.39l.2-.59.39-.98.59-.78.2-.59.39-.59.39-.78-.2-.78.39-.59.2-.78.59-.78.78-1.57v-.39l.39-.98.2-.59.39-.39.78-.98.59-.59.39-.59.2-.59.39-.59.78-.59.59-.78-.2-.39,1.17-.59.2-.78.2-.59,1.17-.59-.2-.39v-.2l.59-.39.78-.78v.2l.39-.39-.39.2.39-.39.59-.2.39-.2-.2-.2.59-.78.78-.2.98-.2.78-1.37.98-.39.59-.98.78-.39.2-.59.98-.39,1.57-.98,1.37-1.57.98-.2.39-.39.98-.39.98-.98,1.57-.59v-.2l1.17-.59v-.39l.98-.39.39-.78.98-.2.78-.2h.78l1.37-1.37,1.17-.2,1.17-.78,2.74-.59.39-.59,1.37-.2-.2-.39,1.57-.39,2.55-1.17,2.15-.2v-.39h.78v-.59h1.37l.39-.39h.78v-.39h1.37l.78-.78,3.33-.39,1.57-.78,2.94-.59.39-.39,1.37-.39.78.39,1.57-.78,2.74-.2.98-1.96-.2-1.57.2-.78.2-1.57.59-.2.2-1.96.59-.39.2-.78-.39-1.18,1.57-1.76-.78-.78.39-1.37.39-3.52.2-.78h.39v-.78l.39-.39.59-3.33.39-.98v-1.18l.59-.39v-.39l.78-3.52.39-.39v-.78h.39l-.2-.98-.2-1.57-.59.78-.2.98-.2.39-.78,1.17-2.35,2.74-.39.98-1.37.98-.59,1.18-.78.59v1.17l-.39.39-1.37,1.76-1.76.78-.39.98-.98.39-.78,2.15.39.39-.78.59-2.35.98-.39.98-.98.39-.39,1.76-1.76.98-1.17.39-.2.78v.78l-.98.39-.39.98-.78.59-.39.39-.78.59-1.76.78-.2,1.57-1.37.59-.39.39h-1.18l-.59,2.55-.78-.39-1.76.59-1.57-.2h-1.96l-.98.78-2.35-.78-.98-.39h-.59l-.39-.39h-4.11l-2.35-2.55-1.76-.78-1.17-.78-2.35-2.94-.59-3.13-.78.39v-1.37l-.39-.39.39-1.17-.39-.39v-.98h-.59l-.2-3.13-.78-2.74.39-8.81.39-4.31.78-.39.2-1.17.2-1.96,1.37-2.35.39-2.74.98-.98-.98-1.37.39-2.55.78-4.31.78-1.96.2-1.37.59-.78.98-3.52.98.59.59.78.59-.59v.98l1.96-1.37.39-1.96-.98,1.96-1.18-.39.59-3.72-1.17,1.37-.59.78.39-1.76,1.96-5.48.39-1.37h.78l.2-.78,1.57-4.11.59-1.18.78-2.35.39-.78-1.76-2.54,2.15-1.37,1.37.39.2-1.57.39-.78.78-1.18.59-.78.98-.39.59-1.18h1.17l-.39-1.76.39-1.57,1.37-.78.78-.78.98-2.35,1.17-.78.2-1.17,2.15-2.15-.2-2.15.78-.59.98-.98.39-2.15h1.37l.2-.78.78-.98-.39-.39h1.37l.59-.98.39-.39.59-.78.98-.39.2-.98.39-1.57.78-.39-.78-.39-.2.39-.2-.39.78-.59,1.57-.2v-.59l-.78.59-.39-.98,1.37-.39.98.2.98-.39.78-1.37.39-.78.78-.2,2.35-2.15h-1.96l-.59-1.37h.78l.39-.59,1.37-.98,1.17-.2.78.2.2.59.2-.98,2.54-.98.78-.78.39-1.37,1.96-2.54,1.76.39.78.2.39-.78.98.2.2-.2,1.37.2,1.18-1.76,3.72-.59,1.76.59.39-1.17,2.15.2,3.33-.59h.59l.2.59,1.57.2,1.18.39.78-.39,2.74,1.37h.98l2.55.78,2.35,1.96.78.98.98.39.59.98h.98l.2.98.78.98,1.96,1.96,2.35,1.76,1.37,3.13,1.57,2.74.39,3.13.59,1.17.78.2-.59,2.94.78,1.76ZM3.9,330.1l-.2.2.2-.39v.2Zm.39-.59l-.39.39.39-.59v.2Zm.39-1.76l-.2.39-.39-2.15.98-.59.39-1.76.59-.2.2-.98h.2l.39-.98.39-.39.78-1.57.59-.39v.59l-.78.59v.78l-.39.59-.78.59.2.59-.59.78-.39.59-.2.78-.39.78-.2.59-.39.98v.39Zm-.2.98l-.2.59-.2-.59.39-.59v.59Zm4.7-9.99l-.59.39v-.2l.2-.59.59-.2-.2.59Zm50.12,1.57l1.37-2.15-.39-1.17.39-.2.39-.78v-.59l.59-.59v-.98l.59-.39.2-1.96,1.18-1.18.59-1.96.78-.39.2-1.17.98-3.53.39-.78.2-.78.98-1.37v-1.17l.2-.59.78-1.57h.39v-.98l.59-.78-.2-.78.78-1.76-2.15.78-2.15.2-2.15.39-2.94.39-.98.98-1.57.2-2.15.59-4.89.98-1.57.2-.98.98-.78.39-1.18.39-.98.59-1.37.2h-.39l-.39.39h-.78v.39h-.98l-.2.59-.2.39h-.98l-.59.59-.78.2-1.76.78-.78.98-1.37.59-1.76,1.18-1.17.59-.2.78-1.37.78-.78.98-1.37.78-.2.59h-.78l-.2.39-.2.59h-.98l-.39.78h-1.17l-.39.59-1.17.59-.59.98h-.98l-.78.78v.98h-.2l-.39.78-.78.98-.98.2-1.96,1.96-.78.98v1.37h-.39l-.59.59-.98,1.17-1.17.78-.2,1.57-.78.59v.39l-.39.39v.98l-.59.59-.2.98-.39.59.39.2-.39.78-.78,3.52.2,6.66-.39.39.2,1.17.59.78-.59.78.39.78.59.39v.59l.39,1.18,1.37,1.17,1.57.2.39.78.98.39.39.59.98.2,1.57.39v.39h6.07l1.17.39.98-.78.78.39.78-.39.59-.2.78-.2.78.39.78-.39.39-.59,2.35-.39,1.17-1.18h1.17l-.2-.39,1.76-.39,1.96-2.15,1.96-1.96,2.94-2.54.39-.78.78-.2.78-.39.78-1.17.98-.59h.59l.2-1.37,1.17-1.57.59-1.37.78-.78.78.39v-1.57h.98l-.2-.59.98-.78.39-1.17.2-.98.39-.39.59-.2.2-.59.59-1.18.59-.59.39-1.37.59-1.57.78-.39.2-1.76.59-.2.2-.59Zm-49.54-2.35l-.39.2.59-1.76.78-.2-.2-.98,2.54-1.76v.2l-.98.59-.2.78-.2.39-.39.59-.98.59v.59l-.59.78Zm4.31-5.09l-.98.59.2-.39.59-.39.59-.2-.39.39Zm2.74-2.35l.2-.39v.2l-.2.2Zm14.88-68.14h-.39l-.78,1.76,1.17-1.76Zm3.72-13.12h-.78l-.39.78.2,1.57-.39.78-.39,1.17-.59.59-.39.59-.78,1.76h1.18l.59-.39v-1.76l.98-.59.78-4.5Zm0-1.57l-.39.98v.2l.39-1.17Zm3.92,11.55l.78-.2.39-.2-.39,1.37-.78-.98Zm1.76-38.77l-1.57.39.59-1.17.98.78Zm.39,37.59l-1.76.39.39-.39h.39l-.2-1.76,1.17,1.76Zm.98-42.1l-1.57,2.55.2-1.37v-.98l1.37-.2Zm7.64.2l-.59-.39-.78,2.15,1.37-1.76Zm1.96,11.16l-.78-.59.78,1.17v-.59Zm.39-28.98l-.98.98v-1.76l.78.39,1.37-.78h.39l-1.57,1.18Zm1.57.2l1.17.39-1.76.78v.78h-1.57l.59-1.17,1.57-.78Zm-1.17,10.57l-.98.39.59.39h.39v-.78Zm8.81,144.31l-.39.2-.59.98-.2.2.78-.39.39-.59v-.39Zm14.49-26.43l-.2-.59-.2.59-.39.59-.39.78.2.59-.78.59.2.78-.78,1.57-.78,1.18-.39.98.2.78-.78.59-.59.78.39.59-.98.59-.2.59-.39.98-.2.59v.78l-.98.59-.39.59v.78l-.39.78v.59l-.39.59-.98.59v.59l-.2.78-1.18,1.17-.59.78v.59l-.98.78v.39l-.39.98-1.57,1.57v.39l.2-.2.98-.59v-.39l.39-.78.78-.59.39-.59.39-.78.59-.59.59-.78.2-.59.59-.39.2-.78.59-.59.39-.59.59-.59-.2-.98.98-.59v-.59l.59-.59-.2-.98.98-.39.78-1.57.2-.59-.2-.78.59-.78.2-.39.59-.98.2-.39.59-.98v-1.37l.59-.59.2-.98.2-.59.39-.59.59-.98-.39-.59.59-.78Zm.98-4.7l-.2.98-.2.59-.39.98.2.59.39-.78.2-.59v-.59l.39-1.57-.39.39Zm1.37-2.74l-.39-.59-.2.78-.2.59v.39l.2-.2.59-.98Z"/><path class="cls-1" d="m168.56,206.15l.2,2.15-.59.39-.39.78.39,1.37-.98.39v.78l-.78.39v.98l-.39.39-1.37-.2.39-.78-.78.78v.59l-.39.98-.59.78v.39l-.98.98.39.59-.59.59-.39.78-.2.2-.39.59-.39,1.57-.2.2-.2.2-1.37.59,1.17.98-.78.98.2.59-.78.78.39.78-.2.59-.59.78h-1.57l-.39,1.57-.98.39h2.35v.2l-.2.98-.2.39-.39-.39v.98l.2-.2v.59l-.2.59-.59.78-.2.78-.39.98.39.59-.2.2-.59-.39v.98l.39-.2-.2.39-.39,1.17.39.98-.2.78-.39.59-.39.78.39.78.59-.78-.2-.39.59-.78v-.78l.2-.78v-.78l.2-.98.2-.59.59-.78-.39-.59.59-.78.59-.98.2-.59-.2-.78v-.78l.59-.59.59-.98v-.78l-.2-.39.39-.78.59-.98v-.78l.2-.39.78-.98.2-.59.2-.98.2-.39-.2-.78.59-.78.59-.98v-1.17l.78-.98.2-.39.39-.98-.2-.78.2-.39.78-.78v-.2h.98l-.39.78-.78.98.2,1.76-.39.98-.78.39-.39.98-.39,1.18-.59.59v1.57l-.39.98-.39.78-.39.59-.39.98-.39,1.37-.59.78v3.33l-.98.78-.59,1.37v3.33l-1.37.78v5.09l-.39.98-.78.78v3.33l-.39.59-.39.78v3.33l-.59,2.54.59,1.96-.59,1.37.98.98-.98,1.17.39,3.72.39,1.37.78.39h.59l.2.78.2.98h.98v.78l.78.39.78.98-.2,1.17-.78.39-.78.2-.2.78-.98-.59-2.54.59-.39-.59-.39-.39h-2.15l-.59-.2v-.39h1.18l-.98-.39-.59-.39-.78-.59-.2-.59-.39-.78-1.17-1.18v-.59l-.59-.98-.39-.59-.59-.78v-.59l-.39-.78.39-.98-.59-.78v-.78l.2-.78-.2-.59-.39-.78-.2.78-.2.59v.98l.2.78.39.59.39.78-.59.98-.2-1.18-.78-1.17.59-2.74v-1.96l-.39-1.96.59-2.35-.39-.78.59-1.57.59-3.92.78-3.92-2.15,3.13-.78.59-.39,1.76-1.57,1.37-1.18,2.94-.98.78-.39,1.17-.59.98-.78.39v1.17l-.98.78-.59.78-.98.59-.39,1.37-.78.98-3.13,2.55-.78,1.96-1.76.59-.78.59-3.72.59-2.54,1.18-1.18-.78-2.35-.39-2.35-1.57h-.98l-.78-1.17h-.98l-.78-.98-.78-.59v-.39l-.59-.78h-.2l-.2-.98-.78-.39v-1.37l-.78-1.96v-4.7l.2-1.37v-1.37l.2-2.15.2-.98.39-.2v-1.76l.98-.39v-2.55l.39-.78.39-.2v-.78l.78-2.15.78-1.57.98-1.17.2-1.17.39-.2,1.17-2.35.98-1.17.59-1.18.2-1.17h.78v-1.57l.59-.39.78-1.37,1.57-1.76,1.17-1.17.59-.39v-.98l1.37-.78v-.39l.39-.59.39-.78.78-.98.39-.59h.98l.39-.78.2-.2v-.2l.59-.59.98-.78,2.54-2.55.78-.98,2.15-.78,1.37-1.76,2.15-1.37.59-.59,1.37-.39h.78v-.98l1.96-.59,2.74-.98h1.17l.59-.59h.78l2.55.98,1.96,2.15,1.57,1.76,1.17.2.78,1.37,2.15-2.94-.39-.98,1.57-3.72-.78-.78.59-.98,1.17-.78,1.17.39.59-.39.78.78,2.55.39,1.76,2.35.78.2.39.59h.39l.78.78-.78,2.15Zm-16.45,8.81l-2.55-1.57-.59,1.17h-2.15l-1.37.59-.59.39-.39.2-.78.78-.59.2-.39,1.17h-1.76l-1.17,1.57-2.35,2.35-.39.2-.59.98h-.98l-2.55,2.54-.39,1.37-.98.59-.59.78-1.18,1.76-.2.59-.98.39v.2l-.78.78-.78,3.33-.78.2-.59.2-.2.98-1.57,2.35-.2,1.37-.98,1.17-.59,1.37-.2,1.18-.39.2-.59.98-.59,2.35-.98,1.18v.78h-.39v1.57l-.39,3.13v.98l-.59.39.98,1.57-.98.78v1.76l1.18,2.15,2.35-.2,1.17-.59.98-.78.2-.78.59-.98.39-.39.59-.98.2-.78.78-.39.59-.39.39-.98,1.96-3.33h.78l.39-1.37.98-1.96,1.17-.78.39-1.76.39-.2.98-1.96,1.18-.78,1.96-3.92.39-.2.39-.59.59-.78.59-1.37.59-.2.78-1.18.39-1.17h.39l.39-1.76h.39l.2-1.17.59-.2.39-.98v-.59l.78-.39.2-.78.98-1.37.78-1.76.98-1.17.39-1.18.78-.98.59-.39.59-1.17.59-1.37.59-.78,1.18-2.15Zm-33.48,11.75l.2.2.78-.59.59-.78.39-.78.39-.59-1.37,1.37v.59l-.98.59Zm3.13-3.92l-.2.59.2-.2.2-.39h-.2Zm.78-.78l.98-.59v-.59l-.98.78v.39Zm1.17-1.76l-.2.39.59-.39.78-.59.78-.78.39-1.17,1.17-.39.78-1.17.78-.39.2-.59.98-.59.78-.39.59-.39.2-.78.78-.39.59-.39.59-.59.78-.59.59-.2.59-.59.39-.59.78-.39,1.57-1.57-.98.39v.2l-.78.59-1.18.2-.59.39v.59l-.59.39-.59.59-.98.59-.78.39-.78.59v.2l-1.18.78-.39.39-.78.39-.2.59-.59.78-.78.39v.39l-1.18.78v.59l-.98.59-.59.39-.2.98-.39.39Zm1.76,13.71l-.39.98,1.57-1.96.2-.78-1.17-.98-1.17,1.37.98,1.37Zm2.15-3.92v.78l.39.39.78-1.17-.78-1.18.39-.39h-.78l-.39.39v1.18h.39Zm11.55-22.71l-.39.39,1.17-.59v-.39l1.18-.59.39-.39h-.2l-.59.2-.78.78-.78.59Zm5.88,49.93l-.2.78v.39l.2-.39v-.78Zm.98,9.4v.78l-.98-1.57-.2-1.37.39.59.2.98.59.59Zm0,.78l.2.98-.2-.2v-.78Zm1.57,1.96v.59l-.2-.39-.98-.39-.2-.78.78.39.59.59Zm1.37,1.57l.59.39-.59-.2-1.18-.78-.2-.39.98.39.39.59Zm.98.39l.2.59h-.2v-.39l-.39-.2h.39Zm3.52-17.23l-.2-.98v-.2l-.2.39.39.78Zm1.17-12.92h-.78l-.39.39v1.17h.39v.78l.2.2v1.18l.2.78-.2.59-.2.78v.2l.39-.78.2-.78v-.78l.59-.78-.39-.78.39-.59v-.2l-.2.39v-.39l-.59-.98.39-.39Zm-.59,6.85v-.2l-.39.59v.2l.39-.59Zm0,1.96l-.2-.2v.39l.2-.2Zm.78-7.05l-.2.39-.39.59-.2-.2.78-.78Zm1.37-6.27l-.39.2.2-.39.2.2Zm-.2-3.52l.78-.39-.78-.59v.98Zm1.76-1.37l-.59.2.2-.39.39.2Zm.2-1.76h-.2v-.39l.39-.78v-.59l.2-.2h.2v1.57l-.59.39Zm3.53-7.44l-.59.59-.39.59-.39-.2.39-.59-.39-.59.2-.39h.2v-.2l.59-.59.39,1.37Zm0-2.15v-.98l.78.59-.78.39Zm2.94-6.85h.2l-.2.2v-.2Zm0,.2l.2.59h-.2v-.59Zm1.57-2.94h-.59l-.2.78-.59.78.39.39.2-.59v-.59l.78-.78Zm-.2,3.13l.2-.2-.39.59.2-.39Z"/><path class="cls-1" d="m274.1,152.31v3.13l-.39.98-.78.39.78,1.18-.39,2.54-.59.39.2.59-.2,1.37v1.17l-.78.78-.98,3.52-.59,2.74-.39,1.76-.39.2v.78l-.39.39.39.78-.2.98-.2.59-.39,1.96-.98,2.54-.98,2.35v1.76h-.78l.39,1.17-1.17,1.76-.59.39-.2.78v1.37h-.59l.2.98-.78,2.15-.2,1.17-.59.98-.2.2-.2.78-1.17,1.37-.2.98-.78.98-.39.98-.2.39v1.37l-.78,1.18-.39,1.37-.39.98-.59,2.15-.39,1.17-1.57,1.96-.59,2.15-.39.78-.59,1.37-.78.39v.78l-.39.2-.39,1.76-.59,1.17-.59,1.57-.78,1.17-.98,1.37-1.17,2.54-.59,2.35-.59.78v.78h-.98l.2,1.37-.59.98-1.37,1.96-.98,1.37-.59.98-1.17,1.37-.98,1.57-.2,1.18-.98.39.39.78-.78.78-.39.78-1.17,1.57-.39.39-.39.78-.59.98-.78,1.37-1.17,1.37-.78,1.37.2,2.35.39,1.18-1.17.98.39,2.35.59-.39.98,3.52.59,1.57.39-.59.2,1.37.39.78.39.98.39,1.18.39.59h-.39l.2,1.76h.59l.39.78.78.78.59.98.2,1.17.78-.59v1.37l.78.59.2,1.18h.59l.78,1.37h1.17l.59.59v.59l.78,1.17.39.78h.39l1.57.78-.2.78,2.35,2.35,1.37,1.57,1.76.78,1.96.78.78.39,2.15.78,1.96.98,5.87.39-1.37,2.54-.78.78-1.37.2-.39.39h-2.15l-2.35.2-.39.2-1.76-.2-3.52-.2-.78-.78h-1.76l-.98-.59-.39-.2h-1.17l-2.74-.78-.98-.98-1.37-.2-1.17-.98-.39-.59-.98-.2-2.55-2.15.2-.78-1.57-1.17-1.37-1.96-1.37-1.17-1.37-2.15-.78-2.74-.39-.39-.39-1.17-.78-.2-.39-.59v-1.37h-.98l-1.18-1.96,3.33,6.85-1.57-1.76-.78-1.18-.59-.39-.39-.98-1.37-1.76-.39-1.76h-.39l-.39-.78-.39-2.94-.39-1.37-.39-1.17v-.78l-1.37.78-1.18.59-1.17.98-2.74,1.57-.98.39v.78l-1.57.2-.39.98h-.98l-.2.39-.98.2-.59.59-.78.39h-.78l-1.17.39v.78h-3.52l-1.17.78h-.98l-8.22-.78h-.98v-.59l.39.2.2-.39-.39-.2-.98-.2.39.39-1.76-.39-3.33-1.17-.2-.78-.78-.59-2.15-1.18-2.15-2.54-.98-.98-.59-.39-1.18-2.35-.78-.39-.39-.59-.39-.98-.39-1.37-.39-2.35-.39-.2v-.98l-.59-1.37-.2-2.94-.39-3.13h.39l.2.2-.2-1.17-.2-3.13-.39-3.53v-1.57l.39-.59-.39-.98h.39v-3.72l.59-.39v-.59l-.59-2.54.78-.59-.2-3.33.39-.2.59-.59-.2-.98v-4.11l.78-3.13v-1.96l.78-.98-.2-1.76h.39v-.98l.59-.78.2-.98-.2-.98.39-.2.2-.98-.59-1.17.98-.39.39-.59v-1.37l.78-.59.2-3.13.78-.59-.39-1.57.2-.78.78-1.17.39-.78.2-1.76.2-.78.2-.59-.78-.78.98-.78.2-2.74.98-.59-.39-1.37.78-.39.2-1.57.39-.78.59-.78.39-2.54.78-.59.2-1.17v-.98h.59l.59-2.74.78-.59.59-1.37.78-2.15.2-1.37.78-.59.59-1.96.39-.59.59-.59-.2-.78.98-.59.39-1.76,1.76-3.13.59-1.96.78-.59.2-1.37,1.96-1.57.59-1.76,1.18-.59.39-.78.78-1.96.98-.39.2-.78h.59l.78-.2.2-.98,1.37-.39,1.76-.98,1.17.59h3.33l.78-.39,1.57-.2,1.37.59,1.18.2,2.35.98,1.17,1.37,1.57,2.15.78,1.76v.98l.78,3.33.2,1.37.2.78-.59.78.2,4.31-.59.2.2,2.74-.2,1.76-.59.2.59,1.17-.39,1.76-.39.98v1.37l-.39.59-.2.39v2.74l-.59.39v1.37l-.59.59-.2.39v1.37l-.59.78-.78,2.54-.59,1.37-.59.59-.39.2.39.59-.39,1.37-.78.78-.59,2.35-.59,1.57v1.76l-.78.2-.59,2.54-.78.2v1.57l-.98,1.57-.39.78-.78,1.37-1.17,2.35-.2.78-.78,1.17v.98l-.98.59-.2.98-.2.78-.78.98-.39.2v.98l-1.17.39-.59,1.17v.59l-.2.78-.39.2-.78.59-.98.59.2.39-.59.78-.78.59v.98h-.98v.39l-.78.78-.39.98v.2l-1.76,1.76-1.57,1.17-1.17,1.76-.78.59-1.76,1.57-.78.98-1.96,2.15h-.59l-.2.78-2.94,2.55-.2,1.76-.2.78v6.66l.2.78-.39.39.2.78-.39.2v2.74l.39,1.76.2,3.33.78,3.92.98,1.76.2.98.39.59.78,1.76,1.96,1.57,2.94.98,2.74.39,3.92-.2,2.54-.2.78-1.18,1.57.2,1.57-.98,3.33-1.57,1.17-1.76h.59l.59-.39,1.17-.59.78-.98,1.76-1.17,3.92-3.33-.39-1.37-.59-.98.59-.78v-.59l-.2-3.33v-4.11l-.2-3.33.59-2.74-.78-1.57.59-.59v-1.17l-.2-1.17.2-.78v-1.96l.39-1.17v-1.57l.39-1.57v-3.92l-.39-.78.98-3.33v-3.92l.2-1.18-.2-.78.39-1.17.39-.59-.39-.98.39-.98.2-.78.78-1.17v-.98l.39-.59v-1.57l.2-.59v-.98l.2-.78.39-.98v-.59l.2-.98v-1.57l.78-1.96.39-.78.78-.59h.39v.39l-.59.78.2.98-.59.59-.2.98.2.39-.59.98-.2.59.2.78-.2.98-.78.78.2.59v.98l-.2.78v.59l-.78.78.2.98.2.59-.78.78v.98l-.2.59-.2.78.2.78v.78l-.59.78.2.98-.39.59v2.35l.2.98v1.37l-.39.98-.39.78.59.59.39-.39-.2-.98.2-.59.2-.98-.2-.59.2-.78v-1.57l.78-.59v-.78l.39-1.57-.39-.78.39-.78-.2-.98.59-.78-.2-.78v-.59l.59-.98v-.39l.2-.78.39-.78-.2-.78.2-.98.59-.78-.2-.78v-.59l.2-.98.39-.39.59-.98.2-.78-.2-.59v-.78l.59-.98.39-.59.2-.59.2-.78.2-.98v-.59l.2-.98v-1.17l.78-.78-.2-.98.39-.59.39-.98.39-.59.2-.78-.2-.59.39-.78.39-1.57.78-.78.2-.59v-.78l.59-.59-.39-.78.78-.78.2-.78.39-.59.39-1.57v-.78l.78-.78-.39-.78.78-.59.2-.59.2-.98.2-.39.2-.98.59-.59.2-.59.39-.98.78-1.17.2-.78.59-.59.39-.78-.2-.59-.98.98-.39.78-.39.59-.39.78.2.59-.2.78-.98.78.2.39-.2.98-.78,1.17-.78,1.57-.39.39-.39-.78.39-1.76.98-1.57.39-1.76,1.18-.78.2-1.57.78-.59.2-.59.39-.98.59-1.17v-.39l1.17-.98.39-.98,1.57-1.96,1.17-2.55.98-1.37.2-.98,1.17-1.17.59-.98.98-.39.78-1.57.2-.78.98-.39.39-1.37,1.17.2.98-.39.39-.98,2.55-.59.39-.98.59-.59.98-.59,1.76-.98.39-.2.59-.39.39.39h2.15l2.15.2v.59h.78l2.35.78,1.96.98.98,1.17,1.37.78.2,2.74-.98-.78-.2-.78.2-.78-.59-.78-.39-.39-.98-.59-.2-.39-.59-.39h-.39l.59.39.59.78.2.39.78.78v.98l.78.39.2.78-.2.78.59.78v.98l.2.78.39.78-.2.59.78.98.2.59-.2.59.39-.59-.2-.59.2-.98-.78-.78.59-.59-.59-.98-.39-.59v-.59l.2-.78.78-.2.39,1.37-.2,1.57.2.2.59,1.76.2,1.57Zm-83.8,118.07l.39.2v-.59l-.78-.2-.98-.59-.59-.39-.39-.59-.78-.39-.59-.39-.98-.39-.39-.78-.98-.59v-.59l-.39-.59-.98-.59-.2-.59-.98-.39-.2-.59-.2-.78-.98-.78.2-.78-.78-.59v-.59l-.78-.98-.2-.39-.39-.98-.2-.78-.2-.59-.39-.98-.2-.59v-.78l-.78-.98v-.59l-.2.59.2.78.59.78v1.57l.39.78-.2.78.2.78.2.59.59.78.59.59v.98l.78.59-.2.78.59.59.39.59.98.78.2.78.2.59.59.39.78.78.78.2.39.78.39.59,1.17.2.59.59.98.59.78.78.98.2.98.39Zm-11.36-65.79l-.39-.59.2.2.2.39Zm2.94-5.48l.2.59.39-.39.2-.78.2-.59-.2-.78.59-.78.39-.98.39-.39v-1.76l.2-.78v-.59l.78-.78.2-.78v-.78l.2-.59.78-1.57-.2-.59.2-.78.39-.98v-.59l.78-.78.39-1.57v-1.57l.78-.78.2-.39-.2-.78.2-.78.78-.98-.2-.59v-.78l.59-.78v-.39l-.39.39-.39.78v.59l-.59.78-.2.78v1.37l-.98.98.39.59-.39.59-.59.78-.39.59.2.78-.78.98.39.59-.59.59v.78l-.59.78-.2.78.2.78-.59.78-.39.78.2.59-.2.59-.59.98v.78l-.2.78-.39.78.39.59-.59.78-.39.78.39.98-.59.78-.2.59Zm9.4,3.13l-.39.98-.59,2.94h-.39l-.59,2.35-.39.98.39.98-.2.39-.2.78v1.18l-.78.39.2,1.18-.39,1.76.2,1.96-.39.2-.39.78.39,1.17-.2,4.7.98-.59.78-.98.59-.78.98-.59,1.17-1.37,1.76-2.35.39-.78v-.59l.98-.39.2-.98.59-.2.78-1.37v-.98l1.17-.98.78-1.18.98-1.57.59-1.96.59-.98.2-.98.39-.59.2-.59.59-.2.2-1.37.78-.59v-2.15l.39-.59.78-.39.2-1.57.2-.59.59-.2.39-1.17.39-.78.78-2.35.39-.78.39-.98.59-1.96.78-1.37.39-.78.2-1.57v-.78l.78-1.17v-.98l.39-.59v-2.74l.59-.39.59-.59-.78-1.37.98-.39v-1.96l.59-.78v-1.57l.59-.2v-.59l.39-1.96,1.37-5.48.2-1.37-.2-1.37.78-.39.2-2.15v-1.18l.2-1.76-.2-2.54-.39-1.96-.59-1.57-.78-1.37-1.76.59-1.57,2.35-.78,1.76-.98.98-.98,1.57v1.37h-.78l-.39,1.57-.78.98-1.17,2.35-1.18,2.15-.59,1.96-.78,1.37-1.57,4.5-.98,1.76-1.17,3.92-.78,2.35-.59,1.57-.98,3.92-.2.98-.39.2.2,1.57-.98.39-.2,1.96-.78.39v.78l-.2.59-.2,1.57-.2,1.37-.39.78.2,1.37-.78,1.17-.39,1.57-.39.78-.2,1.37-.39.78Zm-1.37-28.98l.2.39.2-.39.39-.98v-.59l-.2.78-.59.78Zm2.55,98.1v.2l-.39-.2h.39Zm30.35-50.52l-.39.78v1.76l-.39.78.2.59v.98l.39-.78-.2-.78.2-.78v-.98l.2-.78v-.78Zm1.96,46.6v-1.57l-1.18-1.17,1.18,2.74Zm1.17,2.15l-.78-.59-.78-.78.59,1.76.98-.39Zm1.96-78.32l-.2.59-.39-.39-.59-.39h.39l-.39-1.17.59-.39,1.17.2-.39.59-.2.98Zm.39-3.13l-.2.59-.39.2v-.98l.2-.59.59-.39-.39-.98.98-.98-.39-.78.59-.39.2-.59-.2-.98.98-.39.59-2.74h.2l.39-.98,1.18-2.74.78-1.76.2.98-.59.2-.2.98-.2.59-.78,1.57.2.59-.2.59-.59.78.2.98-.98.59-.2.78v.59l-.39.98v.78l-.2.78-.39.39-.39.98.2.59-.78.78Zm0,4.11h-.59v-.39l.59.39Zm.59-2.55h-.39l-.39-.78v-.2l.78.98Zm35.44-34.66l.2-1.96-.2-.2-.2-1.76-.59-2.54-.39-.2-.59-.98-1.57-.2-1.76.78-1.37,1.76-1.17.98-.98,1.96-.78,1.17h-.2l-.2,1.17-.78.2-.39.59v.78l-1.17.78v.98l-.2.59-.59.59-.39.2-.2.59.2.98-.78.78-.78.39-.2,1.57-.78.98-.2,1.57-.78.98-.98.98-.78,1.96-1.37,3.13-.78,2.15-.39,1.57v.2l-1.17,2.15-.59,2.15-.78.78v.59l-.39.39-.59.39.2.2-.2.98.39.98-.59.2-.2.98-.59.2.39.78.2.98-.98,1.17v1.57l-.98.59-.2.98-.2,1.18-.59.2.2,1.17-.59.39.2.98h-.39l-.2.78v1.96h-.59l-.59.78.2,1.96-.2,2.74-.59.98-.78,1.76.2.59-.59,1.37.39,1.57-.39.59.2,2.74-.39.59-.39,1.17.2,1.76-.98.2.39,1.17-.59,1.57.39,1.96-.59,1.17.39,1.37-.39.98v.98l.39,2.74v.78l-.39.78.39,1.57.39,9.2,1.17-2.55.59-.59,1.37-2.35.78-1.76h.78l.2-.98.59-1.57.2-.59.39-.78.78-.98.59-1.17.2-.2.2-.59v-.98l.78-.98v-.78l.98-.2.2-1.37.78-.98.39-1.57h.39l.2-1.57.39-.78-.2-.78.98-.39.2-2.55.59-.39.39-1.96.78-.59.39-.39-.2-.39.78-.78.2-1.76.78-.98v-1.37h.39l-.2-.98.78-.98v-.78l.39-.59h.39l.39-.78.98-1.17.2-.98.78-.59v-3.33l.59-.2.39-.98v-.78l.59-.59.2-1.57h.59l-.2-1.17.78-.78.2-.59.39-.59.39-1.57.39-.2-.39-1.18.78-.39v-1.96l.39-.2.2-.98v-.98h.39l-.2-.59.59-.39v-1.96l.39-.2.39-.98.39-.2-.2-1.37.39-1.17.2-.98.39-.2v-1.37l.59-1.57.59-.2-.39-1.37h.39l.2-.98.59-.2-.2-1.17.98-.78-.2-.78.2-.98.39-1.17-.2-1.57.39-.78.59-1.76v-2.35l-.39-.78.59-.98-.2-.98Zm-30.35,19.38l-.39.2.2-.78.2.59Zm.78-.78l-.98.2v-.2l.59-.98.2-.39v-.78l.2-.2.2.2-.2,2.15Zm5.29-12.92v.39l.59-.39v-.78l-.2.2-.39.59Zm1.18-1.96l-.2.59.2-.2.39-.78-.2-.39-.2.39v.39Zm8.22,132.75l-.78.78,4.9-.39-4.31-.78.2.39Zm24.08-137.84l-.78-.98v.2l.39.59v.78l.39-.59Zm-.39.78l-.2.59.2.2v-.78Z"/><path class="cls-1" d="m292.5,272.92l-2.74.2-.59-.2h-1.17l-1.57-.39-.78.2-.39.2-.78-.39-.39-.78-.98-.2-.78-.39-.59-.59-.2-.59-2.94-.39-1.57-1.57.59-.2v-.78l-.98-.59-.2-.78-.98-.59-.78-.2v-.98l-2.15-1.57,2.15,2.54-.78.78-.2.39-.2-.39-.98-.59-.78-.2v-.59l-.39-.78-.59-.59-.2-.78-.59-.78-.39-.39-.2-1.37-.2-2.15-.78-3.53-.59-3.72-.39-4.9.39-2.94.78-.78-.2-1.37.39-.98v-.98h.39v-1.76l.39-1.37v-1.57l.39-.39.2-.59.78-2.15.2-.39.2-.78h.39v-.78l.39-2.55v-.78h.78l.98-1.57.78-1.57v-.78l.39-.78.39-.39v-1.37l1.57-1.17.59-1.37,1.76-1.76v-.78l1.17-1.18.39-2.15,1.17-.78.59-.2v-.39l.98-.59.98-.78.59-1.17,1.37-.39v-1.17l1.76-1.57.2-.59h.98l1.17-.39h.39v-.59l.98-.39.98-.59,1.18-.98,1.37-.78.59-.2,1.96-.2,1.17.2,2.74.59.98.78h1.76l1.96,2.15h1.37l.59-.2,1.18,2.35.59.78.2.78.98.39.59,3.72-.2,3.92-.39,2.15h-.98v1.17l-.39,1.76-1.17,1.17-.2,2.35-1.76,1.96-2.35,1.17v1.76l-1.17.78-1.96,1.76-2.74,1.17v.98l-.78.2-1.57.78-2.74.78-2.54-.2-.39.98-3.92-.78h-.39l-4.7-.39-.78-.98-1.37-.78-.78,4.89-.39,2.35h-.59l-.39.78.39,4.7-.39,2.94v1.37l-.39.2v.98l.78-.39v1.76l-.39.78.39.59.59.59.39,3.52.39.78,1.17.78.39,1.76.98.59,1.57,1.17.59.78h1.17l.39.78h1.57l2.35.39,6.27-.39,1.76-.78h1.17l.78-.78h1.37l1.18-.98.59-.59.78-.59,1.37-.39,1.18-.78.2-.2.78-.39h.78v-.39l1.76-1.37.39-.2.39-.98h.39l.98-.78,3.92-3.92.98-.59.39-.78.98-.2v-.98l.59-.59,1.37-.98.59-1.37h.78l.39-.78,1.37-1.37.39-1.17.78-.39v-.39l.59-.98.78-.78.59-1.37.59-.59.39-.98.98-.39.59-1.17,1.17-.59.98-.39.2-.39,1.17-.2v.59l-.39,1.57h-.39l-1.37,1.37v1.76l-.78.39v.98l-.59.39-.78.2-.59,2.74-.39.98-.2.59h-.98l-.59.39-.78.59-.59.2-.78,1.76-.59.78-.98.78,1.57.78-1.37.39-.98.2v2.74l-.2,1.96-1.17,1.37-.59,1.17-.98.78-.59,1.37-2.15,1.17-1.17.2-.59.78h-1.37l-.39.78-1.57,1.57-1.76,1.57-1.76.98-.78.59-.59.98-.78.39-.39.78-1.37.2-.78.59-1.17.39v1.37l-2.74.39-2.15.59-1.96.59-1.17-.78Zm-18.01-48.17l.98-1.57.59-2.15,2.15-3.13.98-2.15,1.37-1.96,1.76-1.57.39-1.57-1.57,1.96-1.76,1.57-1.57,2.94-1.18,1.96-1.57,2.74-.59,1.37-.78,2.15.78-.59Zm.59,41.71l1.57.78v.78l-1.57-1.57Zm10.38-38.57l1.17-.39v-.39l3.72-.59.78-.98.78-.2.98-.78.39-.59,1.37-.59v-.78l1.57-.78,1.57-2.35.98-.39.39-.98.98-.59.2-1.18.59-1.37.39-1.76v-2.15l.39-.78-.39-2.55-1.18.39-.39-1.96-.98-.2v.98l-1.17-.59-.78.78-1.37.59v.78l-.98.39-.39,1.37-.98,1.37-2.35,2.35-.78.39-1.37,1.96-.59,1.18-.2.78h-.78v1.76l-.98.59-1.17,1.17-.39.2-.59.78-1.37,2.74-.2,1.17,1.17,1.37,1.96-.2Zm9.4,44.45l1.76-.39,1.57-.39.78-.59h-.59l-.78.39-1.57.39-.98.2h-1.37l-1.37-.2-1.17-.98-1.76.2-1.37.2h-1.37l-1.57-.39-.59-.39-.98-.39.59.78,1.37.39.78.39h1.96l1.17.39h1.96l2.35.39c.39,0,.98.2,1.17,0Zm12.73-51.89l-.2-.78.78-.98-.39-.59-.78.78-.78.98.2.98.39.98.78-1.37Zm1.57-2.35l.2-1.37.39-1.57v-.78l-.59.39-.2.39-.2.59-.59.2v.78l.2.78v.98l.59.2.2-.59Zm11.94,33.68v-.39l.39-.59h.39l.39-.39h.59l-.78.78-.39.59-.39.2-.2-.2Zm0,1.57l.2-.98h.78l-.78,1.57-.2-.59Zm1.37-2.35l.98-.59.39.2-.98.98-.59.2.2-.78Zm1.37-2.35l.78-.78.78-1.57.59-.78.98-.78.78-.98-.39,1.96-1.37,1.57-1.76,2.74-.39-1.37Zm4.11-6.46l.2-.98.78-.59v.78l-.59,1.18-.39.39v-.78Zm2.74-4.31l.2-.39h.39v.59l-.2.39-.39.39v-.98Z"/><path class="cls-1" d="m385.7,204.59l-.98.78v1.57l-.59,1.37v1.76l-.98.78v2.15l-.98.98-.2,1.57-.39.98-.39.2-.2.98.2.78h-.39l.2.98-.39.39-.2,1.17-.2.98h-.39l-.2,3.52-.59.59-.39,1.37h-.39l-.98,1.57-.98.39v1.17l.39,2.35-.2.59-.78.98v.39l.39-.39-.2.59v.59l-.2-.39-.39.39.59.59-.2.39-.78.59.2.59.39-.39-.59,1.57v-.59l-.2.39v.78l-.2.59.2-.39v.78l-.2.2.2.98h-.59l.2-.78v-.2l-.39.39v.59l-.78.98-.2.78-.78.98-.39.2.2.78.78.39.2.2-.2.39-.59.78v1.76l.39-.2-.39.59-.39.78v.98l-.2.59-.39.98v1.37l.78-1.37-.2-.98.39-.59.2-.78v-.98l.59-.78v-.2l.39-.2-.39,1.17.39.98-.2.98-1.37,1.76-.59,1.18-.78.39v.2l-.78.78-.2,1.37.98-.39-.2.39-.2.78-.39.78v.78l-.78,1.57.39.78-.98.59.2.98v.59l-.78.78.2.78-.59.59-.39,1.57.39.78-.2.98-.2.59-.2.98-.59.59.2.59-.59.78.78-.2v-.39l.39-.78v-.59l.2-.78.59-.78.2-.78-.2-.98.78-.59.2-.59-.2-.78.59-.98-.39-.78.39-.78.59-.78v-.98l.39.59.98,2.74-.59.59-.2.78-.39.2-.39,1.76h-.78l-.2.59v1.17l-.39,2.94,2.15-.2,3.52-.2-.98,1.76-.98.98-2.15,1.96-1.18,1.17-1.76.78-.78.2-.78.78v2.55l-.98.78.2,2.15-.39,1.37,1.57-.98-.39,1.57-1.57.59.39,1.37-.2.39-.59-.98-.78.2-.2-.59.78-.98v-.78l.2-.78-.2-.59.2-.59.59-.98v-.59l.59-.98-.39-.78.39-.78.39-.59v-.2l-.98.39-.2.39v1.57l-.59.78-.2.78v.78l-.39.59-.2.78-.78,1.57.2.59v.78l-.78.78.2.78-.39.59v.98l-.2.59-.59.98-.39.59.39.78-.59.78-.78,1.57.2.78-.59,1.17-.2.78.2.98-.59.59v.39h-.2l.2.59-.59,1.18v.98l-.59.59-.59.98v1.17l-.2.78-.59.98.2.78-.59,1.17-.59.98v.78h-.39v.59l-.2.78-.39.78v1.57l-.59.78.2.59-.2.78.78-.78v.98l-.59.78h-.59v-.2l-.39.59-.59.78v.59l.2.2-.59,1.17-.78,1.18v1.37l-.59.59v1.96l-.2.78h-.98v.59l-.59.39-.98.59-.59.98v.39l-.39.2-.59,1.17-.59,1.57-1.37.98-.98.98v.98l-.98.39-.2.98-1.57.98v.59l-1.17.59-1.96,1.76-.78,1.57-.2,1.17-1.57.78-.2.98h-.98l-1.96.2-.2.59-.78.98-1.37.2-1.76-.39.2.98-.59.39-3.13,1.37h-1.37l-.2.59-.39.2-.78-.39-.2-.39h-1.17l-2.35.2-1.76.59h-3.52l-.39-.39-1.37-.2-.2.2-.39-.39h-.98l-.98-.78-1.76-.39-.78-.98-1.17-.39-.2-.39-.2-.98-.59-.39-.59-1.37-.78-1.57-.59-1.57v-1.76l-.39-.78.2-.78-.39-1.76-.2-1.37-.39-.78.39-1.57v-2.74l.2-.39v-2.15l.39-.98.2-1.96.2-1.37-.2-.59,1.76-1.76.2-1.17v-.59l.59-.39.2-1.76.59-.98.2-.98.2-.2.39-.98.59-.39.2-1.57.59-.2.2-1.17.78-.39.2-.98.59-.39.2-1.18,1.37-1.37.2-.78h.98l1.17-2.35,1.37-2.15,1.37-.98.59-.78,1.76-1.57,1.17-2.15,1.96-1.57h.39l.59-1.18h.78l.39-.39,1.76-1.57,1.37-1.37,1.17-.98,1.57-.59,1.57-1.57h.98l.2-.78,1.37-.39v-.78l.59-.39.78-.39h.39l.78-.98,2.35-.78.98-1.17h1.37v-.59h.78l.39-.39h.59v-.39l.78-.39h.78l.39-.78h1.37l.39-.59.98-.39v-.39h1.37l.39-.39h1.17l.98-.39.78-.2.78-.39,3.52-.78-.2-.39h.39l-.2-1.57-.2-.98.98-.59.78-.59v-.98l.39-.59.2-.2-.2-.98.98.2v-3.92l.2-.98,1.37-.2-.39-2.54.98-.59.2-.98.59-.98-.78-.98.2-.39.2-.59v-.59l1.18.39.2-3.13.39-1.18.59-.78v-4.7l.98-1.57-.39-2.15v-1.76l1.37-.39.59-1.57.39-.39.39-1.76h-1.37l.39-.59.2-.78-.98.39-.39.98-1.18.39-.78,1.96-.78-.39-1.37,2.55-1.37,1.37v.39h-.78l-.39,1.76-.98,1.18-.2.59-.98.59-.59,1.76h-.98l-.98,2.15h-.39l.2.78-.78,1.18-2.54,1.37-.78,2.15-.2.98-.59.39.2.78-1.37.39-.78.78-.98.39-.2,1.76-.78.39-1.18.98-1.17.39-.2.78h-1.76l-.2.59-.59.39-2.15.2-1.57.2-.59.78-.98-.39-.2-.39h-2.15l-.59-.39-.98-.59-1.76-.59-1.57-.98-1.17-.39-.78-.59-.39-.59-.39-.2-.98-.78-.2-.98.59-.59-.98-1.37.2-1.37v-.39l.2-1.18-.39-1.37.39-.39.39-.59.2-.2v-3.13l.98-1.57-.2-2.15.39-1.57.2-.59.39-.2.78-.2.2-1.76h.39l-.2-1.18.59-.39.39-1.57.59-.2.2-1.76.78-.78v-2.54h.98l.59-.78.98-.98.2-.39.2-1.76.2-.78.98-.59.78-1.96.78-.2v-.98l.39-.98-.2-.39h1.17l.59-1.37.39-.98,1.18-1.17.2-.98.98-1.18.2-1.37.78-.59.39-.78.98-.39.39-.78h.39l-.39.39.2.39-1.17.59-.2.59-.2.78-.59.78-.39.59-.78.59v.59l-.78,1.57.2.2.2-.98.78-1.17.59-.59.78-.59-.2-.59.78-.78.78-.59.2-.39,1.37-1.37v-.78l.59-.59.39-.59.59-.39.59-.59.98-.39.39-.59.59-.78.39-.39.98-.39.2-.39.98-.78.59-.2.39-.39.39-.59,1.17-.39.59-.39.2-.2-.98.39-.59.39-.98.2-.59.59-.59.39-.39.39-.98.39-.59.39-.59.78-.39.39-1.17.39-.39.59-.2.78-2.74,2.74v-1.17l1.18-1.18.39-1.17.59-.2,3.72-3.92,1.17.39,1.37-.78.59-1.37,2.15-.39.78-.78h1.37l1.18-.59,2.54.98h3.33l.39.98.59.2,1.57.59,1.57,1.17h.78l2.74,1.57,1.96,1.76,3.13-5.87-.39-1.37,1.57-1.57.2-.98-.59-.78,2.15-.39,1.76,1.18.98-.39,2.54.78,1.17.2.2.78h1.37l.39.78v1.76l.2.39Zm-81.06,112.39l.59-.78v-.59l.78-.59-.2-.59-.59,1.17-.59.78v.39l-.2.98-.78.59v.2l.98-.98v-.59Zm47.78-31.13l-1.18-.78-1.17.39-.2.59-.59.2-.39.78-1.57.39-.98.78-.59,1.17-1.57.2-1.17.59v.78l-.78-.39-1.37.59-.98.2-.39,1.76-2.15.78-2.74,2.55h-.98l-.59.39-.2,1.37-.78.2-2.15,2.35-1.17-.39v.59l-.78-.98-.59.98-1.57,1.37-.59,1.37v2.94l-.59-.78-.2-.78h-.39l-1.57,1.37-.78,2.35.2,1.76-.78,1.17-1.37-.78-1.37,1.96-.78,2.35-.2.78-.98.2-.39.59-.39.78h-.39l.2.78-.39.59-.2.39-.2.59-1.96.98-1.57,2.15v.59l-.98.98-.2.59-.2.78-.39.78-.39.2-.59.78-.2.59v.78l-.2.98-.39.2-.59.78v.59h-.39v.59l-.39.59-.2.59-.2,1.17h-.39v1.57l-.39,1.76-.2,1.76v4.31l.39.98,1.76.98,3.33.78,2.35.2,3.52-1.17.78-.2v-.78l.78-.59,2.94-.39.78-.78,2.35-1.17,1.37-1.17,1.37-.98v-1.37l1.57-.39.2-1.17-.78-.39,1.96-1.37-.2-.59.2-.39.59-.2.59-.78.2-.59.78-.39.59-.98.39-.78.59-.2v-.78l.98-1.17.2-1.57.39-.59,1.57-.59.59-.98.59-1.17-1.18-.2.98-.39v-1.96h1.37l-.2-.98.98-.2v-.98h.59l-.2-.98.78-.59.2-.98,1.17-1.57.2-1.57.98-.98.2-1.37,1.37-.59-.2-1.96.78-.78.39-1.76v-.98h.39l.39-1.18.59-.78.98-3.92.98-.39v-1.57l.78-3.53.59-.98.2-.59-.39-.98,1.37-1.96.78-2.74Zm-45.82,27.61l.59-.39.2-.98.2-.59.39-.39.59-.78.78-.78v-.39l.59-.78.2-.39-.2.2-.98.59-.59.78-.39,1.18-.39.59-.39.78-.2.78-.39.59Zm3.72-5.87l.59-.59.59-.39v-.78l.59-.59.98-.78.59-.39.2-.59.78-.59v-.78l.59-.39.2-.78,1.17-.39.59-.59v-.78l.39-.39.78-.59.59-.78.78-.39.39-.78.59-.39.39-.78.39-.2.59-.78.78-.39.2-.59,1.18-.59.2-.39.59-.59.98-.78v-.39l-1.17.78-.59.59-.39.59-.78.39-.2.78-1.17.2-.2.59-.59.78-.39.59-1.17.2-.39.78-.78.59.2.59-1.17.39-.59.59-.2.59-.78.78-.2.39-.59.78-.39.59-.98.39-.2.78-.2.59-.78.39-.59.98-.59.59v.39l-.59.59-.2.98Zm13.71-.98l.78.39-.59-.2-.2-.2Zm3.92-4.11h1.17l-1.57,1.76-.78.78-.39-1.37.98-.39.59-.78Zm40.33-86.94l-.59-.39-.59-.59-1.37-.2-.98-.78-.78.39-.98-.59-.98-.2-.78-.2h-4.31l-1.37.39-.59.2v.98l-1.57.2-.39,1.18-.59.2-.98.78-.98,1.37-.59.98-.2.39-.59.39-.78,1.37-.39,1.17-.98.39-.2.78h-.78l-1.17,1.76-1.57,2.54-2.54,3.33-.39,1.57-.39.59-.78.59-.78.39-.2.98-.98,1.96-.39,1.37-.78.39.39,1.37-.2.59-.78.59.2,1.37-1.17.59-.78,2.15-1.37,1.96-.39-.59.59,3.13-.2.98-.98.2-1.57,7.44.59,2.15,1.17-.2,2.15-.98.98-.59.39-.98,1.17-.78.39-.59.78-.39,1.17-2.15,1.57-1.37v-1.17l1.17-.59.78-.98.59-.59.2-1.17.98-.39,1.76-2.94,1.17-.78.2-.98.98-.39.78-.78.78-1.57.98-.59v-1.37l.98-.39.59-1.17,1.57-1.57,2.35-2.74.39-1.17.78-.98.39-.78.78-1.96.59-.78.98-.78.2-.78,1.37-.59,1.18-2.35.78-.39-.2-1.37,1.57-1.17.2-1.18.59-.59.59-.78.59-.59.39-.2,1.17-.98Zm-32.31,80.47l.2,1.76h-.59l-.59.39-.39.59-1.17.2-.2-1.18h.59l.78-.59v-.39l1.37-.78Zm1.76-.78l1.76-.39-.98.39v.78l-.78-.78Zm13.51,26.43l.39-.2v.39l-.39-.2Zm.78-1.96l.2.59-.39.39-.2-.59h.39v-.39Zm-.39,1.18l.2-.2v.78h-.2v-.59Zm.98-115.91h1.17l.59-.39.2-.2-.59.2-.39.2h-.59l-.39.2Zm.39,111.02h.39l-.2.59.2.98-.2.39-.2-1.37.2-.2-.2-.39Zm1.37-4.11l.59-.39.2.98-.2.78-.78.59-.39.59.39.98-.78.59.2-.78v-1.76l.39-.59.39-.2v-.78Zm.98-1.57l.78-.78.39.98-1.57.98.39-1.18Zm.59-1.57h.2l.2.59-.2.2-.2-.78Zm1.57-3.92l.2-.39-.2,1.37v.78h-.39l.2,2.15h-1.17v-.78l.39-.98.39-.59v-.59l.59-.98Zm1.37-4.5l.2-.2-.59,1.18.2.59-.78.78v1.37l-.2.39v-.2l-.2-1.76v-.59l.59-.39.78-1.17Zm1.96-6.85l.39-.59-.2,3.33-.59.2.39,2.55h-.78l-.39.59-.59.59.2-.39.2-.98.39-.78v-.78l.2-.59v-.59l.59-.78-.2-.78.39-.98Zm.2-4.11l1.37-.39-.59.98v.2l-.78-.78Zm0,8.03h.98l-.2.78-.78-.78Zm.78-6.07l-.39.78-.2.59v-1.76l.59.39Zm-.2-.59l.2-.59.2.39.78.39-.59.78-.39-.39-.2-.59Zm4.9-55.21l-.98-1.37-.39.59v.98l.39-.59.98.39Zm2.94,25.45l.39-.2-.2.59-.2-.39Zm.39-1.57l.39-.39-.2,1.57-.2.2-.2-.78.2-.59Zm.39-.98h.2v.39l-.2.2v-.59Zm.2-3.52l.78-.59v.59l-.78,1.57v-1.57Zm0,2.35v-.59l.2.78-.2-.2Zm0,1.17l.2-.39v.39h-.2Zm2.74-13.31l.59-.78-.2.78v1.37l-.59.59.2.98-.2.39-.39.39v-1.57l.59-.78-.2-.39v-.2h-.2v-.2l.39-.59Zm.39-1.76l.39-.39-.2.39v.98l-.2-.98Zm.39-1.57h.2v.59l-.2-.39v-.2Zm0,.98l.2-.39v.39l-.2.2v-.2Zm.78-3.13l.2-.59v.59l-.2.2v-.2Zm1.18-3.33v.39l-.39.78.39-1.17Zm.2-1.76l.39-.98v.2l-.2.59-.2.2Z"/><path class="cls-1" d="m438.56,224.95v3.72l-.2.59v.59l-.2,2.74-.2,1.17-.78.2v.78l-.39.2-.59.39.78.39-.59,1.96-1.37,1.76-.2.98-.59.39-.2,1.96.2,1.17-.78.39-.39,1.57-.59.39v1.37l-.98,1.57-1.57,2.55-.39,1.17-.78,1.37-.98.98-1.57.78v.98l-.98,1.37-.59,1.76h-.39l-.39.78-1.37,1.18-.39.59-.39.78h-.39l-.39.98-.39.59-.39.39-.78.59h-.39l-.39.59-.59.59-1.57.78h-.2l-.59,1.18-2.35,1.17h-.78l-2.94.98-1.96.2-3.52-.2-.59.39-.78-.98-3.33-.98h-.39l-.78-.78-1.57-.59-.78-.39v-.78l-.98-.2-.2-.78-.98-.2-1.17-2.35-1.37-2.15-.39-2.94h-.2l-.39-.78-.39-1.37v-4.11l-.2-.2.2-.59-.2-.59.2-.59v-5.09l.39-.78v-1.17l.59-.78.2-2.94.78-2.15.2-1.57.39-.2.59-.98.98-3.92v-.39l.98-.39.39-1.96.59-.78v-.98l.39-.39.39-1.57h.59l1.37-2.74,1.37-2.54,1.57-1.37.59-1.57.98-.59.39-.98.59-1.17.59-.78,1.18-.39-.39.39-.2.59-.78.78-.39.59-.2.78-.39.39-.39.98-.59.39-.78.78-.59.78-.2.59-.39.78-.39,1.17-.59.59-.59.78v.78l-1.17,1.18-.39.59-.2.98-1.18,1.17.39.98-.78.59v.78l-.39.39-.2.39.59-.78.78-.59.2-.98.59-.59.2-.78.2-.39,1.18-1.57-.2-.78,1.37-1.37.2-.59.2-.39,1.37-1.37.2-.78.59-.78-.2-.39.78-.98.59-.39v-.59l.59-.59.59-.78.39-.78.78-.39.2-.78.39-.59.78-.59.78-.39v-.78l.98-.39.2-.59.98-.59.2-.59.39-.78.78-.39.98-.39.59-.78.59-.2.59-.59.39-.59.59-.39.98-.39.39-.59.78-.59,1.17-.59.98-.59h-1.17l-.59.39-1.76.59-.59.39-.2.39-.98.59-.98.98-1.17.39-.59.59v.2l-.78.78-.78.59-.2.59-.98.59v.39l-1.57,1.17-.2.78-.59.39-.59.59v-.59l.39-.59,1.17-1.17v-.59l1.17-.78.78-.98.59-.59,1.18-.78,1.37-1.17.78-.2.78-.98,1.57-.98,2.15-1.37,1.76-.59,1.57.2h3.33l1.57.59,1.96.78,2.15.98,1.76,1.37.98.59,1.17.59.39.59,1.17,1.17,1.57,1.96.59,1.96-1.37.59-3.52-1.96-2.74-.98-3.72.78-2.35,1.57-1.57,1.17-1.57.98v.78l-1.37.59-1.76,1.96-1.76,1.76-.39.98-.78.39-.59.2-.39.98-1.57,2.55-.39.2-1.57,2.94-.59.59-1.76,3.13-.2.98-.98,1.96-1.17,1.96-.78,1.76-.98.98v.59l-.2,1.57-.59,1.76-.2,1.18-.98,2.54-.2,1.57-.2,1.96-.2,3.52-.59.78v3.13l-.78.59.39,2.74,1.17,3.53.78.98,1.96.78.98-.39.2-.59.78-.2h.59l.39-.59.98-.2.39-.78.78-.2.59-.39,1.18-.98v-.98l1.17-.39.39-.78,1.17-.39,1.37-2.35.59-1.17.98-.39.59-1.37,1.76-1.96.98-1.57.39-.39.39-.59.39-.2.2-1.17.2-.78.98-.59.78-1.57.98-1.17.2-2.15.98-.78.59-2.15v-1.17h.78l.39-2.15.59-.78.39-.78.59-4.11,1.17-3.33.39-4.9v-.98l-.2-.78-.2-.98-.78-2.55.59-.78.78-.2.98-.39.98.39,1.57.78,2.35,2.35.78,1.18.39,1.37.59,4.5Zm-45.03,16.45l-1.17-.98-.2,2.15-.2.98-.39.2.39,3.33-1.17,3.72.39,1.18.39.78.39,1.96.2-3.72.2-4.31h.98v-3.52l.2-1.76Zm1.37-9.79l-.2-.59-.39.59v.39l.59-.39Zm11.16-19.38h-.2l.2-.2v.2Zm10.18,55.41h-.78l-.59.59-.2.59-.78.2-.98.39-.59.2-.59.59-1.17.2-1.57.59,1.37-.2.39-.2.78-.2,1.17-.39h.39l.98-.59.98-.98.78-.39.39-.39Zm19.97-43.86l-.39-.98v1.57l-.39,1.96.59.2v-1.57l.2-1.17Zm1.37-1.37l-.2-.98-.39-.39-.59-1.17-.2,1.17-.59.78.78,1.18,1.17-.59Zm-.39,4.89l-.59-.39-.2,2.15.78-.59v-1.18Zm.2-3.92h-.78l.2,1.57.59-.78v-.78Z"/><path class="cls-1" d="m514.72,226.52l-.78.59v-.2l.2-.2-1.17-.78-.39,1.57.98-.39-.39.39.2.59.2.2h-.2l-.78.2h-.59l-.59-.39.78-.59-.78-.59-.2.98v.98l-1.18.59-.98.39h-.78l-.59.59-.78.39-1.37.39-.2.2-.98.2-.78,1.17-.39-.78-.98.59-.2.2-.98.2-.39.2-.2.2v-.2l-.39.2-.78,1.17.98-.2.2-.39.59-.2v-.39h.2l.39.2.39-.2h.78l.59-.39.59-.2.59-.39.98-.39.98-.2.2-.2.78-.2.59-.59h.98l.59-.39.78-.2.78-.39.78-.2.59-.39h.39l-1.37.78-1.76.59-.39.39-.98.39-.78.2-.2.2-1.17.39-.2.39-.59.39-1.17.39-1.17.59-.39-.2-.59.2-1.37.39-1.17.98-.78.39-.2.39-1.76.59-.2.2-.98.39-.59.59h-.98l-.59.39-.39-.98-.59.39h-.39l-.98,1.76-.78.59-.78.2-.2.2-.78.39-1.17.39-.2.39h-.2l.59.78v.98l.59.78.78.59.2.98.39.39.2.59.39.98.59,1.76.2.78v1.76l.2.59-.78.78-.2.78v.78l-.39.59v.98l-.59.98-.39,1.76-.59,1.17-.59.59v.78l-.59.59-.98,1.37-.59.59-.39.78-.39.59-.78.98-.59.78-.39.59-.98.98-.78.39-.39.39-.98.78-1.96.98-1.57,1.17-1.96.98h-.78l-1.37.78-.78.2-.59.39-.78.59h-.78l-.78.39h-.59l-.78.2-.39.2-.59.39-.98.2-.59.2-.78.2h-.78l-.59.39h-.98l-.78.39-.59-.2-.59.2-.78.39h-1.37l-.78.2h-2.35l-.39.2h-.78l-.98-.2-.59.78h-.59l-.59-.78-1.76.2-1.37-.39-1.37-.98-.2-.39-.78-.98-.39-1.37h-.39v-1.37l-.78-.59-.39-.39.2-.78-.59-1.57.39-.59.2-.78-.2-.78.39-1.37.39-.59.2-.59v-.98l.59-.59.59-1.17.78-.39v-.78l.59-.59.78-.39.59-1.18.2-.78,1.37-1.37.78-.39.59-.59.78-.59.98-.2.2-.59.98-.2v-.78l.78-.39.39-.59,1.17-.39.39-.59.78-.78,1.37-.2.2-.39.78-.39.39-.59.59-.2.98-.59,1.18-.78,1.37-.78.78-.59h.59l.2-.39,1.17-.59v-.39l.78-.39-.78-.39h-.39l-2.15-1.17-.39-.2-1.57-.39-.2-.59-.78-.39-1.76-.78-.59-.39-.39-.39-.78-.2-.59-.59-1.76-1.37-.39-1.96-.59.2-.59-.39-.39-.98-.2-.78-.98-1.57.2-2.94v-1.57l-.2-.78.2-.78v-1.37l.39-.78-.78-.78.78-.59v-.39l-.2-1.17.98-.39.78-1.17.2-.78.59-.59.59-1.17.98-.39.59-1.17,1.17-1.17.59-.39.59-.78-.2-.59,1.37-.39.39-.59,1.37-.59.39-.59v-.78l.78-.2.39-.39.98-.78,1.17.2.78-.2.39-.59.78-.39,1.76.78.78-.39.78-2.35h.39l.78-.39v-.59h1.57l.59-.78,1.37-.39.2-.2.98-.2-1.18,1.18-.78-.2-1.17.98,1.17-.39.78-.2.98-.39,1.37-.59h.98l1.57-.39.98-.39.2-.39-1.96.39h-.59l-.98.39h-1.37l1.96-.59,1.57-.39h.78v-.59l1.18.2.78-.39,1.76-.59h2.35l.78-.2h4.7l1.76.39.59.39.39,1.96-.59.78.2.39.59.39.59-.59-.39-.59-.39-.39h.78l.59,1.57-.39.59-.2,1.57-.39.59v.98l-.39.78-.78,1.18-.59,1.37h-1.18l-.59.2-.39-.39-2.15-.59h-.59l-.78.2-1.17.2-.78.2-.59-.2-1.37.39h-.59l-1.96.59-.78.2-.78.39-1.17.39-.98.2-1.96.59-.59.39-.98.59-1.17.59-1.37.39-.98.39-1.17.78-1.37.78-.98,1.17-.98.39-2.15.59-.59.78v.78l-.59.39-1.17.39-.2.39-.98.59-.59.39-.39.59-.39,1.17-.39.39-.39.98-.2.78.2.78.98.98,1.76.2.59.39.39.59,1.96.39.59.39.59.2.59.59,1.37.59,1.96.59.98.2.2.78.98-.2,1.18.98,1.57.2,1.17.39.59.39,1.17.39.98.59,1.37.59.98-.39,1.17-.2.39-.39.78-.39.59-.39,1.37-.78,1.18-.39.78-.39.98-.2.39-.39.78.2-.59.2-.39.2-1.17.2-.39.2-.78.59-.39.39h-1.18l-.39.59-.2.2-1.37.39-.39.39-.78.39-.2.2-.78.2.98.39,1.18-.39.98-.39.59-.59.39-.2.98-.39.78-.39.59-.39.78-.2.59-.2-.39-.59.59-.39h.59l.98-.39.2-.2.59-.39h.39l.98-.2.39-.59.98-.2.59-.2.78-.59,1.76-.2,1.57-.78h1.17v-.39l1.18-.2.39-.39h.78l.59-.39.59-.2.78-.39.59-.39.59-.59h.2l.59-.59-1.17.2-.2.39h-.98l.78-.2.98-.59.59-.39h.98l-.39.2-.2.2.59-.2.39.39h.39l.2.39h-.2v.2l-.98.59-.39-.39-.39.98.2.2h.59v.2l.98-.2.78-.39v-.39l1.17-.2-.59-.78h-.2l-.2-.39.2-.2.2-.78,1.37-.59h.78l.78-.59.59.59.39-.2.59-.78.98.2v1.76Zm-70.68,43.66l.39.59.2-.78v-.98l.2-1.17-.39.59-.2.98-.2.78Zm.39,2.74l.59-1.17-.59-.39-.2,1.17.2.39Zm1.96,2.15l-.78.39.2.39,1.18,1.57v-1.57l-.59-.78Zm14.29,3.92l.78-.2-.39,1.17-.98.2-.2.39h-3.13l-.78.2h-2.35l-.78-.2h-1.17l-2.55-.78-1.37-.59-.59-.59,1.96.98h.98l.39.2h1.37l.78.39.98-.59h1.37l.78-.2h.39l.98.2.59-.2h.78l.78-.39h1.37Zm21.54-25.06l-.39-1.37-.2-.39-1.17-.39-.39-.59-.39-.39-.39-.59-.59-.2-.78-.59-1.37-.59-.39-1.18-.59.59-.39-.2h-.2l-.59.59-.59.2-.59.39-.78.39-.59.39-.98.39-.78.98-.98.2-.2.2.59-1.76.78-.59.59-.39.78-.39.59-.59.59-.2.78-.59h-.2l-.59-.2-.39-.2-.39.2-.39.59-.78.2-.39.59-.78.2-.39.39-.78.59-.39.2-.98.59-.78.78-.59.39-.39.59-.59.39-.78.39-.39.59-.98.2-.2.78-.78.2h-1.17v1.18l-.78.2-.78.39-.2.59-.59.59-1.17.78-.98.59-.78.59-.59.98.98-.39.2-.2.78-.39v-.2l.98-.78.39-.2.98-.59.78-.78,1.17-.59v-.39l1.17-.59.39-.39.59-.39.39-.39.98-.59.39-.59.98-.39.2-.39.59-.39,1.37-.98v1.57l-.39.2-.59.78-1.17.2-.59.39-.2.59-1.96.78-.59.2-.2.59-.78.39-.59.39-.59.2-.78.39-.59.39-.2.2,1.76-.78,1.57-.39-2.74,1.18-.59.98-1.18,1.17-1.57,1.37-1.57.98-.78.78-.2.98-.59,1.17-1.37,1.76v1.37l-.2.59-.2.39.2.59.39.59.2.59,1.96.59h1.57l1.37-.2h1.37l.98-.2.98.39.2-.59.78-.39,1.57-.39h.78l.39-.39,1.76-.59,1.37-.59.59-.2.59-.39.78-.59,1.76-1.17.59-.2.98-.39.98-.98,1.57-1.37.78-.78.59-.39.59-.78.98.2.2-.59,1.18-1.57.98-1.57.59-.59.39-.98.59-.2.39-1.57.2-1.18Zm-28,8.81l.59-.78.2-.39.2-.78-.78.59-.2,1.37Zm6.66-37.59l-.78,1.76-.39.98v-.78l.2-.78.39-.59.59-.59Zm1.17-1.17c.2-.2.39-.2.59-.2l-1.18.98-.59.39.2-.39.98-.78Zm14.88,48.56l2.94-1.96-.39.59-.59.2-.78.59-.59.59-.39.2-2.15,1.37-.78.2-.39.39-.2.39-.59.39-.78.39-1.37.59-.59.39-.98.39h-.78l-.59.59-.59.2-1.37.39-.98.2-1.18.39-.78.2-.59.2-.98-.59.59-.39h1.57l.59-.2.78-.2.59-.2.78-.39h.59l.59-.39.78-.2.98-.2.59-.2.78-.39,1.17-.78h.59l.78-.59.59-.39.78-.2,1.37-.78.59-.39.39-.39Zm-14.29-48.75l.2-.2-.2.2Zm2.35-2.55l1.76-1.17-1.96,1.96-1.17.78-.59.59.39-.59.98-.59.59-.98Zm1.96-1.37l.39-.2-.59.39.2-.2Zm.39,26.63l1.37.2.2-.2.59-.39-.59-.39-.2-.2-.59.59-.59.2-.2.2Zm.59,6.07l.78-.59v.2l-.78.39Zm.78-.59l.2-.2v.2h-.2Zm.59-44.06l-.2-.98.98-.98.78-.2v.78l-.59.59-.98.78Zm1.57,37.4l-.59-.59h-.2l-.2.2-.78.2.39.2.98.39.39-.39Zm3.72-38.38l1.37-.78.98-.39.39-.39h.78l.59-.59h.59l.59-.78.98-.2.59-.2,1.37-.2.98-.2h.59l.59-.39h.98l.78-.39h.39l.2-.2,1.37-.78h-.2l-.78.2h-.78l-.39.2-.78.2-.78.78-.78-.59-.78.39h-.78l-.39.39-.59.2-.98.2-.78.2h-.78l-.59.59-.59.39-.78.39-.59.39-.78.2-1.17,1.37Zm10.18-2.35l-.59-.2c-.2,0-.2.2-.39.2l-.59.2-1.37.39-.39.39,1.57-.39.98-.2.78-.39Zm13.31,30.54l.2-.2h-.78l-1.17.39-.59-.2-.59.39h-.39l-.98.59h-.78v.39l-.98.39-.78.2-.59.2-.59.59-1.76.59-1.17.59-.39.39h-1.17l-.39.59-.39.2-.59.2.39.2.59.2.39-.2.98-.39.78-.39.59-.2,1.17-.59.59-.2.78-.59h.59l.78-.39.39-.39.78-.2,1.17-.2.39-.59h1.17l.59-.2.59-.59.78-.2-.2-.2.59-.2Zm-6.85-33.48l-.59-.78-.59.39-.39-.2-.59.59-.98.39-.2.2h.78l.59-.39.98.2.59-.39h2.35l.59.2v-.39l.78.2v.98l.59.98.59-.39-.2-1.76h-.98l-.78-.2h-.2v-.39l-.39.2-1.18-.2-.78.78Zm-1.76-.59l-.59.2h.2l.59-.2h-.2Zm.59,33.09h-.2l.2-.2.59-.39.78-.2v.2h-.2l-.59.2v.2l-.59.2Zm.39-30.15l1.37-.59.59-.59-2.15.78.2.39Zm1.96,28.98l-.98.39.2-.59,1.17-.59,1.18-.39.98-.39.59.2h-.2l-.78.2-.39.2-1.17.39-.39.2-.2.39Zm0-29.57l.78.39.59-.2.2-.59-.2-.78-.59.59-.78.59Zm.2,31.13h.78l.78-.2.59-.78-.98.2-.78.39-.39.39Zm.98-30.15l-.59-.39v.2l-.2.2.2.39.39-.2.2-.2Zm-.59-3.13l.2-.2.39.2.2.2-.59.2-.2-.39Zm1.76,3.13l-.2-.59-.78.39.39.39.59-.2Zm-.2-2.74v-.2l.39.2h-.39Zm1.37,29.96h-.39l.59-.39.78-.39-.98.78Zm-.2,2.15l.59-.2.39-.2.78-.2.59-.39.59-.78-.98.39-.39.2h-.78l-.78.59v.59Zm1.76-3.13l-.59.2,1.57-.98.98-.2.59-.2.98-.59.59.2-.39.2-.59.2h-.2v.39l-.2-.2-1.57.39-.39.59h-.78Zm2.15,2.15l-.2-.2-.78.78.2.39.39.39.2-.59v-.39l.2-.39Zm.98-.98l-.2-.2h-.39l-.59.59.59.2.59-.59Zm.39-3.33h-.39l.39-.39v.39Zm.78,1.96l-.59.2h.59v-.2Zm.39-2.74l-.78.39.2-.78.78.39h-.2Zm-.2,1.57l-.39-.2h1.17l-.78.2Zm1.76,1.57l-.39-.59h.2l-.98-.59-.2,1.18.78-.39-.39.59.2.39.2.2.39-.59.2-.2Zm-.78-1.76h-.2l.2-.2.78-.98-.39.98-.39.2Zm1.96,1.17h-.39v.2l.39-.2Zm.78-1.57l-.2-.2-.78.78.2.39.39.39.2-.59v-.39l.2-.39Zm2.15-2.15l-.78.2.78-.39h.39l-.39.2Zm.78.2l.2.39h-.2l-.78.2-.2-.39.98-.2Zm0-.39h-.39l.78-.39.98-.39.78-.2.78-.39-.59.39-.78.2-.98.59-.59.2Zm1.37,2.54l-.78-.39v.98l.78-.59Zm.78-1.96l-.78-.59v1.17l.78-.59Zm.59,1.17h-.2v-.2l.2.2Zm-.2.98v-.2h.2l-.2.2Zm.2-.2l.59-.39-.39.39h-.2Zm.59-3.92h-.39l.39-.2h.39l-.39.2Zm.78-.39l-.39.2.59-.59h.98l-.2.39h-.98Zm1.17,3.52h.39l-.59.78-.2.2-.59.2.98-.98v-.2Zm.59-1.96l-.2-.98-.59-.2.39.59-.59.2.59.39h.39Zm-.98,2.15l.39-.39v.2l-.39.2Zm.2-.98l.2-.2.2.2-.2.39v.2l-.2-.59Z"/></svg>