<?xml version="1.0" encoding="UTF-8"?><svg id="Capa_1" xmlns="http://www.w3.org/2000/svg" viewBox="0 0 512 512"><defs><style>.cls-1{fill:#fff;}</style></defs><g><path class="cls-1" d="m.39,194.28h39.58v6.45H7.73v18.2h26.85v6.2H7.73v27.5H.39v-58.35Z"/><path class="cls-1" d="m54.09,194.28h7.34v51.58h30.6v6.77h-37.95v-58.35Z"/><path class="cls-1" d="m113.74,227.9l-21.14-33.62h8.16l16.73,27.75h.16l16.97-27.75h7.83l-21.38,33.79v24.56h-7.34v-24.73Z"/><path class="cls-1" d="m155.44,194.28h7.34v58.35h-7.34v-58.35Z"/><path class="cls-1" d="m180.41,194.28h7.75l26.6,40.56c1.96,3.02,4.24,7.51,4.24,7.51h.16v-48.07h6.86v58.35h-7.51l-26.77-40.64c-1.88-2.86-4.33-7.26-4.33-7.26h-.16v47.9h-6.86v-58.35Z"/><path class="cls-1" d="m287.07,244.96h-.16c-4.24,5.96-10.53,8.9-18.2,8.9-16.4,0-27.42-12.49-27.42-30.2s9.71-30.6,28.07-30.6c13.55,0,21.87,7.34,23.75,18.77h-7.59c-1.63-7.75-7.1-12.4-16.32-12.4-14.04,0-20.4,10.53-20.4,24.24s8.32,23.83,20.16,23.83,17.63-8.16,17.63-17.95v-1.39h-17.55v-6.37h24.89v30.85h-4.73l-2.12-7.67Z"/><path class="cls-1" d="m330.08,194.28h39.58v6.45h-32.24v18.2h26.85v6.2h-26.85v27.5h-7.34v-58.35Z"/><path class="cls-1" d="m383.94,194.28h7.34v58.35h-7.34v-58.35Z"/><path class="cls-1" d="m405.24,232.88h7.18c.98,9.87,7.02,15.02,18.04,15.02,8.08,0,13.87-3.67,13.87-10.94,0-8-7.02-9.87-17.46-12.16-10.28-2.29-19.1-5.22-19.1-16.24,0-9.63,8-15.42,19.83-15.42,14.61,0,20.65,7.43,22.12,18.2h-6.94c-1.06-8.32-6.45-12.49-15.02-12.49-7.92,0-13.14,3.35-13.14,9.38,0,6.61,6.53,8.57,15.26,10.28,11.34,2.29,21.71,5.06,21.71,18.2,0,10.94-8.9,17.06-21.46,17.06-16.4,0-24.24-9.14-24.89-20.89Z"/><path class="cls-1" d="m466.52,194.28h7.34v24.81h31.17v-24.81h7.34v58.35h-7.34v-27.58h-31.17v27.58h-7.34v-58.35Z"/></g><g><path class="cls-1" d="m107.03,274.1h27.03v3.77h-11.36v30.37h-4.3v-30.37h-11.36v-3.77Z"/><path class="cls-1" d="m141.55,297.21v-23.11h4.3v22.68c0,5.83,3.29,8.31,8.93,8.31s8.64-2.48,8.64-8.31v-22.68h4.3v23.11c0,8.26-5.78,11.56-13.08,11.56s-13.08-3.29-13.08-11.56Z"/><path class="cls-1" d="m177.36,274.1h4.3v30.18h17.91v3.96h-22.2v-34.14Z"/><path class="cls-1" d="m206.11,297.21v-23.11h4.3v22.68c0,5.83,3.29,8.31,8.93,8.31s8.64-2.48,8.64-8.31v-22.68h4.3v23.11c0,8.26-5.78,11.56-13.08,11.56s-13.08-3.29-13.08-11.56Z"/><path class="cls-1" d="m241.92,274.1h5.49l11.08,28.36h.1l10.98-28.36h5.59v34.14h-4.11v-28.08h-.1s-.91,2.67-1.53,4.3l-9.36,23.78h-3.29l-9.36-23.78c-.67-1.72-1.53-4.3-1.53-4.3h-.1v28.08h-3.87v-34.14Z"/><path class="cls-1" d="m284.27,303.51h4.63v4.73h-4.63v-4.73Z"/><path class="cls-1" d="m294.35,291.14c0-10.03,6.02-17.81,16.19-17.81,7.97,0,12.8,4.58,13.7,10.89h-4.2c-.81-4.25-4.2-7.16-9.6-7.16-7.5,0-11.7,6.06-11.7,14.09s4.63,13.99,11.75,13.99c6.45,0,9.5-4.39,9.93-9.41h4.25c-.05,3.39-1.67,7.21-4.11,9.6-2.39,2.34-5.87,3.58-10.22,3.58-9.69,0-16-7.4-16-17.76Z"/><path class="cls-1" d="m332.02,291.14c0-10.22,6.4-17.81,16.71-17.81s16.71,7.59,16.71,17.81-6.4,17.81-16.71,17.81-16.71-7.59-16.71-17.81Zm29.03,0c0-8.02-4.3-14.09-12.32-14.09s-12.32,6.06-12.32,14.09,4.3,14.04,12.32,14.04,12.32-6.02,12.32-14.04Z"/><path class="cls-1" d="m374.38,274.1h5.49l11.08,28.36h.1l10.98-28.36h5.59v34.14h-4.11v-28.08h-.1s-.91,2.67-1.53,4.3l-9.36,23.78h-3.29l-9.36-23.78c-.67-1.72-1.53-4.3-1.53-4.3h-.1v28.08h-3.87v-34.14Z"/></g></svg>