<?xml version="1.0" encoding="UTF-8"?><svg id="Capa_1" xmlns="http://www.w3.org/2000/svg" viewBox="0 0 512 512"><defs><style>.cls-1{fill:#fff;}</style></defs><path class="cls-1" d="m289.54,314.26c-3.86-.76-10.07-1.54-16.02-3.22-10.97-3.1-21.8-2.46-32.69.04-3.03.7-6.07,1.34-9.09,2.06-15.78,3.76-27.93-2.08-37.6-14.3-7.11-8.99-15.47-16.47-25.82-21.51-3.79-1.85-7.79-3.28-11.71-4.86-14.79-5.97-21.86-17.45-22.58-32.86-.71-15.22-4.7-29.15-13.35-41.78-2.29-3.34-3.86-7.23-5.47-10.98-3.37-7.84-3.26-15.73.61-23.35,3.7-7.28,7.84-14.35,11.53-21.64,4.34-8.59,5.93-17.86,6.5-27.42.53-8.96,1.51-18.28,8.33-24.72,5.21-4.92,11.54-9.37,18.18-11.9,13.39-5.12,24.16-13.19,33.14-24.08,2.24-2.72,4.72-5.25,7.23-7.72,8.7-8.57,19.09-10.34,30.59-7.42,13.97,3.54,28.01,5.53,42.34,2.28,2.48-.56,5.02-.96,7.42-1.76,14.54-4.88,26.29-.12,36.38,10.39,4.79,4.98,9.22,10.34,14.28,15.02,6.26,5.8,13.57,9.95,21.72,12.84,7.75,2.75,14.89,6.73,20.17,13.45,4.51,5.75,6.36,12.63,6.46,19.42.27,18.79,7.81,34.74,17.54,50.05,6.42,10.09,6.09,20.18.26,30.4-3.77,6.62-7.23,13.42-10.98,20.05-3.72,6.57-4.89,13.76-5.69,21.11-.68,6.17-1.31,12.38-2.6,18.44-1.59,7.46-5.62,13.68-12.35,17.5-5.5,3.12-11.35,5.65-17.14,8.22-10.01,4.43-18.33,11-25.59,19.12-3.84,4.3-7.88,8.45-12.11,12.36-5.47,5.05-12.26,6.75-21.87,6.77Zm-110.23-237.99c-2.01-.73-4.62-2.43-5.67.39-.63,1.69.42,4.44,1.51,6.22,1.22,1.98,3.2,3.6,5.14,4.96,1.02.71,2.66.54,4.01.77-.13-1.35.09-2.87-.46-4.03-1.37-2.9-3.09-5.64-4.67-8.44,2.61,2.27,5.12,4.67,7.88,6.73.87.65,2.41.4,3.64.56-.02-1.12.33-2.43-.12-3.33-1.84-3.59-3.94-7.06-5.92-10.54-3.86.77-5.94,2.7-5.35,6.7Zm179.53,25.94c2.37-2.59,2.14-5.2-.46-7.3-2.88-2.33-3.72,1.24-5.29,2.33-1.7,1.19-3.24,2.75-4.51,4.4-.87,1.13-1.15,2.71-1.69,4.09,1.6-.03,3.33.31,4.77-.18,2.51-.86,4.83-2.23,7.24-3.39-2.07,2.13-4.27,4.16-6.16,6.46-.72.87-.71,2.35-1.03,3.55,1.23.19,2.71.91,3.64.47,3.65-1.71,7.12-3.78,10.66-5.71-1.35-5.65-2.38-6.32-7.19-4.71Zm14.47,125.81c1.25-.75,3.06-1.22,3.62-2.32.81-1.58,2.87-4.06-.24-5.3-3.51-1.4-7.25-2.27-10.94-3.12-.82-.19-2.4.47-2.71,1.15-.31.69.22,2.28.9,2.8,1.55,1.17,3.52,1.77,5.11,2.9,1.6,1.14,2.93,2.65,4.4,4.01-3.48-1.13-6.91-2.42-10.46-3.27-1-.24-2.3.8-3.46,1.25.47,1.01.68,2.43,1.47,2.95,3.49,2.29,7.16,4.32,10.95,6.56,1.4-2.65,4.4-4.55,1.35-7.6Zm-3.84-111.87c-2.79,2.1-5.65,4.12-8.34,6.35-.81.67-1.14,1.91-1.69,2.89,1.15.51,2.48,1.68,3.43,1.43,3.37-.91,6.62-2.28,9.9-3.53,2.39-.91,2.59-2.57.91-4.19-1.22-1.18-2.89-1.89-4.36-2.8,1.93-4.12,1.4-5.5-2.82-7.66-2.89,2.08-5.86,3.97-8.48,6.25-1.04.91-1.32,2.7-1.94,4.08,1.47.12,3.05.64,4.4.29,3.06-.81,6.01-2.05,9-3.11Zm-64.39-57.67c-.5-4.62-3.79-4.83-7.33-4.88-.93,3.9-1.98,7.55-2.57,11.27-.2,1.24.8,2.67,1.25,4.01,1.12-.77,2.51-1.32,3.29-2.35,1.98-2.62,3.68-5.44,5.49-8.18-.91,3.39-1.99,6.74-2.63,10.18-.2,1.06.8,2.35,1.24,3.53,1.06-.49,2.4-.72,3.11-1.52,1-1.13,1.45-2.72,2.27-4.03.87-1.39,1.89-2.69,2.85-4.03.33.2.66.4.99.59-.86,2.63-1.88,5.22-2.5,7.9-.31,1.36.12,2.89.22,4.35,1.37-.76,3.05-1.24,4.05-2.33,1.86-2.02,3.32-4.41,4.95-6.64l1.25.78c-1.17,2.64-2.51,5.23-3.44,7.95-.43,1.24-.06,2.75-.05,4.14,1.29-.43,2.99-.48,3.79-1.35,2.73-2.98,5.15-6.24,7.88-9.64-1.6-1.12-2.89-2.23-4.36-3.01-4.45-2.38-9.12-4.4-13.4-7.04-2.48-1.53-4.31-1.68-6.35.32Zm63.77,117.1c-.5-60.71-48.65-111.73-112.79-111.24-61.62.47-110.57,50.38-110.26,112.88.31,61.09,50.68,110.6,112.1,110.23,63.85-.39,110.9-52.22,110.95-111.87Zm-40.19,104.71c-.41.24-.83.49-1.24.73-1.99-2.47-3.83-5.08-6.04-7.33-.81-.82-2.5-.78-3.79-1.13-.13,1.3-.7,2.76-.3,3.87,1.01,2.78,2.47,5.39,3.75,8.07-.45.27-.91.53-1.36.8-1.88-2.66-3.67-5.4-5.7-7.94-.56-.7-1.83-.84-2.77-1.24-.43,1.05-1.44,2.29-1.18,3.13,1.28,4.12,2.91,8.13,4.85,13.36,7.08-4.6,13.6-8.77,19.99-13.14.42-.28.17-2.38-.41-3.12-2-2.54-4.18-4.96-6.53-7.18-.82-.77-2.31-.83-3.49-1.21-.08,1.35-.63,2.89-.16,4,1.22,2.89,2.9,5.59,4.39,8.36ZM201.5,63.1c.48-.23.95-.46,1.43-.69,1.51,2.6,2.83,5.32,4.61,7.72.71.96,2.41,1.19,3.66,1.75.29-1.22,1.06-2.57.78-3.65-.81-3.13-2.06-6.15-3.09-9.23-.85-2.56-2.28-2.77-4.53-1.52-2.44,1.36-5.14,2.27-7.57,3.64-3.85,2.18-7.57,4.58-11.45,6.94,2.98,3.74,5.41,7.04,8.14,10.06.71.78,2.36.71,3.58,1.03.1-1.22.59-2.58.22-3.64-1.04-2.96-2.44-5.79-3.69-8.68.43-.24.86-.48,1.29-.72,1.7,2.49,3.24,5.11,5.16,7.4.77.92,2.38,1.14,3.61,1.67.28-1.32,1.04-2.75.75-3.92-.7-2.79-1.91-5.46-2.91-8.18Zm-14.19,217.92l-1.29-.77c1.42-2.66,2.99-5.26,4.18-8.03.5-1.17.17-2.7.21-4.07-1.29.35-2.93.33-3.82,1.13-2.17,1.99-3.93,4.43-5.99,6.55-2.23,2.29-1.6,3.79.92,5.28,2.28,1.34,4.31,3.11,6.59,4.43,3.85,2.22,7.82,4.23,11.93,6.43,1.67-4.6,3.1-7.99,4.07-11.5.36-1.3-.37-2.89-.61-4.35-1.21.73-2.72,1.2-3.58,2.23-1.84,2.18-3.34,4.65-4.98,7-.45-.25-.89-.51-1.34-.76,1.05-2.32,2.34-4.58,3.07-7,.49-1.61.18-3.45.23-5.19-1.46.72-3.2,1.15-4.3,2.24-1.97,1.92-3.55,4.23-5.29,6.38Zm-14.5-10.29l-1.18-1.03c1.8-2.41,3.77-4.71,5.34-7.26.8-1.3.88-3.04,1.29-4.59-1.56.38-3.34.4-4.63,1.21-2.56,1.62-4.85,3.67-7.25,5.54-.3-.34-.6-.68-.9-1.01,1.02-1.27,2.02-2.57,3.08-3.82,1.37-1.61,2.95-3.06,4.1-4.81.47-.71.35-2.18-.09-2.99-.27-.5-1.94-.85-2.46-.5-3.8,2.59-7.46,5.38-11.88,8.62,5.71,5.46,10.88,10.56,16.32,15.37.67.59,3.31.05,4.09-.82,2.06-2.28,3.77-4.93,5.25-7.63.58-1.06.16-2.65.2-4-1.35.28-3.02.14-3.97.91-2.6,2.07-4.9,4.52-7.31,6.82Zm170.18-1c-.36.35-.72.7-1.08,1.05-2.62-2.49-5.14-5.11-7.95-7.37-.77-.62-2.42-.16-3.67-.19.02,1.13-.37,2.5.12,3.35,1.57,2.67,3.42,5.18,5.24,7.7,1.6,2.22,3.69,2.14,5.48.49,4.45-4.12,8.82-8.34,12.98-12.74.61-.65.45-3.1-.24-3.71-2.75-2.41-5.79-4.51-8.87-6.5-.68-.44-2.37-.34-2.83.18-.54.61-.66,2.24-.21,2.93,1.23,1.87,2.88,3.46,4.33,5.19,1,1.2,1.93,2.45,2.89,3.67-.31.3-.63.6-.94.9-2.58-2.03-5.07-4.21-7.79-6.03-1.04-.7-2.63-.59-3.96-.85.2,1.3.03,2.83.67,3.85,1.76,2.81,3.86,5.41,5.82,8.09Zm-212.75-84.49c-.01-.41-.02-.83-.03-1.24,3.41-.5,6.87-.82,10.21-1.61,1.2-.28,2.12-1.71,3.18-2.61-1.26-.82-2.45-2.14-3.81-2.36-2.48-.39-5.07-.11-7.61-.15-2.34-.03-4.61.47-4.34,3.31.37,4-1.6,8.58,2.38,11.8.49.39,1.64.07,2.46-.09,2.63-.51,5.34-.85,7.84-1.75,1.32-.47,2.29-1.95,3.42-2.98-1.29-.77-2.53-2.08-3.88-2.22-3.24-.33-6.53-.11-9.81-.11Zm253.96-1.26c0,.43,0,.86,0,1.28-3.45,0-6.91-.08-10.36.03-1.99.06-3.9.64-3.02,3.28.9,2.7,12.96,4.58,14.81,2.35.51-.61.77-1.5.92-2.3.27-1.38.4-2.79.51-4.2.55-7.04.39-7.2-6.47-7.17-2.12,0-4.29-.22-6.32.21-1.19.26-2.15,1.61-3.21,2.47.95.82,1.79,2.13,2.87,2.38,3.37.77,6.84,1.14,10.27,1.66Zm-214.51-104.01c-3.35,3.66-6.4,6.72-9.06,10.1-.51.65.12,2.97.95,3.74,2.36,2.19,5,4.11,7.72,5.86.8.51,2.2.08,3.33.08-.01-1.14.36-2.48-.12-3.37-.71-1.32-2.09-2.25-3.07-3.45-1.04-1.28-1.93-2.68-2.89-4.02.36-.31.72-.62,1.07-.94,2.34,1.89,4.58,3.91,7.06,5.59.82.56,2.32.53,3.32.2.41-.14.8-2.13.39-2.69-2.62-3.6-5.47-7.04-8.71-11.12Zm177.36,8.01c.4.39.8.78,1.2,1.17-1.17,1.45-2.41,2.86-3.51,4.37-1.35,1.85-5.01,3.27-2.56,6.08,2.49,2.87,4.16-.8,5.81-1.94,9.37-6.46,8.43-5.5,1.45-12.91-4.53-4.81-4.54-4.78-8.4.37-1.18,1.58-2.67,2.96-3.68,4.63-.67,1.1-.74,2.57-1.09,3.87,1.57-.24,3.39-.06,4.66-.81,2.21-1.31,4.09-3.19,6.11-4.83Zm-201.78,148.2l-.66-1.49c2.94-1.83,5.97-3.54,8.76-5.58.86-.62,1.05-2.16,1.55-3.27-1.2-.33-2.53-1.15-3.59-.88-2.71.69-5.28,1.95-7.95,2.82-3.49,1.14-4.06,3.36-1.74,6.13,1.01,1.2,1.71,2.84,2.06,4.39,1.01,4.45,3.34,5.48,6.98,2.86,2.18-1.56,4.5-2.96,6.44-4.78.87-.82.95-2.48,1.39-3.76-1.23-.15-2.61-.73-3.66-.37-3.26,1.11-6.39,2.58-9.57,3.91Zm126,60.54s-.07,0-.1,0c0,1.68,0,3.36,0,5.04-.02,2.89,1.87,3.07,4.01,2.8,2.11-.27,4.02-.91,3.4-3.64-.77-3.41-1.59-6.83-2.68-10.14-.3-.92-1.67-1.48-2.55-2.21-.69.9-1.8,1.72-1.99,2.71-.33,1.76-.09,3.62-.09,5.44Zm-.03-241.83s-.01,0-.02,0c0,1.83-.24,3.7.09,5.47.19.99,1.31,1.8,2.02,2.7.91-.72,2.3-1.28,2.63-2.21,1.03-2.91,1.55-5.99,2.47-8.94,1.05-3.37-1.07-4.24-3.57-4.88-3.23-.82-3.48,1.39-3.6,3.64-.08,1.4-.01,2.81-.01,4.22Zm-135.12,111.51v-.02c1.54,0,3.13.24,4.61-.08,1.15-.25,2.15-1.18,3.22-1.8-.84-1.06-1.49-2.7-2.57-3.08-2.89-1.01-6-1.37-8.96-2.18-3.09-.84-4.13,1.07-4.63,3.41-.63,2.93,1.38,3.62,3.72,3.73,1.54.07,3.08.01,4.62.01Zm124.47,132.46c-.22-1.89-.28-4.31-.86-6.6-.25-.98-1.57-1.68-2.41-2.5-.81.84-2.17,1.58-2.34,2.53-.53,3.02-.59,6.12-.89,9.18-.25,2.51.04,4.59,3.26,4.59,3.25,0,3.5-2.11,3.25-4.61-.07-.69-.01-1.4-.01-2.6Zm117.98-132.49s0,.08,0,.11c1.69,0,3.39-.07,5.07.02,2.33.11,3.84-.95,3.04-3.19-.58-1.63-2.38-4.09-3.5-4.02-3.6.21-7.2,1.27-10.69,2.35-.83.26-1.65,1.83-1.7,2.84-.03.59,1.4,1.66,2.29,1.81,1.79.29,3.65.09,5.49.09Zm4.97,37.15c-4.17-.57-8.41-1.27-12.68-1.62-.88-.07-2.19,1.02-2.66,1.91-.23.42.85,2.04,1.67,2.43,2.27,1.09,4.71,1.84,7.09,2.69,5.74,2.05,6.17,1.74,6.58-5.41ZM217.07,53.72c-7.21.12-7.98,1.3-5,7.13,1.08,2.12,1.93,4.37,3.19,6.37.52.82,1.83,1.15,2.79,1.7.5-1.01,1.55-2.09,1.41-3.01-.62-4.11-1.57-8.17-2.39-12.19Zm-81.2,77.05c4.52,1.4,8.61,2.78,12.77,3.84.86.22,2.64-.58,2.89-1.3.29-.84-.32-2.63-1.08-3.08-3.7-2.19-7.58-4.06-11.82-6.27-.96,2.38-1.77,4.37-2.76,6.81Zm240.21-6.85c-4.28,2.24-8.06,4.09-11.66,6.21-.83.49-1.69,2.13-1.45,2.89.27.81,1.98,1.86,2.78,1.67,4.29-1.07,8.49-2.49,13.06-3.89-1.01-2.53-1.77-4.44-2.73-6.87Zm-79.5,174.88c-1.62-3.89-3.03-7.7-4.82-11.31-.45-.92-2.11-1.24-3.21-1.83-.5,1.01-1.47,2.04-1.41,3.02.12,2.37.66,4.73,1.14,7.06,1.18,5.72,2.41,6.25,8.31,3.06Zm-163.25-157.98c-3.83,5.45-3.26,7.08,2.6,8.01,2.36.38,4.69,1.01,7.06,1.17,1.16.08,2.37-.67,3.55-1.04-.7-1.17-1.12-2.9-2.15-3.42-3.47-1.76-7.17-3.1-11.07-4.72Zm246.64,33.61c.92.12,2.46.28,3.99.51,2.56.38,3.19-1.09,3.23-3.23.04-2.03-.24-3.79-2.9-3.54-3.64.35-7.29.61-10.89,1.23-.91.16-1.61,1.52-2.41,2.33.81.78,1.52,2.04,2.46,2.25,1.89.44,3.91.31,6.5.44Zm-136.57,122.44h-.05c0-1.68.24-3.41-.08-5.03-.23-1.17-1.22-2.19-1.87-3.27-.95.83-2.37,1.48-2.74,2.52-1.03,2.89-1.79,5.91-2.32,8.93-.21,1.18.11,3.28.83,3.63,1.48.71,3.46.87,5.09.53.6-.12.91-2.27,1.1-3.54.18-1.23.04-2.52.04-3.78Zm87.84-206.93c1.55-.92,2.22-1.18,2.71-1.63,2.36-2.21,4.68-4.46,6.99-6.71,1.99-1.94,1.71-4.12-.5-5.2-1.32-.65-4.15-.43-4.96.54-2.23,2.63-3.94,5.78-5.43,8.92-.41.87.67,2.45,1.18,4.09Zm-113.12-36.91c1.53,3.75,2.81,7.34,4.48,10.74.54,1.1,2.08,1.7,3.17,2.53.58-1.39,1.62-2.77,1.64-4.16.02-2.07-.69-4.15-1.09-6.23-1.11-5.84-2.46-6.37-8.2-2.88Zm42.51-1.54c0-.28.42-1.89-.12-3.05-.52-1.12-2.02-2.45-3.11-2.47-1.1-.02-3.17,1.42-3.19,2.27-.11,3.64.24,7.32.76,10.94.14.97,1.49,1.77,2.29,2.65.88-.96,2.22-1.79,2.54-2.91.57-2,.52-4.18.84-7.43Zm-113.33,56.45c-1.07,2.01-2.51,3.86-2.88,5.9-.12.69,2.42,2.01,3.87,2.79,1.97,1.06,4.01,2.09,6.15,2.71,1.22.36,2.68-.11,4.03-.2-.53-1.4-.66-3.23-1.65-4.1-2.71-2.38-5.77-4.36-9.52-7.1Zm149.36-55.1c-6.42-3.17-7.28-2.78-8.47,3.46-.42,2.2-1.02,4.42-1.04,6.63-.01,1.12,1.09,2.25,1.69,3.37,1.03-.67,2.56-1.1,3.02-2.05,1.76-3.64,3.18-7.45,4.81-11.41Zm-165.94,150.69c.18,1.28.33,2.08.41,2.89.32,3.33,1.46,4.95,5.1,3.07,2.35-1.21,5.07-1.7,7.44-2.87,1.17-.58,1.92-1.99,2.86-3.03-1.23-.6-2.5-1.77-3.68-1.69-3.89.27-7.75,1.01-12.13,1.63Zm2.28-35.44c-1.61.08-3.05-.26-3.49.25-.93,1.09-1.79,2.62-1.82,3.99-.02.89,1.47,2.6,2.27,2.6,3.79-.03,7.58-.42,11.34-.93.86-.12,2.29-1.37,2.21-1.9-.16-.98-1.1-2.4-1.96-2.61-2.99-.73-6.09-1.02-8.55-1.39Zm2.88,52.77c.62,1.91.85,3.51,1.64,4.74.58.89,2.33,2.08,2.85,1.8,3.69-1.97,7.24-4.21,10.7-6.56.52-.35.74-1.92.4-2.55-.34-.63-1.66-1.27-2.35-1.1-4.33,1.06-8.6,2.35-13.23,3.67Zm246.22-80.18c-4.63,1.87-8.45,3.25-12.09,4.99-.95.45-1.47,2-1.91,3.15-.07.18,1.42,1.43,2.08,1.34,4.53-.59,9.03-1.4,13.86-2.19-.74-2.78-1.3-4.88-1.95-7.3Zm-15.46,104.93c-4.13-2.43-7.54-4.63-11.15-6.44-.92-.46-2.46.3-3.71.5.31,1.19.24,2.78.99,3.5,2.92,2.74,6.1,5.19,9.62,8.12,1.26-1.68,2.54-3.41,4.24-5.68ZM226.9,50.23c1.45,4.45,2.69,8.59,4.22,12.63.28.73,1.72,1.41,2.61,1.4.57,0,1.63-1.37,1.59-2.08-.27-4.55-.79-9.08-1.25-13.89-1.92.4-3.27.65-4.6.97-.67.16-1.29.48-2.57.96Zm-25.21,241.62c4.94,4.62,5.92,4.42,8.15-1.76.81-2.24,1.69-4.5,2.12-6.83.2-1.07-.62-2.32-.98-3.5-1.11.52-2.67.75-3.24,1.62-2.19,3.38-4.06,6.96-6.04,10.46Zm15.37,6.02c.89-4.1,1.84-7.9,2.45-11.74.15-.95-.79-2.08-1.23-3.12-1.01.54-2.4.82-2.95,1.66-1.3,1.98-2.17,4.23-3.26,6.34-2.98,5.76-2.04,7.13,4.99,6.86Zm18.28-7.78c-.23-.35-1-1.67-1.98-2.82-.11-.12-1.91.65-2.16,1.31-1.46,3.78-2.9,7.6-3.76,11.53-.14.64,2.56,2.22,4.15,2.76.64.22,2.51-1.08,2.66-1.91.58-3.15.69-6.38,1.09-10.88Zm-88.36-147.92c.11-.08,1.29-.59,1.81-1.47.32-.54-.09-2.19-.61-2.45-3.66-1.81-7.36-3.62-11.23-4.82-.73-.22-2.59,2.16-3.35,3.64-.31.6.76,2.71,1.52,2.9,3.53.91,7.17,1.38,11.86,2.2Zm.71-35.69c4.45,2.4,7.69,4.34,11.11,5.88,1.09.49,2.66-.06,4.01-.14-.49-1.38-.66-3.02-1.54-4.09-1.21-1.48-2.88-2.6-4.46-3.74-1.46-1.06-3.45-3.02-4.51-2.65-1.72.61-2.87,2.82-4.61,4.74Zm21.32-1.26c-1.06-1.49-1.39-2.13-1.88-2.6-2.51-2.48-5.09-4.88-7.57-7.39-1.66-1.67-3.3-1.31-4.04.52-.63,1.56-1.07,4.46-.26,5.13,2.8,2.28,6.09,4.03,9.4,5.54.94.43,2.57-.66,4.35-1.2Zm202.05,132.19c-3.84-1.76-7.7-3.65-11.68-5.25-.87-.35-2.15.33-3.24.54.33,1.17.3,2.72,1.06,3.44,1.81,1.72,3.98,3.06,6.03,4.53,4.87,3.48,5.44,3.27,7.83-3.26Zm-41.04-167.91c-2.48,4.46-4.85,8.7-7.11,12.77,1.9,2.52,3.44,2.17,5.05.29,1.36-1.59,2.77-3.16,4.28-4.62,4.68-4.53,4.4-5.88-2.21-8.44Zm-17.02,222.55c-1.98-3.48-3.86-7.07-6.04-10.46-.6-.94-2.07-1.31-3.14-1.95-.4,1.32-1.29,2.73-1.08,3.95.39,2.32,1.36,4.55,2.19,6.79,2.2,5.91,3.03,6.08,8.07,1.67Zm-94.88,6.48c5.16,3.57,6.89,2.96,8.07-2.52.5-2.33,1.14-4.68,1.25-7.04.05-1.14-.98-2.33-1.52-3.49-1.06.67-2.62,1.1-3.1,2.06-1.74,3.5-3.11,7.17-4.71,10.99Zm154.48-140.41c4.16-.39,7.09-.67,10.02-.93,2.12-.19,3.59-.89,2.82-3.43-.61-2-.88-4.32-4.07-3.24-2.78.94-5.71,1.48-8.43,2.55-1.32.52-2.32,1.84-3.47,2.8,1.29.93,2.58,1.86,3.13,2.26ZM243.36,55.16s-.01,0-.02,0c0-1.68.36-3.48-.11-5.01-.39-1.25-1.83-3.11-2.73-3.06-2.04.1-4.98.39-4.37,3.71.66,3.57,1.64,7.11,2.76,10.57.24.74,1.74,1.61,2.52,1.5.74-.11,1.72-1.37,1.86-2.24.29-1.78.09-3.63.09-5.46Zm1.95,244.98c-.39,3.54.57,5.26,3.49,5.36,3.28.11,3.57-2.1,3.36-4.55-.24-2.79-.47-5.6-.97-8.35-.19-1.06-1.1-2-1.69-2.99-.93.89-2.39,1.62-2.7,2.69-.81,2.82-1.12,5.77-1.49,7.84Zm-102.52-184.24c-.89,1.76-2.37,3.58-2.55,5.52-.07.79,2.57,2.03,4.12,2.73,2.29,1.03,4.67,1.99,7.11,2.53,1.05.23,2.36-.65,3.55-1.03-.54-1.07-.8-2.54-1.67-3.14-3.18-2.22-6.57-4.15-10.57-6.62Zm14.51,142.09c1.31-1,2.14-1.52,2.85-2.18,2.16-2.03,4.39-4.01,6.36-6.22.77-.87.92-2.31,1.35-3.48-1.37-.13-3.02-.81-4.07-.29-2.89,1.43-5.6,3.27-8.23,5.16-.78.56-1.68,2.13-1.4,2.74.68,1.54,2,2.79,3.15,4.28Zm140.38,40.1c7.3-.42,7.82-1.32,4.62-7.47-.85-1.63-1.4-3.45-2.5-4.88-.88-1.14-2.37-1.81-3.6-2.69-.33,1.36-1.12,2.8-.92,4.08.56,3.59,1.53,7.12,2.4,10.96Zm-45.83-244.87c.04-.38.15-1.49.3-2.6.32-2.52-.39-4.03-3.31-4.05-2.99-.03-4.09,1.29-3.63,4.14.45,2.76.72,5.57,1.44,8.26.3,1.12,1.57,1.98,2.39,2.96.78-1.12,1.86-2.14,2.27-3.38.47-1.42.34-3.04.54-5.32Zm36.08,248.28c-1.47-4.26-2.69-8.11-4.17-11.86-.38-.97-1.57-1.62-2.39-2.42-.68,1.08-1.98,2.18-1.93,3.22.18,4.16.78,8.31,1.28,13.03,2.57-.7,4.63-1.26,7.21-1.97Zm73.23-48.31c-.42-.74-.57-1.39-.97-1.65-3.34-2.1-6.65-4.25-10.14-6.07-.76-.39-2.41.21-3.19.89-.38.33-.06,2.2.53,2.81,2.35,2.44,4.85,4.75,7.45,6.91.83.68,2.61,1.37,3.19.96,1.29-.91,2.1-2.51,3.13-3.86Zm-213.21-7.79c1.63,2.34,2.87,4.1,4.16,5.95,3.59-2.97,6.8-5.46,9.78-8.2.73-.67.74-2.13,1.08-3.23-1.21-.29-2.71-1.19-3.59-.78-3.66,1.73-7.14,3.86-11.43,6.26Zm-16.48-43.69c4.77-1.41,8.56-2.42,12.25-3.72.67-.24,1.44-1.86,1.21-2.52-.24-.72-1.58-1.49-2.46-1.51-3.49-.06-6.99.2-10.49.29-2.07.05-3.39.87-2.73,3.06.47,1.56,1.47,2.96,2.22,4.4Zm235.1-57.6c.59-.63,1.18-1.27,1.77-1.9,3.3-.69,6.62-1.3,9.89-2.09,1.07-.26,2.91-1.01,2.88-1.46-.08-1.61-.53-3.38-1.43-4.69-.4-.59-2.32-.6-3.31-.23-3.15,1.18-6.25,2.55-9.24,4.09-.77.4-1.48,1.67-1.51,2.56-.04,1.23.6,2.48.94,3.72Zm-104.03,156.04c.01,2.47-.75,5.53,3.35,5.3,3.63-.21,3.7-2.89,3.34-5.56-.34-2.51-.69-5.05-1.45-7.45-.34-1.07-1.68-1.83-2.57-2.73-.64.95-1.65,1.84-1.85,2.88-.48,2.48-.57,5.03-.81,7.57Zm120.37-98.63c.77-1.21,2.2-2.65,2.52-4.3.15-.77-1.72-2.66-2.86-2.83-3.33-.49-6.75-.51-10.12-.41-.99.03-1.95,1.09-2.92,1.69.68.92,1.18,2.35,2.07,2.66,3.32,1.16,6.77,1.95,11.31,3.19Zm-14.88,7.79c-.71.5-1.77.94-2.29,1.73-.31.47,0,1.99.43,2.18,3.82,1.75,7.66,3.51,11.65,4.75.76.24,2.59-1.63,3.21-2.88.28-.57-.97-2.63-1.88-2.93-3.46-1.15-7.07-1.86-11.11-2.85Zm-88.82-147.9c.29.52.98,1.75,1.67,2.98,1.08-1.03,2.59-1.87,3.15-3.13,1.27-2.81,2.03-5.85,3.06-8.77.98-2.76-.93-3.05-2.81-3.46-1.93-.43-3.63-.79-3.82,2.15-.2,3.08-.74,6.15-1.26,10.23Zm-131.06,146.43c-.6.57-1.19,1.13-1.79,1.7-3.43.79-6.84,1.66-10.3,2.32-2.36.45-3.1,1.46-2.23,3.8.81,2.19,1.93,3.49,4.38,2.42,3.1-1.35,6.21-2.68,9.2-4.25.75-.39,1.37-1.64,1.45-2.54.09-1.12-.44-2.3-.71-3.45Zm-5.13-49.93c.25-.2,1.41-.74,1.95-1.65.29-.48-.31-2.19-.81-2.34-4.01-1.18-8.05-2.36-12.17-2.93-.81-.11-2.24,2.27-2.82,3.72-.17.44,1.48,2.24,2.44,2.38,3.45.5,6.96.55,11.41.83Zm126.43-107.33c.28-2.61-.47-4.02-3.44-4-2.84.02-3.81,1.24-3.49,3.91.35,2.94.47,5.92,1.01,8.83.18.96,1.36,1.74,2.09,2.6.74-.72,1.93-1.33,2.14-2.18.75-3,1.16-6.09,1.7-9.15Z"/><path class="cls-1" d="m1.25,454.55c0-1.69.15-2.97-.03-4.2-.65-4.37.66-7.04,5.55-7.08,3.04-.02,3.85-1.66,3.83-4.65-.15-18.22-.09-36.44-.1-54.66,0-1.94.34-3.74-2.53-4.43-7.06-1.7-7.02-1.86-6.75-9.33.02-.56.12-1.11.21-1.86.64-.18,1.28-.51,1.93-.51,14.12.06,28.25-.06,42.36.39,4.41.14,8.96,1.37,13.13,2.95,8.46,3.19,12.93,9.64,13.51,18.73.53,8.31-2.83,14.48-10.06,18.58-.35.2-.62.54-1.34,1.18,6.47,2.04,11.07,5.77,13.37,12.09,4.41,12.09-1.25,25.62-13.29,29.98-4.95,1.79-10.43,2.74-15.7,2.9-13.83.41-27.68.18-41.52.19-.68,0-1.36-.14-2.58-.27Zm26.94-37.82v24.06c7.27,0,14.34.59,21.25-.18,6.1-.68,8.86-5.14,8.79-11.57-.07-6.88-3-11.65-8.74-12.16-6.96-.62-14.01-.15-21.3-.15Zm-.26-12.93c6.17,0,11.82.47,17.37-.12,6.51-.69,9.71-4.95,9.59-11.28-.11-6-3.43-9.9-9.87-10.68-4.74-.57-9.58-.5-14.37-.46-.91,0-2.58,1.16-2.6,1.82-.19,6.88-.12,13.76-.12,20.73Z"/><path class="cls-1" d="m223.09,361.43v33.69c4.16-2.07,7.76-4.79,11.76-5.68,11.39-2.53,21.39,3.02,25.77,14.23,4.68,11.97,5.14,24.34.78,36.52-6.03,16.82-25.19,20.94-37.84,8.37-.26-.26-.69-.35-1.05-.53q-2.44,6.68-10.1,6.68c-1.96,0-3.92,0-6.39,0-.09-1.92-.22-3.55-.23-5.19-.03-23.75-.12-47.51.03-71.26.02-3.54-.91-5.16-4.52-5.48-1.62-.14-4.28-1.06-4.51-2.06-.59-2.67-.18-5.58,0-8.39.02-.34,1.12-.85,1.72-.86,8.02-.06,16.05-.04,24.55-.04Zm.14,60.97h.05c0,3.24,0,6.49,0,9.73-.01,5.38,2.03,8.21,6.94,9.58,6.01,1.68,11.8.24,13.77-4.34,4.33-10.07,4.08-20.38-.62-30.28-2.06-4.33-7.72-5.73-13.06-4.1-4.71,1.44-7.06,4.65-7.07,9.67,0,3.25,0,6.49,0,9.74Z"/><path class="cls-1" d="m143.86,454.73c-6.56,0-12.63.35-18.61-.24-1.54-.15-2.77-3.28-4.37-5.32-.31.21-1.12.66-1.82,1.24-7.33,6.09-15.65,6.9-24.32,3.98-7.47-2.51-11.54-9.18-11.49-17.53.05-8.01,4.01-14.24,12.14-16.39,6.59-1.75,13.6-2.36,20.45-2.56,4.37-.13,5.34-1.66,4.96-5.47-.39-3.92-.9-7.77-5.04-9.53-4.52-1.92-9.17-1.8-13.47.56-1.03.56-1.57,2.55-1.76,3.96-.36,2.61-1.54,3.45-4.17,3.49-9.63.15-9.45.24-9.7-9.56-.1-3.62,1.07-5.71,4.26-7.29,9.58-4.76,19.5-6.53,29.98-3.91,11.4,2.86,17.14,10.09,17.34,21.93.15,8.9.07,17.8.05,26.7,0,2.63-.16,5.16,3.6,5.37.7.04,1.8,1.38,1.88,2.2.24,2.62.09,5.27.09,8.37Zm-29.68-27.44c-.07-.23-.13-.46-.2-.69-3.31.98-6.85,1.51-9.85,3.06-3.14,1.62-4.17,4.85-3.18,8.4.99,3.54,3.75,5.24,7.03,4.78,3.5-.48,7.03-1.68,10.21-3.24,2.43-1.19,3.75-9.03,2.31-11.24-.37-.57-1.36-.94-2.11-1.03-1.39-.16-2.81-.05-4.22-.05Z"/><path class="cls-1" d="m328.85,427.46c-6.67,0-13.02,0-19.37,0s-12.38,0-18.55,0c-.1,8.44,5.2,14.48,12.94,14.83,3.21.14,6.52-.18,9.66-.87,3.12-.69,6.09-2.1,9.66-3.39,1.28,2.85,2.74,5.71,3.78,8.71.26.76-.54,2.45-1.32,2.91-11.65,6.86-24.05,8.65-36.48,3.03-11.64-5.26-16.17-15.54-16.57-27.9-.35-11.15,1.71-21.48,10.51-29.26,8.88-7.85,19.31-8.35,29.85-4.72,9.98,3.44,14.66,11.6,15.79,21.7.53,4.71.09,9.53.09,14.95Zm-37.71-11.86h20.43c.88-7.99-2.51-12.9-8.97-13.35-6.65-.47-11.4,4.98-11.46,13.35Z"/><path class="cls-1" d="m388.81,424.22c.28-14.32,3.63-25.23,15.16-31.75,19.4-10.97,42.63.68,45.42,22.73,1.29,10.18.49,20.08-5.73,28.81-7.71,10.82-18.77,13.05-30.88,11.09-11.73-1.9-19.04-9.39-22.24-20.69-1.11-3.9-1.38-8.04-1.73-10.18Zm44.41-2.03c-1.14-4.55-1.87-9.31-3.57-13.7-1.73-4.48-5.71-6.41-10.54-6.33-4.85.08-8.48,2.3-10.31,6.77-3.57,8.73-3.54,17.61-.15,26.39,1.82,4.71,5.57,6.93,10.58,7,5,.06,8.98-2,10.69-6.74,1.5-4.18,2.17-8.66,3.29-13.39Z"/><path class="cls-1" d="m460.92,432.82c3.65,0,6.9-.3,10.05.16,1.12.17,2.46,2.05,2.85,3.4.94,3.27,1.85,6.17,5.9,6.74,5.12.72,10.24,1.38,14.55-2.25,2.69-2.26,2.33-6.8-.86-8.79-2.7-1.68-5.88-2.64-8.93-3.68-4.54-1.54-9.28-2.52-13.69-4.35-6.59-2.74-10.92-7.5-10.91-15.14,0-7.9,3.89-13.76,10.78-16.87,12.74-5.75,25.37-3.88,37.43,2.48,1.15.61,1.95,2.6,2.19,4.06.38,2.34.28,4.79.15,7.19-.11,2-.28,5.59-.91,5.7-3.26.58-6.71.5-10.02.07-.72-.1-1.43-2.56-1.62-4.01-.67-5.15-4.62-6.04-8.57-6.59-4.44-.62-8.92-.46-11.79,3.81-1.97,2.94-.78,6.84,2.72,8.55,2.38,1.17,5.05,1.73,7.6,2.52,4.84,1.51,9.91,2.49,14.5,4.57,13.14,5.96,14.42,21.74,2.66,30.06-10.96,7.75-32.71,6.64-42.71-2.21-.59-.52-1.3-1.31-1.32-1.99-.12-4.33-.06-8.66-.06-13.44Z"/><path class="cls-1" d="m364.7,398.5c4.16-6.6,8.7-10.38,15.85-9.73,2.71.25,3.71,1.2,3.23,4-.69,4.01-1.05,8.07-1.6,12.42-2.82,0-5.35-.12-7.86.02-6.48.38-9.41,3.5-9.41,9.89,0,7.91-.08,15.83.13,23.73.03,1.32,1.03,3.37,2.09,3.78,6.37,2.49,6.43,2.36,6.17,9.27-.03.69-.15,1.37-.26,2.39h-33.93c0-2.77-.28-5.59.15-8.28.16-.98,1.97-2.32,3.12-2.42,4.38-.38,5.35-2.62,5.23-6.72-.29-10.31-.03-20.63-.23-30.94-.03-1.38-1.17-3.58-2.3-3.97-7.77-2.74-7.88-2.73-6.42-11.71h24.76c.36,2.29.73,4.7,1.28,8.26Z"/><path class="cls-1" d="m150.7,390.09c7.61,0,15.33-.07,23.05.11.72.02,1.72,1.5,2.01,2.48.46,1.53.43,3.21,1.04,5.22,4.5-7.05,10.26-10.65,19.14-8.16-.52,4.59-.94,9.18-1.64,13.72-.11.73-1.37,1.65-2.22,1.81-1.5.29-3.09.01-4.64.05-7.69.17-10.59,3.14-10.6,10.85,0,7.63.03,15.25,0,22.88,0,1.95.02,3.83,2.63,3.91,5.28.16,6.55,3.2,5.78,7.82-.18,1.09-.15,2.21-.23,3.63h-33.9c0-2.75-.33-5.59.17-8.27.2-1.06,2.17-2.31,3.49-2.52,3.55-.57,4.84-2.1,4.74-5.85-.28-10.59-.03-21.18-.23-31.77-.03-1.37-1.2-3.56-2.33-3.93-7.57-2.52-7.88-2.87-6.28-11.97Z"/><path class="cls-1" d="m282.24,218.74c3.19-3.74,5.77-7.7,9.21-10.65,11.1-9.48,27.9-8.04,37.4,2.82,10.02,11.46,9.17,28.57-1.92,38.57-11.21,10.12-28.21,9.79-38.06-1.49-8.64-9.89-16.44-20.5-24.62-30.79-1.91-2.4-3.84-4.79-6.08-7.59-5.53,7.02-10.75,13.64-15.97,20.26-4.2,5.33-8.33,10.71-12.6,15.99-8.11,10.03-20.19,13.44-31.48,8.98-11.03-4.35-18.32-15.6-17.49-26.99.92-12.55,9.43-22.65,21.39-25.4,11.86-2.72,23.62,2.73,30.09,13.95.42.73.82,1.47,1.6,2.88,5.21-6.65,10.29-12.97,15.09-19.49.47-.63-.52-2.79-1.34-3.84-13.04-16.72-26.16-33.37-39.25-50.04-8.47-10.78-16.95-21.55-25.38-32.36-3.32-4.26-3.15-8.18.3-10.73,3.17-2.35,7.02-1.43,10.21,2.62,21.05,26.78,42.07,53.57,63.11,80.36.43.55.89,1.08,1.69,2.04,1.09-1.26,2.11-2.34,3.02-3.5,20.55-26.27,41.05-52.58,61.71-78.77,1.43-1.81,3.96-3.73,6.04-3.79,2.05-.06,5.19,1.74,5.96,3.54.85,1.98.35,5.48-.97,7.29-6.76,9.23-13.96,18.14-21.02,27.15-15,19.13-30.01,38.26-45.01,57.39-.34.44-.61.93-1.16,1.78,5.22,6.66,10.49,13.37,15.54,19.82Zm26.24,24.86c7.83.09,14.14-5.95,14.31-13.7.17-7.95-6.43-14.67-14.41-14.67-7.76,0-14.05,6.24-14.09,13.95-.04,7.86,6.32,14.33,14.2,14.42Zm-86.41-14.15c-.01-8.07-6.11-14.19-14.16-14.22-7.77-.02-14.14,6.49-14.07,14.38.07,7.85,6.16,13.98,13.93,14,7.86.03,14.32-6.36,14.3-14.17Z"/></svg>