<?xml version="1.0" encoding="UTF-8"?><svg id="Capa_1" xmlns="http://www.w3.org/2000/svg" viewBox="0 0 512 512"><defs><style>.cls-1{fill:#fdfdfd;}</style></defs><path class="cls-1" d="m255.33,359.49c84.19,0,168.38,0,252.57.03,1.08,0,2.9-.75,3.17.6.41,2.05.04,4.26-.08,6.4,0,.13-.73.3-1.12.32-.86.05-1.73.02-2.6.02-168.16,0-336.33-.01-504.49.09-3.13,0-3.43-1.03-3.38-3.61.05-2.47-.14-3.97,3.37-3.97,84.19.12,168.38.1,252.57.1v.02Z"/><path class="cls-1" d="m255.36,172.46c-84.19,0-168.37,0-252.56-.04-1.08,0-2.9.76-3.17-.56-.41-2.05-.1-4.27.09-6.41.05-.59.92-.31,1.42-.33.97-.04,1.95,0,2.92,0,167.72,0,335.45,0,503.17.03,1.32,0,3.41-.79,3.84.58.59,1.86.19,4.07.09,6.12-.03.63-.76.62-1.3.62-.76,0-1.51,0-2.27,0-84.08,0-168.16,0-252.24,0Z"/><path class="cls-1" d="m228.07,258.14c-14.06-.07-28.12-.13-42.18-.2-1.88,0-2.86,1.12-3.64,2.66-2.08,4.13-4.27,8.2-6.31,12.35-.94,1.91-2.09,2.92-4.42,2.83-2.19-.09-4.41-.12-6.66.26-1.44.24-2.02-1.46-1.17-3.35,2.08-4.59,4.78-8.82,7.04-13.3,4.16-8.25,8.3-16.51,12.56-24.71,4.59-8.83,9.26-17.61,14.01-26.35,1.1-2.03,1.8-4.22,3.15-6.18,1.33-1.94,2.01-3.95,5.08-3.84,3.62.13,6.98.52,8.81,3.98,5.08,9.59,9.95,19.3,14.97,28.92,5.09,9.76,10.29,19.47,15.4,29.23,1.89,3.61,3.72,7.26,5.48,10.94,1.53,3.2.81,4.25-2.64,4.35-1.46.04-2.88.12-4.38.47-3.07.72-4.24-1.82-5.39-4.16-2.12-4.33-4.35-8.6-6.59-12.87-.14-.26-.73-.28-1.11-.41-.44-.94-.96-1.65-2.01-.62Zm-2.43-10.39c-5.76-11.12-11.39-22.01-17.03-32.89-.37-.71-.68-1.91-1.19-2.01-1.22-.24-1.35,1.15-1.75,1.93-4.46,8.7-8.85,17.44-13.31,26.13-1.13,2.2-2.53,4.26-3.26,6.84h36.54Z"/><path class="cls-1" d="m152.91,276.35c-4.82-.01-7.79-2.34-9.83-8.25-1.01-2.91-2.81-5.37-4-8.17-.59-1.39-1.94-1.98-3.69-1.97-13.85.06-27.7,0-41.56-.02-1.82,0-3.43.3-4.15,2.31-1.66,4.65-5.1,8.35-6.83,12.96-.69,1.84-1.85,2.7-3.88,2.53-1.72-.15-3.46-.01-5.19-.03-3.07-.04-3.67-.91-2.27-3.69,3.54-7.01,7.17-13.98,10.78-20.96,4.19-8.12,8.38-16.24,12.59-24.35,4.6-8.86,9.2-17.71,13.84-26.55.42-.81.97-1.53,2.11-1.74,5.71-1.06,9.35.85,12.07,6.1,9.52,18.42,19.13,36.8,28.66,55.21,2.02,3.9,3.9,7.88,5.85,11.82,1.7,3.44,1.24,4.32-2.55,4.79-.64.08-1.3.01-1.95.01Zm-56.77-28.71h36.72c-6.09-11.89-12.06-23.55-18.29-35.69-6.25,12.1-12.23,23.69-18.43,35.69Z"/><path class="cls-1" d="m446.32,241.31c8.87-6.51,16.85-14.06,25.02-21.39,5.95-5.34,12.25-10.29,18.39-15.42.33-.28.73-.52.97-.86,4.17-5.75,10.24-5.54,16.34-5.26,1.03.05,1.97.2,2.21,1.39.18.89-.05,1.62-.82,2.28-9.64,8.14-19.26,16.32-28.88,24.49-.16.14-.36.27-.46.46-1.26,2.49-5.83,2.78-5.21,5.85.46,2.31,3.13,4.23,4.96,6.19,4.04,4.35,8.17,8.61,12.24,12.93,6.41,6.82,12.81,13.65,19.2,20.49.53.57,1.4.99.55,2.12-.57.75-.73,1.7-1.95,1.78-5.27.36-10.16-.25-14.13-4.32-5.4-5.54-10.6-11.27-15.99-16.8-4.17-4.28-8.26-8.8-12.13-13.42-1.41-1.68-2.73-1.56-4.36-.14-4.85,4.24-9.81,8.33-14.69,12.54-1.36,1.17-1.68,2.84-1.67,4.58.02,4.44.02,8.88.02,13.31,0,3.32-.87,4.21-4.16,4.24-.87,0-1.73,0-2.6,0-3.4-.03-4.89-1.33-4.52-4.62.98-8.62.36-17.26.44-25.88.13-14.4.09-28.8-.02-43.19-.02-2.66.42-3.79,3.47-3.72,7.37.18,7.37.01,7.37,7.46,0,11.58,0,23.17,0,34.75-.04.18-.15.49-.09.52.38.22.42-.11.5-.36Z"/><path class="cls-1" d="m264.33,198.4c4.37-.45,8.09,1.51,11.04,4.83,7.06,7.96,14.17,15.87,21.55,23.54,1.49,1.55,2.61,1.86,3.77-.03,2.33-3.79,5.89-6.48,8.75-9.8,4.75-5.52,10.02-10.62,14.66-16.26,1.53-1.86,3.29-2.47,5.59-2.32,2.15.14,4.33-.11,6.48.06,2.06.17,3.02,1.26,1.41,3.1-3.75,4.29-7.56,8.54-11.42,12.73-6,6.51-12.04,12.99-18.13,19.42-1.88,1.98-1.67,3.66.1,5.53,6.89,7.28,13.88,14.47,20.55,21.94,3.23,3.61,6.59,7.07,10,10.49.85.85,1.34,1.71,1.03,2.83-.37,1.36-1.55,1.21-2.63,1.22-1.8.02-3.55.02-5.36.56-2.96.89-5.05-1.26-6.83-3.08-4.8-4.89-9.49-9.9-13.98-15.06-3.65-4.19-7.89-7.84-11.07-12.45-.91-1.32-1.96-1.5-3.14-.14-4.43,5.06-9.61,9.47-13.3,15.2-.65,1.01-1.97,1.57-2.84,2.48-3.04,3.17-6.16,6.28-8.97,9.65-2.27,2.72-5.04,3.4-8.26,2.92-2.22-.33-5.37,1.45-6.45-1.22-.87-2.16,2.17-3.34,3.54-4.86,6.75-7.48,13.65-14.81,20.38-22.3,2.58-2.87,5.03-5.85,7.83-8.53,1.59-1.53,1.76-3.05,0-4.97-7.19-7.82-14.8-15.26-21.6-23.46-2.1-2.53-4.37-5.01-6.63-7.44-.89-.96-2.47-1.68-1.68-3.47.78-1.77,2.41-.92,3.69-1.12.53-.08,1.08-.01,1.91-.01Z"/><path class="cls-1" d="m248.19,295.69c-58,0-116.01,0-174.01.02-2.09,0-3.96-.02-3.92-2.85.04-2.96,2.29-2.04,3.78-2.04,115.03-.04,230.06-.03,345.1-.03,1.3,0,2.62.14,3.89-.03,2.1-.28,3.13.11,3.22,2.62.09,2.69-1.44,2.32-3.08,2.32-58.33,0-116.65,0-174.98,0Z"/><path class="cls-1" d="m34.62,260.51c-.2-3.49.45-7.83-.41-12.08-.95-4.68-4.66-7.75-7.35-11.36-8.82-11.83-17.87-23.48-26.81-35.22-1.3-1.7-.24-3.12,2.33-3.45,6.27-.81,10.97,1.62,14.39,6.79,6.78,10.25,14.54,19.77,21.8,29.66,1.88,2.56,2.54,1.31,3.64-.15,6.72-8.95,13.43-17.9,20.12-26.87,1.5-2.02,2.85-4.15,4.37-6.15,2.07-2.73,9.13-4.55,12.31-3.15,2.15.95,1.56,2.41.47,3.84-3.67,4.81-7.38,9.59-11.02,14.42-7.12,9.43-14.17,18.91-21.32,28.32-1.19,1.56-1.57,3.2-1.57,5.07.03,7.03.03,14.06,0,21.09-.01,3.85-.63,4.42-4.46,4.43q-6.5,0-6.5-6.6c0-2.6,0-5.19,0-8.59Z"/><path class="cls-1" d="m406.07,236.93c0-11.69.07-23.38-.05-35.07-.03-2.66.77-3.55,3.48-3.52,8.74.08,7.47-.19,7.47,7.54.02,21.43,0,42.86,0,64.3,0,.87.1,1.75-.03,2.59-.28,1.84-.76,3.07-3.29,3.03-7.44-.11-7.76.34-7.63-7.69.17-10.39.04-20.78.04-31.17Z"/><path class="cls-1" d="m379.72,213.31c0-3.78.08-7.57-.03-11.35-.06-2.17.64-2.99,2.95-3,7.22-.02,7.25-.12,7.39,7.04.09,4.64.03,9.29.17,13.93.07,2.11-.71,3.44-2.6,4.36-1.6.78-3.08,1.79-4.59,2.74-2.12,1.34-3.2.7-3.23-1.72-.05-4-.01-8-.01-12-.01,0-.03,0-.04,0Z"/><path class="cls-1" d="m251.75,317.19c-2.64,3.77-5.27,7.56-7.94,11.32-2.14,3.01-3.31,3.02-5.34.01-2.42-3.58-4.85-7.14-8.19-11.06,0,4.1,0,7.56,0,11.01,0,.86.03,1.74-.09,2.59-.13.89-.79,1.16-1.65,1.18-1.12.03-1.16-.67-1.16-1.47,0-5.73,0-11.46,0-17.2,0-.61-.23-1.52.73-1.42,1.14.12,2.38-.72,3.4.89,2.54,4,5.56,7.7,7.99,11.75,1.41,2.34,2.32,1.67,3.38.09,2.49-3.68,4.83-7.47,7.35-11.13.79-1.15,1.61-2.89,3.53-2.08,1.67.71,1.53,2.22,1.47,3.84-.18,4.75-.11,9.5-.14,14.25,0,1.04.29,2.42-1.32,2.42-1.59,0-1.32-1.28-1.3-2.39.04-4.14.02-8.28.02-12.41-.24-.06-.49-.12-.73-.18Z"/><path class="cls-1" d="m268.91,324.88c-1.62,0-3.24,0-4.86,0-.72,0-1.58-.29-2.03.53-.53.95.22,1.57.7,2.28,1.84,2.74,5.52,3.49,9.06,1.93,1.15-.51,2.65-2.57,3.59-.55,1.07,2.31-1.5,2.58-2.97,3.12-2.57.95-5.3,1.04-7.91.36-4.38-1.13-6.04-3.76-5.9-8.69.1-3.43,2.99-6.88,6.49-7.75,5.15-1.28,9.92,1.17,11.43,5.74.69,2.1.21,3.11-2.1,3.06-1.83-.04-3.67,0-5.51,0v-.03Zm4.99-2.36c-2.55-4.46-8.68-5.3-11.05-1.96-.64.9-1.29,1.98.76,1.97,3.29-.02,6.59,0,10.29,0Z"/><path class="cls-1" d="m123.41,315.61c-1.11,1.85-2.07,1.72-3.72.29-3.1-2.67-9.78-2.61-12.45-.27-2.49,2.19-4.32,6.09-2.3,10.03,1.9,3.71,6.4,5.39,10.68,4.43,1.78-.4,2.86-1.7,4.33-2.46,1.2-.62,2.26-1.06,3.08,0,1.17,1.5-.86,1.64-1.4,2.15-6.19,5.86-16.15,4.29-19.38-3.16-3.06-7.05,1.04-15.55,9.48-15.24,7.14.26,8.01.35,11.68,4.24Z"/><path class="cls-1" d="m342.57,324.48c0,1.08.02,2.16,0,3.24-.05,2.29,1.18,5.36-3.56,4.02-1.83-.52-4.04,1.23-6.38,1.22-3.84-.02-6.4-1.61-7.85-5.01-1.39-3.28-.9-6.7,1.2-9.28,2.16-2.64,5.56-3.24,8.97-2.51,1.88.4,3.6,1.55,5.72.55,1.18-.56,2,.21,1.99,1.63-.03,2.05,0,4.1,0,6.14h-.08Zm-9.32,5.78c3.93.01,6.47-2.25,6.52-5.79.05-3.46-2.58-5.87-6.44-5.9-3.95-.03-5.98,1.93-5.98,5.78,0,3.91,1.98,5.89,5.9,5.91Z"/><path class="cls-1" d="m386.11,324.38c0,1.4,0,2.8,0,4.2-.01,2.1.64,4.41-3.23,3.14-2-.65-4.25,1.33-6.72,1.26-3.69-.1-6.33-1.64-7.77-4.79-1.38-3.01-1.11-6.16.92-8.98,2.28-3.19,5.51-3.83,9.05-3.08,2.01.42,3.83,1.52,6.03.55,1.16-.51,1.73.36,1.72,1.55-.01,2.05,0,4.1,0,6.14Zm-9.32,5.88c3.93-.02,6.47-2.29,6.5-5.83.03-3.53-2.51-5.84-6.45-5.85-3.99-.02-5.96,1.91-5.97,5.8,0,3.92,1.99,5.9,5.92,5.89Z"/><path class="cls-1" d="m213.91,324.28c0,1.3-.03,2.59,0,3.89.05,2.31.87,4.99-3.4,3.51-1.98-.69-3.93,1.43-6.33,1.3-5.76-.31-9.09-3.86-8.56-9.81.42-4.7,5.16-8.1,10.16-7.16,2.21.42,4.27,1.53,6.67.66,1.31-.47,1.53.72,1.53,1.77,0,1.94,0,3.89,0,5.83-.03,0-.05,0-.08,0Zm-9.37,5.98c3.85.06,6.54-2.23,6.65-5.67.1-3.49-2.51-6-6.28-6.02-3.61-.02-6.77,2.77-6.7,5.91.07,3.13,2.91,5.72,6.34,5.78Z"/><path class="cls-1" d="m126.11,324.4c0-5.45,3.37-8.44,9.49-8.43,5.88.02,9.33,3.11,9.35,8.4.02,5.41-3.45,8.47-9.56,8.46-5.62-.01-9.28-3.35-9.28-8.43Zm15.59-.16c.03-3.94-1.71-5.62-5.86-5.66-4.02-.04-6.38,2-6.48,5.62-.1,3.52,2.48,6.04,6.18,6.07,4.5.03,6.12-1.55,6.15-6.02Z"/><path class="cls-1" d="m296.4,331.69c-3.55,1.1-5.27-.44-6.95-2.11-2.88-2.86-3.05-2.87-5.9.11-1.48,1.55-2.97,2.98-5.81,2.18,1.73-1.88,3.25-3.49,4.72-5.15,1.65-1.87,1.92-3.49-.42-5.26-1.75-1.32-3.37-2.96-4.52-5.23,2.35-.01,4.21.35,5.82,2.01,3.62,3.74,3.73,3.74,7.09,0,1.3-1.45,2.63-2.01,5.03-1.18-1.71,1.73-3.17,3.24-4.68,4.7-1.62,1.56-2.21,2.96-.05,4.66,1.84,1.45,3.45,3.19,5.66,5.27Z"/><path class="cls-1" d="m314.57,332.91c-4.23-.01-7.32-1.29-9.04-4.82-1.65-3.38-.98-6.67,1.46-9.29,2.62-2.81,6.14-3.48,9.87-2.6,1.21.28,2.4.73,3.55,1.21,1.01.43,1.6,1.23.94,2.31-.56.91-1.36.73-2.24.27-1.29-.68-2.49-1.44-4.11-1.48-3.14-.08-5.17,1-6.54,4.03-1.33,2.96.18,4.76,1.95,6.42,2.21,2.08,4.89,1.62,7.46.59.57-.23.95-.92,1.52-1.15.93-.37,1.75.04,2.1.95.38.96-.12,1.83-1.02,2.05-2.13.52-3.99,2.19-5.92,1.49Z"/><path class="cls-1" d="m347.51,324.36c0-.11-.01-.22,0-.32.28-2.42-.58-4.9.38-7.29,4.2.93,8.32-2.2,12.58-.14,2.44,1.18,3.42,3.22,3.6,5.64.2,2.68.05,5.39.03,8.09,0,.88-.05,1.85-1.26,1.86-1.21,0-1.57-.74-1.67-1.9-.23-2.74.47-5.48-.51-8.25-1.33-3.77-5.48-4.92-8.42-2.17-2.14,2-1.99,4.51-2.16,7.11-.11,1.75,1.48,5.01-1.52,4.94-2.21-.05-.64-3.24-1.08-4.98-.2-.81-.03-1.72-.03-2.58h.06Z"/><path class="cls-1" d="m176.21,324.31v-7.39c2.35.31,4.57-.58,6.81-.8,6.54-.63,10,1.43,9.56,8.39-.12,1.83-.06,3.67-.04,5.51.01,1.13.09,2.2-1.56,2.19-1.67,0-1.17-1.21-1.2-2.06-.05-1.94-.02-3.89-.02-5.84,0-3.77-1.59-5.47-4.79-5.79-4.03-.4-6.07,2.69-6.23,5.63-.1,1.94-.05,3.89,0,5.84.02,1.08-.2,2.02-1.4,2.15-1.53.16-1.32-1.06-1.33-2-.02-1.95,0-3.89,0-5.84.07,0,.15,0,.22,0Z"/><path class="cls-1" d="m157.37,332.82c-3.64.2-6.61-.93-8.52-3.97-2.1-3.33-1.57-6.63.6-9.78,3.1-4.49,10.99-3.64,14.06-1.07.39.32,1.26.71.38,1.42-.67.53-1.14,1.72-2.32.51-1.91-1.95-4.43-1.68-6.7-1.16-3.16.71-5.01,4.65-3.88,7.55,1.35,3.46,5.41,4.87,9.06,3.48,1.24-.47,2.9-3.09,3.94-.68.92,2.13-1.99,2.32-3.32,3.29-1.13.83-2.3.15-3.31.4Z"/><path class="cls-1" d="m298.98,324.19c0-1.93.02-3.87,0-5.8-.02-1.15.28-1.84,1.62-1.79,1.16.05,1.43.67,1.43,1.66-.01,3.97-.02,7.95,0,11.92,0,1.09-.24,1.94-1.5,2.04-1.4.1-1.53-.88-1.53-1.91-.01-2.04,0-4.08,0-6.12Z"/><path class="cls-1" d="m170.9,324.39c0,1.82-.02,3.65,0,5.47.02,1.34-.26,2.37-1.89,2.32-1.63-.05-1.08-1.32-1.1-2.15-.06-3.65-.05-7.3-.02-10.94,0-1.12-.34-2.54,1.58-2.46,1.96.07,1.35,1.57,1.4,2.62.07,1.71.02,3.43.02,5.15Z"/><path class="cls-1" d="m168.94,310.77c.87.09,2.04-.38,2,1.26-.03,1.31-.55,1.99-1.91,2-1.3,0-1.95-.53-2.02-1.89-.09-1.6,1.02-1.29,1.93-1.37Z"/><path class="cls-1" d="m300.36,313.37c-1.23.15-2.11-.2-2.13-1.61-.02-1.47,1.14-.89,1.84-.97,1.1-.12,2.12-.1,2.07,1.53-.04,1.45-1.04.96-1.78,1.05Z"/></svg>