<?xml version="1.0" encoding="UTF-8"?><svg id="Capa_1" xmlns="http://www.w3.org/2000/svg" viewBox="0 0 512 512"><defs><style>.cls-1{fill:#fff;}</style></defs><g><path class="cls-1" d="m-1.5,269.26v-47.31H7.16l14.86,40.31,14.86-40.31h8.53v47.31h-5.66v-40.45l-15.13,40.45h-5.26l-15.19-40.45v40.45H-1.5Z"/><path class="cls-1" d="m52.61,246.53v-1.87c0-14.06,8.6-23.52,21.92-23.52s21.86,9.46,21.86,23.52v1.87c0,13.99-8.53,23.52-21.86,23.52s-21.92-9.53-21.92-23.52Zm37.98,0v-1.87c0-11.13-6-18.46-16.06-18.46s-16.06,7.33-16.06,18.46v1.87c0,11.13,6,18.46,16.06,18.46s16.06-7.33,16.06-18.46Z"/><path class="cls-1" d="m103.65,269.26v-47.31h6.93l24.65,39.05v-39.05h5.6v47.31h-6.46l-25.12-39.85v39.85h-5.6Z"/><path class="cls-1" d="m147.29,269.26v-4.46l25.19-37.91h-23.92v-4.93h30.52v4.46l-25.12,37.91h25.52v4.93h-32.18Z"/><path class="cls-1" d="m220.05,269.26l-4.93-12.93h-21.46l-4.93,12.93h-5.73l18.46-47.31h6.13l18.46,47.31h-6Zm-24.52-17.79h17.72l-8.86-23.25-8.86,23.25Z"/><path class="cls-1" d="m244.44,269.26v-47.31h19.12c9.2,0,15.19,4.73,15.19,13.46v1.2c0,7.8-4.73,12.33-12.19,13.26l12.33,19.39h-6.53l-12.13-19.19h-10.13v19.19h-5.66Zm5.66-24.12h13.26c5.93,0,9.66-2.73,9.66-8.53v-1.2c0-5.8-3.73-8.53-9.66-8.53h-13.26v18.26Z"/><path class="cls-1" d="m284.88,269.26v-47.31h31.12v4.93h-25.45v15.73h23.45v4.93h-23.45v16.79h25.79v4.93h-31.45Z"/><path class="cls-1" d="m324,269.26v-47.31h6.93l24.65,39.05v-39.05h5.6v47.31h-6.46l-25.12-39.85v39.85h-5.6Z"/><path class="cls-1" d="m381.43,269.26v-42.38h-14.53v-4.93h34.78v4.93h-14.59v42.38h-5.66Z"/><path class="cls-1" d="m433.67,269.26l-4.93-12.93h-21.46l-4.93,12.93h-5.73l18.46-47.31h6.13l18.46,47.31h-6Zm-24.52-17.79h17.72l-8.86-23.25-8.86,23.25Z"/><path class="cls-1" d="m445.13,269.26v-47.31h5.66v42.38h20.86v4.93h-26.52Z"/><path class="cls-1" d="m474.32,254.53h5.73c.67,7.66,6.2,10.53,13.19,10.53,6.26,0,11.66-2.73,11.66-8.26v-.47c0-4.53-3.2-7-13.19-8.73-11.73-2-15.66-6.13-15.66-12.86v-.67c0-7.13,6.33-12.93,16.32-12.93,9.26,0,16.19,4.6,17.26,14.06h-5.73c-.8-6.13-5.2-9.13-11.53-9.13s-10.79,3-10.79,7.93v.47c0,4.4,2.73,6.66,12.06,8.2,11.13,1.8,16.86,5.6,16.86,13.33v.67c0,7.53-6.4,13.39-17.52,13.39s-18.12-5.33-18.66-15.53Z"/></g><g><path class="cls-1" d="m166.13,293.07h-8.17v-3.18h19.76v3.18h-8.17v37.84h-3.43v-37.84Z"/><path class="cls-1" d="m181.77,319.69v-29.79h3.43v29.98c0,5.67,2.68,8.35,6.73,8.35s6.61-2.68,6.61-8.35v-29.98h3.12v29.79c0,8.1-3.99,11.72-9.91,11.72s-9.97-3.62-9.97-11.72Z"/><path class="cls-1" d="m207.64,289.89h3.43v37.84h10.53v3.18h-13.96v-41.01Z"/><path class="cls-1" d="m224.72,319.69v-29.79h3.43v29.98c0,5.67,2.68,8.35,6.73,8.35s6.61-2.68,6.61-8.35v-29.98h3.12v29.79c0,8.1-3.99,11.72-9.91,11.72s-9.97-3.62-9.97-11.72Z"/><path class="cls-1" d="m250.59,289.89h5.61l7.42,34.47h.12l7.54-34.47h5.49v41.01h-3.37l.19-38.15h-.12l-8.54,38.15h-2.74l-8.54-38.15h-.12l.25,38.15h-3.18v-41.01Z"/><path class="cls-1" d="m293.35,289.89h5.61l7.42,34.47h.12l7.54-34.47h5.49v41.01h-3.37l.19-38.15h-.12l-8.54,38.15h-2.74l-8.54-38.15h-.12l.25,38.15h-3.18v-41.01Z"/><path class="cls-1" d="m332.81,310.03l-8.48-20.13h4.11l6.73,17.2,6.73-17.2h3.68l-8.48,20.07,8.73,20.94h-4.11l-6.92-17.83-7.04,17.83h-3.68l8.73-20.88Z"/></g></svg>