<?xml version="1.0" encoding="UTF-8"?><svg id="Capa_1" xmlns="http://www.w3.org/2000/svg" viewBox="0 0 512 512"><defs><style>.cls-1{fill:#fff;}</style></defs><path class="cls-1" d="m288.64,192.93c-.81,11.72-10.38,10.27-18.76,10.69.28.78.55,1.57.83,2.35,3.59-.25,7.18-.5,12.02-.84-1.28,4.1-2.15,7.93-3.8,11.4-.37.77-3.76.92-5.2.22-3.97-1.94-7.61-4.79-12.55-.05,5.21,1.11,10.41,2.21,16.24,3.45-6.35,11.36-15.96,16.65-26.8,22.75-.73-4.7-1.06-8.43-1.98-12-.35-1.37-2.06-2.4-3.15-3.58-.44,1.59-1.59,3.41-1.17,4.73.97,3.02,2.7,5.79,5.12,10.68-4.54-1.03-8.46-.8-10.35-2.64-2.26-2.2-3.81-6.18-3.81-9.39,0-3.95,1.93-7.9,3.03-11.85-.9-.7-1.8-1.41-2.69-2.11-3.46,5.06-6.92,10.12-10.38,15.18-.96-.9-1.92-1.8-2.88-2.7,3.5-4.03,6.99-8.07,10.95-12.63-1.94-.27-3.74,0-4.82-.76-2.78-1.95-6.41-3.87-7.61-6.68-2.78-6.56,1.34-15.55,7.4-18.9.74-.41.67-2.1,1.32-2.93,2.57-3.31,5.28-6.51,7.94-9.75.64.4,1.28.79,1.92,1.19-.39,3.11-1.22,6.24-1.03,9.31.19,3.04,1.43,6.02,2.2,9.03.74-.13,1.49-.27,2.24-.4-.53-2.69-.97-5.4-1.6-8.06-2.4-10.08.15-13.73,10.47-14.25-2.72,6.26-5.83,12.41-2.75,19.12.59.06,1.19.11,1.78.17.19-3.03-.04-6.16.66-9.07.87-3.6,1.66-8.94,4.06-10,2.74-1.22,7.56.77,10.81,2.57,4.65,2.57,8.66,6.29,13.01,9.43,3.05,2.2,6.22,4.23,9.33,6.33Zm-32.25-.3c1.12.31,2.23.62,3.35.93.99-4.18,1.99-8.35,2.98-12.53-.83-.24-1.66-.48-2.49-.71-1.28,4.1-2.56,8.21-3.84,12.31Zm4.29,38.81c.66-.51,1.32-1.02,1.98-1.54-2.33-2.99-4.67-5.98-7-8.97-.76.62-1.52,1.24-2.29,1.85,2.44,2.89,4.87,5.77,7.31,8.66Z"/><path class="cls-1" d="m326.28,328.83c-4.74,0-8.54.69-11.88-.25-2.11-.59-3.8-3.45-5.22-5.6-1.52-2.31-2.03-6.61-3.83-7.13-3.93-1.15-8.45-.81-12.62-.27-.98.13-2.08,3.42-2.19,5.32-.42,7.17-5.88,10.79-12.31,7.67-.96-.47-1.83-2.19-1.86-3.36-.17-6.7-.01-13.41-.08-20.12-.03-3.41,1.93-3.92,4.75-3.89,7.11.08,14.23.09,21.34-.04,8.62-.16,13.38-4.4,13.87-12.13.47-7.54-3.99-12.51-12.36-13.76-12.45-1.86-13.26-1.18-13.48,11.33-.02,1.02.14,2.07-.07,3.04-.58,2.76,1.98,7.11-3.45,7.54-4.97.39-9.67-1.27-10.14-6.52-.79-8.87-.45-17.86-.16-26.78.03-1.04,2.74-2.79,4.25-2.84,8.12-.27,16.31-.71,24.37.05,9.89.93,19.07,4.75,22.9,14.67,4.39,11.37,4.08,22.63-5.1,32.35-1.39,1.47-1.91,4.66-1.46,6.75.92,4.31,2.78,8.41,4.73,13.96Z"/><path class="cls-1" d="m418.25,275.38c-.22,1.7-.48,2.87-.52,4.05q-.28,8.25,8.22,8.26c5.07,0,10.16.08,15.22-.15,3.57-.16,5,1,5.13,4.81.32,9.85.5,9.83-9.16,9.78-4.87-.03-9.75.12-14.61-.05-5.48-.19-4.74,3.49-4.83,7-.09,3.69.3,6.26,5.12,6.01,6.28-.33,12.6-.31,18.87.1,2.64.17,6.26,1.01,7.52,2.85,1.72,2.53,1.97,6.3,1.99,9.54,0,.61-4.04,1.74-6.23,1.77-11.77.18-23.55-.05-35.32.18-4.54.09-6.54-1.07-6.47-6.09.24-19.08.18-38.16.04-57.24-.03-4.17,1.3-5.7,5.63-5.6,11.77.26,23.55-.05,35.32.19,2.87.06,7.4-2.17,7.64,3.9.22,5.75-2.64,9.91-7.99,10.18-6.07.32-12.18.08-18.27.15-2.38.03-4.76.23-7.28.37Z"/><path class="cls-1" d="m178.29,291.32c-4.93,7.1-9.85,14.19-15.42,22.21-2.92-4.12-5.34-7.47-7.69-10.87-7.15-10.34-14.55-20.52-21.19-31.18-1.65-2.65-2.03-7.44-.75-10.2,1.2-2.56,9.78-.08,12.06,3.15,5.59,7.94,11.12,15.94,17.32,24.85,4.01-5.5,7.65-10.44,11.24-15.42,1.78-2.47,3.84-4.81,5.16-7.51,3.22-6.58,8.46-6.44,14.58-5.02.18,1.48.49,2.85.5,4.22.02,19.3-.23,38.6.13,57.89.12,6.49-3.76,5.22-7.49,5.4-4.1.2-7.01-.11-6.8-5.66.39-10.46.11-20.94.11-31.42l-1.77-.45Z"/><path class="cls-1" d="m20.53,314.54c8.13,0,15.02-.2,21.89.09,2.92.13,7.44-2.26,7.94,3.61.45,5.3-2.97,9.85-8.16,10.12-5.67.3-11.37.13-17.05.15-6.5.02-13.01-.23-19.49.08-4.89.24-6.45-2.14-5.31-6.22,1.01-3.64,2.67-7.18,4.54-10.48,6.75-11.95,13.7-23.78,21.25-36.81-7.59,0-14.04-.32-20.44.1-5.69.37-5.67-2.97-5.49-6.89.17-3.67-1.21-7.89,5.27-7.74,13.57.31,27.16.09,42.53.09-1.25,3.98-1.72,7.26-3.23,9.96-7.1,12.75-14.5,25.34-21.74,38.02-.91,1.59-1.45,3.38-2.52,5.94Z"/><path class="cls-1" d="m202.66,327.52c2.22-7.6,4.22-14.79,6.41-21.92,4.23-13.76,8.43-27.53,13.03-41.16.6-1.78,3.46-3.83,5.39-3.95,12.66-.82,12.98-.79,17.76,10.68,7.7,18.49,14.95,37.16,22.38,55.76-9.1,3.56-14,1.64-17.36-6.56-5.74-14.03-11.37-28.09-17.73-43.84-3.59,11.59-6.68,21.56-9.76,31.53-1.14,3.68-2.15,7.4-3.43,11.03-3.36,9.49-5.8,10.76-16.69,8.43Z"/><path class="cls-1" d="m86.46,277.38c-4.6,15.19-8.57,28.8-12.87,42.3-2.78,8.74-6.46,10.39-16.22,7.66,1.38-5.01,2.64-10.07,4.16-15.06,4.77-15.71,9.51-31.44,14.63-47.04.6-1.82,3.42-3.94,5.37-4.11,13.13-1.16,13.26-1.06,18.22,11.03,6.69,16.31,13.19,32.71,19.72,49.09.8,2,1.24,4.14,1.86,6.22-10.43,2.48-13.4,1.17-17.12-7.74-5.23-12.53-10.27-25.14-15.42-37.71-.43-1.06-1.02-2.06-2.33-4.65Z"/><path class="cls-1" d="m340.61,262.1h13.56c0,5.22.43,10.08-.11,14.82-.66,5.85,1.66,9.89,5.6,13.88,10.69,10.82,21.09,21.93,31.59,32.94,1.09,1.14,2.07,2.38,3.17,3.66-8.51,3.61-17.14,1.7-22.9-4.58-4.66-5.08-9.54-9.95-14.37-14.87-.51-.52-1.3-.78-3-1.75,0,5.13.72,9.64-.24,13.76-.71,3.07-3.01,6.81-5.66,8.17-5.41,2.77-8.18.53-8.19-5.61-.05-18.67-.01-37.34.03-56,0-1.37.31-2.73.51-4.42Z"/><path class="cls-1" d="m478.42,300.7c0-6.7-.32-13.42.11-20.09.32-5.05-1.69-6.56-6.31-6.07-2.01.21-4.08-.17-6.08.05-5.25.57-7.57-.93-7.54-6.92.03-5.92,1.83-7.67,7.64-7.49,13.18.39,26.39.05,39.58.24,2.17.03,6.23,1.36,6.19,1.84-.26,3.24-.4,7.59-2.47,9.31-2.59,2.15-6.99,2.84-10.61,2.85-4.75.02-6.42,1.4-6.33,6.27.24,13.8-.18,27.61.12,41.41.11,5.26-2.3,6.04-6.61,5.87-4.14-.16-8.23.64-7.79-5.94.47-7.07.11-14.2.12-21.31Z"/><path class="cls-1" d="m132.9,277.57c5.65,9.12,14.91,16.12,12.99,28.7-.66,4.35.05,8.89-.14,13.33-.28,6.51-4.49,10.13-10.75,9.1-1.27-.21-3.25-2.01-3.27-3.1-.19-15.56-.1-31.13-.03-46.7,0-.28.49-.57,1.2-1.34Z"/><path class="cls-1" d="m357.76,282.48c6.13-6.51,11.29-14,18.31-18.7,4.52-3.02,11.79-1.91,17.82-2.65.23.54.47,1.09.7,1.63-.98,1.33-1.84,2.78-2.96,3.98-5.37,5.78-10.76,11.54-16.24,17.21-6.47,6.69-10.92,6.47-17.65-1.47Z"/><path class="cls-1" d="m87.95,357.74H.39c0-.33,0-.66,0-.99h87.67l-.12.99Z"/><path class="cls-1" d="m313.73,353.73c0-.6.05-1.21,0-1.81-.49-4.97-.02-8.76,6.74-7.96,5.31.63,8.8,1.92,6.55,8.24-.17.49.22,1.16.16,1.72-.29,2.7.19,7.07-1.16,7.75-2.96,1.49-7.43,2.35-10.19,1.08-1.91-.88-2-5.73-2.9-8.81.27-.07.54-.15.8-.22Zm6.54,7.61c.95.48,1.9.97,2.85,1.45.73-1.74,2.42-3.85,1.93-5.11-.57-1.47-2.98-2.8-4.74-3.02-1.04-.13-2.36,2.02-3.56,3.14,1.17,1.18,2.34,2.36,3.51,3.54Zm4.47-10.96c.04-.56.08-1.12.12-1.68-1.42-.66-2.87-1.9-4.24-1.82-1.3.08-2.51,1.54-3.76,2.39,1.11.8,2.16,2.15,3.34,2.27,1.46.15,3.02-.73,4.54-1.16Z"/><path class="cls-1" d="m133.04,353.44h7.01c2.2,5.29.5,8.53-4.94,9.97-5.28,1.4-10.58-1.54-11.93-6.61-1.44-5.39,1.27-11.24,5.79-12.52,5.42-1.54,9.27.33,10.68,5.79-4.46-2.36-9.35-7.06-12.58-.23-1.19,2.52-.24,7.49,1.65,9.67,2.64,3.04,6.37,1.45,9.79-1.87-2.49-1.22-4.13-2.02-5.77-2.83.1-.46.2-.91.29-1.37Z"/><path class="cls-1" d="m203.98,353.86c-.09,5.5-4.33,9.99-9.36,9.92-5.16-.07-9.1-4.51-9.02-10.14.09-6.1,3.55-9.75,9.23-9.73,5.26.02,9.25,4.36,9.15,9.95Zm-2.15,1.41c-1.24-5.26-2.45-8.7-7.11-8.69-4.22.02-5.76,3.02-6,6.88-.27,4.35,1.79,7.63,6.01,7.15,2.54-.29,4.74-3.46,7.1-5.34Z"/><path class="cls-1" d="m172.5,353.86c.05,5.33-4.32,10.02-9.29,9.95-4.9-.07-9.26-4.87-9.23-10.16.02-5.55,4.04-9.72,9.39-9.72,5.24,0,9.07,4.16,9.13,9.94Zm-15.76,1.94c1.73,1.36,3.96,4.51,6.57,4.86,4.57.62,6.03-3.38,5.91-7.28-.12-3.64-1.6-6.89-6.02-6.81-4.72.08-5.68,3.65-6.46,9.23Z"/><path class="cls-1" d="m218.2,353.07c.89-3.35-2.71-9.62,5.79-9.12,7.31.42,10.38,2.94,10.35,9.63-.03,6.95-3.4,10.08-10.73,9.93-5.41-.11-5.46-.19-5.41-10.43Zm14.36,2.66c-1.39-5.35-2.22-8.7-7.1-9.05-4.64-.33-4.4,2.89-3.92,5.6.52,2.96-2.79,8.38,3.6,8.07,2.54-.12,4.95-3,7.41-4.62Z"/><path class="cls-1" d="m370.1,355.85c7.06,6.04,7.7,6.12,12.54,1.74-2.05-1.13-3.77-2.33-5.67-3.05-3.09-1.16-6.85-2-5.82-6.23.42-1.73,3.08-3.67,5.04-4.11,3.62-.81,7.24-.19,8.45,5.04-3.83-.01-7.36-6.03-11.52.41,2.09.83,3.74,1.61,5.47,2.14,3.38,1.04,7.54,2.18,6.38,6.43-.63,2.3-4.23,4.82-6.84,5.3-4.05.74-7.05-1.7-8.03-7.68Z"/><path class="cls-1" d="m342.53,344.35h12.46c.08.5.17,1,.25,1.5-1.87.28-3.81.31-5.57.9-1.45.48-2.68,1.62-4.01,2.47,1.34.83,2.59,1.93,4.05,2.41,1.54.51,3.27.43,4.95,2.02-1.41.25-2.94.23-4.21.8-1.72.77-3.24,1.97-4.85,2.99,1.55,1.06,2.98,2.45,4.69,3.08,1.67.61,3.62.44,5.45.62-.03.72-.06,1.44-.08,2.15-3.63,0-7.3.24-10.88-.17-.87-.1-2.07-2.31-2.14-3.6-.25-4.82-.1-9.67-.1-15.18Z"/><path class="cls-1" d="m272.42,363.16c-2.42-5.99-4.84-11.97-7.26-17.96.66-.31,1.33-.62,1.99-.92,2.01,4.26,4.01,8.53,6.4,13.59,2.46-5.02,4.57-9.3,6.67-13.57.66.3,1.31.61,1.97.91-2.39,6.05-4.78,12.1-7.17,18.15-.86-.07-1.73-.14-2.59-.21Z"/><path class="cls-1" d="m505.74,358.24h-82.21c0-.21,0-.43,0-.64h82.21c0,.21,0,.43,0,.64Z"/><path class="cls-1" d="m297.86,344.79v17.94l-1.32.08v-17.92c.44-.03.88-.07,1.32-.1Z"/></svg>