<?xml version="1.0" encoding="UTF-8"?><svg id="Capa_1" xmlns="http://www.w3.org/2000/svg" viewBox="0 0 512 512"><defs><style>.cls-1{fill:#fff;}</style></defs><path class="cls-1" d="m276.09,199.17c0-.35,0-.71,0-1.06-.15-.2-.3-.41-.45-.61.92-5.11.46-10.39,2.19-15.44.95-2.78,2.7-5.13,3.51-7.93.23-.32.46-.63.68-.95,2.33-2.79,4.74-5.57,7.77-7.55,5.5-3.58,11.62-4.3,17.91-2.65,3.56.93,7.24,1.52,10.37,3.85,5.88,4.37,8.28,10.67,10.15,17.32.69,2.45.53,4.98.6,7.49.04,1.46-.37,2.06-1.93,1.84-1.8-.25-3.63-.27-5.36.49-.49-.06-.98-.12-1.47-.17-1.18-2.78-1.34-5.81-1.92-8.72-.52-2.66-1.34-5.09-2.83-7.32-.32-1.08-1.09-1.74-2.07-2.21-.23-.02-.45-.05-.68-.07v-.18s-.17-.08-.17-.08c-.26-.45-.69-.62-1.18-.69v-.03c-4.83-2.72-9.69-4.5-15.21-1.59-1.54.81-1.31,2.59-2.64,3.31-2.22-.15-2.6,1.58-3.19,3.11-.58.33-.56.88-.52,1.44-.95.66-1.47,1.59-1.89,2.65-1.22,3.08-1.49,6.26-1.28,9.52-.07.16-.07.31.02.47-.01.18-.03.36-.04.54-.87,4.71-.25,9.39.27,14.07.14,1.26.44,2.51.67,3.76.21,1.02.43,2.03.64,3.05.09,1.07-.1,2.19.62,3.14-.01.58-.12,1.18.37,1.65.59,2.8,1.72,5.43,2.55,8.15,3.45,11.31,6.75,22.65,9.21,34.25,1.64,7.69,1.04,15.34.59,22.98-.21,3.55-.49,7.2-1.24,10.74-.27.52-.54,1.04-.81,1.56-.02.36-.04.71-.06,1.07-1.02.73-.7,1.97-1.11,2.94-1.47,3.23-2.75,6.57-4.84,9.48-4.94,5.4-9.33,11.34-15.46,15.56-.26-.23-.49-.16-.7.08-1.73.88-3.47,1.76-5.2,2.65-2.34.7-4.77,1.16-6.85,2.55-1.03.09-2.05.18-3.08.27-4.71.18-9.38-.14-14.01-.97-5.72-1-11.29-2.43-16.1-5.88-3-2.16-5.96-4.39-8.93-6.58-5.36-5.42-10.49-10.99-13.8-18-1.88-3.97-2.01-3.91,1.22-6.52.27-.27.53-.53.79-.8.68.08,1.02-.37,1.34-.86.4-.4.8-.79,1.2-1.19.15-.1.29-.2.43-.3,1.46.3,1.81,1.81,2.84,2.58.4.61.81,1.22,1.21,1.84.53.99.97,2.05,1.62,2.95.69.95.61,2.71,2.46,2.52l.04.02c-1.2.31-.48.9-.2,1.42.33.52.66,1.05.99,1.57,1.28,1.91,2.63,3.76,4.41,5.25.14.14.27.27.41.41,2.89,2.84,5.88,5.55,9.68,7.15l.19.06.15-.12.2.12.23-.05c0,1.41,1.11,1.47,2.07,1.73,4.95,2.63,10.17,4.19,15.83,4.06,1.39,0,2.78-.01,4.17-.02,1.03.15,1.95-.03,2.68-.84.5-.05,1-.1,1.5-.14,3.74-.27,6.48-2.61,9.37-4.62,4.13-2.87,8.2-5.81,10.53-10.49.84-.55,1.27-1.29,1.15-2.31,3.54-4.58,4.86-9.98,5.7-15.56.67-4.48-.03-9.02.54-13.48.78-6.09-.13-11.94-1.64-17.78-.75-2.42-1.51-4.84-2.26-7.26.01-1.78-1.13-3.18-1.49-4.89-1.28-6.11-2.93-12.14-6.12-17.61-.02-.32-.05-.64-.07-.95-.19-.2-.37-.4-.56-.6,0,0,.09-.03.09-.03-.1-.53.07-1.13-.44-1.54-.07-.5-.14-1.01-.22-1.51-.16-.19-.31-.38-.47-.57l.08-.03c.25-1.28-.59-2.35-.67-3.57-.18-1.39-.35-2.78-.53-4.18-.77-5.02-1.37-10.05-1.56-15.13Z"/><path class="cls-1" d="m66.98,273.16c-.19-15.62-.39-31.24-.58-46.86,0-1.39,0-2.78,0-4.17.14-2.65-1.29-3.41-3.75-3.75-5.03-.69-10.02-.56-15.02.02-.71-.19-1.41-.2-2.08.12-1.39.07-2.78.14-4.17.2-.53.04-1.06.09-1.58.13-1.68.33-3.82-.88-4.88,1.47l-.09.05c-1.36.44-1.55,1.63-1.79,2.79-.59,1.37-1.18,2.75-1.76,4.12-4.37,9.87-8.43,19.88-13.75,29.34-2.64,4.69-4.49,9.83-6.58,14.82-.7,1.66-1.59,2.51-3.48,2.33-1.9-.17-3.82-.09-5.72-.16-1.68-.06-2.17-.77-1.31-2.33,3.75-6.73,6.14-14.11,9.87-20.86,1.07-1.93,2.02-3.97,2.42-6.18.92-.49,1.4-1.26,1.5-2.29.08-.1.13-.21.13-.34.55-.62.5-1.41.64-2.15,2.35-4.75,4.38-9.64,6.09-14.65v.02c.92-1.04,1.8-2.09,1.52-3.63.62-.2.85-.58.54-1.2.2-.49.39-.97.59-1.46.23-.34.52-.66.69-1.03,1.44-3.11,2.57-6.4,4.35-9.3,2.15-3.53,4.16-7.15,6.1-10.79.94-1.77,2.07-3.63,1.81-5.84l.53-.8c.04-.1.04-.2,0-.3.17-.24.33-.49.5-.73.05-.11.07-.23.05-.36.55-1.02,1.1-2.04,1.65-3.06,1.35-2.14,2.21-4.5,3.05-6.87,1.56-4.39,1.54-4.27,6.27-4.49,7.91-.36,15.67,1.47,23.55,1.42,1.12,0,2.44.13,3.4,1.03,1.17,5.64,1.06,11.28.77,17.03-.41,7.98-.8,16.03.53,24,0,2.43,0,4.87,0,7.3-.06.52-.12,1.04-.18,1.55-.84.96-.37,2.08-.39,3.15.64,8.8-.04,17.61.08,26.41.04,3.2-.08,6.4-.13,9.6,0,.35-.02.69-.03,1.04-.05.67-.09,1.35-.13,2.02-.18,1.17-.36,2.34-.54,3.52-2.88.47-5.77.39-8.66.08v.02Zm-.5-76.43c.15,0,.3,0,.45,0,0-2.52.03-5.04,0-7.56-.04-2.76-1.2-4-3.97-4.04-3.04-.04-6.09.17-9.13.06-2.25-.08-3.48.86-4.38,2.88-2.46,5.46-4.68,11.04-7.55,16.32-1.97,3.62-.82,5.4,3.36,5.21,5.64-.26,11.27-.81,16.93-.65,3.21.09,4.2-.87,4.28-4.13.07-2.69.01-5.39.01-8.09Z"/><path class="cls-1" d="m501.96,267.22c-.05,1.59,1.02,2.73,1.68,4.01.74,1.44.31,2.1-1.13,2.34-1.44.24-2.9.41-4.34.63-2.33.35-3.94-.29-4.85-2.72-.81-2.17-1.73-4.33-3.18-6.2.02-.53.01-1.06-.37-1.49-.89-1.9-1.79-3.81-2.68-5.71-1.98-4.07-3.64-8.3-6.22-12.06-.17-.35-.34-.69-.51-1.04-1.28-2.75-2.56-5.5-3.84-8.25.03-1.35-.24-2.56-1.52-3.31-.33-3.16-2.3-5.72-3.14-8.7-.5-1.82-.95-3.66-2.53-4.91-3.59-1.37-7.35-1.3-11.1-1.32-.49-.25-1-.27-1.52-.09-5.18-.77-10.39-.58-15.58-.37-2.55.1-3.34,1.51-3.25,4.61,0,2.61,0,5.22,0,7.83-.2,13.12-.4,26.25-.59,39.37-.05,3.33-.21,3.53-3.59,3.51-6.2-.03-4.93.41-5.57-5.1-.29-2.49-.21-5.03-.25-7.55-.18-14.6-.35-29.2-.52-43.8,0-.35.02-.69.02-1.04.08-4.49,1.35-8.9.99-13.43-.13-1.63-.06-3.31-.92-4.8.07.01.14.02.21.02-.08-.14-.17-.29-.25-.43.05-4.86.12-9.72.12-14.58,0-1.14.19-2.22.49-3.3.6-1.05.47-2.6,2.03-3,8.39.31,16.65-1.78,25.05-1.35,1.72.09,3.46-.06,5.06.78,1.85,2.92,2.19,6.5,4.16,9.36,1.56,4.28,3.13,8.55,5.31,12.57,4.18,7.62,8.15,15.35,11.55,23.37.76,3.57,2.82,6.59,4.18,9.91,1.99,5.95,4.67,11.6,7.49,17.18,2.36,5.07,4.7,10.14,7.08,15.21.61,1.31.75,2.87,2.02,3.84Zm-64.61-70.15c.15,0,.3,0,.45,0,0,2.87-.03,5.73.01,8.6.03,2.03.94,3.35,3.15,3.27,6.26-.21,12.49.42,18.74.66,3.07.12,4.44-1.86,3-4.54-3.06-5.67-5.43-11.64-8.12-17.48-.65-1.41-1.6-2.19-3.19-2.22-3.39-.06-6.77-.26-10.16-.22-2.78.03-3.84,1.25-3.87,4.1-.03,2.6,0,5.21,0,7.81Z"/><path class="cls-1" d="m106.04,178.27c.02,24.25.06,48.51.06,72.76,0,11.21-.11,22.43-.12,33.64,0,4.28.94,5.16,5.22,5.25,11.21.25,22.41-.86,33.62-.3,10.08.5,20.16-.23,30.24-.06,3.83.06,7.64.31,11.45.63,1.81.15,2.47.99,2.15,2.72-.06.34-.08.69-.1,1.04q-.33,5.88-6.4,5.9c-26.25,0-52.5-.02-78.75,0-1.58,0-3.12-.16-4.63-.6-1.73-.91-2.33-2.32-2.26-4.27.17-4.64.19-9.29.27-13.94,0-.17-.06-.33-.18-.46-.02-14.67-.03-29.33-.07-44,0-1.84-.17-3.67-.26-5.51.15-.35.31-.7.46-1.05.68-5.86.7-11.76.1-17.6-.2-1.93.01-4.16-1.29-5.94,0-.37,0-.75.01-1.12.16-.34,1.21-.61.07-1.04,1.33-3.61.62-7.38.81-11.07.25-4.93.11-9.88.14-14.83,3.15-.05,6.3-.09,9.44-.14Z"/><path class="cls-1" d="m136.36,268.57c-.01,1.22-.03,2.44-.04,3.66-.05.17-.1.35-.15.52-2.56.74-5.17.28-7.76.38-1.32.05-1.44-.92-1.45-1.97-.03-2.43-.11-4.86-.17-7.29-.05-2.43-.09-4.87-.14-7.3-.02-.34-.03-.69-.05-1.03.27-3.32-.24-6.62-.36-9.93-.02-.87-.04-1.74-.05-2.61v-4.54c.14-4.07.28-8.14.42-12.2.03-.3.06-.59.09-.89.02-.73.03-1.47.05-2.2,0-.34.02-.69.03-1.03.05-9.27.26-18.53.06-27.79-.06-2.64-.43-5.31-.44-7.99,0-2.15-.2-4.32.68-6.37,0,0-.05-.05-.05-.05.52-.19.64-.57.53-1.07l.03.1c.6-.15.85-.61,1.04-1.13.13-.31.27-.63.4-.94.2-.22.41-.44.61-.66.48-.03.96-.05,1.44-.08,9.86-.51,19.72-.67,29.59-.73,5.72-.03,11.41.49,17.11.71,1.12.04,2.25-.02,3.38-.03,1.05.01,2.09.03,3.14.04,2.85.05,5.69.18,8.54.13,1.7-.03,2.37.68,2.28,2.3,0,.09,0,.17,0,.26.17,8.4.23,7.16-6.65,7.35-.53,0-1.05-.02-1.58-.02-.53,0-1.07-.02-1.6-.03-1.21-.77-2.44-1.36-3.72-.13-4.27-1.23-8.64-.79-12.98-.73-.5-.03-1.01-.05-1.52-.08-.7,0-1.39,0-2.09,0-.19,0-.37-.02-.56-.02-8.29-.57-16.55.65-24.84.5-1.26-.02-2.65.27-3.01,1.91-.76,6.12-.07,12.25-.19,18.38-.03,1.71,1.42,2.5,3.05,2.58,1.73.09,3.46.05,5.19.06.52.03,1.04.05,1.57.08,1.2.11,2.4.31,3.61.31,5.88.04,11.77.02,17.65.03,1.04,0,2.3-.09,2.24,1.43-.1,2.84.34,5.72-.6,8.49,0,0,.03-.03.03-.03-.69.05-1.37.1-2.06.15-8.89-.11-17.77-.21-26.66-.32-1.75-.02-3.29.27-3.74,2.33-.35.68-.3,1.38-.11,2.08.03,4.49.07,8.99.1,13.48-.52,4.89-.36,9.8-.3,14.7,0,1.21-.02,2.43-.02,3.64.05,1.74.1,3.48.15,5.21,0,.53,0,1.06,0,1.59-.05,2.26-.1,4.51-.15,6.77Z"/><path class="cls-1" d="m397.72,232.56c.02-5.22.77-10.47-.51-15.66.06-.5.13-1,.19-1.5,3.11-1.55,6.46-.78,9.71-1.07.13.07.26.12.4.15.59.94.52,1.99.52,3.02,0,5.88-.04,11.76-.46,17.64-.8,11.32.48,22.66.02,33.98-.04,1.12.56,2.51-1,3.18-.71-.14-1.35.23-2.02.3-2.15.22-4.33.51-6.02-1.41-2-2.26-4.08-4.45-6.09-6.71-3.38-3.79-6.53-7.82-10.88-10.63-.33-.33-.65-.66-.98-.99-.08-.66-.44-1.04-1.1-1.12-2.58-3.83-6.24-6.53-9.75-9.38,0,0-.06.05-.06.05.02-.17,0-.33-.06-.49-2.41-2.65-4.44-5.66-7.38-7.81-2.72-.88-3.74-.33-3.77,2.3-.07,4.86.3,9.7,1.03,14.51.04.84.08,1.68.11,2.52-.02,4.77-.14,9.54-.02,14.3.06,2.52-.76,3.86-3.38,4.24-5.87.84-6.36.24-6.32-5.65.09-13.34.03-26.68-.71-40.01-.04-1.03-.07-2.06-.11-3.09.24-2.64-.14-5.25-.33-7.88.3-.31.61-.61.92-.92,5.99-1.19,10.15,1.21,13.53,6.15,1.72,2.52,4.49,4.3,6.66,6.54,5.11,5.28,10.14,10.63,15.21,15.95,1.41,1.4,2.83,2.79,4.24,4.19,0,0-.02-.01-.02-.01.04.16.08.32.14.47.21.62.58,1.05,1.27,1.12l.04.05c.51,1.4,1.76,2.15,2.74,3.13,1.51,1.32,2.87,1.76,3.79-.61.81-1.15.56-2.42.43-3.68-.04-.87-.08-1.73-.12-2.6-.01-1.57-.02-3.14-.03-4.71.06-2.61.11-5.21.17-7.82Z"/><path class="cls-1" d="m214.21,247.08c.27,7.11.8,14.21.41,21.35-.13,2.39-1.03,3.15-3.32,3.14-6.08-.03-6.07.04-6.05-6.08.03-6.6.23-13.21,0-19.81-.2-5.43.1-10.88-.67-16.28.04-.16.04-.32,0-.48.29-3.82-.14-7.62-.45-11.42-.19-2.28,1.02-3.08,3.05-3.22,3.51-.24,6.36.67,8.76,3.58,2.85,3.45,6.1,6.59,9.36,9.67,4.6,4.36,8.48,9.39,12.95,13.86,2.39,2.4,5.02,4.58,7.53,6.86.45,1.09,1.08,2.02,2.21,2.52.74,1.76,2.28,2.37,3.91,2.02,1.52-.33,1.92-1.86,1.86-3.3-.09-2.19.73-4.45-.45-6.57-.05-.5-.11-.99-.16-1.49-.04-6.95-.07-13.91-.11-20.86,0-.35,0-.71.01-1.06.05-.78.16-1.55.15-2.33-.02-1.49.61-2.28,2.15-2.26.43,0,.86-.03,1.3-.05q5.43-.18,6.53,5.15c.02.36.03.71.05,1.07-1.09,13.61.19,27.23-.2,40.84-.07,2.6-.21,5.2-.32,7.8-.07,1.75-.97,2.61-2.71,2.86-2.96.42-5.39.11-7.63-2.42-5.1-5.76-10.55-11.2-15.87-16.78,0,0,0,.01,0,.01-.14-.67-.54-1.15-1.09-1.52-3.12-3.92-7.39-6.6-10.9-10.09-.34-.34-.67-.68-1.01-1.02-1.58-1.74-3.15-3.48-4.73-5.22-.94-1.59-2.48-1.98-3.91-1.2-1.52.83-1.68,2.63-1.25,4.14.43,1.53.6,3.02.54,4.57-.84,1.35-.9,2.69.04,4.02Z"/><path class="cls-1" d="m189.92,256.02c-.33,1.08-.63,2.16-.99,3.22-2.83,8.36-9.58,13.11-18.02,14.15-7.41.92-12.84-2.53-17.03-7.34-4.63-5.32-5.37-12.31-3.44-19.2,1.8-6.46,5.82-10.97,12.41-13.01,1.24-.39,2.64.29,3.72-.72,1.38-.14,2.76-.27,4.15-.41.71,0,1.42-.01,2.12-.02,1.89.5,3.78,1,5.67,1.5.69.35,1.38.71,2.07,1.06,2.25,1.23,3.42,3.55,5.24,5.21.16.16.31.32.47.47.83,1.41,1.67,2.82,2.5,4.23.4,1.88.8,3.76,1.21,5.64-.03,1.73-.06,3.47-.09,5.2Zm-8.73-3.42c.24-8.13-4.07-10.94-11.52-11.59-6.61-.58-11.74,4.62-11.99,11.29-.25,6.72,4.51,13.14,9.93,13.11,8.37-.05,13.5-4.3,13.58-12.81Z"/><path class="cls-1" d="m329.15,233.46c-1.18,8.78.41,18.94.1,29.1-.08,2.78-.33,5.55-.51,8.32-.04.62-.12,1.2-.67,1.62-.67.5-6.98.79-7.69.26-.31-.24-.56-.66-.66-1.04-.13-.49-.11-1.04-.09-1.55.62-17.9-.64-35.8-.21-53.7.06-2.55.85-3.29,3.31-3.19,7.45.28,6.1-.6,6.38,6.29.17,4.16.03,8.34.03,13.9Z"/></svg>