<?xml version="1.0" encoding="UTF-8"?><svg id="Capa_1" xmlns="http://www.w3.org/2000/svg" viewBox="0 0 512 512"><defs><style>.cls-1{fill:#fff;}</style></defs><g><path class="cls-1" d="m34.48,179.82c18.08,0,23.75,7.31,20.96,23.08-.58,3.27-2.69,9.62-7.31,13.94,3.56,1.83,5.58,6.64,4.52,12.6-2.02,11.92-8.37,17.69-26.44,17.69H2.46c-1.83,0-2.69-1.06-2.4-2.88l10.87-61.45c.29-1.92,1.44-2.88,3.37-2.98h20.19Zm-7.12,53.66c4.62,0,7.02-.48,7.79-5s-1.15-5.19-5.77-5.19h-6.25c-1.83,0-3.08.96-3.46,2.88l-.77,4.42c-.29,1.92.58,2.88,2.4,2.88h6.06Zm3.46-24.04c4.62,0,7.02-.58,8.08-6.54,1.06-5.96-1.15-6.54-5.77-6.54h-5.19c-1.83,0-3.08.96-3.37,2.88l-1.35,7.31c-.29,1.92.58,2.88,2.4,2.88h5.19Z"/><path class="cls-1" d="m111.02,179.82c1.92,0,2.79.96,2.4,2.88l-1.92,10.77c-.29,1.83-1.44,2.88-3.37,2.88h-23.27c-1.83,0-3.08.96-3.37,2.88l-.58,3.08c-.29,1.83.58,2.88,2.4,2.88h14.9c1.92,0,2.69.96,2.4,2.88l-1.92,10.77c-.38,1.83-1.44,2.88-3.37,2.88h-14.9c-1.83,0-3.08.96-3.46,2.88l-.48,3.08c-.38,1.83.48,2.88,2.31,2.88h23.27c1.92,0,2.79.96,2.4,2.88l-1.92,10.77c-.29,1.92-1.44,2.88-3.37,2.88h-40.39c-1.83,0-2.69-1.06-2.4-2.88l10.87-61.54c.38-1.92,1.54-2.88,3.37-2.88h40.39Z"/><path class="cls-1" d="m134.97,179.82c1.92,0,2.79.96,2.4,2.88l-7.89,45c-.38,1.83.48,2.88,2.31,2.88h21.44c1.92,0,2.79.96,2.4,2.88l-1.92,10.77c-.29,1.92-1.44,2.88-3.37,2.88h-37.98c-1.83,0-2.69-1.06-2.4-2.88l10.87-61.54c.38-1.92,1.54-2.88,3.37-2.88h10.77Z"/><path class="cls-1" d="m184.68,179.82c1.92,0,2.79.96,2.4,2.88l-7.89,45c-.38,1.83.48,2.88,2.31,2.88h21.44c1.92,0,2.79.96,2.4,2.88l-1.92,10.77c-.29,1.92-1.44,2.88-3.37,2.88h-37.98c-1.83,0-2.69-1.06-2.4-2.88l10.87-61.54c.38-1.92,1.54-2.88,3.37-2.88h10.77Z"/><path class="cls-1" d="m256.13,243.86c-.38,2.12-1.54,3.27-3.46,3.27h-10.77c-1.83,0-2.69-.96-2.4-2.88l1.54-8.37c.29-1.92-.48-2.88-2.4-2.88h-8.27c-1.83,0-3.08.96-3.37,2.88l-1.54,8.37c-.29,1.92-1.44,2.88-3.37,2.88h-10.77c-1.83,0-2.69-1.15-2.31-3.27l7.21-40.77c2.12-12.12,6.35-25,27.98-25s21.25,12.89,19.14,25l-7.21,40.77Zm-9.33-40.77c.77-4.62.48-6.92-5.87-6.92s-7.4,2.31-8.17,6.92l-1.83,10.48c-.38,1.83.48,2.88,2.31,2.88h8.27c1.92-.1,3.08-1.06,3.46-2.98l1.83-10.39Z"/><path class="cls-1" d="m300.65,201.45c1.06-6.35,5.48-23.37,28.27-23.37,20.48,0,21.16,13.75,20.29,21.16-.19,1.35-1.25,2.4-2.6,2.69l-11.15,2.4c-2.02.38-3.37-.96-3.27-2.98.29-4.23-1.06-6.73-6.25-6.73-7.12,0-8.37,4.52-9.71,11.92l-2.4,13.85c-1.35,7.4-1.63,11.92,5.48,11.92,5.29,0,7.21-2.5,8.56-6.92.67-2.02,2.4-3.27,4.23-2.79l10.48,2.4c1.25.29,1.92,1.35,1.54,2.79-1.63,7.31-7.21,21.06-27.69,21.06-22.79,0-21.16-17.02-20-23.37l4.23-24.04Z"/><path class="cls-1" d="m372.86,179.82c1.92,0,2.79.96,2.4,2.88l-7.89,45c-.38,1.83.48,2.88,2.31,2.88h21.44c1.92,0,2.79.96,2.4,2.88l-1.92,10.77c-.29,1.92-1.44,2.88-3.37,2.88h-37.98c-1.83,0-2.69-1.06-2.4-2.88l10.87-61.54c.38-1.92,1.54-2.88,3.37-2.88h10.77Z"/><path class="cls-1" d="m444.31,243.86c-.38,2.12-1.54,3.27-3.46,3.27h-10.77c-1.83,0-2.69-.96-2.4-2.88l1.54-8.37c.29-1.92-.48-2.88-2.4-2.88h-8.27c-1.83,0-3.08.96-3.37,2.88l-1.54,8.37c-.29,1.92-1.44,2.88-3.37,2.88h-10.77c-1.83,0-2.69-1.15-2.31-3.27l7.21-40.77c2.12-12.12,6.35-25,27.98-25s21.25,12.89,19.14,25l-7.21,40.77Zm-9.33-40.77c.77-4.62.48-6.92-5.87-6.92s-7.4,2.31-8.17,6.92l-1.83,10.48c-.38,1.83.48,2.88,2.31,2.88h8.27c1.92-.1,3.08-1.06,3.46-2.98l1.83-10.39Z"/><path class="cls-1" d="m477.77,179.82c1.92,0,2.79.96,2.4,2.88l-6.63,37.69c-1.35,7.4-1.63,11.92,5.48,11.92s8.37-4.52,9.71-11.92l6.64-37.69c.38-1.92,1.54-2.88,3.37-2.88h10.77c1.92,0,2.79.96,2.4,2.88l-7.5,42.79c-1.15,6.35-5.48,23.37-28.27,23.37s-21.16-17.02-20-23.37l7.5-42.79c.38-1.92,1.54-2.88,3.37-2.88h10.77Z"/></g><g><path class="cls-1" d="m167.1,281.6c.19-1.28-.32-1.92-1.6-1.92h-8.95c-1.22,0-1.79-.7-1.6-1.92l1.28-7.16c.26-1.28,1.02-1.92,2.24-1.92h32.74c1.28,0,1.85.64,1.6,1.92l-1.28,7.16c-.19,1.22-.96,1.92-2.24,1.92h-8.95c-1.22,0-2.05.64-2.24,1.92l-5.31,29.93c-.19,1.22-.96,1.92-2.24,1.92h-7.16c-1.22,0-1.79-.7-1.6-1.92l5.31-29.93Z"/><path class="cls-1" d="m205.67,268.68c1.28,0,1.85.64,1.6,1.92l-4.41,25.07c-.9,4.92-1.09,7.93,3.65,7.93s5.56-3.01,6.46-7.93l4.41-25.07c.26-1.28,1.02-1.92,2.24-1.92h7.16c1.28,0,1.85.64,1.6,1.92l-4.99,28.46c-.77,4.22-3.65,15.54-18.8,15.54s-14.07-11.32-13.3-15.54l4.99-28.46c.26-1.28,1.02-1.92,2.24-1.92h7.16Z"/><path class="cls-1" d="m243.78,268.68c1.28,0,1.85.64,1.6,1.92l-5.24,29.93c-.26,1.22.32,1.92,1.53,1.92h14.26c1.28,0,1.85.64,1.6,1.92l-1.28,7.16c-.19,1.28-.96,1.92-2.24,1.92h-25.26c-1.22,0-1.79-.7-1.6-1.92l7.23-40.93c.26-1.28,1.02-1.92,2.24-1.92h7.16Z"/><path class="cls-1" d="m276.46,268.68c1.28,0,1.85.64,1.6,1.92l-4.41,25.07c-.9,4.92-1.09,7.93,3.65,7.93s5.56-3.01,6.46-7.93l4.41-25.07c.26-1.28,1.02-1.92,2.24-1.92h7.16c1.28,0,1.85.64,1.6,1.92l-4.99,28.46c-.77,4.22-3.65,15.54-18.8,15.54s-14.07-11.32-13.3-15.54l4.99-28.46c.26-1.28,1.02-1.92,2.24-1.92h7.16Z"/><path class="cls-1" d="m320.65,268.68c1.15,0,1.73.64,1.79,1.73l1.22,18.61c.06.64.58.64.77,0l7.87-18.61c.45-1.09,1.15-1.73,2.3-1.73h13.24c1.28,0,1.85.64,1.6,1.92l-7.23,40.93c-.19,1.22-.96,1.92-2.24,1.92h-7.16c-1.21,0-1.79-.7-1.6-1.92l4.48-25.2c.06-.45-.51-.51-.7-.06l-10.68,25.52c-.45,1.09-1.28,1.66-2.43,1.66h-4.22c-1.15,0-1.73-.58-1.79-1.66l-1.73-25.52c-.06-.45-.64-.38-.7.06l-4.48,25.2c-.19,1.22-.96,1.92-2.24,1.92h-7.16c-1.28,0-1.79-.7-1.6-1.92l7.23-40.93c.26-1.28.96-1.92,2.24-1.92h13.24Z"/></g></svg>